<svg width="16" height="17" viewBox="0 0 16 17" fill="none" xmlns="http://www.w3.org/2000/svg">
<path d="M10.6668 9.09967V11.8997C10.6668 14.233 9.7335 15.1663 7.40016 15.1663H4.60016C2.26683 15.1663 1.3335 14.233 1.3335 11.8997V9.09967C1.3335 6.76634 2.26683 5.83301 4.60016 5.83301H7.40016C9.7335 5.83301 10.6668 6.76634 10.6668 9.09967Z" stroke="#292D32" stroke-linecap="round" stroke-linejoin="round"/>
<path d="M14.6668 5.09967V7.89967C14.6668 10.233 13.7335 11.1663 11.4002 11.1663H10.6668V9.09967C10.6668 6.76634 9.7335 5.83301 7.40016 5.83301H5.3335V5.09967C5.3335 2.76634 6.26683 1.83301 8.60016 1.83301H11.4002C13.7335 1.83301 14.6668 2.76634 14.6668 5.09967Z" stroke="#292D32" stroke-linecap="round" stroke-linejoin="round"/>
</svg>
