<svg width="32" height="32" viewBox="0 0 32 32" fill="none" xmlns="http://www.w3.org/2000/svg">
<rect width="32" height="32" rx="16" fill="#388E3C"/>
<path d="M16.8333 15.2917H11.8333" stroke="white" stroke-width="1.5" stroke-linecap="round" stroke-linejoin="round"/>
<path d="M7.66666 15.2917V11.4417C7.66666 9.7417 9.04167 8.3667 10.7417 8.3667H15.425C17.125 8.3667 18.5 9.42503 18.5 11.125" stroke="white" stroke-width="1.5" stroke-linecap="round" stroke-linejoin="round"/>
<path d="M20.5666 16.1667C20.15 16.5667 19.95 17.1833 20.1167 17.8166C20.325 18.5916 21.0917 19.0833 21.8917 19.0833H22.6667V20.2917C22.6667 22.1333 21.175 23.625 19.3333 23.625H11C9.15833 23.625 7.66666 22.1333 7.66666 20.2917V14.4583C7.66666 12.6167 9.15833 11.125 11 11.125H19.3333C21.1667 11.125 22.6667 12.625 22.6667 14.4583V15.6666H21.7666C21.3 15.6666 20.875 15.85 20.5666 16.1667Z" stroke="white" stroke-width="1.5" stroke-linecap="round" stroke-linejoin="round"/>
<path d="M24.3334 16.5168V18.2334C24.3334 18.7001 23.95 19.0834 23.475 19.0834H21.8667C20.9667 19.0834 20.1417 18.4251 20.0667 17.5251C20.0167 17.0001 20.2167 16.5084 20.5667 16.1668C20.875 15.8501 21.3 15.6667 21.7667 15.6667H23.475C23.95 15.6667 24.3334 16.0501 24.3334 16.5168Z" stroke="white" stroke-width="1.5" stroke-linecap="round" stroke-linejoin="round"/>
</svg>
