<svg width="25" height="4" viewBox="0 0 25 4" fill="none" xmlns="http://www.w3.org/2000/svg">
<path d="M15.1366 2.5907C15.1333 2.5874 15.1333 2.5874 15.1333 2.5874L15.1366 2.5907Z" fill="black"/>
<path d="M18.5916 1.52484C18.4332 2.18154 17.8029 2.69304 17.1231 2.70294C16.7271 2.70954 16.3311 2.70624 15.9351 2.70624H15.8394C15.7602 2.94714 15.681 3.18474 15.6018 3.42234H14.8857C14.8923 3.39594 14.8956 3.37614 14.9022 3.35634C14.9649 3.15834 15.2652 2.33994 15.3972 1.96374C15.5391 1.96374 15.8823 1.96704 15.8955 1.96704C16.3872 1.96704 16.8789 1.96704 17.3673 1.96704C17.6016 1.96704 17.793 1.81194 17.8425 1.59084C17.8755 1.44564 17.7963 1.33344 17.6511 1.31694C17.6115 1.31364 17.5752 1.31364 17.5356 1.31364C16.9152 1.31364 16.2948 1.31364 15.6777 1.31364H15.5721C15.8196 1.05954 16.0539 0.818638 16.2948 0.571138H16.3674C16.8261 0.571138 17.2881 0.567837 17.7468 0.574437C17.8623 0.574437 17.9778 0.584338 18.09 0.614038C18.5025 0.719637 18.7005 1.08264 18.5916 1.52484Z" fill="#8B4B9F"/>
<path d="M20.232 0.564469C20.3244 0.590869 20.4036 0.663469 20.4531 0.742669C20.5125 0.841669 20.5356 0.95057 20.5653 1.06277C20.5983 1.18487 20.6247 1.31027 20.6577 1.43567C20.7171 1.68317 20.7798 1.93067 20.8425 2.17817C20.9415 2.57417 21.0405 2.97017 21.1362 3.36617C21.1395 3.37937 21.1428 3.39587 21.1461 3.41897H18.4104C18.6414 3.16817 18.8625 2.92727 19.0869 2.68307H20.0604C19.9713 2.34317 19.8855 2.00987 19.7931 1.66007C19.2453 2.25407 18.7041 2.83817 18.1629 3.42227H17.2686C17.2983 3.38927 17.3181 3.36287 17.3412 3.33977C18.0606 2.55437 18.7833 1.77227 19.4994 0.986869C19.5951 0.881269 19.6974 0.78227 19.8129 0.69977C19.9152 0.62717 20.034 0.55127 20.166 0.55127C20.1858 0.55457 20.2089 0.557869 20.232 0.564469Z" fill="#8B4B9F"/>
<path d="M20.8159 0.574219H21.7399C21.9016 0.957019 22.0633 1.33652 22.2316 1.72922C22.6342 1.33982 23.0269 0.957019 23.4229 0.574219H24.3238C24.3304 0.580819 24.337 0.590719 24.3436 0.597319C24.3205 0.613819 24.2908 0.627019 24.271 0.646819C23.644 1.24082 23.017 1.83482 22.3933 2.42882C22.3603 2.46182 22.3306 2.50472 22.3174 2.54762C22.2184 2.83802 22.126 3.12842 22.0303 3.41882H21.3076C21.3175 3.38582 21.3241 3.35942 21.334 3.32972C21.4198 3.06902 21.5023 2.80832 21.5914 2.54762C21.6112 2.49152 21.6079 2.44532 21.5848 2.39252C21.3373 1.81172 21.0931 1.23092 20.8456 0.646819C20.8357 0.630319 20.8291 0.607219 20.8159 0.574219Z" fill="#8B4B9F"/>
<path d="M12.8728 2.50817C12.8959 2.60057 13.0444 3.13188 13.1203 3.39917C13.1137 3.40577 13.1038 3.41237 13.0972 3.41897H10.3582C10.5892 3.16817 10.807 2.92727 11.0314 2.68307H12.0082C11.9191 2.33987 11.83 2.00657 11.7376 1.65677C11.1865 2.25077 10.6453 2.83817 10.1074 3.41897H9.21973C9.23623 3.39587 9.24613 3.37937 9.25933 3.36617C10.0249 2.53127 10.7905 1.69307 11.5594 0.861474C11.632 0.782274 11.7145 0.716274 11.8036 0.663474C11.9488 0.577674 12.1336 0.501774 12.2887 0.613974C12.4108 0.699774 12.4636 0.848274 12.4933 0.986874C12.5329 1.16837 12.5824 1.34657 12.6253 1.52807C12.7111 1.85477 12.7936 2.18147 12.8728 2.50817Z" fill="#500B75"/>
<path d="M4.1408 3.44527C3.9989 3.40237 3.9131 3.30337 3.8339 3.18127C3.5699 2.76547 3.296 2.35297 3.0287 1.94047C3.0122 1.91737 2.9957 1.89427 2.9726 1.86127C2.801 2.38927 2.6294 2.90407 2.4611 3.42217H1.7417C1.7483 3.39907 1.7516 3.37597 1.7582 3.35617C2.0189 2.55757 2.2796 1.75567 2.5469 0.95707C2.5766 0.86467 2.6327 0.772271 2.6987 0.702971C2.8835 0.504971 3.1607 0.53467 3.3092 0.76237C3.593 1.19467 3.8735 1.62697 4.154 2.05927C4.1672 2.08237 4.1837 2.10547 4.2068 2.13847C4.3817 1.60717 4.55 1.09237 4.7216 0.57427H5.441C5.4344 0.60397 5.4278 0.63037 5.4179 0.65677C5.1572 1.45207 4.8965 2.24737 4.6358 3.03937C4.6292 3.06247 4.6193 3.08887 4.6094 3.11197C4.55 3.26707 4.4543 3.38917 4.2926 3.44527H4.1408Z" fill="#500B75"/>
<path d="M0.652832 3.39914C0.725432 3.18794 0.798032 2.98004 0.867332 2.76884C1.10163 2.05934 1.33263 1.34984 1.56363 0.640337C1.57023 0.620537 1.57683 0.600737 1.58673 0.577637H2.30943C1.99593 1.53134 1.68573 2.47844 1.37553 3.43214H0.652832C0.652832 3.41894 0.652832 3.40904 0.652832 3.39914Z" fill="#500B75"/>
<path d="M8.63571 0.570801C8.38821 0.828201 8.15721 1.0691 7.92621 1.3133C7.73811 1.3133 7.55331 1.3133 7.36851 1.3133C7.00551 1.3133 6.64251 1.3133 6.27951 1.3133C6.15081 1.3133 6.09471 1.3793 6.10461 1.5179C6.14091 1.5245 6.18381 1.5377 6.22671 1.5377C6.59961 1.5377 6.97251 1.5344 7.34541 1.541C7.46751 1.5443 7.59291 1.5542 7.70841 1.5905C8.04501 1.6928 8.19681 1.9997 8.11101 2.3726C7.97241 2.9765 7.42461 3.4187 6.79101 3.4253C6.09141 3.4319 5.39181 3.4286 4.69221 3.4286C4.67901 3.4286 4.66911 3.4253 4.63281 3.4253C4.87371 3.1745 5.10471 2.9336 5.33571 2.6927C5.45451 2.6927 5.57661 2.6927 5.69541 2.6927C6.12441 2.6927 6.55341 2.696 6.98241 2.6894C7.07811 2.6894 7.17381 2.6564 7.26291 2.6234C7.30911 2.6069 7.35201 2.5607 7.37841 2.5145C7.43451 2.4254 7.40481 2.3462 7.30911 2.3099C7.24971 2.2901 7.18371 2.2802 7.12101 2.2802C6.73491 2.2769 6.34881 2.2802 5.96271 2.2769C5.86701 2.2769 5.77131 2.267 5.68221 2.2439C5.34891 2.1614 5.18061 1.8842 5.25651 1.5476C5.37201 1.0229 5.85711 0.6038 6.39831 0.5807C6.71511 0.5675 7.03521 0.5741 7.35531 0.5741C7.74471 0.5741 8.13741 0.5741 8.52681 0.5741C8.55651 0.5708 8.58621 0.570801 8.63571 0.570801Z" fill="#500B75"/>
<path d="M9.08095 3.42212H8.35495C8.58595 2.71592 8.81365 2.01962 9.04465 1.31342H8.08105C8.32525 1.05602 8.55625 0.818419 8.78725 0.574219H11.1798C10.9389 0.825019 10.7046 1.06592 10.4703 1.31012H9.77065C9.54295 2.01632 9.31195 2.71592 9.08095 3.42212Z" fill="#500B75"/>
<path d="M14.767 1.97722C14.7472 1.99042 14.7274 2.00362 14.7076 2.02012C14.1994 2.46562 13.6219 2.97712 13.1104 3.42592C12.8794 3.42592 12.5659 3.42592 12.3481 3.42592L13.9948 1.96732C13.975 1.93102 13.9585 1.90462 13.9453 1.87822C13.6945 1.43932 13.4437 1.00042 13.1962 0.561523H13.9684C13.9783 0.587923 13.9882 0.614324 14.0014 0.637424C14.239 1.05322 14.4799 1.47232 14.7175 1.88812C14.7307 1.91122 14.7439 1.93432 14.767 1.97722Z" fill="#FD6E66"/>
<path d="M15.8592 1.95731L14.2455 3.39941L14.2191 3.42251C13.9881 3.42581 13.6845 3.42251 13.4634 3.40601C14.0079 2.92751 14.5524 2.44571 15.0969 1.96391C14.8263 1.49201 14.559 1.02341 14.2917 0.558105H15.0639C15.0738 0.577905 15.0804 0.601006 15.0936 0.620806C15.3378 1.04981 15.5721 1.45571 15.813 1.88471C15.8262 1.90451 15.813 1.88801 15.8592 1.95731Z" fill="#FB6518"/>
</svg>
