<svg width="21" height="22" viewBox="0 0 21 22" fill="none" xmlns="http://www.w3.org/2000/svg">
<g clip-path="url(#clip0_131_8733)">
<path d="M17.261 2.69315C16.1536 1.43101 14.1519 0.889893 11.5912 0.889893H4.15912C3.90575 0.889854 3.66067 0.980227 3.46798 1.14476C3.27529 1.30929 3.14763 1.53718 3.10797 1.78743L0.0134016 21.4139C-0.0481084 21.801 0.251574 22.1514 0.643839 22.1514H5.23213L6.38445 14.8425L6.34869 15.0714C6.43078 14.5547 6.87263 14.1737 7.39587 14.1737H9.57621C13.8595 14.1737 17.2134 12.4339 18.1931 7.40112C18.2222 7.25228 18.2474 7.1074 18.2691 6.96587C18.1455 6.90038 18.1455 6.90038 18.2691 6.96587C18.5609 5.10571 18.2672 3.83951 17.261 2.69315Z" fill="#27346A"/>
<path d="M8.14011 6.29577C8.26551 6.23595 8.40273 6.20499 8.54167 6.20518H14.3683C15.0582 6.20518 15.7018 6.25008 16.2899 6.34473C16.4544 6.37099 16.6181 6.40231 16.7807 6.43866C17.0112 6.48953 17.2391 6.55178 17.4634 6.62518C17.7525 6.72173 18.0217 6.83418 18.2692 6.96587C18.5609 5.10499 18.2672 3.83951 17.261 2.69315C16.153 1.43101 14.1519 0.889893 11.5912 0.889893H4.15849C3.63518 0.889893 3.18999 1.27087 3.10797 1.78743L0.013402 21.4132C-0.048108 21.8009 0.251574 22.1509 0.643203 22.1509H5.23213L7.62283 6.99034C7.64636 6.84133 7.70573 6.70027 7.79583 6.57928C7.88594 6.45829 8.00408 6.361 8.14011 6.29577Z" fill="#27346A"/>
<path d="M18.1935 7.40108C17.2138 12.4331 13.86 14.1736 9.57667 14.1736H7.39569C6.87246 14.1736 6.43052 14.5547 6.34923 15.0713L4.91566 24.1591C4.8621 24.4978 5.12403 24.8047 5.46671 24.8047H9.33452C9.55608 24.8047 9.77035 24.7256 9.9388 24.5816C10.1072 24.4377 10.2188 24.2384 10.2534 24.0196L10.2911 23.8225L11.0201 19.2024L11.0671 18.9471C11.1017 18.7282 11.2132 18.5289 11.3817 18.385C11.5501 18.2411 11.7643 18.162 11.9859 18.1619H12.5647C16.3115 18.1619 19.2453 16.6397 20.1027 12.2374C20.4605 10.3977 20.2753 8.86166 19.3287 7.78277C19.0416 7.45599 18.685 7.18611 18.2696 6.96582C18.2471 7.10807 18.2227 7.25223 18.1935 7.40108Z" fill="#2790C3"/>
<path d="M17.2441 6.55705C17.0913 6.51245 16.9371 6.47296 16.7817 6.43864C16.619 6.40287 16.4553 6.37176 16.2909 6.34534C15.7021 6.25006 15.0591 6.20508 14.3685 6.20508H8.54259C8.40356 6.20485 8.26628 6.23606 8.14103 6.29639C8.00483 6.36139 7.88653 6.45861 7.79638 6.57964C7.70623 6.70067 7.64695 6.84185 7.62368 6.99096L6.38537 14.8425L6.34961 15.0713C6.43107 14.5547 6.87292 14.1736 7.39623 14.1736H9.57721C13.8605 14.1736 17.2143 12.4339 18.194 7.40111C18.2232 7.25226 18.2476 7.10802 18.2701 6.96585C18.0221 6.83499 17.7535 6.72164 17.4643 6.62579C17.3913 6.6016 17.318 6.57868 17.2442 6.55705" fill="#1F264F"/>
</g>
<defs>
<clipPath id="clip0_131_8733">
<rect width="20.35" height="20.35" fill="white" transform="translate(0 0.824951)"/>
</clipPath>
</defs>
</svg>
