<svg width="230" height="215" viewBox="0 0 230 215" fill="none" xmlns="http://www.w3.org/2000/svg">
<ellipse cx="121.795" cy="107.5" rx="108.205" ry="107.5" fill="#F5F4F5"/>
<g opacity="0.8">
<path fill-rule="evenodd" clip-rule="evenodd" d="M205.386 25.6155C203.9 25.9259 200.276 28.0352 196.574 30.7494C195.304 31.6807 195.831 32.6199 197.852 31.2031L200.446 29.3883C205.859 25.6075 208.468 25.1538 207.253 28.2341C205.719 32.1343 201.189 34.2357 193.539 34.6177C189.171 34.8326 185.493 34.2038 179.53 32.1741C178.531 31.8318 178.539 31.8876 179.383 31.3225C180.823 30.3594 182.573 28.7516 183.286 27.7486C184.749 25.6871 185.082 24.6525 182.968 26.8652C181.396 28.5049 179.917 29.7067 178.129 30.8131L177.3 31.3305L176.51 31.0041C170.245 28.473 165.77 28.5128 165.77 31.1076C165.77 34.0447 172.328 35.0236 176.913 32.7711L177.881 32.3015C178.175 32.3971 180.243 33.2646 184.974 34.5222C193.043 36.6633 202.529 35.3023 206.308 31.4658C209.305 28.4332 208.739 24.9151 205.386 25.6155ZM170.857 30.1127C172.305 30.3116 176.464 31.5135 176.464 31.7364C176.464 31.808 174.861 32.5085 174.264 32.6915C171.283 33.6148 166.784 32.994 166.784 31.6488C166.784 30.3833 168.395 29.7783 170.857 30.1127Z" fill="black"/>
</g>
<path d="M89.1869 19.6348L89.1907 25.0305L94.6218 25.0343L89.1907 25.0381L89.1869 30.4339L89.1831 25.0381L83.752 25.0343L89.1831 25.0305L89.1869 19.6348Z" fill="url(#paint0_linear_131_11924)"/>
<path d="M37.8019 149.224L37.8057 155.11L43.2368 155.114L37.8057 155.118L37.8019 161.004L37.798 155.118L32.3669 155.114L37.798 155.11L37.8019 149.224Z" fill="url(#paint1_linear_131_11924)"/>
<ellipse cx="221.107" cy="132.535" rx="4.94086" ry="4.90868" fill="url(#paint2_linear_131_11924)"/>
<path opacity="0.8" d="M7.29057 84.9429C5.89006 96.5603 6.42163 104.274 13.4511 103.472C17.2811 103.035 21.4399 105.476 21.0072 109.284V109.284C20.7584 111.474 22.082 113.542 24.1842 114.248L25.0715 114.546C25.9273 114.833 26.8378 114.92 27.7322 114.8L32.5179 114.16" stroke="black" stroke-linecap="round"/>
<g opacity="0.8" clip-path="url(#clip0_131_11924)">
<path fill-rule="evenodd" clip-rule="evenodd" d="M197.412 184.653C197.19 184.586 195.2 184.992 194.171 185.299C192.239 185.878 190.691 187.472 188.21 191.403C186.717 193.766 186.036 194.661 185.095 195.478C181.1 198.966 177.487 198.379 176.801 194.116L176.729 193.678L177.344 193.857C180.814 194.851 184.58 191.784 184.538 187.978C184.493 183.224 177.674 185.315 175.71 190.678L175.575 191.06C175.388 190.601 174.689 189.839 174.262 186.796C173.844 183.81 173.865 183.91 173.255 182.719C172.521 181.289 171.624 180.689 170.388 180.799C168.377 180.985 168.472 182.309 169.744 181.686C171.382 180.884 172.537 182.603 172.88 186.507C173.142 189.493 173.625 190.982 174.692 192.089L175.246 192.673L175.19 193.146C174.464 199.003 180.907 200.458 186.233 195.661C187.647 194.389 187.889 194.072 190.001 190.715C192.321 187.037 193.304 186.159 195.75 185.629C197.452 185.269 198.155 184.857 197.412 184.653ZM176.856 192.138C176.915 189.907 179.372 186.472 181.099 186.221C183.987 185.797 183.787 191.303 180.861 192.797C179.326 193.576 176.827 193.164 176.856 192.138Z" fill="black"/>
</g>
<path d="M160.96 64.9143V104.785H149.094V64.9143C149.094 49.7346 136.976 37.3891 122.08 37.3891C107.184 37.3891 95.065 49.7346 95.065 64.9143V104.785H83.1987V64.9143C83.1987 43.1776 100.645 25.5 122.08 25.5C143.515 25.5 160.96 43.1776 160.96 64.9143Z" fill="#C7C7C7"/>
<path d="M83.1987 75.29L95.065 75.7464V104.833H83.1987V75.29Z" fill="#A6A6A6"/>
<path d="M160.961 78.3173V104.834H149.094V77.8369L160.961 78.3173Z" fill="#A6A6A6"/>
<path d="M176.16 82.1123H68V175.448H176.16V82.1123Z" fill="#92343C"/>
<path opacity="0.25" d="M176.16 82.1123H122.08V175.448H176.16V82.1123Z" fill="black"/>
<path d="M126.65 132.191L131.194 152.631H111.956L116.5 132.191C114.718 131.145 113.344 129.575 112.585 127.719C111.826 125.863 111.724 123.822 112.296 121.905C112.867 119.989 114.079 118.303 115.75 117.102C117.42 115.901 119.456 115.251 121.55 115.251C123.644 115.251 125.68 115.901 127.35 117.102C129.02 118.303 130.233 119.989 130.804 121.905C131.375 123.822 131.274 125.863 130.515 127.719C129.756 129.575 128.381 131.145 126.599 132.191H126.65Z" fill="white"/>
<path d="M177.5 114.5C192.688 114.5 205 102.188 205 87C205 71.8122 192.688 59.5 177.5 59.5C162.312 59.5 150 71.8122 150 87C150 102.188 162.312 114.5 177.5 114.5Z" fill="#388E3C"/>
<path d="M192.112 88.4284C193.511 87.1236 194.514 85.4513 195.006 83.6029C195.499 81.7545 195.461 79.8048 194.896 77.977C194.332 76.1493 193.264 74.5175 191.816 73.2685C190.367 72.0195 188.595 71.2038 186.705 70.9148C184.814 70.6258 182.88 70.8752 181.124 71.6344C179.368 72.3937 177.862 73.6321 176.777 75.2078C175.693 76.7835 175.074 78.6328 174.992 80.5439C174.909 82.455 175.367 84.3506 176.312 86.0136L174.24 87.9463L174.739 91.3846L171.521 90.5049L168.928 92.9239L169.444 96.3411L166.23 95.4403L164.001 97.5168L164.306 99.6313L162.344 99.0815L161.05 100.291L160.855 103.476L165.604 104.672L181.019 90.2934C182.847 91.1059 184.874 91.3623 186.847 91.0307C188.819 90.699 190.651 89.794 192.112 88.4284ZM190.59 75.906C190.984 76.3286 191.245 76.8586 191.338 77.4292C191.431 77.9998 191.353 78.5852 191.114 79.1114C190.874 79.6376 190.484 80.0809 189.992 80.3852C189.501 80.6896 188.93 80.8413 188.352 80.8211C187.775 80.801 187.216 80.6099 186.746 80.2721C186.277 79.9343 185.919 79.4649 185.717 78.9234C185.514 78.3818 185.477 77.7924 185.61 77.2297C185.743 76.667 186.039 76.1563 186.462 75.7622C187.029 75.2344 187.782 74.9531 188.556 74.98C189.33 75.007 190.061 75.3401 190.59 75.906Z" fill="black"/>
<path d="M190.59 75.9062C190.59 75.9062 190.4 75.7286 190.01 75.4833C189.457 75.1527 188.811 75.0116 188.171 75.0815C187.652 75.1375 187.158 75.337 186.746 75.6577C186.334 75.9783 186.019 76.4074 185.837 76.8968C185.655 77.3863 185.612 77.9168 185.715 78.4289C185.817 78.941 186.06 79.4145 186.416 79.7964C186.773 80.1782 187.228 80.4533 187.732 80.5908C188.236 80.7283 188.768 80.7228 189.269 80.5749C189.77 80.427 190.22 80.1425 190.568 79.7534C190.916 79.3643 191.149 78.8859 191.241 78.3718C191.359 77.7382 191.262 77.0835 190.966 76.5109C190.755 76.088 190.569 75.9189 190.59 75.902C190.611 75.885 190.645 75.94 190.729 76.0288C190.854 76.1569 190.963 76.2988 191.055 76.4517C191.399 77.035 191.528 77.7204 191.419 78.3887C191.356 78.7863 191.213 79.1671 191 79.5087C190.787 79.8502 190.508 80.1455 190.178 80.3771C189.849 80.6086 189.476 80.7716 189.083 80.8565C188.689 80.9414 188.283 80.9463 187.887 80.8712C187.25 80.7543 186.668 80.4354 186.226 79.9617C185.784 79.4879 185.507 78.8844 185.435 78.2407C185.387 77.8412 185.42 77.4362 185.532 77.0498C185.644 76.6634 185.832 76.3033 186.086 75.991C186.34 75.6787 186.653 75.4204 187.008 75.2315C187.364 75.0426 187.753 74.9269 188.154 74.8912C188.83 74.8288 189.506 75.0054 190.065 75.3902C190.22 75.4896 190.362 75.6075 190.488 75.7412C190.59 75.8512 190.615 75.902 190.59 75.9062Z" fill="black"/>
<path d="M192.112 88.4287C192.112 88.4287 192.066 88.4795 191.964 88.5683L191.516 88.9912C190.908 89.4861 190.247 89.9116 189.545 90.2599C188.209 90.9 186.75 91.2425 185.268 91.2636C183.787 91.2848 182.318 90.9842 180.964 90.3826H181.049L165.659 104.787L165.617 104.833H165.554L160.804 103.641L160.707 103.62V103.518C160.766 102.524 160.83 101.437 160.897 100.334V100.232L160.931 100.198L162.255 98.9634L162.301 98.9169H162.369L164.331 99.4667L164.175 99.602C164.078 98.9465 163.976 98.2276 163.87 97.4875V97.424L163.917 97.3817L166.146 95.301L166.196 95.2503H166.264L169.478 96.1511L169.322 96.2906C169.165 95.1995 168.996 94.0323 168.827 92.8524V92.7847L168.878 92.7424L169.563 92.0996L171.47 90.3234L171.521 90.2726H171.589L174.807 91.1734L174.646 91.313C174.48 90.1542 174.315 89.0081 174.151 87.8747V87.8113L174.198 87.7647L176.27 85.832L176.249 85.9843C175.447 84.5597 174.994 82.9656 174.925 81.3323C174.886 80.5431 174.943 79.7521 175.094 78.9767C175.233 78.2142 175.46 77.4705 175.771 76.7606C176.556 74.9653 177.837 73.4317 179.464 72.3404C181.091 71.2491 182.996 70.6457 184.955 70.6013C186.914 70.5568 188.844 71.0732 190.519 72.0895C192.194 73.1059 193.544 74.5798 194.409 76.3377C195.22 77.9962 195.566 79.8436 195.411 81.6833C195.304 83.0547 194.915 84.3892 194.269 85.6037C194.206 85.7305 194.142 85.849 194.079 85.9674L193.872 86.2888C193.732 86.496 193.618 86.7117 193.483 86.8682C193.208 87.198 192.996 87.4941 192.789 87.714L192.282 88.2765L192.117 88.4287C192.117 88.4287 192.163 88.3695 192.265 88.2596L192.721 87.7732C192.92 87.5617 193.144 87.2615 193.394 86.9274C193.521 86.754 193.631 86.551 193.766 86.348C193.834 86.2423 193.901 86.1365 193.969 86.0224L194.155 85.6629C194.78 84.4609 195.156 83.1455 195.262 81.7951C195.368 80.4446 195.2 79.0866 194.77 77.8021C194.34 76.5176 193.656 75.3328 192.758 74.3183C191.861 73.3037 190.768 72.4802 189.546 71.8968C188.323 71.3133 186.996 70.9819 185.642 70.9222C184.289 70.8626 182.938 71.0759 181.669 71.5494C180.399 72.023 179.239 72.7472 178.255 73.6788C177.272 74.6104 176.486 75.7304 175.945 76.9721C175.643 77.6664 175.422 78.3929 175.285 79.1374C175.14 79.8952 175.086 80.6675 175.124 81.438C175.196 83.0273 175.641 84.5774 176.422 85.9631L176.469 86.0477L176.397 86.1154L174.329 88.0481L174.367 87.9381C174.531 89.0659 174.696 90.2134 174.862 91.3806L174.891 91.5709L174.701 91.5202L171.487 90.6194L171.61 90.5898L169.702 92.366L169.021 92.9962L169.06 92.882C169.229 94.0619 169.398 95.2333 169.554 96.3202L169.584 96.5148L169.394 96.464L166.179 95.559L166.298 95.5294C165.532 96.2483 164.771 96.9546 164.069 97.6101L164.111 97.5001C164.213 98.2233 164.314 98.9423 164.412 99.6147L164.437 99.8008L164.255 99.75L162.297 99.2002L162.411 99.1706L161.113 100.38L161.151 100.3C161.083 101.404 161.016 102.49 160.957 103.484L160.868 103.362L165.617 104.559L165.511 104.588L180.948 90.2345L180.986 90.2007H181.032C182.367 90.8015 183.816 91.1072 185.28 91.097C186.744 91.0868 188.189 90.7609 189.516 90.1415C190.216 89.8081 190.879 89.4027 191.495 88.932L191.956 88.5471L192.112 88.4287Z" fill="black"/>
<path d="M191.77 87.274C193.168 85.97 194.171 84.2986 194.663 82.4513C195.155 80.6039 195.117 78.6552 194.554 76.8283C193.99 75.0015 192.923 73.3703 191.475 72.1216C190.028 70.8729 188.258 70.0571 186.368 69.7677C184.478 69.4783 182.545 69.7269 180.79 70.4851C179.035 71.2434 177.529 72.4805 176.444 74.0549C175.359 75.6293 174.74 77.4774 174.657 79.3874C174.574 81.2975 175.03 83.1923 175.974 84.855L173.906 86.7834L174.401 90.2259L171.187 89.3209L168.598 91.7442L169.093 95.1824L165.879 94.2816L163.65 96.3624L163.951 98.4769L161.993 97.9314L160.694 99.1409L160.5 102.325L165.249 103.518L180.664 89.1391C182.493 89.9559 184.523 90.2147 186.498 89.8829C188.474 89.5511 190.308 88.6436 191.77 87.274ZM190.264 74.7516C190.659 75.1742 190.919 75.7043 191.012 76.2748C191.106 76.8454 191.028 77.4308 190.788 77.957C190.549 78.4832 190.158 78.9265 189.667 79.2308C189.175 79.5352 188.604 79.6869 188.027 79.6667C187.449 79.6466 186.89 79.4556 186.421 79.1177C185.952 78.7799 185.593 78.3105 185.391 77.769C185.189 77.2274 185.151 76.638 185.284 76.0753C185.417 75.5126 185.714 75.0019 186.137 74.6078C186.417 74.346 186.746 74.1419 187.105 74.0074C187.465 73.8729 187.847 73.8105 188.23 73.8239C188.614 73.8373 188.991 73.9261 189.34 74.0853C189.689 74.2445 190.003 74.4709 190.264 74.7516Z" fill="white"/>
<path d="M190.264 74.7515C190.264 74.7515 190.074 74.5739 189.685 74.3286C189.137 73.9871 188.491 73.8383 187.849 73.9057C187.332 73.9626 186.84 74.1625 186.429 74.483C186.018 74.8035 185.705 75.2319 185.523 75.7203C185.342 76.2088 185.301 76.738 185.403 77.2489C185.505 77.7597 185.748 78.232 186.103 78.6129C186.459 78.9938 186.913 79.2683 187.416 79.4057C187.918 79.5431 188.449 79.538 188.949 79.391C189.449 79.244 189.898 78.9608 190.246 78.5731C190.594 78.1855 190.827 77.7086 190.92 77.1959C191.036 76.5619 190.938 75.9071 190.641 75.3351C190.429 74.9122 190.247 74.7431 190.264 74.7262C190.281 74.7092 190.319 74.7642 190.408 74.853C190.531 74.9814 190.639 75.1232 190.729 75.2759C191.075 75.8603 191.203 76.5474 191.093 77.2171C191.029 77.614 190.887 77.9941 190.674 78.3351C190.461 78.676 190.182 78.9709 189.853 79.2022C189.524 79.4336 189.153 79.5968 188.76 79.6822C188.367 79.7676 187.961 79.7735 187.566 79.6996C186.929 79.5891 186.345 79.2765 185.899 78.8081C185.454 78.3397 185.171 77.7403 185.092 77.0987C185.046 76.6994 185.08 76.2949 185.192 75.9089C185.305 75.523 185.493 75.1634 185.746 74.8514C186 74.5393 186.313 74.281 186.668 74.0917C187.022 73.9025 187.411 73.786 187.811 73.7492C188.488 73.6877 189.164 73.8658 189.723 74.2525C189.879 74.3506 190.021 74.4686 190.146 74.6035C190.235 74.6965 190.273 74.7473 190.264 74.7515Z" fill="black"/>
<path d="M191.77 87.2741C191.77 87.2741 191.723 87.3249 191.626 87.4137L191.178 87.8112C190.569 88.3048 189.908 88.7302 189.207 89.08C187.87 89.7199 186.41 90.0622 184.928 90.0834C183.446 90.1045 181.977 89.804 180.622 89.2026H180.706L165.321 103.607L165.274 103.649H165.215L160.462 102.457L160.369 102.431V102.334C160.428 101.34 160.496 100.253 160.559 99.1495V99.0987L160.593 99.0691L161.891 97.8553L161.942 97.8088H162.01L163.968 98.3544L163.811 98.4939C163.718 97.8384 163.612 97.1195 163.507 96.3794V96.316L163.557 96.2694L165.782 94.1929L165.833 94.1422L165.905 94.1633L169.119 95.0641L168.958 95.2037L168.463 91.7739V91.7062L168.51 91.6597L169.199 91.0211L171.102 89.2449L171.153 89.1941L171.225 89.2153L174.439 90.1161L174.278 90.2556C174.112 89.0969 173.947 87.9508 173.783 86.8174V86.7497L173.834 86.7074L175.906 84.7747L175.881 84.927C175.079 83.5024 174.626 81.9083 174.557 80.2749C174.52 79.4858 174.577 78.695 174.726 77.9193C174.866 77.157 175.093 76.4134 175.403 75.7033C176.365 73.4662 178.092 71.6445 180.275 70.5642C182.457 69.484 184.953 69.2156 187.316 69.8072C189.678 70.3988 191.753 71.8118 193.168 73.7932C194.584 75.7746 195.249 78.1952 195.043 80.6217C194.935 81.993 194.547 83.3274 193.901 84.5421L193.711 84.9058L193.504 85.2272C193.364 85.4345 193.25 85.6501 193.119 85.8066C192.844 86.1365 192.632 86.4325 192.425 86.6524L191.935 87.1219C191.829 87.2276 191.77 87.2783 191.77 87.2783C191.77 87.2783 191.821 87.2149 191.922 87.105L192.375 86.6228C192.573 86.4114 192.797 86.1111 193.047 85.777C193.174 85.6079 193.288 85.4049 193.423 85.1976L193.626 84.8762L193.808 84.5125C194.433 83.3048 194.806 81.9824 194.904 80.626C195.083 78.2509 194.417 75.8888 193.023 73.9577C191.628 72.0266 189.596 70.651 187.285 70.0743C184.974 69.4975 182.533 69.7569 180.395 70.8064C178.257 71.8559 176.559 73.628 175.602 75.809C175.302 76.5035 175.082 77.23 174.946 77.9743C174.8 78.7318 174.746 79.5044 174.786 80.2749C174.857 81.8639 175.3 83.4139 176.08 84.8001L176.131 84.8847L176.059 84.9523L173.986 86.885L174.024 86.7751C174.191 87.9028 174.356 89.0489 174.519 90.2134L174.549 90.4079L174.363 90.3529L171.136 89.4479L171.254 89.4183L169.351 91.1987L168.662 91.8373L168.7 91.7274C168.873 92.9073 169.038 94.0745 169.195 95.1656L169.224 95.3602L169.038 95.3052L165.82 94.4044L165.943 94.3748L163.714 96.4513L163.752 96.3456C163.853 97.0687 163.959 97.7834 164.052 98.439L164.078 98.6293L163.896 98.5785L161.938 98.0287L162.052 97.9991L160.758 99.2087L160.796 99.1241C160.728 100.228 160.66 101.319 160.597 102.309L160.508 102.186L165.257 103.387L165.152 103.417L180.588 89.063L180.626 89.0292L180.673 89.0503C182.009 89.6482 183.457 89.9522 184.921 89.942C186.384 89.9318 187.829 89.6075 189.156 88.9911C189.857 88.6569 190.522 88.2516 191.14 87.7816L191.596 87.3968L191.77 87.2741Z" fill="black"/>
<path d="M190.835 86.479C191.337 85.9415 191.796 85.3645 192.205 84.7536C192.669 84.0295 193.021 83.2396 193.25 82.4106C193.562 81.3119 193.662 80.1634 193.542 79.0273C193.403 77.6545 192.944 76.3334 192.201 75.1704C191.346 73.8389 190.152 72.7588 188.742 72.0409C187.986 71.6476 187.175 71.3737 186.335 71.2289C185.904 71.1482 185.467 71.0974 185.029 71.0766C184.581 71.0697 184.133 71.0923 183.688 71.1443C181.82 71.3586 180.069 72.1664 178.694 73.449C177.318 74.7316 176.39 76.4214 176.046 78.2703C175.963 78.7104 175.909 79.1554 175.885 79.6025C175.877 80.0419 175.898 80.4813 175.949 80.9178C176.034 81.7652 176.251 82.5942 176.592 83.3749C177.209 84.8323 178.205 86.0981 179.476 87.0415C180.582 87.8652 181.867 88.4159 183.227 88.6486C184.348 88.8472 185.496 88.8286 186.61 88.5936C187.453 88.4206 188.266 88.1227 189.021 87.7097C189.658 87.3454 190.265 86.9295 190.835 86.4663C190.835 86.4663 190.806 86.5044 190.734 86.5678L190.416 86.8554C190.247 87.0112 190.064 87.1527 189.871 87.2783C189.617 87.4708 189.348 87.6433 189.067 87.7943C188.311 88.2277 187.492 88.5429 186.64 88.7289C184.583 89.1882 182.431 88.9132 180.556 87.9514C178.681 86.9897 177.202 85.4019 176.376 83.4637C176.023 82.6576 175.798 81.8015 175.708 80.9262C175.586 80.0327 175.614 79.1254 175.788 78.2407C176.139 76.3382 177.092 74.599 178.507 73.2794C179.922 71.9598 181.723 71.1298 183.646 70.9117C184.551 70.7952 185.47 70.8266 186.365 71.0047C187.226 71.1595 188.059 71.4447 188.835 71.8506C190.279 72.5915 191.498 73.7057 192.366 75.0774C193.051 76.1665 193.497 77.3889 193.673 78.6635C193.85 79.938 193.753 81.2355 193.39 82.4698C193.146 83.3087 192.773 84.1048 192.286 84.8297C192.118 85.0986 191.929 85.3532 191.719 85.5909C191.578 85.7753 191.423 85.9478 191.254 86.1069L190.945 86.4029C190.877 86.4494 190.839 86.4833 190.835 86.479Z" fill="black"/>
<path d="M190.425 79.2515C190.404 79.2515 190.636 79.0316 190.92 78.5791C191.318 77.9332 191.488 77.172 191.402 76.418C191.343 75.8656 191.146 75.3369 190.829 74.8808C190.512 74.4247 190.085 74.0559 189.587 73.8086C189.006 73.5112 188.349 73.3948 187.701 73.4745C187.192 73.5359 186.705 73.7145 186.277 73.9964C185.849 74.2782 185.492 74.6556 185.234 75.0987C184.977 75.5419 184.826 76.0388 184.793 76.5502C184.76 77.0617 184.847 77.5738 185.045 78.0462C185.278 78.5898 185.648 79.0634 186.119 79.4207C186.534 79.7298 187.015 79.9395 187.524 80.0339C188.271 80.1716 189.042 80.0539 189.714 79.6998C190.188 79.4503 190.404 79.2304 190.425 79.2515C190.446 79.2726 190.378 79.3149 190.272 79.4122C190.118 79.5586 189.946 79.6851 189.761 79.7886C189.182 80.124 188.518 80.2838 187.849 80.2485C187.181 80.2132 186.537 79.9843 185.997 79.5898C185.456 79.1986 185.038 78.6617 184.791 78.0416C184.543 77.4216 184.478 76.7441 184.601 76.0881C184.738 75.3448 185.11 74.6653 185.663 74.1503C186.216 73.6353 186.92 73.3123 187.672 73.2293C188.368 73.1451 189.075 73.2733 189.697 73.5972C190.259 73.8902 190.732 74.3282 191.068 74.8659C191.421 75.4335 191.603 76.0909 191.592 76.7593C191.58 77.4278 191.376 78.0787 191.004 78.6341C190.883 78.8112 190.741 78.9731 190.581 79.1162C190.488 79.2134 190.429 79.26 190.425 79.2515Z" fill="black"/>
<path d="M163.997 102.934C163.951 102.884 167.419 99.5511 171.749 95.5292C176.08 91.5074 179.628 88.2594 179.675 88.3102C179.721 88.3609 176.253 91.6934 171.923 95.7153C167.592 99.7372 164.044 102.985 163.997 102.934Z" fill="black"/>
<path d="M165.909 82.7534L166.052 82.4404L166.239 82.728C166.391 82.9577 166.605 83.1396 166.856 83.2524L167.173 83.392L166.886 83.5823C166.654 83.7332 166.47 83.9475 166.357 84.1997L166.217 84.5127L166.027 84.2251C165.876 83.9947 165.661 83.8127 165.41 83.7007L165.097 83.5611L165.384 83.3708C165.616 83.221 165.798 83.0063 165.909 82.7534Z" fill="white"/>
<path d="M156.474 80.4016L156.554 80.2197L156.664 80.3847C156.751 80.5195 156.876 80.6254 157.023 80.6892L157.205 80.7737L157.036 80.8837C156.903 80.9711 156.798 81.0942 156.732 81.2389L156.651 81.425L156.541 81.2559C156.454 81.1211 156.329 81.0151 156.182 80.9514L156 80.8668L156.165 80.7611C156.299 80.6719 156.406 80.5475 156.474 80.4016Z" fill="white"/>
<path d="M186.191 96.4856L186.272 96.3037L186.382 96.4729C186.472 96.6046 186.596 96.7097 186.741 96.7774L186.923 96.8577L186.758 96.9677C186.623 97.0548 186.517 97.1799 186.454 97.3272L186.369 97.509L186.259 97.3441C186.172 97.2096 186.049 97.1026 185.904 97.0353L185.718 96.955L185.887 96.845C186.022 96.7579 186.128 96.6328 186.191 96.4856Z" fill="white"/>
<path d="M200.74 88.2387L200.879 87.9258L201.07 88.2134C201.221 88.4439 201.435 88.626 201.687 88.7378L202 88.8773L201.712 89.0676C201.482 89.2186 201.3 89.433 201.188 89.6851L201.044 89.998L200.858 89.7105C200.705 89.4818 200.491 89.3002 200.241 89.1861L199.924 89.0465L200.211 88.8562C200.443 88.7053 200.626 88.491 200.74 88.2387Z" fill="white"/>
<path d="M198.849 76.6849L199.086 76.1562L199.403 76.6426C199.658 77.0293 200.017 77.3358 200.439 77.5265L200.968 77.7591L200.482 78.0763C200.096 78.3336 199.789 78.6941 199.598 79.1166L199.361 79.6453L199.044 79.1589C198.789 78.7722 198.43 78.4658 198.008 78.275L197.479 78.0382L197.965 77.721C198.352 77.4662 198.659 77.1069 198.849 76.6849Z" fill="white"/>
<path d="M162.978 73.1234L163.215 72.5947L163.532 73.0768C163.786 73.4646 164.145 73.7714 164.568 73.9607L165.097 74.1976L164.615 74.5147C164.226 74.7671 163.919 75.1271 163.731 75.5509L163.494 76.0795L163.177 75.5974C162.923 75.2085 162.561 74.9015 162.136 74.7135L161.612 74.4767L162.094 74.1595C162.482 73.9059 162.789 73.5463 162.978 73.1234Z" fill="white"/>
<defs>
<linearGradient id="paint0_linear_131_11924" x1="83.752" y1="24.4944" x2="94.6135" y2="25.1692" gradientUnits="userSpaceOnUse">
<stop stop-color="#E0A7AC"/>
<stop offset="1" stop-color="#CD7F81"/>
</linearGradient>
<linearGradient id="paint1_linear_131_11924" x1="32.3669" y1="154.525" x2="43.2351" y2="155.144" gradientUnits="userSpaceOnUse">
<stop stop-color="#B24746"/>
<stop offset="1" stop-color="#B24341"/>
</linearGradient>
<linearGradient id="paint2_linear_131_11924" x1="221.107" y1="127.626" x2="221.107" y2="137.443" gradientUnits="userSpaceOnUse">
<stop stop-color="#AC4C4E"/>
<stop offset="1" stop-color="#D49FA3"/>
</linearGradient>
<clipPath id="clip0_131_11924">
<rect width="37.0135" height="35.9285" fill="white" transform="matrix(0.889396 -0.457137 0.461874 0.886946 159.233 177.925)"/>
</clipPath>
</defs>
</svg>
