<svg width="257" height="452" viewBox="0 0 257 452" fill="none" xmlns="http://www.w3.org/2000/svg">
<g clip-path="url(#clip0_131_11598)">
<rect width="257" height="452" rx="16" fill="#750F22"/>
<path d="M184.147 36.5928C186.115 36.6676 187.816 37.1593 189.356 38.4475C190.867 39.7107 191.933 41.6412 192.102 43.6204C192.284 45.7462 191.719 47.8915 190.339 49.5406C188.841 51.3301 186.864 52.2141 184.573 52.3951C182.652 52.3689 180.983 51.9282 179.463 50.6962C177.81 49.3559 176.722 47.3835 176.518 45.2582C176.309 43.0911 177.004 41.0048 178.395 39.3439C179.893 37.5554 181.885 36.7859 184.147 36.5928Z" fill="white" fill-opacity="0.2"/>
<path d="M230.554 5.76668C233.844 5.46629 236.525 6.64273 238.649 9.14908C240.167 10.9393 241.214 13.1825 242.112 15.3371C244.175 20.2819 245.478 25.5428 246.907 30.6979L253.12 53.3032C254.37 57.8892 255.407 62.6783 257.16 67.097C257.822 68.7653 258.654 70.8961 260.181 71.9252C261.938 70.4939 262.569 67.6941 263.245 65.6036C266.094 56.7971 267.775 47.6352 270.31 38.7298C271.406 34.8787 272.373 31.1756 274.267 27.6171C275.571 25.1667 277.371 22.8712 279.7 21.3342C281.705 20.0104 284.288 19.5436 286.632 20.0448C289.254 20.6052 291.815 22.3847 293.259 24.6595C293.576 25.1595 293.94 25.6146 293.805 26.2126C293.658 26.3647 293.597 26.4546 293.376 26.5017C292.988 26.5841 292.492 26.5362 292.093 26.5398C290.886 26.5511 289.533 26.4497 288.345 26.6659C285.542 27.1765 283.83 29.5739 282.606 31.9497C280.813 35.4297 279.929 39.4623 278.981 43.2417L275.619 56.9001C274.567 61.2708 273.596 65.6774 272.231 69.9636C271.29 72.9177 270.143 75.9881 268.398 78.5654C266.749 80.9998 264.414 83.0452 261.468 83.6056C259.913 83.8994 258.434 83.7312 257.023 83.028C254.581 81.8116 252.852 79.5301 251.573 77.1742C250.073 74.4114 249.04 71.4117 248.065 68.4302L245.049 58.3677L239.295 37.2406L235.652 24.4214C235.166 22.9535 233.736 18.193 232.338 17.5785C232.111 17.4788 231.788 17.4492 231.561 17.5668C229.026 18.8805 224.21 41.2987 223.2 45.2336C222.371 48.4629 221.476 51.7259 220.357 54.867C218.615 59.7579 216.27 66.1698 211.253 68.5126C209.066 69.534 206.547 69.6941 204.276 68.8497C201.115 67.675 199.258 65.216 197.878 62.2419L201.455 62.2847C202.162 62.2912 202.926 62.3532 203.624 62.2447C205.654 61.9291 207.332 60.3728 208.359 58.6593C210.021 55.8856 210.787 52.5606 211.703 49.4862C214.894 38.7709 216.76 27.6395 220.779 17.1776C221.733 14.695 222.738 12.1459 224.295 9.97206C225.893 7.7404 227.792 6.21469 230.554 5.76668Z" fill="white" fill-opacity="0.2"/>
<circle cx="2.5" cy="400.5" r="51.5" fill="white" fill-opacity="0.2"/>
<path d="M53.2509 39.288C52.2055 39.288 51.2775 39.48 50.4669 39.864C49.6562 40.248 48.9629 40.8027 48.3869 41.528C47.8322 42.2533 47.4055 43.128 47.1069 44.152C46.8295 45.176 46.6909 46.328 46.6909 47.608C46.6909 49.336 46.9255 50.8187 47.3949 52.056C47.8642 53.272 48.5789 54.2107 49.5389 54.872C50.5202 55.5333 51.7469 55.864 53.2189 55.864C54.2002 55.864 55.1389 55.768 56.0349 55.576C56.9522 55.3627 57.9122 55.0853 58.9149 54.744V58.232C57.9762 58.616 57.0269 58.8933 56.0669 59.064C55.1282 59.2347 54.0402 59.32 52.8029 59.32C50.4562 59.32 48.5149 58.84 46.9789 57.88C45.4429 56.8987 44.3015 55.5333 43.5549 53.784C42.8082 52.0133 42.4349 49.944 42.4349 47.576C42.4349 45.848 42.6695 44.2693 43.1389 42.84C43.6295 41.4107 44.3229 40.1733 45.2189 39.128C46.1362 38.0827 47.2669 37.272 48.6109 36.696C49.9549 36.12 51.5015 35.832 53.2509 35.832C54.4029 35.832 55.5335 35.9707 56.6429 36.248C57.7735 36.504 58.8295 36.8667 59.8109 37.336L58.4029 40.696C57.5922 40.3333 56.7495 40.0133 55.8749 39.736C55.0215 39.4373 54.1469 39.288 53.2509 39.288ZM78.9394 50.296C78.9394 51.7467 78.7474 53.0267 78.3634 54.136C77.9794 55.2453 77.4247 56.1947 76.6994 56.984C75.9954 57.752 75.1207 58.3387 74.0754 58.744C73.0514 59.128 71.91 59.32 70.6514 59.32C69.4567 59.32 68.358 59.128 67.3554 58.744C66.3527 58.3387 65.478 57.752 64.7314 56.984C64.006 56.1947 63.4407 55.2453 63.0354 54.136C62.63 53.0267 62.4274 51.7467 62.4274 50.296C62.4274 48.376 62.758 46.7547 63.4194 45.432C64.0807 44.088 65.03 43.0747 66.2674 42.392C67.526 41.688 69.0087 41.336 70.7154 41.336C72.3367 41.336 73.7554 41.688 74.9714 42.392C76.2087 43.0747 77.1794 44.088 77.8834 45.432C78.5874 46.7547 78.9394 48.376 78.9394 50.296ZM66.5554 50.296C66.5554 51.512 66.694 52.5573 66.9714 53.432C67.27 54.2853 67.718 54.936 68.3154 55.384C68.934 55.832 69.7234 56.056 70.6834 56.056C71.6647 56.056 72.454 55.832 73.0514 55.384C73.67 54.936 74.118 54.2853 74.3954 53.432C74.6727 52.5573 74.8114 51.512 74.8114 50.296C74.8114 49.0587 74.662 48.024 74.3634 47.192C74.086 46.3387 73.638 45.6987 73.0194 45.272C72.422 44.824 71.6434 44.6 70.6834 44.6C69.2327 44.6 68.1767 45.0907 67.5154 46.072C66.8754 47.0533 66.5554 48.4613 66.5554 50.296ZM102.98 41.336C104.942 41.336 106.414 41.8373 107.396 42.84C108.398 43.8427 108.9 45.464 108.9 47.704V59H104.868V48.472C104.868 47.192 104.633 46.232 104.164 45.592C103.694 44.9307 102.948 44.6 101.924 44.6C100.516 44.6 99.513 45.0587 98.9156 45.976C98.3183 46.8933 98.0196 48.2267 98.0196 49.976V59H93.9876V48.472C93.9876 47.6187 93.881 46.904 93.6676 46.328C93.4543 45.752 93.1236 45.3253 92.6756 45.048C92.249 44.7493 91.6943 44.6 91.0116 44.6C90.0516 44.6 89.2836 44.8347 88.7076 45.304C88.1316 45.752 87.7263 46.4133 87.4916 47.288C87.257 48.1627 87.1396 49.24 87.1396 50.52V59H83.1076V41.656H86.2116L86.7876 43.928H87.0116C87.3743 43.3307 87.8116 42.84 88.3236 42.456C88.857 42.072 89.4436 41.7947 90.0836 41.624C90.745 41.432 91.4063 41.336 92.0676 41.336C93.369 41.336 94.4676 41.56 95.3636 42.008C96.2596 42.4347 96.9316 43.1067 97.3796 44.024H97.6996C98.233 43.0853 98.9796 42.4027 99.9396 41.976C100.921 41.5493 101.934 41.336 102.98 41.336ZM133.823 41.336C135.786 41.336 137.258 41.8373 138.239 42.84C139.242 43.8427 139.743 45.464 139.743 47.704V59H135.711V48.472C135.711 47.192 135.477 46.232 135.007 45.592C134.538 44.9307 133.791 44.6 132.767 44.6C131.359 44.6 130.357 45.0587 129.759 45.976C129.162 46.8933 128.863 48.2267 128.863 49.976V59H124.831V48.472C124.831 47.6187 124.725 46.904 124.511 46.328C124.298 45.752 123.967 45.3253 123.519 45.048C123.093 44.7493 122.538 44.6 121.855 44.6C120.895 44.6 120.127 44.8347 119.551 45.304C118.975 45.752 118.57 46.4133 118.335 47.288C118.101 48.1627 117.983 49.24 117.983 50.52V59H113.951V41.656H117.055L117.631 43.928H117.855C118.218 43.3307 118.655 42.84 119.167 42.456C119.701 42.072 120.287 41.7947 120.927 41.624C121.589 41.432 122.25 41.336 122.911 41.336C124.213 41.336 125.311 41.56 126.207 42.008C127.103 42.4347 127.775 43.1067 128.223 44.024H128.543C129.077 43.0853 129.823 42.4027 130.783 41.976C131.765 41.5493 132.778 41.336 133.823 41.336ZM148.827 41.656V59H144.795V41.656H148.827ZM146.811 34.968C147.408 34.968 147.931 35.128 148.379 35.448C148.827 35.7467 149.051 36.2907 149.051 37.08C149.051 37.848 148.827 38.4027 148.379 38.744C147.931 39.064 147.408 39.224 146.811 39.224C146.192 39.224 145.659 39.064 145.211 38.744C144.784 38.4027 144.571 37.848 144.571 37.08C144.571 36.2907 144.784 35.7467 145.211 35.448C145.659 35.128 146.192 34.968 146.811 34.968ZM165.791 53.976C165.791 55.128 165.513 56.1093 164.959 56.92C164.404 57.7093 163.583 58.3067 162.495 58.712C161.428 59.1173 160.116 59.32 158.559 59.32C157.343 59.32 156.297 59.2347 155.423 59.064C154.548 58.8933 153.716 58.6267 152.927 58.264V54.84C153.78 55.2453 154.729 55.5867 155.775 55.864C156.82 56.1413 157.791 56.28 158.687 56.28C159.796 56.28 160.596 56.1093 161.087 55.768C161.577 55.4267 161.823 54.968 161.823 54.392C161.823 54.0507 161.727 53.7413 161.535 53.464C161.343 53.1867 160.969 52.8987 160.415 52.6C159.86 52.28 159.017 51.8853 157.887 51.416C156.777 50.968 155.849 50.52 155.103 50.072C154.377 49.624 153.823 49.0907 153.439 48.472C153.076 47.832 152.895 47.032 152.895 46.072C152.895 44.5147 153.513 43.3413 154.751 42.552C155.988 41.7413 157.62 41.336 159.647 41.336C160.713 41.336 161.716 41.4427 162.655 41.656C163.615 41.848 164.575 42.168 165.535 42.616L164.255 45.592C163.721 45.3573 163.188 45.1547 162.655 44.984C162.143 44.792 161.62 44.6427 161.087 44.536C160.575 44.4293 160.052 44.376 159.519 44.376C158.644 44.376 157.983 44.5147 157.535 44.792C157.087 45.048 156.863 45.4107 156.863 45.88C156.863 46.2427 156.969 46.5627 157.183 46.84C157.417 47.096 157.812 47.3627 158.367 47.64C158.943 47.896 159.753 48.2373 160.799 48.664C161.844 49.0693 162.729 49.496 163.455 49.944C164.201 50.3707 164.777 50.904 165.183 51.544C165.588 52.184 165.791 52.9947 165.791 53.976ZM173.702 41.656V59H169.67V41.656H173.702ZM171.686 34.968C172.283 34.968 172.806 35.128 173.254 35.448C173.702 35.7467 173.926 36.2907 173.926 37.08C173.926 37.848 173.702 38.4027 173.254 38.744C172.806 39.064 172.283 39.224 171.686 39.224C171.067 39.224 170.534 39.064 170.086 38.744C169.659 38.4027 169.446 37.848 169.446 37.08C169.446 36.2907 169.659 35.7467 170.086 35.448C170.534 35.128 171.067 34.968 171.686 34.968ZM194.346 50.296C194.346 51.7467 194.154 53.0267 193.77 54.136C193.386 55.2453 192.831 56.1947 192.106 56.984C191.402 57.752 190.527 58.3387 189.482 58.744C188.458 59.128 187.316 59.32 186.058 59.32C184.863 59.32 183.764 59.128 182.762 58.744C181.759 58.3387 180.884 57.752 180.138 56.984C179.412 56.1947 178.847 55.2453 178.442 54.136C178.036 53.0267 177.834 51.7467 177.834 50.296C177.834 48.376 178.164 46.7547 178.826 45.432C179.487 44.088 180.436 43.0747 181.674 42.392C182.932 41.688 184.415 41.336 186.122 41.336C187.743 41.336 189.162 41.688 190.378 42.392C191.615 43.0747 192.586 44.088 193.29 45.432C193.994 46.7547 194.346 48.376 194.346 50.296ZM181.962 50.296C181.962 51.512 182.1 52.5573 182.378 53.432C182.676 54.2853 183.124 54.936 183.722 55.384C184.34 55.832 185.13 56.056 186.09 56.056C187.071 56.056 187.86 55.832 188.458 55.384C189.076 54.936 189.524 54.2853 189.802 53.432C190.079 52.5573 190.218 51.512 190.218 50.296C190.218 49.0587 190.068 48.024 189.77 47.192C189.492 46.3387 189.044 45.6987 188.426 45.272C187.828 44.824 187.05 44.6 186.09 44.6C184.639 44.6 183.583 45.0907 182.922 46.072C182.282 47.0533 181.962 48.4613 181.962 50.296ZM207.794 41.336C209.735 41.336 211.25 41.8373 212.338 42.84C213.447 43.8427 214.002 45.464 214.002 47.704V59H209.97V48.504C209.97 47.2027 209.714 46.232 209.202 45.592C208.69 44.9307 207.879 44.6 206.77 44.6C205.149 44.6 204.039 45.112 203.442 46.136C202.845 47.1387 202.546 48.6 202.546 50.52V59H198.514V41.656H201.618L202.194 43.928H202.418C202.802 43.3307 203.271 42.84 203.826 42.456C204.381 42.072 204.999 41.7947 205.682 41.624C206.365 41.432 207.069 41.336 207.794 41.336ZM101.184 81.152C103.168 81.152 104.832 81.344 106.176 81.728C107.52 82.0907 108.523 82.688 109.184 83.52C109.867 84.352 110.208 85.472 110.208 86.88C110.208 87.7547 110.059 88.544 109.76 89.248C109.461 89.952 109.024 90.528 108.448 90.976C107.893 91.424 107.2 91.7227 106.368 91.872V92.032C107.221 92.1813 107.979 92.4587 108.64 92.864C109.323 93.248 109.856 93.8133 110.24 94.56C110.645 95.2853 110.848 96.2453 110.848 97.44C110.848 98.8267 110.517 100.011 109.856 100.992C109.195 101.973 108.245 102.72 107.008 103.232C105.792 103.744 104.341 104 102.656 104H94.3041V81.152H101.184ZM101.728 90.464C103.349 90.464 104.459 90.208 105.056 89.696C105.675 89.184 105.984 88.4267 105.984 87.424C105.984 86.4 105.621 85.664 104.896 85.216C104.171 84.768 103.008 84.544 101.408 84.544H98.4001V90.464H101.728ZM98.4001 93.76V100.576H102.112C103.776 100.576 104.928 100.256 105.568 99.616C106.229 98.976 106.56 98.1227 106.56 97.056C106.56 96.3733 106.421 95.7867 106.144 95.296C105.867 94.8053 105.387 94.432 104.704 94.176C104.021 93.8987 103.093 93.76 101.92 93.76H98.4001ZM122.082 86.336C124.322 86.336 126.018 86.8267 127.17 87.808C128.343 88.768 128.93 90.2827 128.93 92.352V104H126.082L125.282 101.6H125.154C124.663 102.219 124.151 102.741 123.618 103.168C123.106 103.573 122.509 103.861 121.826 104.032C121.165 104.224 120.354 104.32 119.394 104.32C118.37 104.32 117.442 104.128 116.61 103.744C115.799 103.36 115.159 102.773 114.69 101.984C114.221 101.173 113.986 100.16 113.986 98.944C113.986 97.152 114.637 95.808 115.938 94.912C117.261 93.9947 119.255 93.4933 121.922 93.408L124.93 93.312V92.448C124.93 91.3387 124.663 90.5493 124.13 90.08C123.597 89.6107 122.85 89.376 121.89 89.376C121.015 89.376 120.173 89.504 119.362 89.76C118.551 90.016 117.762 90.3147 116.994 90.656L115.714 87.84C116.567 87.392 117.538 87.0293 118.626 86.752C119.735 86.4747 120.887 86.336 122.082 86.336ZM122.818 95.872C121.047 95.936 119.821 96.2453 119.138 96.8C118.455 97.3333 118.114 98.0587 118.114 98.976C118.114 99.7867 118.359 100.373 118.85 100.736C119.341 101.099 119.97 101.28 120.738 101.28C121.911 101.28 122.903 100.949 123.714 100.288C124.525 99.6053 124.93 98.6027 124.93 97.28V95.808L122.818 95.872ZM145.791 98.976C145.791 100.128 145.513 101.109 144.959 101.92C144.404 102.709 143.583 103.307 142.495 103.712C141.428 104.117 140.116 104.32 138.559 104.32C137.343 104.32 136.297 104.235 135.423 104.064C134.548 103.893 133.716 103.627 132.927 103.264V99.84C133.78 100.245 134.729 100.587 135.775 100.864C136.82 101.141 137.791 101.28 138.687 101.28C139.796 101.28 140.596 101.109 141.087 100.768C141.577 100.427 141.823 99.968 141.823 99.392C141.823 99.0507 141.727 98.7413 141.535 98.464C141.343 98.1867 140.969 97.8987 140.415 97.6C139.86 97.28 139.017 96.8853 137.887 96.416C136.777 95.968 135.849 95.52 135.103 95.072C134.377 94.624 133.823 94.0907 133.439 93.472C133.076 92.832 132.895 92.032 132.895 91.072C132.895 89.5147 133.513 88.3413 134.751 87.552C135.988 86.7413 137.62 86.336 139.647 86.336C140.713 86.336 141.716 86.4427 142.655 86.656C143.615 86.848 144.575 87.168 145.535 87.616L144.255 90.592C143.721 90.3573 143.188 90.1547 142.655 89.984C142.143 89.792 141.62 89.6427 141.087 89.536C140.575 89.4293 140.052 89.376 139.519 89.376C138.644 89.376 137.983 89.5147 137.535 89.792C137.087 90.048 136.863 90.4107 136.863 90.88C136.863 91.2427 136.969 91.5627 137.183 91.84C137.417 92.096 137.812 92.3627 138.367 92.64C138.943 92.896 139.753 93.2373 140.799 93.664C141.844 94.0693 142.729 94.496 143.455 94.944C144.201 95.3707 144.777 95.904 145.183 96.544C145.588 97.184 145.791 97.9947 145.791 98.976ZM156.646 86.336C158.203 86.336 159.537 86.656 160.646 87.296C161.777 87.9147 162.651 88.8107 163.27 89.984C163.889 91.136 164.198 92.544 164.198 94.208V96.256H152.742C152.785 97.8347 153.222 99.0613 154.054 99.936C154.886 100.789 156.038 101.216 157.51 101.216C158.641 101.216 159.643 101.109 160.518 100.896C161.414 100.661 162.331 100.331 163.27 99.904V103.136C162.417 103.541 161.531 103.84 160.614 104.032C159.697 104.224 158.598 104.32 157.318 104.32C155.633 104.32 154.129 104 152.806 103.36C151.505 102.699 150.481 101.707 149.734 100.384C149.009 99.0613 148.646 97.4187 148.646 95.456C148.646 93.472 148.977 91.808 149.638 90.464C150.321 89.0987 151.259 88.0747 152.454 87.392C153.649 86.688 155.046 86.336 156.646 86.336ZM156.646 89.312C155.579 89.312 154.705 89.664 154.022 90.368C153.361 91.0507 152.966 92.0747 152.838 93.44H160.294C160.294 92.6293 160.155 91.9147 159.878 91.296C159.622 90.6773 159.227 90.1973 158.694 89.856C158.161 89.4933 157.478 89.312 156.646 89.312Z" fill="white"/>
<path d="M95.0745 157H91.0425V142.76C91.0425 142.291 91.0425 141.811 91.0425 141.32C91.0638 140.829 91.0852 140.339 91.1065 139.848C91.1278 139.336 91.1492 138.867 91.1705 138.44C90.9572 138.653 90.6905 138.909 90.3705 139.208C90.0505 139.485 89.7198 139.773 89.3785 140.072L86.8185 142.12L84.8025 139.624L91.7145 134.152H95.0745V157ZM117.835 145.544C117.835 147.4 117.696 149.053 117.419 150.504C117.142 151.955 116.683 153.192 116.043 154.216C115.424 155.219 114.614 155.987 113.611 156.52C112.63 157.053 111.424 157.32 109.995 157.32C108.203 157.32 106.731 156.851 105.579 155.912C104.427 154.973 103.574 153.629 103.019 151.88C102.464 150.109 102.187 147.997 102.187 145.544C102.187 143.091 102.443 140.989 102.955 139.24C103.467 137.491 104.288 136.147 105.419 135.208C106.571 134.269 108.096 133.8 109.995 133.8C111.787 133.8 113.259 134.269 114.411 135.208C115.563 136.125 116.416 137.469 116.971 139.24C117.547 140.989 117.835 143.091 117.835 145.544ZM106.251 145.576C106.251 147.432 106.368 148.989 106.603 150.248C106.838 151.485 107.222 152.424 107.755 153.064C108.31 153.683 109.056 153.992 109.995 153.992C110.934 153.992 111.67 153.683 112.203 153.064C112.758 152.445 113.152 151.507 113.387 150.248C113.643 148.989 113.771 147.432 113.771 145.576C113.771 143.699 113.643 142.141 113.387 140.904C113.152 139.645 112.758 138.707 112.203 138.088C111.67 137.448 110.934 137.128 109.995 137.128C109.056 137.128 108.31 137.448 107.755 138.088C107.222 138.707 106.838 139.635 106.603 140.872C106.368 142.109 106.251 143.677 106.251 145.576ZM121.204 154.952C121.204 154.056 121.438 153.427 121.908 153.064C122.377 152.68 122.953 152.488 123.636 152.488C124.318 152.488 124.894 152.669 125.364 153.032C125.854 153.395 126.1 154.035 126.1 154.952C126.1 155.827 125.854 156.456 125.364 156.84C124.894 157.224 124.318 157.416 123.636 157.416C122.953 157.416 122.377 157.224 121.908 156.84C121.438 156.456 121.204 155.827 121.204 154.952ZM145.085 145.544C145.085 147.4 144.946 149.053 144.669 150.504C144.392 151.955 143.933 153.192 143.293 154.216C142.674 155.219 141.864 155.987 140.861 156.52C139.88 157.053 138.674 157.32 137.245 157.32C135.453 157.32 133.981 156.851 132.829 155.912C131.677 154.973 130.824 153.629 130.269 151.88C129.714 150.109 129.437 147.997 129.437 145.544C129.437 143.091 129.693 140.989 130.205 139.24C130.717 137.491 131.538 136.147 132.669 135.208C133.821 134.269 135.346 133.8 137.245 133.8C139.037 133.8 140.509 134.269 141.661 135.208C142.813 136.125 143.666 137.469 144.221 139.24C144.797 140.989 145.085 143.091 145.085 145.544ZM133.501 145.576C133.501 147.432 133.618 148.989 133.853 150.248C134.088 151.485 134.472 152.424 135.005 153.064C135.56 153.683 136.306 153.992 137.245 153.992C138.184 153.992 138.92 153.683 139.453 153.064C140.008 152.445 140.402 151.507 140.637 150.248C140.893 148.989 141.021 147.432 141.021 145.576C141.021 143.699 140.893 142.141 140.637 140.904C140.402 139.645 140.008 138.707 139.453 138.088C138.92 137.448 138.184 137.128 137.245 137.128C136.306 137.128 135.56 137.448 135.005 138.088C134.472 138.707 134.088 139.635 133.853 140.872C133.618 142.109 133.501 143.677 133.501 145.576ZM152.742 133.832C154.47 133.832 155.771 134.461 156.646 135.72C157.542 136.957 157.99 138.707 157.99 140.968C157.99 143.229 157.563 145 156.71 146.28C155.878 147.539 154.555 148.168 152.742 148.168C151.654 148.168 150.726 147.88 149.958 147.304C149.19 146.728 148.614 145.907 148.23 144.84C147.846 143.752 147.654 142.461 147.654 140.968C147.654 138.707 148.059 136.957 148.87 135.72C149.68 134.461 150.971 133.832 152.742 133.832ZM152.774 136.616C152.155 136.616 151.696 136.979 151.398 137.704C151.12 138.429 150.982 139.517 150.982 140.968C150.982 142.44 151.12 143.549 151.398 144.296C151.696 145.021 152.155 145.384 152.774 145.384C153.414 145.384 153.883 145.021 154.182 144.296C154.48 143.549 154.63 142.451 154.63 141C154.63 139.528 154.48 138.429 154.182 137.704C153.883 136.979 153.414 136.616 152.774 136.616ZM168.39 134.152L155.718 157H152.454L165.126 134.152H168.39ZM168.006 142.952C169.136 142.952 170.086 143.24 170.854 143.816C171.622 144.371 172.208 145.181 172.614 146.248C173.019 147.293 173.222 148.573 173.222 150.088C173.222 152.349 172.795 154.12 171.942 155.4C171.11 156.659 169.787 157.288 167.974 157.288C166.886 157.288 165.958 157 165.19 156.424C164.422 155.848 163.846 155.027 163.462 153.96C163.078 152.872 162.885 151.581 162.885 150.088C162.885 147.827 163.291 146.077 164.102 144.84C164.934 143.581 166.235 142.952 168.006 142.952ZM168.006 145.768C167.387 145.768 166.928 146.131 166.63 146.856C166.352 147.56 166.214 148.648 166.214 150.12C166.214 151.592 166.352 152.701 166.63 153.448C166.928 154.173 167.387 154.536 168.006 154.536C168.646 154.536 169.115 154.173 169.414 153.448C169.734 152.723 169.894 151.613 169.894 150.12C169.894 148.648 169.734 147.56 169.414 146.856C169.115 146.131 168.646 145.768 168.006 145.768Z" fill="white"/>
<path d="M30.1717 190H28.9117V180.004H34.4977V181.11H30.1717V184.652H34.2317V185.758H30.1717V190ZM39.5035 182.356C39.6435 182.356 39.7928 182.365 39.9515 182.384C40.1195 182.393 40.2641 182.412 40.3855 182.44L40.2315 183.574C40.1101 183.546 39.9748 183.523 39.8255 183.504C39.6855 183.485 39.5501 183.476 39.4195 183.476C39.1301 183.476 38.8548 183.537 38.5935 183.658C38.3321 183.779 38.0988 183.952 37.8935 184.176C37.6881 184.391 37.5248 184.652 37.4035 184.96C37.2915 185.268 37.2355 185.613 37.2355 185.996V190H36.0035V182.496H37.0115L37.1515 183.868H37.2075C37.3661 183.588 37.5575 183.336 37.7815 183.112C38.0055 182.879 38.2621 182.697 38.5515 182.566C38.8408 182.426 39.1581 182.356 39.5035 182.356ZM48.0372 186.234C48.0372 186.859 47.9532 187.415 47.7852 187.9C47.6266 188.376 47.3932 188.782 47.0852 189.118C46.7866 189.454 46.4179 189.711 45.9792 189.888C45.5499 190.056 45.0692 190.14 44.5372 190.14C44.0426 190.14 43.5852 190.056 43.1652 189.888C42.7452 189.711 42.3812 189.454 42.0732 189.118C41.7652 188.782 41.5226 188.376 41.3452 187.9C41.1772 187.415 41.0932 186.859 41.0932 186.234C41.0932 185.403 41.2332 184.703 41.5132 184.134C41.7932 183.555 42.1946 183.117 42.7172 182.818C43.2399 182.51 43.8606 182.356 44.5792 182.356C45.2606 182.356 45.8579 182.51 46.3712 182.818C46.8939 183.117 47.2999 183.555 47.5892 184.134C47.8879 184.703 48.0372 185.403 48.0372 186.234ZM42.3672 186.234C42.3672 186.822 42.4419 187.335 42.5912 187.774C42.7499 188.203 42.9926 188.535 43.3192 188.768C43.6459 189.001 44.0612 189.118 44.5652 189.118C45.0692 189.118 45.4846 189.001 45.8112 188.768C46.1379 188.535 46.3759 188.203 46.5252 187.774C46.6839 187.335 46.7632 186.822 46.7632 186.234C46.7632 185.637 46.6839 185.128 46.5252 184.708C46.3666 184.288 46.1239 183.966 45.7972 183.742C45.4799 183.509 45.0646 183.392 44.5512 183.392C43.7859 183.392 43.2306 183.644 42.8852 184.148C42.5399 184.652 42.3672 185.347 42.3672 186.234ZM58.2218 182.356C59.0711 182.356 59.7058 182.575 60.1258 183.014C60.5458 183.443 60.7558 184.143 60.7558 185.114V190H59.5378V185.17C59.5378 184.582 59.4118 184.139 59.1598 183.84C58.9171 183.541 58.5345 183.392 58.0118 183.392C57.2838 183.392 56.7611 183.602 56.4438 184.022C56.1358 184.442 55.9818 185.053 55.9818 185.856V190H54.7638V185.17C54.7638 184.778 54.7078 184.451 54.5958 184.19C54.4838 183.919 54.3158 183.719 54.0918 183.588C53.8678 183.457 53.5785 183.392 53.2238 183.392C52.7198 183.392 52.3231 183.499 52.0338 183.714C51.7445 183.919 51.5345 184.223 51.4038 184.624C51.2825 185.025 51.2218 185.52 51.2218 186.108V190H49.9898V182.496H50.9838L51.1658 183.518H51.2358C51.3945 183.257 51.5858 183.042 51.8098 182.874C52.0431 182.697 52.2998 182.566 52.5798 182.482C52.8598 182.398 53.1491 182.356 53.4478 182.356C54.0265 182.356 54.5071 182.459 54.8898 182.664C55.2818 182.869 55.5665 183.187 55.7438 183.616H55.8138C56.0658 183.187 56.4065 182.869 56.8358 182.664C57.2745 182.459 57.7365 182.356 58.2218 182.356ZM72.4645 190H66.8785V180.004H72.4645V181.11H68.1385V184.232H72.2125V185.324H68.1385V188.894H72.4645V190ZM76.1418 190L73.2998 182.496H74.6158L76.2118 186.92C76.2865 187.125 76.3658 187.354 76.4498 187.606C76.5338 187.858 76.6085 188.101 76.6738 188.334C76.7391 188.558 76.7858 188.749 76.8138 188.908H76.8698C76.9071 188.749 76.9585 188.553 77.0238 188.32C77.0985 188.087 77.1778 187.844 77.2618 187.592C77.3551 187.34 77.4345 187.116 77.4998 186.92L79.0958 182.496H80.4118L77.5558 190H76.1418ZM84.4972 182.356C85.1412 182.356 85.6918 182.496 86.1492 182.776C86.6158 183.056 86.9705 183.453 87.2132 183.966C87.4652 184.47 87.5912 185.063 87.5912 185.744V186.486H82.4532C82.4718 187.335 82.6865 187.984 83.0972 188.432C83.5172 188.871 84.1005 189.09 84.8472 189.09C85.3232 189.09 85.7432 189.048 86.1072 188.964C86.4805 188.871 86.8632 188.74 87.2552 188.572V189.65C86.8725 189.818 86.4945 189.939 86.1212 190.014C85.7478 190.098 85.3045 190.14 84.7912 190.14C84.0818 190.14 83.4518 189.995 82.9012 189.706C82.3598 189.417 81.9352 188.987 81.6272 188.418C81.3285 187.839 81.1792 187.135 81.1792 186.304C81.1792 185.483 81.3145 184.778 81.5852 184.19C81.8652 183.602 82.2525 183.149 82.7472 182.832C83.2512 182.515 83.8345 182.356 84.4972 182.356ZM84.4832 183.364C83.8952 183.364 83.4285 183.555 83.0832 183.938C82.7472 184.311 82.5465 184.834 82.4812 185.506H86.3032C86.3032 185.077 86.2378 184.703 86.1072 184.386C85.9765 184.069 85.7758 183.821 85.5052 183.644C85.2438 183.457 84.9032 183.364 84.4832 183.364ZM93.0015 182.356C93.1415 182.356 93.2909 182.365 93.4495 182.384C93.6175 182.393 93.7622 182.412 93.8835 182.44L93.7295 183.574C93.6082 183.546 93.4729 183.523 93.3235 183.504C93.1835 183.485 93.0482 183.476 92.9175 183.476C92.6282 183.476 92.3529 183.537 92.0915 183.658C91.8302 183.779 91.5969 183.952 91.3915 184.176C91.1862 184.391 91.0229 184.652 90.9015 184.96C90.7895 185.268 90.7335 185.613 90.7335 185.996V190H89.5015V182.496H90.5095L90.6495 183.868H90.7055C90.8642 183.588 91.0555 183.336 91.2795 183.112C91.5035 182.879 91.7602 182.697 92.0495 182.566C92.3389 182.426 92.6562 182.356 93.0015 182.356ZM94.1087 182.496H95.4247L97.0487 186.766C97.1421 187.018 97.2261 187.261 97.3007 187.494C97.3847 187.727 97.4594 187.956 97.5247 188.18C97.5901 188.395 97.6414 188.605 97.6787 188.81H97.7347C97.7907 188.577 97.8794 188.273 98.0007 187.9C98.1221 187.517 98.2481 187.135 98.3787 186.752L99.9047 182.496H101.235L98.0007 191.036C97.8234 191.503 97.6134 191.909 97.3707 192.254C97.1374 192.609 96.8481 192.879 96.5027 193.066C96.1667 193.262 95.7561 193.36 95.2707 193.36C95.0467 193.36 94.8507 193.346 94.6827 193.318C94.5147 193.299 94.3701 193.276 94.2487 193.248V192.268C94.3514 192.287 94.4727 192.305 94.6127 192.324C94.7621 192.343 94.9161 192.352 95.0747 192.352C95.3641 192.352 95.6114 192.296 95.8167 192.184C96.0314 192.081 96.2134 191.927 96.3627 191.722C96.5121 191.526 96.6381 191.293 96.7407 191.022L97.1327 190.028L94.1087 182.496ZM114.948 184.988C114.948 185.763 114.85 186.467 114.654 187.102C114.458 187.727 114.164 188.269 113.772 188.726C113.389 189.183 112.909 189.533 112.33 189.776C111.761 190.019 111.098 190.14 110.342 190.14C109.558 190.14 108.877 190.019 108.298 189.776C107.719 189.524 107.239 189.174 106.856 188.726C106.473 188.269 106.189 187.723 106.002 187.088C105.815 186.453 105.722 185.749 105.722 184.974C105.722 183.947 105.89 183.051 106.226 182.286C106.562 181.521 107.071 180.923 107.752 180.494C108.443 180.065 109.311 179.85 110.356 179.85C111.355 179.85 112.195 180.065 112.876 180.494C113.557 180.914 114.071 181.511 114.416 182.286C114.771 183.051 114.948 183.952 114.948 184.988ZM107.052 184.988C107.052 185.828 107.169 186.551 107.402 187.158C107.635 187.765 107.995 188.231 108.48 188.558C108.975 188.885 109.595 189.048 110.342 189.048C111.098 189.048 111.714 188.885 112.19 188.558C112.675 188.231 113.035 187.765 113.268 187.158C113.501 186.551 113.618 185.828 113.618 184.988C113.618 183.728 113.357 182.743 112.834 182.034C112.311 181.315 111.485 180.956 110.356 180.956C109.6 180.956 108.975 181.119 108.48 181.446C107.995 181.763 107.635 182.225 107.402 182.832C107.169 183.429 107.052 184.148 107.052 184.988ZM120.496 182.356C120.636 182.356 120.785 182.365 120.944 182.384C121.112 182.393 121.256 182.412 121.378 182.44L121.224 183.574C121.102 183.546 120.967 183.523 120.818 183.504C120.678 183.485 120.542 183.476 120.412 183.476C120.122 183.476 119.847 183.537 119.586 183.658C119.324 183.779 119.091 183.952 118.886 184.176C118.68 184.391 118.517 184.652 118.396 184.96C118.284 185.268 118.228 185.613 118.228 185.996V190H116.996V182.496H118.004L118.144 183.868H118.2C118.358 183.588 118.55 183.336 118.774 183.112C118.998 182.879 119.254 182.697 119.544 182.566C119.833 182.426 120.15 182.356 120.496 182.356ZM125.165 190.14C124.232 190.14 123.485 189.818 122.925 189.174C122.365 188.521 122.085 187.55 122.085 186.262C122.085 184.974 122.365 184.003 122.925 183.35C123.495 182.687 124.246 182.356 125.179 182.356C125.571 182.356 125.912 182.407 126.201 182.51C126.491 182.603 126.743 182.734 126.957 182.902C127.172 183.07 127.354 183.257 127.503 183.462H127.587C127.578 183.341 127.559 183.163 127.531 182.93C127.513 182.687 127.503 182.496 127.503 182.356V179.36H128.735V190H127.741L127.559 188.992H127.503C127.354 189.207 127.172 189.403 126.957 189.58C126.743 189.748 126.486 189.883 126.187 189.986C125.898 190.089 125.557 190.14 125.165 190.14ZM125.361 189.118C126.155 189.118 126.71 188.903 127.027 188.474C127.354 188.035 127.517 187.377 127.517 186.5V186.276C127.517 185.343 127.363 184.629 127.055 184.134C126.747 183.63 126.178 183.378 125.347 183.378C124.685 183.378 124.185 183.644 123.849 184.176C123.523 184.699 123.359 185.403 123.359 186.29C123.359 187.186 123.523 187.881 123.849 188.376C124.185 188.871 124.689 189.118 125.361 189.118ZM134.017 182.356C134.661 182.356 135.211 182.496 135.669 182.776C136.135 183.056 136.49 183.453 136.733 183.966C136.985 184.47 137.111 185.063 137.111 185.744V186.486H131.973C131.991 187.335 132.206 187.984 132.617 188.432C133.037 188.871 133.62 189.09 134.367 189.09C134.843 189.09 135.263 189.048 135.627 188.964C136 188.871 136.383 188.74 136.775 188.572V189.65C136.392 189.818 136.014 189.939 135.641 190.014C135.267 190.098 134.824 190.14 134.311 190.14C133.601 190.14 132.971 189.995 132.421 189.706C131.879 189.417 131.455 188.987 131.147 188.418C130.848 187.839 130.699 187.135 130.699 186.304C130.699 185.483 130.834 184.778 131.105 184.19C131.385 183.602 131.772 183.149 132.267 182.832C132.771 182.515 133.354 182.356 134.017 182.356ZM134.003 183.364C133.415 183.364 132.948 183.555 132.603 183.938C132.267 184.311 132.066 184.834 132.001 185.506H135.823C135.823 185.077 135.757 184.703 135.627 184.386C135.496 184.069 135.295 183.821 135.025 183.644C134.763 183.457 134.423 183.364 134.003 183.364ZM142.521 182.356C142.661 182.356 142.81 182.365 142.969 182.384C143.137 182.393 143.282 182.412 143.403 182.44L143.249 183.574C143.128 183.546 142.992 183.523 142.843 183.504C142.703 183.485 142.568 183.476 142.437 183.476C142.148 183.476 141.872 183.537 141.611 183.658C141.35 183.779 141.116 183.952 140.911 184.176C140.706 184.391 140.542 184.652 140.421 184.96C140.309 185.268 140.253 185.613 140.253 185.996V190H139.021V182.496H140.029L140.169 183.868H140.225C140.384 183.588 140.575 183.336 140.799 183.112C141.023 182.879 141.28 182.697 141.569 182.566C141.858 182.426 142.176 182.356 142.521 182.356ZM147.265 182.496H148.581L150.205 186.766C150.298 187.018 150.382 187.261 150.457 187.494C150.541 187.727 150.616 187.956 150.681 188.18C150.746 188.395 150.798 188.605 150.835 188.81H150.891C150.947 188.577 151.036 188.273 151.157 187.9C151.278 187.517 151.404 187.135 151.535 186.752L153.061 182.496H154.391L151.157 191.036C150.98 191.503 150.77 191.909 150.527 192.254C150.294 192.609 150.004 192.879 149.659 193.066C149.323 193.262 148.912 193.36 148.427 193.36C148.203 193.36 148.007 193.346 147.839 193.318C147.671 193.299 147.526 193.276 147.405 193.248V192.268C147.508 192.287 147.629 192.305 147.769 192.324C147.918 192.343 148.072 192.352 148.231 192.352C148.52 192.352 148.768 192.296 148.973 192.184C149.188 192.081 149.37 191.927 149.519 191.722C149.668 191.526 149.794 191.293 149.897 191.022L150.289 190.028L147.265 182.496ZM162.102 186.234C162.102 186.859 162.018 187.415 161.85 187.9C161.691 188.376 161.458 188.782 161.15 189.118C160.851 189.454 160.482 189.711 160.044 189.888C159.614 190.056 159.134 190.14 158.602 190.14C158.107 190.14 157.65 190.056 157.23 189.888C156.81 189.711 156.446 189.454 156.138 189.118C155.83 188.782 155.587 188.376 155.41 187.9C155.242 187.415 155.158 186.859 155.158 186.234C155.158 185.403 155.298 184.703 155.578 184.134C155.858 183.555 156.259 183.117 156.782 182.818C157.304 182.51 157.925 182.356 158.644 182.356C159.325 182.356 159.922 182.51 160.436 182.818C160.958 183.117 161.364 183.555 161.654 184.134C161.952 184.703 162.102 185.403 162.102 186.234ZM156.432 186.234C156.432 186.822 156.506 187.335 156.656 187.774C156.814 188.203 157.057 188.535 157.384 188.768C157.71 189.001 158.126 189.118 158.63 189.118C159.134 189.118 159.549 189.001 159.876 188.768C160.202 188.535 160.44 188.203 160.59 187.774C160.748 187.335 160.828 186.822 160.828 186.234C160.828 185.637 160.748 185.128 160.59 184.708C160.431 184.288 160.188 183.966 159.862 183.742C159.544 183.509 159.129 183.392 158.616 183.392C157.85 183.392 157.295 183.644 156.95 184.148C156.604 184.652 156.432 185.347 156.432 186.234ZM170.326 182.496V190H169.318L169.136 189.006H169.08C168.922 189.267 168.716 189.482 168.464 189.65C168.212 189.818 167.937 189.939 167.638 190.014C167.34 190.098 167.027 190.14 166.7 190.14C166.103 190.14 165.599 190.047 165.188 189.86C164.787 189.664 164.484 189.365 164.278 188.964C164.073 188.563 163.97 188.045 163.97 187.41V182.496H165.216V187.326C165.216 187.923 165.352 188.371 165.622 188.67C165.893 188.969 166.313 189.118 166.882 189.118C167.442 189.118 167.881 189.015 168.198 188.81C168.525 188.595 168.754 188.287 168.884 187.886C169.024 187.475 169.094 186.981 169.094 186.402V182.496H170.326ZM179.845 182.356C179.985 182.356 180.135 182.365 180.293 182.384C180.461 182.393 180.606 182.412 180.727 182.44L180.573 183.574C180.452 183.546 180.317 183.523 180.167 183.504C180.027 183.485 179.892 183.476 179.761 183.476C179.472 183.476 179.197 183.537 178.935 183.658C178.674 183.779 178.441 183.952 178.235 184.176C178.03 184.391 177.867 184.652 177.745 184.96C177.633 185.268 177.577 185.613 177.577 185.996V190H176.345V182.496H177.353L177.493 183.868H177.549C177.708 183.588 177.899 183.336 178.123 183.112C178.347 182.879 178.604 182.697 178.893 182.566C179.183 182.426 179.5 182.356 179.845 182.356ZM184.753 182.356C185.397 182.356 185.948 182.496 186.405 182.776C186.872 183.056 187.226 183.453 187.469 183.966C187.721 184.47 187.847 185.063 187.847 185.744V186.486H182.709C182.728 187.335 182.942 187.984 183.353 188.432C183.773 188.871 184.356 189.09 185.103 189.09C185.579 189.09 185.999 189.048 186.363 188.964C186.736 188.871 187.119 188.74 187.511 188.572V189.65C187.128 189.818 186.75 189.939 186.377 190.014C186.004 190.098 185.56 190.14 185.047 190.14C184.338 190.14 183.708 189.995 183.157 189.706C182.616 189.417 182.191 188.987 181.883 188.418C181.584 187.839 181.435 187.135 181.435 186.304C181.435 185.483 181.57 184.778 181.841 184.19C182.121 183.602 182.508 183.149 183.003 182.832C183.507 182.515 184.09 182.356 184.753 182.356ZM184.739 183.364C184.151 183.364 183.684 183.555 183.339 183.938C183.003 184.311 182.802 184.834 182.737 185.506H186.559C186.559 185.077 186.494 184.703 186.363 184.386C186.232 184.069 186.032 183.821 185.761 183.644C185.5 183.457 185.159 183.364 184.739 183.364ZM192.767 190.14C192.105 190.14 191.512 190.005 190.989 189.734C190.476 189.463 190.07 189.043 189.771 188.474C189.482 187.905 189.337 187.177 189.337 186.29C189.337 185.366 189.491 184.615 189.799 184.036C190.107 183.457 190.523 183.033 191.045 182.762C191.577 182.491 192.179 182.356 192.851 182.356C193.234 182.356 193.603 182.398 193.957 182.482C194.312 182.557 194.601 182.65 194.825 182.762L194.447 183.784C194.223 183.7 193.962 183.621 193.663 183.546C193.365 183.471 193.085 183.434 192.823 183.434C192.319 183.434 191.904 183.541 191.577 183.756C191.251 183.971 191.008 184.288 190.849 184.708C190.691 185.128 190.611 185.651 190.611 186.276C190.611 186.873 190.691 187.382 190.849 187.802C191.008 188.222 191.246 188.539 191.563 188.754C191.881 188.969 192.277 189.076 192.753 189.076C193.164 189.076 193.523 189.034 193.831 188.95C194.149 188.866 194.438 188.763 194.699 188.642V189.734C194.447 189.865 194.167 189.963 193.859 190.028C193.561 190.103 193.197 190.14 192.767 190.14ZM199.382 182.356C200.026 182.356 200.577 182.496 201.034 182.776C201.501 183.056 201.855 183.453 202.098 183.966C202.35 184.47 202.476 185.063 202.476 185.744V186.486H197.338C197.357 187.335 197.571 187.984 197.982 188.432C198.402 188.871 198.985 189.09 199.732 189.09C200.208 189.09 200.628 189.048 200.992 188.964C201.365 188.871 201.748 188.74 202.14 188.572V189.65C201.757 189.818 201.379 189.939 201.006 190.014C200.633 190.098 200.189 190.14 199.676 190.14C198.967 190.14 198.337 189.995 197.786 189.706C197.245 189.417 196.82 188.987 196.512 188.418C196.213 187.839 196.064 187.135 196.064 186.304C196.064 185.483 196.199 184.778 196.47 184.19C196.75 183.602 197.137 183.149 197.632 182.832C198.136 182.515 198.719 182.356 199.382 182.356ZM199.368 183.364C198.78 183.364 198.313 183.555 197.968 183.938C197.632 184.311 197.431 184.834 197.366 185.506H201.188C201.188 185.077 201.123 184.703 200.992 184.386C200.861 184.069 200.661 183.821 200.39 183.644C200.129 183.457 199.788 183.364 199.368 183.364ZM205.618 182.496V190H204.386V182.496H205.618ZM205.016 179.682C205.203 179.682 205.366 179.747 205.506 179.878C205.656 179.999 205.73 180.195 205.73 180.466C205.73 180.727 205.656 180.923 205.506 181.054C205.366 181.185 205.203 181.25 205.016 181.25C204.811 181.25 204.638 181.185 204.498 181.054C204.358 180.923 204.288 180.727 204.288 180.466C204.288 180.195 204.358 179.999 204.498 179.878C204.638 179.747 204.811 179.682 205.016 179.682ZM210.894 182.356C211.538 182.356 212.088 182.496 212.546 182.776C213.012 183.056 213.367 183.453 213.61 183.966C213.862 184.47 213.988 185.063 213.988 185.744V186.486H208.85C208.868 187.335 209.083 187.984 209.494 188.432C209.914 188.871 210.497 189.09 211.244 189.09C211.72 189.09 212.14 189.048 212.504 188.964C212.877 188.871 213.26 188.74 213.652 188.572V189.65C213.269 189.818 212.891 189.939 212.518 190.014C212.144 190.098 211.701 190.14 211.188 190.14C210.478 190.14 209.848 189.995 209.298 189.706C208.756 189.417 208.332 188.987 208.024 188.418C207.725 187.839 207.576 187.135 207.576 186.304C207.576 185.483 207.711 184.778 207.982 184.19C208.262 183.602 208.649 183.149 209.144 182.832C209.648 182.515 210.231 182.356 210.894 182.356ZM210.88 183.364C210.292 183.364 209.825 183.555 209.48 183.938C209.144 184.311 208.943 184.834 208.878 185.506H212.7C212.7 185.077 212.634 184.703 212.504 184.386C212.373 184.069 212.172 183.821 211.902 183.644C211.64 183.457 211.3 183.364 210.88 183.364ZM217.277 190L214.435 182.496H215.751L217.347 186.92C217.421 187.125 217.501 187.354 217.585 187.606C217.669 187.858 217.743 188.101 217.809 188.334C217.874 188.558 217.921 188.749 217.949 188.908H218.005C218.042 188.749 218.093 188.553 218.159 188.32C218.233 188.087 218.313 187.844 218.397 187.592C218.49 187.34 218.569 187.116 218.635 186.92L220.231 182.496H221.547L218.691 190H217.277ZM225.632 182.356C226.276 182.356 226.827 182.496 227.284 182.776C227.751 183.056 228.105 183.453 228.348 183.966C228.6 184.47 228.726 185.063 228.726 185.744V186.486H223.588C223.607 187.335 223.821 187.984 224.232 188.432C224.652 188.871 225.235 189.09 225.982 189.09C226.458 189.09 226.878 189.048 227.242 188.964C227.615 188.871 227.998 188.74 228.39 188.572V189.65C228.007 189.818 227.629 189.939 227.256 190.014C226.883 190.098 226.439 190.14 225.926 190.14C225.217 190.14 224.587 189.995 224.036 189.706C223.495 189.417 223.07 188.987 222.762 188.418C222.463 187.839 222.314 187.135 222.314 186.304C222.314 185.483 222.449 184.778 222.72 184.19C223 183.602 223.387 183.149 223.882 182.832C224.386 182.515 224.969 182.356 225.632 182.356ZM225.618 183.364C225.03 183.364 224.563 183.555 224.218 183.938C223.882 184.311 223.681 184.834 223.616 185.506H227.438C227.438 185.077 227.373 184.703 227.242 184.386C227.111 184.069 226.911 183.821 226.64 183.644C226.379 183.457 226.038 183.364 225.618 183.364Z" fill="white"/>
<circle cx="33" cy="221" r="10" fill="white"/>
<path d="M29.25 221.625L32.25 223.5L36.75 218.5" stroke="#750F22" stroke-width="1.25" stroke-linecap="round" stroke-linejoin="round"/>
<path d="M53.828 226H52.33V216.004H57.958V217.292H53.828V220.554H57.692V221.842H53.828V226ZM66.0545 218.454V226H64.8645L64.6545 225.006H64.5845C64.4258 225.267 64.2205 225.482 63.9685 225.65C63.7165 225.818 63.4412 225.939 63.1425 226.014C62.8438 226.098 62.5358 226.14 62.2185 226.14C61.6305 226.14 61.1312 226.047 60.7205 225.86C60.3192 225.664 60.0112 225.365 59.7965 224.964C59.5912 224.553 59.4885 224.031 59.4885 223.396V218.454H60.9865V223.172C60.9865 223.76 61.1078 224.199 61.3505 224.488C61.6025 224.777 61.9898 224.922 62.5125 224.922C63.0352 224.922 63.4458 224.819 63.7445 224.614C64.0432 224.409 64.2532 224.11 64.3745 223.718C64.5052 223.317 64.5705 222.836 64.5705 222.276V218.454H66.0545ZM69.8608 226H68.3768V215.36H69.8608V226ZM73.6753 226H72.1913V215.36H73.6753V226ZM82.5685 218.314C83.5205 218.314 84.2298 218.524 84.6965 218.944C85.1631 219.355 85.3965 220.003 85.3965 220.89V226H84.3465L84.0525 224.95H83.9965C83.7818 225.221 83.5578 225.445 83.3245 225.622C83.1005 225.799 82.8391 225.93 82.5405 226.014C82.2511 226.098 81.8965 226.14 81.4765 226.14C81.0285 226.14 80.6225 226.061 80.2585 225.902C79.9038 225.734 79.6238 225.482 79.4185 225.146C79.2131 224.801 79.1105 224.371 79.1105 223.858C79.1105 223.093 79.3998 222.509 79.9785 222.108C80.5665 221.707 81.4578 221.487 82.6525 221.45L83.9405 221.408V220.988C83.9405 220.428 83.8145 220.036 83.5625 219.812C83.3105 219.588 82.9558 219.476 82.4985 219.476C82.1065 219.476 81.7331 219.532 81.3785 219.644C81.0238 219.756 80.6878 219.891 80.3705 220.05L79.8945 218.972C80.2491 218.785 80.6551 218.631 81.1125 218.51C81.5791 218.379 82.0645 218.314 82.5685 218.314ZM82.9185 222.402C82.0598 222.439 81.4625 222.584 81.1265 222.836C80.7998 223.079 80.6365 223.424 80.6365 223.872C80.6365 224.264 80.7531 224.549 80.9865 224.726C81.2291 224.903 81.5325 224.992 81.8965 224.992C82.4845 224.992 82.9698 224.829 83.3525 224.502C83.7351 224.175 83.9265 223.685 83.9265 223.032V222.374L82.9185 222.402ZM90.7195 226.14C90.0289 226.14 89.4222 226.005 88.8995 225.734C88.3769 225.463 87.9709 225.043 87.6815 224.474C87.3922 223.895 87.2475 223.163 87.2475 222.276C87.2475 221.343 87.4015 220.587 87.7095 220.008C88.0269 219.429 88.4515 219.005 88.9835 218.734C89.5249 218.454 90.1409 218.314 90.8315 218.314C91.2515 218.314 91.6435 218.361 92.0075 218.454C92.3809 218.538 92.6889 218.636 92.9315 218.748L92.4835 219.952C92.2222 219.849 91.9422 219.761 91.6435 219.686C91.3542 219.611 91.0789 219.574 90.8175 219.574C90.3509 219.574 89.9635 219.677 89.6555 219.882C89.3569 220.078 89.1329 220.377 88.9835 220.778C88.8435 221.17 88.7735 221.665 88.7735 222.262C88.7735 222.831 88.8482 223.312 88.9975 223.704C89.1469 224.096 89.3662 224.395 89.6555 224.6C89.9542 224.796 90.3229 224.894 90.7615 224.894C91.1815 224.894 91.5502 224.847 91.8675 224.754C92.1849 224.661 92.4835 224.539 92.7635 224.39V225.678C92.4929 225.837 92.1989 225.953 91.8815 226.028C91.5642 226.103 91.1769 226.14 90.7195 226.14ZM97.5828 226.14C96.8921 226.14 96.2855 226.005 95.7628 225.734C95.2401 225.463 94.8341 225.043 94.5448 224.474C94.2555 223.895 94.1108 223.163 94.1108 222.276C94.1108 221.343 94.2648 220.587 94.5728 220.008C94.8901 219.429 95.3148 219.005 95.8468 218.734C96.3881 218.454 97.0041 218.314 97.6948 218.314C98.1148 218.314 98.5068 218.361 98.8708 218.454C99.2441 218.538 99.5521 218.636 99.7948 218.748L99.3468 219.952C99.0855 219.849 98.8055 219.761 98.5068 219.686C98.2175 219.611 97.9421 219.574 97.6808 219.574C97.2141 219.574 96.8268 219.677 96.5188 219.882C96.2201 220.078 95.9961 220.377 95.8468 220.778C95.7068 221.17 95.6368 221.665 95.6368 222.262C95.6368 222.831 95.7115 223.312 95.8608 223.704C96.0101 224.096 96.2295 224.395 96.5188 224.6C96.8175 224.796 97.1861 224.894 97.6248 224.894C98.0448 224.894 98.4135 224.847 98.7308 224.754C99.0481 224.661 99.3468 224.539 99.6268 224.39V225.678C99.3561 225.837 99.0621 225.953 98.7448 226.028C98.4275 226.103 98.0401 226.14 97.5828 226.14ZM104.376 218.314C105.039 218.314 105.608 218.454 106.084 218.734C106.56 219.005 106.924 219.397 107.176 219.91C107.437 220.423 107.568 221.03 107.568 221.73V222.542H102.5C102.519 223.317 102.719 223.909 103.102 224.32C103.494 224.731 104.04 224.936 104.74 224.936C105.225 224.936 105.655 224.894 106.028 224.81C106.411 224.717 106.803 224.581 107.204 224.404V225.636C106.831 225.804 106.448 225.93 106.056 226.014C105.673 226.098 105.216 226.14 104.684 226.14C103.956 226.14 103.312 225.995 102.752 225.706C102.192 225.417 101.753 224.987 101.436 224.418C101.128 223.839 100.974 223.13 100.974 222.29C100.974 221.441 101.114 220.722 101.394 220.134C101.683 219.546 102.08 219.098 102.584 218.79C103.097 218.473 103.695 218.314 104.376 218.314ZM104.376 219.462C103.844 219.462 103.415 219.635 103.088 219.98C102.771 220.325 102.584 220.815 102.528 221.45H106.084C106.084 221.058 106.023 220.713 105.902 220.414C105.781 220.115 105.594 219.882 105.342 219.714C105.09 219.546 104.768 219.462 104.376 219.462ZM114.432 223.872C114.432 224.367 114.31 224.782 114.068 225.118C113.825 225.454 113.475 225.711 113.018 225.888C112.56 226.056 112.01 226.14 111.366 226.14C110.834 226.14 110.376 226.098 109.994 226.014C109.62 225.939 109.275 225.827 108.958 225.678V224.376C109.294 224.535 109.681 224.679 110.12 224.81C110.558 224.931 110.988 224.992 111.408 224.992C111.968 224.992 112.369 224.903 112.612 224.726C112.864 224.549 112.99 224.311 112.99 224.012C112.99 223.844 112.943 223.695 112.85 223.564C112.756 223.424 112.579 223.284 112.318 223.144C112.066 222.995 111.692 222.827 111.198 222.64C110.722 222.444 110.316 222.253 109.98 222.066C109.644 221.87 109.387 221.641 109.21 221.38C109.032 221.109 108.944 220.764 108.944 220.344C108.944 219.691 109.205 219.191 109.728 218.846C110.26 218.491 110.96 218.314 111.828 218.314C112.285 218.314 112.714 218.361 113.116 218.454C113.526 218.538 113.923 218.669 114.306 218.846L113.816 219.98C113.601 219.877 113.377 219.793 113.144 219.728C112.92 219.653 112.691 219.593 112.458 219.546C112.234 219.499 112 219.476 111.758 219.476C111.31 219.476 110.969 219.546 110.736 219.686C110.502 219.826 110.386 220.022 110.386 220.274C110.386 220.451 110.437 220.605 110.54 220.736C110.652 220.867 110.843 220.997 111.114 221.128C111.384 221.259 111.753 221.417 112.22 221.604C112.686 221.781 113.083 221.963 113.41 222.15C113.746 222.337 113.998 222.565 114.166 222.836C114.343 223.107 114.432 223.452 114.432 223.872ZM121.213 223.872C121.213 224.367 121.092 224.782 120.849 225.118C120.606 225.454 120.256 225.711 119.799 225.888C119.342 226.056 118.791 226.14 118.147 226.14C117.615 226.14 117.158 226.098 116.775 226.014C116.402 225.939 116.056 225.827 115.739 225.678V224.376C116.075 224.535 116.462 224.679 116.901 224.81C117.34 224.931 117.769 224.992 118.189 224.992C118.749 224.992 119.15 224.903 119.393 224.726C119.645 224.549 119.771 224.311 119.771 224.012C119.771 223.844 119.724 223.695 119.631 223.564C119.538 223.424 119.36 223.284 119.099 223.144C118.847 222.995 118.474 222.827 117.979 222.64C117.503 222.444 117.097 222.253 116.761 222.066C116.425 221.87 116.168 221.641 115.991 221.38C115.814 221.109 115.725 220.764 115.725 220.344C115.725 219.691 115.986 219.191 116.509 218.846C117.041 218.491 117.741 218.314 118.609 218.314C119.066 218.314 119.496 218.361 119.897 218.454C120.308 218.538 120.704 218.669 121.087 218.846L120.597 219.98C120.382 219.877 120.158 219.793 119.925 219.728C119.701 219.653 119.472 219.593 119.239 219.546C119.015 219.499 118.782 219.476 118.539 219.476C118.091 219.476 117.75 219.546 117.517 219.686C117.284 219.826 117.167 220.022 117.167 220.274C117.167 220.451 117.218 220.605 117.321 220.736C117.433 220.867 117.624 220.997 117.895 221.128C118.166 221.259 118.534 221.417 119.001 221.604C119.468 221.781 119.864 221.963 120.191 222.15C120.527 222.337 120.779 222.565 120.947 222.836C121.124 223.107 121.213 223.452 121.213 223.872ZM129.335 224.936C129.531 224.936 129.732 224.917 129.937 224.88C130.142 224.843 130.32 224.801 130.469 224.754V225.874C130.31 225.949 130.096 226.009 129.825 226.056C129.554 226.112 129.284 226.14 129.013 226.14C128.602 226.14 128.224 226.07 127.879 225.93C127.543 225.79 127.272 225.547 127.067 225.202C126.862 224.857 126.759 224.376 126.759 223.76V219.588H125.709V218.916L126.815 218.356L127.333 216.76H128.243V218.454H130.399V219.588H128.243V223.732C128.243 224.143 128.341 224.446 128.537 224.642C128.742 224.838 129.008 224.936 129.335 224.936ZM138.628 222.22C138.628 222.845 138.544 223.401 138.376 223.886C138.208 224.371 137.97 224.782 137.662 225.118C137.354 225.454 136.981 225.711 136.542 225.888C136.104 226.056 135.609 226.14 135.058 226.14C134.554 226.14 134.088 226.056 133.658 225.888C133.229 225.711 132.856 225.454 132.538 225.118C132.23 224.782 131.988 224.371 131.81 223.886C131.633 223.401 131.544 222.841 131.544 222.206C131.544 221.375 131.684 220.671 131.964 220.092C132.254 219.513 132.664 219.075 133.196 218.776C133.738 218.468 134.372 218.314 135.1 218.314C135.791 218.314 136.398 218.468 136.92 218.776C137.452 219.075 137.868 219.513 138.166 220.092C138.474 220.671 138.628 221.38 138.628 222.22ZM133.07 222.22C133.07 222.78 133.14 223.265 133.28 223.676C133.42 224.077 133.64 224.385 133.938 224.6C134.237 224.815 134.62 224.922 135.086 224.922C135.553 224.922 135.936 224.815 136.234 224.6C136.533 224.385 136.752 224.077 136.892 223.676C137.032 223.265 137.102 222.78 137.102 222.22C137.102 221.641 137.028 221.156 136.878 220.764C136.738 220.372 136.519 220.073 136.22 219.868C135.931 219.653 135.548 219.546 135.072 219.546C134.372 219.546 133.864 219.779 133.546 220.246C133.229 220.713 133.07 221.371 133.07 222.22ZM145.84 226L142.984 218.454H144.552L146.12 222.864C146.186 223.051 146.251 223.261 146.316 223.494C146.391 223.727 146.456 223.951 146.512 224.166C146.568 224.381 146.606 224.567 146.624 224.726H146.68C146.708 224.567 146.75 224.381 146.806 224.166C146.872 223.942 146.942 223.718 147.016 223.494C147.091 223.261 147.156 223.051 147.212 222.864L148.78 218.454H150.348L147.478 226H145.84ZM154.484 218.314C155.146 218.314 155.716 218.454 156.192 218.734C156.668 219.005 157.032 219.397 157.284 219.91C157.545 220.423 157.676 221.03 157.676 221.73V222.542H152.608C152.626 223.317 152.827 223.909 153.21 224.32C153.602 224.731 154.148 224.936 154.848 224.936C155.333 224.936 155.762 224.894 156.136 224.81C156.518 224.717 156.91 224.581 157.312 224.404V225.636C156.938 225.804 156.556 225.93 156.164 226.014C155.781 226.098 155.324 226.14 154.792 226.14C154.064 226.14 153.42 225.995 152.86 225.706C152.3 225.417 151.861 224.987 151.544 224.418C151.236 223.839 151.082 223.13 151.082 222.29C151.082 221.441 151.222 220.722 151.502 220.134C151.791 219.546 152.188 219.098 152.692 218.79C153.205 218.473 153.802 218.314 154.484 218.314ZM154.484 219.462C153.952 219.462 153.522 219.635 153.196 219.98C152.878 220.325 152.692 220.815 152.636 221.45H156.192C156.192 221.058 156.131 220.713 156.01 220.414C155.888 220.115 155.702 219.882 155.45 219.714C155.198 219.546 154.876 219.462 154.484 219.462ZM163.349 218.314C164.227 218.314 164.899 218.533 165.365 218.972C165.832 219.411 166.065 220.115 166.065 221.086V226H164.595V221.296C164.595 220.708 164.469 220.269 164.217 219.98C163.975 219.681 163.583 219.532 163.041 219.532C162.276 219.532 161.744 219.761 161.445 220.218C161.156 220.675 161.011 221.333 161.011 222.192V226H159.527V218.454H160.703L160.913 219.462H160.997C161.165 219.201 161.371 218.986 161.613 218.818C161.856 218.65 162.127 218.524 162.425 218.44C162.724 218.356 163.032 218.314 163.349 218.314ZM170.936 226.14C170.03 226.14 169.298 225.813 168.738 225.16C168.187 224.507 167.912 223.536 167.912 222.248C167.912 220.951 168.192 219.971 168.752 219.308C169.312 218.645 170.049 218.314 170.964 218.314C171.346 218.314 171.678 218.365 171.958 218.468C172.247 218.561 172.494 218.692 172.7 218.86C172.914 219.028 173.096 219.215 173.246 219.42H173.33C173.311 219.289 173.288 219.103 173.26 218.86C173.232 218.608 173.218 218.384 173.218 218.188V215.36H174.702V226H173.54L173.288 224.992H173.218C173.078 225.207 172.9 225.403 172.686 225.58C172.48 225.748 172.233 225.883 171.944 225.986C171.654 226.089 171.318 226.14 170.936 226.14ZM171.286 224.922C172.014 224.922 172.527 224.721 172.826 224.32C173.124 223.909 173.274 223.298 173.274 222.486V222.262C173.274 221.375 173.129 220.699 172.84 220.232C172.56 219.765 172.037 219.532 171.272 219.532C170.665 219.532 170.208 219.779 169.9 220.274C169.592 220.759 169.438 221.427 169.438 222.276C169.438 223.125 169.592 223.779 169.9 224.236C170.208 224.693 170.67 224.922 171.286 224.922ZM183.677 222.22C183.677 222.845 183.593 223.401 183.425 223.886C183.257 224.371 183.019 224.782 182.711 225.118C182.403 225.454 182.03 225.711 181.591 225.888C181.153 226.056 180.658 226.14 180.107 226.14C179.603 226.14 179.137 226.056 178.707 225.888C178.278 225.711 177.905 225.454 177.587 225.118C177.279 224.782 177.037 224.371 176.859 223.886C176.682 223.401 176.593 222.841 176.593 222.206C176.593 221.375 176.733 220.671 177.013 220.092C177.303 219.513 177.713 219.075 178.245 218.776C178.787 218.468 179.421 218.314 180.149 218.314C180.84 218.314 181.447 218.468 181.969 218.776C182.501 219.075 182.917 219.513 183.215 220.092C183.523 220.671 183.677 221.38 183.677 222.22ZM178.119 222.22C178.119 222.78 178.189 223.265 178.329 223.676C178.469 224.077 178.689 224.385 178.987 224.6C179.286 224.815 179.669 224.922 180.135 224.922C180.602 224.922 180.985 224.815 181.283 224.6C181.582 224.385 181.801 224.077 181.941 223.676C182.081 223.265 182.151 222.78 182.151 222.22C182.151 221.641 182.077 221.156 181.927 220.764C181.787 220.372 181.568 220.073 181.269 219.868C180.98 219.653 180.597 219.546 180.121 219.546C179.421 219.546 178.913 219.779 178.595 220.246C178.278 220.713 178.119 221.371 178.119 222.22ZM189.282 218.314C189.413 218.314 189.558 218.323 189.716 218.342C189.875 218.351 190.006 218.365 190.108 218.384L189.954 219.77C189.852 219.742 189.73 219.719 189.59 219.7C189.45 219.681 189.32 219.672 189.198 219.672C188.918 219.672 188.648 219.728 188.386 219.84C188.134 219.943 187.906 220.097 187.7 220.302C187.495 220.498 187.332 220.741 187.21 221.03C187.098 221.319 187.042 221.651 187.042 222.024V226H185.558V218.454H186.734L186.93 219.798H186.986C187.145 219.527 187.336 219.28 187.56 219.056C187.784 218.832 188.041 218.655 188.33 218.524C188.62 218.384 188.937 218.314 189.282 218.314ZM198.908 218.314C199.814 218.314 200.542 218.641 201.092 219.294C201.652 219.947 201.932 220.923 201.932 222.22C201.932 223.069 201.806 223.788 201.554 224.376C201.302 224.964 200.948 225.407 200.49 225.706C200.033 225.995 199.501 226.14 198.894 226.14C198.512 226.14 198.176 226.093 197.886 226C197.597 225.897 197.35 225.767 197.144 225.608C196.948 225.44 196.776 225.263 196.626 225.076H196.528C196.556 225.244 196.58 225.445 196.598 225.678C196.617 225.902 196.626 226.103 196.626 226.28V229.36H195.142V218.454H196.346L196.556 219.462H196.626C196.776 219.257 196.953 219.065 197.158 218.888C197.364 218.711 197.611 218.571 197.9 218.468C198.19 218.365 198.526 218.314 198.908 218.314ZM198.558 219.532C198.092 219.532 197.718 219.625 197.438 219.812C197.158 219.989 196.953 220.26 196.822 220.624C196.701 220.979 196.636 221.431 196.626 221.982V222.206C196.626 222.785 196.687 223.279 196.808 223.69C196.93 224.091 197.13 224.399 197.41 224.614C197.7 224.819 198.092 224.922 198.586 224.922C199.006 224.922 199.347 224.81 199.608 224.586C199.879 224.353 200.08 224.031 200.21 223.62C200.341 223.209 200.406 222.733 200.406 222.192C200.406 221.371 200.257 220.722 199.958 220.246C199.66 219.77 199.193 219.532 198.558 219.532ZM206.75 218.314C207.702 218.314 208.411 218.524 208.878 218.944C209.345 219.355 209.578 220.003 209.578 220.89V226H208.528L208.234 224.95H208.178C207.963 225.221 207.739 225.445 207.506 225.622C207.282 225.799 207.021 225.93 206.722 226.014C206.433 226.098 206.078 226.14 205.658 226.14C205.21 226.14 204.804 226.061 204.44 225.902C204.085 225.734 203.805 225.482 203.6 225.146C203.395 224.801 203.292 224.371 203.292 223.858C203.292 223.093 203.581 222.509 204.16 222.108C204.748 221.707 205.639 221.487 206.834 221.45L208.122 221.408V220.988C208.122 220.428 207.996 220.036 207.744 219.812C207.492 219.588 207.137 219.476 206.68 219.476C206.288 219.476 205.915 219.532 205.56 219.644C205.205 219.756 204.869 219.891 204.552 220.05L204.076 218.972C204.431 218.785 204.837 218.631 205.294 218.51C205.761 218.379 206.246 218.314 206.75 218.314ZM207.1 222.402C206.241 222.439 205.644 222.584 205.308 222.836C204.981 223.079 204.818 223.424 204.818 223.872C204.818 224.264 204.935 224.549 205.168 224.726C205.411 224.903 205.714 224.992 206.078 224.992C206.666 224.992 207.151 224.829 207.534 224.502C207.917 224.175 208.108 223.685 208.108 223.032V222.374L207.1 222.402ZM215.685 218.314C216.563 218.314 217.235 218.533 217.701 218.972C218.168 219.411 218.401 220.115 218.401 221.086V226H216.931V221.296C216.931 220.708 216.805 220.269 216.553 219.98C216.311 219.681 215.919 219.532 215.377 219.532C214.612 219.532 214.08 219.761 213.781 220.218C213.492 220.675 213.347 221.333 213.347 222.192V226H211.863V218.454H213.039L213.249 219.462H213.333C213.501 219.201 213.707 218.986 213.949 218.818C214.192 218.65 214.463 218.524 214.761 218.44C215.06 218.356 215.368 218.314 215.685 218.314ZM223.65 218.314C224.312 218.314 224.882 218.454 225.358 218.734C225.834 219.005 226.198 219.397 226.45 219.91C226.711 220.423 226.842 221.03 226.842 221.73V222.542H221.774C221.792 223.317 221.993 223.909 222.376 224.32C222.768 224.731 223.314 224.936 224.014 224.936C224.499 224.936 224.928 224.894 225.302 224.81C225.684 224.717 226.076 224.581 226.478 224.404V225.636C226.104 225.804 225.722 225.93 225.33 226.014C224.947 226.098 224.49 226.14 223.958 226.14C223.23 226.14 222.586 225.995 222.026 225.706C221.466 225.417 221.027 224.987 220.71 224.418C220.402 223.839 220.248 223.13 220.248 222.29C220.248 221.441 220.388 220.722 220.668 220.134C220.957 219.546 221.354 219.098 221.858 218.79C222.371 218.473 222.968 218.314 223.65 218.314ZM223.65 219.462C223.118 219.462 222.688 219.635 222.362 219.98C222.044 220.325 221.858 220.815 221.802 221.45H225.358C225.358 221.058 225.297 220.713 225.176 220.414C225.054 220.115 224.868 219.882 224.616 219.714C224.364 219.546 224.042 219.462 223.65 219.462ZM230.177 226H228.693V215.36H230.177V226Z" fill="white"/>
<circle cx="33" cy="257" r="10" fill="white"/>
<path d="M29.25 257.625L32.25 259.5L36.75 254.5" stroke="#750F22" stroke-width="1.25" stroke-linecap="round" stroke-linejoin="round"/>
<path d="M58.56 262L57.496 259.116H53.632L52.568 262H51L54.794 251.962H56.362L60.142 262H58.56ZM56.068 254.986C56.04 254.883 55.9887 254.729 55.914 254.524C55.8487 254.309 55.7833 254.095 55.718 253.88C55.6527 253.656 55.6013 253.474 55.564 253.334C55.5173 253.521 55.4613 253.726 55.396 253.95C55.34 254.165 55.284 254.365 55.228 254.552C55.172 254.729 55.1253 254.874 55.088 254.986L54.08 257.8H57.076L56.068 254.986ZM62.8062 262H61.3222V251.36H62.8062V262ZM66.6206 262H65.1366V251.36H66.6206V262ZM76.2698 255.588H74.4078V262H72.9238V255.588H71.6498V254.888L72.9238 254.426V253.95C72.9238 253.306 73.0218 252.793 73.2178 252.41C73.4231 252.018 73.7124 251.733 74.0858 251.556C74.4591 251.379 74.9118 251.29 75.4438 251.29C75.7704 251.29 76.0691 251.318 76.3398 251.374C76.6104 251.43 76.8391 251.491 77.0258 251.556L76.6478 252.69C76.4984 252.643 76.3258 252.601 76.1298 252.564C75.9338 252.517 75.7284 252.494 75.5138 252.494C75.1404 252.494 74.8604 252.615 74.6738 252.858C74.4964 253.101 74.4078 253.469 74.4078 253.964V254.454H76.2698V255.588ZM80.5597 254.314C81.2224 254.314 81.7917 254.454 82.2677 254.734C82.7437 255.005 83.1077 255.397 83.3597 255.91C83.621 256.423 83.7517 257.03 83.7517 257.73V258.542H78.6837C78.7024 259.317 78.903 259.909 79.2857 260.32C79.6777 260.731 80.2237 260.936 80.9237 260.936C81.409 260.936 81.8384 260.894 82.2117 260.81C82.5944 260.717 82.9864 260.581 83.3877 260.404V261.636C83.0144 261.804 82.6317 261.93 82.2397 262.014C81.857 262.098 81.3997 262.14 80.8677 262.14C80.1397 262.14 79.4957 261.995 78.9357 261.706C78.3757 261.417 77.937 260.987 77.6197 260.418C77.3117 259.839 77.1577 259.13 77.1577 258.29C77.1577 257.441 77.2977 256.722 77.5777 256.134C77.867 255.546 78.2637 255.098 78.7677 254.79C79.281 254.473 79.8784 254.314 80.5597 254.314ZM80.5597 255.462C80.0277 255.462 79.5984 255.635 79.2717 255.98C78.9544 256.325 78.7677 256.815 78.7117 257.45H82.2677C82.2677 257.058 82.207 256.713 82.0857 256.414C81.9644 256.115 81.7777 255.882 81.5257 255.714C81.2737 255.546 80.9517 255.462 80.5597 255.462ZM88.5294 254.314C89.4814 254.314 90.1907 254.524 90.6574 254.944C91.1241 255.355 91.3574 256.003 91.3574 256.89V262H90.3074L90.0134 260.95H89.9574C89.7427 261.221 89.5187 261.445 89.2854 261.622C89.0614 261.799 88.8001 261.93 88.5014 262.014C88.2121 262.098 87.8574 262.14 87.4374 262.14C86.9894 262.14 86.5834 262.061 86.2194 261.902C85.8647 261.734 85.5847 261.482 85.3794 261.146C85.1741 260.801 85.0714 260.371 85.0714 259.858C85.0714 259.093 85.3607 258.509 85.9394 258.108C86.5274 257.707 87.4187 257.487 88.6134 257.45L89.9014 257.408V256.988C89.9014 256.428 89.7754 256.036 89.5234 255.812C89.2714 255.588 88.9167 255.476 88.4594 255.476C88.0674 255.476 87.6941 255.532 87.3394 255.644C86.9847 255.756 86.6487 255.891 86.3314 256.05L85.8554 254.972C86.2101 254.785 86.6161 254.631 87.0734 254.51C87.5401 254.379 88.0254 254.314 88.5294 254.314ZM88.8794 258.402C88.0207 258.439 87.4234 258.584 87.0874 258.836C86.7607 259.079 86.5974 259.424 86.5974 259.872C86.5974 260.264 86.7141 260.549 86.9474 260.726C87.1901 260.903 87.4934 260.992 87.8574 260.992C88.4454 260.992 88.9307 260.829 89.3134 260.502C89.6961 260.175 89.8874 259.685 89.8874 259.032V258.374L88.8794 258.402ZM96.3585 260.936C96.5545 260.936 96.7551 260.917 96.9605 260.88C97.1658 260.843 97.3431 260.801 97.4925 260.754V261.874C97.3338 261.949 97.1191 262.009 96.8485 262.056C96.5778 262.112 96.3071 262.14 96.0365 262.14C95.6258 262.14 95.2478 262.07 94.9025 261.93C94.5665 261.79 94.2958 261.547 94.0905 261.202C93.8851 260.857 93.7825 260.376 93.7825 259.76V255.588H92.7325V254.916L93.8385 254.356L94.3565 252.76H95.2665V254.454H97.4225V255.588H95.2665V259.732C95.2665 260.143 95.3645 260.446 95.5605 260.642C95.7658 260.838 96.0318 260.936 96.3585 260.936ZM105.498 254.454V262H104.308L104.098 261.006H104.028C103.869 261.267 103.664 261.482 103.412 261.65C103.16 261.818 102.885 261.939 102.586 262.014C102.287 262.098 101.979 262.14 101.662 262.14C101.074 262.14 100.575 262.047 100.164 261.86C99.7625 261.664 99.4545 261.365 99.2398 260.964C99.0345 260.553 98.9318 260.031 98.9318 259.396V254.454H100.43V259.172C100.43 259.76 100.551 260.199 100.794 260.488C101.046 260.777 101.433 260.922 101.956 260.922C102.479 260.922 102.889 260.819 103.188 260.614C103.487 260.409 103.697 260.11 103.818 259.718C103.949 259.317 104.014 258.836 104.014 258.276V254.454H105.498ZM111.544 254.314C111.675 254.314 111.82 254.323 111.978 254.342C112.137 254.351 112.268 254.365 112.37 254.384L112.216 255.77C112.114 255.742 111.992 255.719 111.852 255.7C111.712 255.681 111.582 255.672 111.46 255.672C111.18 255.672 110.91 255.728 110.648 255.84C110.396 255.943 110.168 256.097 109.962 256.302C109.757 256.498 109.594 256.741 109.472 257.03C109.36 257.319 109.304 257.651 109.304 258.024V262H107.82V254.454H108.996L109.192 255.798H109.248C109.407 255.527 109.598 255.28 109.822 255.056C110.046 254.832 110.303 254.655 110.592 254.524C110.882 254.384 111.199 254.314 111.544 254.314ZM116.462 254.314C117.125 254.314 117.694 254.454 118.17 254.734C118.646 255.005 119.01 255.397 119.262 255.91C119.523 256.423 119.654 257.03 119.654 257.73V258.542H114.586C114.605 259.317 114.805 259.909 115.188 260.32C115.58 260.731 116.126 260.936 116.826 260.936C117.311 260.936 117.741 260.894 118.114 260.81C118.497 260.717 118.889 260.581 119.29 260.404V261.636C118.917 261.804 118.534 261.93 118.142 262.014C117.759 262.098 117.302 262.14 116.77 262.14C116.042 262.14 115.398 261.995 114.838 261.706C114.278 261.417 113.839 260.987 113.522 260.418C113.214 259.839 113.06 259.13 113.06 258.29C113.06 257.441 113.2 256.722 113.48 256.134C113.769 255.546 114.166 255.098 114.67 254.79C115.183 254.473 115.781 254.314 116.462 254.314ZM116.462 255.462C115.93 255.462 115.501 255.635 115.174 255.98C114.857 256.325 114.67 256.815 114.614 257.45H118.17C118.17 257.058 118.109 256.713 117.988 256.414C117.867 256.115 117.68 255.882 117.428 255.714C117.176 255.546 116.854 255.462 116.462 255.462ZM126.518 259.872C126.518 260.367 126.396 260.782 126.154 261.118C125.911 261.454 125.561 261.711 125.104 261.888C124.646 262.056 124.096 262.14 123.452 262.14C122.92 262.14 122.462 262.098 122.08 262.014C121.706 261.939 121.361 261.827 121.044 261.678V260.376C121.38 260.535 121.767 260.679 122.206 260.81C122.644 260.931 123.074 260.992 123.494 260.992C124.054 260.992 124.455 260.903 124.698 260.726C124.95 260.549 125.076 260.311 125.076 260.012C125.076 259.844 125.029 259.695 124.936 259.564C124.842 259.424 124.665 259.284 124.404 259.144C124.152 258.995 123.778 258.827 123.284 258.64C122.808 258.444 122.402 258.253 122.066 258.066C121.73 257.87 121.473 257.641 121.296 257.38C121.118 257.109 121.03 256.764 121.03 256.344C121.03 255.691 121.291 255.191 121.814 254.846C122.346 254.491 123.046 254.314 123.914 254.314C124.371 254.314 124.8 254.361 125.202 254.454C125.612 254.538 126.009 254.669 126.392 254.846L125.902 255.98C125.687 255.877 125.463 255.793 125.23 255.728C125.006 255.653 124.777 255.593 124.544 255.546C124.32 255.499 124.086 255.476 123.844 255.476C123.396 255.476 123.055 255.546 122.822 255.686C122.588 255.826 122.472 256.022 122.472 256.274C122.472 256.451 122.523 256.605 122.626 256.736C122.738 256.867 122.929 256.997 123.2 257.128C123.47 257.259 123.839 257.417 124.306 257.604C124.772 257.781 125.169 257.963 125.496 258.15C125.832 258.337 126.084 258.565 126.252 258.836C126.429 259.107 126.518 259.452 126.518 259.872ZM133.408 254.454V262H131.924V254.454H133.408ZM132.68 251.584C132.904 251.584 133.1 251.649 133.268 251.78C133.436 251.911 133.52 252.13 133.52 252.438C133.52 252.737 133.436 252.956 133.268 253.096C133.1 253.227 132.904 253.292 132.68 253.292C132.437 253.292 132.232 253.227 132.064 253.096C131.905 252.956 131.826 252.737 131.826 252.438C131.826 252.13 131.905 251.911 132.064 251.78C132.232 251.649 132.437 251.584 132.68 251.584ZM139.56 254.314C140.438 254.314 141.11 254.533 141.576 254.972C142.043 255.411 142.276 256.115 142.276 257.086V262H140.806V257.296C140.806 256.708 140.68 256.269 140.428 255.98C140.186 255.681 139.794 255.532 139.252 255.532C138.487 255.532 137.955 255.761 137.656 256.218C137.367 256.675 137.222 257.333 137.222 258.192V262H135.738V254.454H136.914L137.124 255.462H137.208C137.376 255.201 137.582 254.986 137.824 254.818C138.067 254.65 138.338 254.524 138.636 254.44C138.935 254.356 139.243 254.314 139.56 254.314ZM147.595 262.14C146.904 262.14 146.297 262.005 145.775 261.734C145.252 261.463 144.846 261.043 144.557 260.474C144.267 259.895 144.123 259.163 144.123 258.276C144.123 257.343 144.277 256.587 144.585 256.008C144.902 255.429 145.327 255.005 145.859 254.734C146.4 254.454 147.016 254.314 147.707 254.314C148.127 254.314 148.519 254.361 148.883 254.454C149.256 254.538 149.564 254.636 149.807 254.748L149.359 255.952C149.097 255.849 148.817 255.761 148.519 255.686C148.229 255.611 147.954 255.574 147.693 255.574C147.226 255.574 146.839 255.677 146.531 255.882C146.232 256.078 146.008 256.377 145.859 256.778C145.719 257.17 145.649 257.665 145.649 258.262C145.649 258.831 145.723 259.312 145.873 259.704C146.022 260.096 146.241 260.395 146.531 260.6C146.829 260.796 147.198 260.894 147.637 260.894C148.057 260.894 148.425 260.847 148.743 260.754C149.06 260.661 149.359 260.539 149.639 260.39V261.678C149.368 261.837 149.074 261.953 148.757 262.028C148.439 262.103 148.052 262.14 147.595 262.14ZM152.904 262H151.42V251.36H152.904V262ZM161.73 254.454V262H160.54L160.33 261.006H160.26C160.102 261.267 159.896 261.482 159.644 261.65C159.392 261.818 159.117 261.939 158.818 262.014C158.52 262.098 158.212 262.14 157.894 262.14C157.306 262.14 156.807 262.047 156.396 261.86C155.995 261.664 155.687 261.365 155.472 260.964C155.267 260.553 155.164 260.031 155.164 259.396V254.454H156.662V259.172C156.662 259.76 156.784 260.199 157.026 260.488C157.278 260.777 157.666 260.922 158.188 260.922C158.711 260.922 159.122 260.819 159.42 260.614C159.719 260.409 159.929 260.11 160.05 259.718C160.181 259.317 160.246 258.836 160.246 258.276V254.454H161.73ZM166.643 262.14C165.737 262.14 165.005 261.813 164.445 261.16C163.894 260.507 163.619 259.536 163.619 258.248C163.619 256.951 163.899 255.971 164.459 255.308C165.019 254.645 165.756 254.314 166.671 254.314C167.053 254.314 167.385 254.365 167.665 254.468C167.954 254.561 168.201 254.692 168.407 254.86C168.621 255.028 168.803 255.215 168.953 255.42H169.037C169.018 255.289 168.995 255.103 168.967 254.86C168.939 254.608 168.925 254.384 168.925 254.188V251.36H170.409V262H169.247L168.995 260.992H168.925C168.785 261.207 168.607 261.403 168.393 261.58C168.187 261.748 167.94 261.883 167.651 261.986C167.361 262.089 167.025 262.14 166.643 262.14ZM166.993 260.922C167.721 260.922 168.234 260.721 168.533 260.32C168.831 259.909 168.981 259.298 168.981 258.486V258.262C168.981 257.375 168.836 256.699 168.547 256.232C168.267 255.765 167.744 255.532 166.979 255.532C166.372 255.532 165.915 255.779 165.607 256.274C165.299 256.759 165.145 257.427 165.145 258.276C165.145 259.125 165.299 259.779 165.607 260.236C165.915 260.693 166.377 260.922 166.993 260.922ZM175.702 254.314C176.365 254.314 176.934 254.454 177.41 254.734C177.886 255.005 178.25 255.397 178.502 255.91C178.764 256.423 178.894 257.03 178.894 257.73V258.542H173.826C173.845 259.317 174.046 259.909 174.428 260.32C174.82 260.731 175.366 260.936 176.066 260.936C176.552 260.936 176.981 260.894 177.354 260.81C177.737 260.717 178.129 260.581 178.53 260.404V261.636C178.157 261.804 177.774 261.93 177.382 262.014C177 262.098 176.542 262.14 176.01 262.14C175.282 262.14 174.638 261.995 174.078 261.706C173.518 261.417 173.08 260.987 172.762 260.418C172.454 259.839 172.3 259.13 172.3 258.29C172.3 257.441 172.44 256.722 172.72 256.134C173.01 255.546 173.406 255.098 173.91 254.79C174.424 254.473 175.021 254.314 175.702 254.314ZM175.702 255.462C175.17 255.462 174.741 255.635 174.414 255.98C174.097 256.325 173.91 256.815 173.854 257.45H177.41C177.41 257.058 177.35 256.713 177.228 256.414C177.107 256.115 176.92 255.882 176.668 255.714C176.416 255.546 176.094 255.462 175.702 255.462ZM183.336 262.14C182.431 262.14 181.698 261.813 181.138 261.16C180.587 260.507 180.312 259.536 180.312 258.248C180.312 256.951 180.592 255.971 181.152 255.308C181.712 254.645 182.449 254.314 183.364 254.314C183.747 254.314 184.078 254.365 184.358 254.468C184.647 254.561 184.895 254.692 185.1 254.86C185.315 255.028 185.497 255.215 185.646 255.42H185.73C185.711 255.289 185.688 255.103 185.66 254.86C185.632 254.608 185.618 254.384 185.618 254.188V251.36H187.102V262H185.94L185.688 260.992H185.618C185.478 261.207 185.301 261.403 185.086 261.58C184.881 261.748 184.633 261.883 184.344 261.986C184.055 262.089 183.719 262.14 183.336 262.14ZM183.686 260.922C184.414 260.922 184.927 260.721 185.226 260.32C185.525 259.909 185.674 259.298 185.674 258.486V258.262C185.674 257.375 185.529 256.699 185.24 256.232C184.96 255.765 184.437 255.532 183.672 255.532C183.065 255.532 182.608 255.779 182.3 256.274C181.992 256.759 181.838 257.427 181.838 258.276C181.838 259.125 181.992 259.779 182.3 260.236C182.608 260.693 183.07 260.922 183.686 260.922Z" fill="white"/>
<circle cx="33" cy="293" r="10" fill="white"/>
<path d="M29.25 293.625L32.25 295.5L36.75 290.5" stroke="#750F22" stroke-width="1.25" stroke-linecap="round" stroke-linejoin="round"/>
<path d="M60.086 294.472C60.086 295.163 59.9413 295.788 59.652 296.348C59.372 296.899 58.938 297.337 58.35 297.664C57.762 297.981 57.02 298.14 56.124 298.14C54.8547 298.14 53.8887 297.804 53.226 297.132C52.5727 296.451 52.246 295.555 52.246 294.444V288.004H53.758V294.374C53.758 295.195 53.9587 295.816 54.36 296.236C54.7613 296.647 55.3727 296.852 56.194 296.852C56.754 296.852 57.2113 296.749 57.566 296.544C57.9207 296.339 58.1773 296.054 58.336 295.69C58.504 295.317 58.588 294.873 58.588 294.36V288.004H60.086V294.472ZM67.5099 295.872C67.5099 296.367 67.3886 296.782 67.1459 297.118C66.9033 297.454 66.5533 297.711 66.0959 297.888C65.6386 298.056 65.0879 298.14 64.4439 298.14C63.9119 298.14 63.4546 298.098 63.0719 298.014C62.6986 297.939 62.3533 297.827 62.0359 297.678V296.376C62.3719 296.535 62.7593 296.679 63.1979 296.81C63.6366 296.931 64.0659 296.992 64.4859 296.992C65.0459 296.992 65.4473 296.903 65.6899 296.726C65.9419 296.549 66.0679 296.311 66.0679 296.012C66.0679 295.844 66.0213 295.695 65.9279 295.564C65.8346 295.424 65.6573 295.284 65.3959 295.144C65.1439 294.995 64.7706 294.827 64.2759 294.64C63.7999 294.444 63.3939 294.253 63.0579 294.066C62.7219 293.87 62.4653 293.641 62.2879 293.38C62.1106 293.109 62.0219 292.764 62.0219 292.344C62.0219 291.691 62.2833 291.191 62.8059 290.846C63.3379 290.491 64.0379 290.314 64.9059 290.314C65.3633 290.314 65.7926 290.361 66.1939 290.454C66.6046 290.538 67.0013 290.669 67.3839 290.846L66.8939 291.98C66.6793 291.877 66.4553 291.793 66.2219 291.728C65.9979 291.653 65.7693 291.593 65.5359 291.546C65.3119 291.499 65.0786 291.476 64.8359 291.476C64.3879 291.476 64.0473 291.546 63.8139 291.686C63.5806 291.826 63.4639 292.022 63.4639 292.274C63.4639 292.451 63.5153 292.605 63.6179 292.736C63.7299 292.867 63.9213 292.997 64.1919 293.128C64.4626 293.259 64.8313 293.417 65.2979 293.604C65.7646 293.781 66.1613 293.963 66.4879 294.15C66.8239 294.337 67.0759 294.565 67.2439 294.836C67.4213 295.107 67.5099 295.452 67.5099 295.872ZM72.2472 290.314C72.9099 290.314 73.4792 290.454 73.9552 290.734C74.4312 291.005 74.7952 291.397 75.0472 291.91C75.3085 292.423 75.4392 293.03 75.4392 293.73V294.542H70.3712C70.3899 295.317 70.5905 295.909 70.9732 296.32C71.3652 296.731 71.9112 296.936 72.6112 296.936C73.0965 296.936 73.5259 296.894 73.8992 296.81C74.2819 296.717 74.6739 296.581 75.0752 296.404V297.636C74.7019 297.804 74.3192 297.93 73.9272 298.014C73.5445 298.098 73.0872 298.14 72.5552 298.14C71.8272 298.14 71.1832 297.995 70.6232 297.706C70.0632 297.417 69.6245 296.987 69.3072 296.418C68.9992 295.839 68.8452 295.13 68.8452 294.29C68.8452 293.441 68.9852 292.722 69.2652 292.134C69.5545 291.546 69.9512 291.098 70.4552 290.79C70.9685 290.473 71.5659 290.314 72.2472 290.314ZM72.2472 291.462C71.7152 291.462 71.2859 291.635 70.9592 291.98C70.6419 292.325 70.4552 292.815 70.3992 293.45H73.9552C73.9552 293.058 73.8945 292.713 73.7732 292.414C73.6519 292.115 73.4652 291.882 73.2132 291.714C72.9612 291.546 72.6392 291.462 72.2472 291.462ZM81.0149 290.314C81.1456 290.314 81.2902 290.323 81.4489 290.342C81.6076 290.351 81.7382 290.365 81.8409 290.384L81.6869 291.77C81.5842 291.742 81.4629 291.719 81.3229 291.7C81.1829 291.681 81.0522 291.672 80.9309 291.672C80.6509 291.672 80.3802 291.728 80.1189 291.84C79.8669 291.943 79.6382 292.097 79.4329 292.302C79.2276 292.498 79.0642 292.741 78.9429 293.03C78.8309 293.319 78.7749 293.651 78.7749 294.024V298H77.2909V290.454H78.4669L78.6629 291.798H78.7189C78.8776 291.527 79.0689 291.28 79.2929 291.056C79.5169 290.832 79.7736 290.655 80.0629 290.524C80.3522 290.384 80.6696 290.314 81.0149 290.314ZM88.3589 290.454V298H86.8749V290.454H88.3589ZM87.6309 287.584C87.8549 287.584 88.0509 287.649 88.2189 287.78C88.3869 287.911 88.4709 288.13 88.4709 288.438C88.4709 288.737 88.3869 288.956 88.2189 289.096C88.0509 289.227 87.8549 289.292 87.6309 289.292C87.3882 289.292 87.1829 289.227 87.0149 289.096C86.8562 288.956 86.7769 288.737 86.7769 288.438C86.7769 288.13 86.8562 287.911 87.0149 287.78C87.1829 287.649 87.3882 287.584 87.6309 287.584ZM94.5113 290.314C95.3887 290.314 96.0607 290.533 96.5273 290.972C96.994 291.411 97.2273 292.115 97.2273 293.086V298H95.7573V293.296C95.7573 292.708 95.6313 292.269 95.3793 291.98C95.1367 291.681 94.7447 291.532 94.2033 291.532C93.438 291.532 92.906 291.761 92.6073 292.218C92.318 292.675 92.1733 293.333 92.1733 294.192V298H90.6893V290.454H91.8653L92.0753 291.462H92.1593C92.3273 291.201 92.5327 290.986 92.7753 290.818C93.018 290.65 93.2887 290.524 93.5873 290.44C93.886 290.356 94.194 290.314 94.5113 290.314ZM102.224 296.936C102.42 296.936 102.62 296.917 102.826 296.88C103.031 296.843 103.208 296.801 103.358 296.754V297.874C103.199 297.949 102.984 298.009 102.714 298.056C102.443 298.112 102.172 298.14 101.902 298.14C101.491 298.14 101.113 298.07 100.768 297.93C100.432 297.79 100.161 297.547 99.9557 297.202C99.7504 296.857 99.6477 296.376 99.6477 295.76V291.588H98.5977V290.916L99.7037 290.356L100.222 288.76H101.132V290.454H103.288V291.588H101.132V295.732C101.132 296.143 101.23 296.446 101.426 296.642C101.631 296.838 101.897 296.936 102.224 296.936ZM107.835 290.314C108.498 290.314 109.067 290.454 109.543 290.734C110.019 291.005 110.383 291.397 110.635 291.91C110.896 292.423 111.027 293.03 111.027 293.73V294.542H105.959C105.978 295.317 106.178 295.909 106.561 296.32C106.953 296.731 107.499 296.936 108.199 296.936C108.684 296.936 109.114 296.894 109.487 296.81C109.87 296.717 110.262 296.581 110.663 296.404V297.636C110.29 297.804 109.907 297.93 109.515 298.014C109.132 298.098 108.675 298.14 108.143 298.14C107.415 298.14 106.771 297.995 106.211 297.706C105.651 297.417 105.212 296.987 104.895 296.418C104.587 295.839 104.433 295.13 104.433 294.29C104.433 293.441 104.573 292.722 104.853 292.134C105.142 291.546 105.539 291.098 106.043 290.79C106.556 290.473 107.154 290.314 107.835 290.314ZM107.835 291.462C107.303 291.462 106.874 291.635 106.547 291.98C106.23 292.325 106.043 292.815 105.987 293.45H109.543C109.543 293.058 109.482 292.713 109.361 292.414C109.24 292.115 109.053 291.882 108.801 291.714C108.549 291.546 108.227 291.462 107.835 291.462ZM116.603 290.314C116.733 290.314 116.878 290.323 117.037 290.342C117.195 290.351 117.326 290.365 117.429 290.384L117.275 291.77C117.172 291.742 117.051 291.719 116.911 291.7C116.771 291.681 116.64 291.672 116.519 291.672C116.239 291.672 115.968 291.728 115.707 291.84C115.455 291.943 115.226 292.097 115.021 292.302C114.815 292.498 114.652 292.741 114.531 293.03C114.419 293.319 114.363 293.651 114.363 294.024V298H112.879V290.454H114.055L114.251 291.798H114.307C114.465 291.527 114.657 291.28 114.881 291.056C115.105 290.832 115.361 290.655 115.651 290.524C115.94 290.384 116.257 290.314 116.603 290.314ZM121.479 290.314C122.431 290.314 123.14 290.524 123.607 290.944C124.073 291.355 124.307 292.003 124.307 292.89V298H123.257L122.963 296.95H122.907C122.692 297.221 122.468 297.445 122.235 297.622C122.011 297.799 121.749 297.93 121.451 298.014C121.161 298.098 120.807 298.14 120.387 298.14C119.939 298.14 119.533 298.061 119.169 297.902C118.814 297.734 118.534 297.482 118.329 297.146C118.123 296.801 118.021 296.371 118.021 295.858C118.021 295.093 118.31 294.509 118.889 294.108C119.477 293.707 120.368 293.487 121.563 293.45L122.851 293.408V292.988C122.851 292.428 122.725 292.036 122.473 291.812C122.221 291.588 121.866 291.476 121.409 291.476C121.017 291.476 120.643 291.532 120.289 291.644C119.934 291.756 119.598 291.891 119.281 292.05L118.805 290.972C119.159 290.785 119.565 290.631 120.023 290.51C120.489 290.379 120.975 290.314 121.479 290.314ZM121.829 294.402C120.97 294.439 120.373 294.584 120.037 294.836C119.71 295.079 119.547 295.424 119.547 295.872C119.547 296.264 119.663 296.549 119.897 296.726C120.139 296.903 120.443 296.992 120.807 296.992C121.395 296.992 121.88 296.829 122.263 296.502C122.645 296.175 122.837 295.685 122.837 295.032V294.374L121.829 294.402ZM129.63 298.14C128.939 298.14 128.332 298.005 127.81 297.734C127.287 297.463 126.881 297.043 126.592 296.474C126.302 295.895 126.158 295.163 126.158 294.276C126.158 293.343 126.312 292.587 126.62 292.008C126.937 291.429 127.362 291.005 127.894 290.734C128.435 290.454 129.051 290.314 129.742 290.314C130.162 290.314 130.554 290.361 130.918 290.454C131.291 290.538 131.599 290.636 131.842 290.748L131.394 291.952C131.132 291.849 130.852 291.761 130.554 291.686C130.264 291.611 129.989 291.574 129.728 291.574C129.261 291.574 128.874 291.677 128.566 291.882C128.267 292.078 128.043 292.377 127.894 292.778C127.754 293.17 127.684 293.665 127.684 294.262C127.684 294.831 127.758 295.312 127.908 295.704C128.057 296.096 128.276 296.395 128.566 296.6C128.864 296.796 129.233 296.894 129.672 296.894C130.092 296.894 130.46 296.847 130.778 296.754C131.095 296.661 131.394 296.539 131.674 296.39V297.678C131.403 297.837 131.109 297.953 130.792 298.028C130.474 298.103 130.087 298.14 129.63 298.14ZM136.171 296.936C136.367 296.936 136.568 296.917 136.773 296.88C136.978 296.843 137.156 296.801 137.305 296.754V297.874C137.146 297.949 136.932 298.009 136.661 298.056C136.39 298.112 136.12 298.14 135.849 298.14C135.438 298.14 135.06 298.07 134.715 297.93C134.379 297.79 134.108 297.547 133.903 297.202C133.698 296.857 133.595 296.376 133.595 295.76V291.588H132.545V290.916L133.651 290.356L134.169 288.76H135.079V290.454H137.235V291.588H135.079V295.732C135.079 296.143 135.177 296.446 135.373 296.642C135.578 296.838 135.844 296.936 136.171 296.936ZM140.298 290.454V298H138.814V290.454H140.298ZM139.57 287.584C139.794 287.584 139.99 287.649 140.158 287.78C140.326 287.911 140.41 288.13 140.41 288.438C140.41 288.737 140.326 288.956 140.158 289.096C139.99 289.227 139.794 289.292 139.57 289.292C139.328 289.292 139.122 289.227 138.954 289.096C138.796 288.956 138.716 288.737 138.716 288.438C138.716 288.13 138.796 287.911 138.954 287.78C139.122 287.649 139.328 287.584 139.57 287.584ZM149.279 294.22C149.279 294.845 149.195 295.401 149.027 295.886C148.859 296.371 148.621 296.782 148.313 297.118C148.005 297.454 147.631 297.711 147.193 297.888C146.754 298.056 146.259 298.14 145.709 298.14C145.205 298.14 144.738 298.056 144.309 297.888C143.879 297.711 143.506 297.454 143.189 297.118C142.881 296.782 142.638 296.371 142.461 295.886C142.283 295.401 142.195 294.841 142.195 294.206C142.195 293.375 142.335 292.671 142.615 292.092C142.904 291.513 143.315 291.075 143.847 290.776C144.388 290.468 145.023 290.314 145.751 290.314C146.441 290.314 147.048 290.468 147.571 290.776C148.103 291.075 148.518 291.513 148.817 292.092C149.125 292.671 149.279 293.38 149.279 294.22ZM143.721 294.22C143.721 294.78 143.791 295.265 143.931 295.676C144.071 296.077 144.29 296.385 144.589 296.6C144.887 296.815 145.27 296.922 145.737 296.922C146.203 296.922 146.586 296.815 146.885 296.6C147.183 296.385 147.403 296.077 147.543 295.676C147.683 295.265 147.753 294.78 147.753 294.22C147.753 293.641 147.678 293.156 147.529 292.764C147.389 292.372 147.169 292.073 146.871 291.868C146.581 291.653 146.199 291.546 145.723 291.546C145.023 291.546 144.514 291.779 144.197 292.246C143.879 292.713 143.721 293.371 143.721 294.22ZM154.982 290.314C155.859 290.314 156.531 290.533 156.998 290.972C157.465 291.411 157.698 292.115 157.698 293.086V298H156.228V293.296C156.228 292.708 156.102 292.269 155.85 291.98C155.607 291.681 155.215 291.532 154.674 291.532C153.909 291.532 153.377 291.761 153.078 292.218C152.789 292.675 152.644 293.333 152.644 294.192V298H151.16V290.454H152.336L152.546 291.462H152.63C152.798 291.201 153.003 290.986 153.246 290.818C153.489 290.65 153.759 290.524 154.058 290.44C154.357 290.356 154.665 290.314 154.982 290.314Z" fill="white"/>
</g>
<defs>
<clipPath id="clip0_131_11598">
<rect width="257" height="452" rx="16" fill="white"/>
</clipPath>
</defs>
</svg>
