<svg width="6" height="19" viewBox="0 0 6 19" fill="none" xmlns="http://www.w3.org/2000/svg">
<path d="M0.801 16.612C0.801 15.78 1.01433 15.1933 1.441 14.852C1.86767 14.5107 2.37967 14.34 2.977 14.34C3.59567 14.34 4.11833 14.5107 4.545 14.852C4.97167 15.1933 5.185 15.78 5.185 16.612C5.185 17.444 4.97167 18.0413 4.545 18.404C4.11833 18.7667 3.59567 18.948 2.977 18.948C2.37967 18.948 1.86767 18.7667 1.441 18.404C1.01433 18.0413 0.801 17.444 0.801 16.612ZM0.801 3.172C0.801 2.29733 1.01433 1.68933 1.441 1.348C1.86767 1.00667 2.37967 0.835999 2.977 0.835999C3.59567 0.835999 4.11833 1.00667 4.545 1.348C4.97167 1.68933 5.185 2.29733 5.185 3.172C5.185 3.98267 4.97167 4.56933 4.545 4.932C4.11833 5.29467 3.59567 5.476 2.977 5.476C2.37967 5.476 1.86767 5.29467 1.441 4.932C1.01433 4.56933 0.801 3.98267 0.801 3.172Z" fill="#2B3141"/>
</svg>
