<svg width="17" height="16" viewBox="0 0 17 16" fill="none" xmlns="http://www.w3.org/2000/svg">
<path d="M8.49998 15.1668C4.54665 15.1668 1.33331 11.9535 1.33331 8.00016C1.33331 4.04683 4.54665 0.833496 8.49998 0.833496C12.4533 0.833496 15.6666 4.04683 15.6666 8.00016C15.6666 11.9535 12.4533 15.1668 8.49998 15.1668ZM8.49998 1.8335C5.09998 1.8335 2.33331 4.60016 2.33331 8.00016C2.33331 11.4002 5.09998 14.1668 8.49998 14.1668C11.9 14.1668 14.6666 11.4002 14.6666 8.00016C14.6666 4.60016 11.9 1.8335 8.49998 1.8335Z" fill="#2B3141"/>
<path d="M10.9733 10.6202C10.8867 10.6202 10.8 10.6002 10.72 10.5468L8.65334 9.3135C8.14001 9.00684 7.76001 8.3335 7.76001 7.74017V5.00684C7.76001 4.7335 7.98668 4.50684 8.26001 4.50684C8.53334 4.50684 8.76001 4.7335 8.76001 5.00684V7.74017C8.76001 7.98017 8.96001 8.3335 9.16668 8.4535L11.2333 9.68684C11.4733 9.82684 11.5467 10.1335 11.4067 10.3735C11.3067 10.5335 11.14 10.6202 10.9733 10.6202Z" fill="#2B3141"/>
</svg>
