<svg width="344" height="112" viewBox="0 0 344 112" fill="none" xmlns="http://www.w3.org/2000/svg">
<rect x="0.5" y="0.5" width="343" height="111" rx="15.5" stroke="#E5E8F4" stroke-dasharray="2 2"/>
<path d="M166 49.9998C165.45 49.9998 164.979 49.8042 164.588 49.4128C164.197 49.0215 164.001 48.5505 164 47.9998V45.9998C164 45.7165 164.096 45.4792 164.288 45.2878C164.48 45.0965 164.717 45.0005 165 44.9998C165.283 44.9992 165.52 45.0952 165.713 45.2878C165.906 45.4805 166.001 45.7178 166 45.9998V47.9998H178V45.9998C178 45.7165 178.096 45.4792 178.288 45.2878C178.48 45.0965 178.717 45.0005 179 44.9998C179.283 44.9992 179.52 45.0952 179.713 45.2878C179.906 45.4805 180.001 45.7178 180 45.9998V47.9998C180 48.5498 179.804 49.0208 179.413 49.4128C179.022 49.8048 178.551 50.0005 178 49.9998H166ZM171 37.8498L169.125 39.7248C168.925 39.9248 168.688 40.0208 168.413 40.0128C168.138 40.0048 167.901 39.9005 167.7 39.6998C167.517 39.4998 167.421 39.2665 167.412 38.9998C167.403 38.7332 167.499 38.4998 167.7 38.2998L171.3 34.6998C171.4 34.5998 171.508 34.5292 171.625 34.4878C171.742 34.4465 171.867 34.4255 172 34.4248C172.133 34.4242 172.258 34.4452 172.375 34.4878C172.492 34.5305 172.6 34.6012 172.7 34.6998L176.3 38.2998C176.5 38.4998 176.596 38.7332 176.588 38.9998C176.58 39.2665 176.484 39.4998 176.3 39.6998C176.1 39.8998 175.863 40.0042 175.588 40.0128C175.313 40.0215 175.076 39.9255 174.875 39.7248L173 37.8498V44.9998C173 45.2832 172.904 45.5208 172.712 45.7128C172.52 45.9048 172.283 46.0005 172 45.9998C171.717 45.9992 171.48 45.9032 171.288 45.7118C171.096 45.5205 171 45.2832 171 44.9998V37.8498Z" fill="#6C7278"/>
<path d="M117.395 77H115.883V68.306H112.887V67.004H120.391V68.306H117.395V77ZM123.24 69.202C123.24 69.4353 123.23 69.6687 123.212 69.902C123.193 70.1353 123.174 70.3267 123.156 70.476H123.254C123.412 70.2147 123.608 70 123.842 69.832C124.084 69.664 124.35 69.538 124.64 69.454C124.938 69.37 125.242 69.328 125.55 69.328C126.147 69.328 126.646 69.426 127.048 69.622C127.458 69.8087 127.766 70.1073 127.972 70.518C128.186 70.9193 128.294 71.442 128.294 72.086V77H126.824V72.296C126.824 71.708 126.698 71.2693 126.446 70.98C126.203 70.6813 125.811 70.532 125.27 70.532C124.756 70.532 124.35 70.6347 124.052 70.84C123.762 71.0453 123.552 71.3487 123.422 71.75C123.3 72.142 123.24 72.6273 123.24 73.206V77H121.756V66.36H123.24V69.202ZM137.07 69.454V77H135.88L135.67 76.006H135.6C135.441 76.2673 135.236 76.482 134.984 76.65C134.732 76.818 134.457 76.9393 134.158 77.014C133.859 77.098 133.551 77.14 133.234 77.14C132.646 77.14 132.147 77.0467 131.736 76.86C131.335 76.664 131.027 76.3653 130.812 75.964C130.607 75.5533 130.504 75.0307 130.504 74.396V69.454H132.002V74.172C132.002 74.76 132.123 75.1987 132.366 75.488C132.618 75.7773 133.005 75.922 133.528 75.922C134.051 75.922 134.461 75.8193 134.76 75.614C135.059 75.4087 135.269 75.11 135.39 74.718C135.521 74.3167 135.586 73.836 135.586 73.276V69.454H137.07ZM147.848 69.314C148.698 69.314 149.337 69.5333 149.766 69.972C150.196 70.4107 150.41 71.1153 150.41 72.086V77H148.926V72.282C148.926 71.7033 148.81 71.2693 148.576 70.98C148.352 70.6813 147.998 70.532 147.512 70.532C146.84 70.532 146.36 70.742 146.07 71.162C145.781 71.5727 145.636 72.17 145.636 72.954V77H144.166V72.282C144.166 71.8993 144.11 71.5773 143.998 71.316C143.896 71.0547 143.742 70.8587 143.536 70.728C143.331 70.5973 143.065 70.532 142.738 70.532C142.272 70.532 141.903 70.6347 141.632 70.84C141.362 71.0453 141.166 71.3487 141.044 71.75C140.932 72.142 140.876 72.6227 140.876 73.192V77H139.392V69.454H140.568L140.778 70.462H140.862C141.021 70.2007 141.212 69.986 141.436 69.818C141.67 69.65 141.926 69.524 142.206 69.44C142.486 69.356 142.776 69.314 143.074 69.314C143.644 69.314 144.124 69.4167 144.516 69.622C144.908 69.818 145.193 70.1213 145.37 70.532H145.482C145.725 70.112 146.061 69.804 146.49 69.608C146.92 69.412 147.372 69.314 147.848 69.314ZM154.166 68.922C154.166 69.23 154.156 69.524 154.138 69.804C154.128 70.0747 154.114 70.2893 154.096 70.448H154.166C154.38 70.1307 154.67 69.8647 155.034 69.65C155.398 69.4353 155.869 69.328 156.448 69.328C157.353 69.328 158.081 69.6547 158.632 70.308C159.192 70.9613 159.472 71.932 159.472 73.22C159.472 74.088 159.346 74.8113 159.094 75.39C158.842 75.9687 158.487 76.4073 158.03 76.706C157.572 76.9953 157.04 77.14 156.434 77.14C155.846 77.14 155.374 77.0373 155.02 76.832C154.665 76.6173 154.38 76.3653 154.166 76.076H154.054L153.774 77H152.682V66.36H154.166V68.922ZM156.098 70.532C155.612 70.532 155.23 70.6253 154.95 70.812C154.67 70.9987 154.469 71.2833 154.348 71.666C154.226 72.0487 154.166 72.534 154.166 73.122V73.234C154.166 74.102 154.306 74.7693 154.586 75.236C154.866 75.6933 155.379 75.922 156.126 75.922C156.723 75.922 157.176 75.6887 157.484 75.222C157.792 74.7553 157.946 74.0833 157.946 73.206C157.946 72.3193 157.792 71.652 157.484 71.204C157.176 70.756 156.714 70.532 156.098 70.532ZM165.185 69.314C166.063 69.314 166.735 69.5333 167.201 69.972C167.668 70.4107 167.901 71.1153 167.901 72.086V77H166.431V72.296C166.431 71.708 166.305 71.2693 166.053 70.98C165.811 70.6813 165.419 70.532 164.877 70.532C164.112 70.532 163.58 70.7607 163.281 71.218C162.992 71.6753 162.847 72.3333 162.847 73.192V77H161.363V69.454H162.539L162.749 70.462H162.833C163.001 70.2007 163.207 69.986 163.449 69.818C163.692 69.65 163.963 69.524 164.261 69.44C164.56 69.356 164.868 69.314 165.185 69.314ZM173.108 69.314C174.06 69.314 174.769 69.524 175.236 69.944C175.702 70.3547 175.936 71.0033 175.936 71.89V77H174.886L174.592 75.95H174.536C174.321 76.2207 174.097 76.4447 173.864 76.622C173.64 76.7993 173.378 76.93 173.08 77.014C172.79 77.098 172.436 77.14 172.016 77.14C171.568 77.14 171.162 77.0607 170.798 76.902C170.443 76.734 170.163 76.482 169.958 76.146C169.752 75.8007 169.65 75.3713 169.65 74.858C169.65 74.0927 169.939 73.5093 170.518 73.108C171.106 72.7067 171.997 72.4873 173.192 72.45L174.48 72.408V71.988C174.48 71.428 174.354 71.036 174.102 70.812C173.85 70.588 173.495 70.476 173.038 70.476C172.646 70.476 172.272 70.532 171.918 70.644C171.563 70.756 171.227 70.8913 170.91 71.05L170.434 69.972C170.788 69.7853 171.194 69.6313 171.652 69.51C172.118 69.3793 172.604 69.314 173.108 69.314ZM173.458 73.402C172.599 73.4393 172.002 73.584 171.666 73.836C171.339 74.0787 171.176 74.424 171.176 74.872C171.176 75.264 171.292 75.5487 171.526 75.726C171.768 75.9033 172.072 75.992 172.436 75.992C173.024 75.992 173.509 75.8287 173.892 75.502C174.274 75.1753 174.466 74.6853 174.466 74.032V73.374L173.458 73.402ZM179.705 69.454V77H178.221V69.454H179.705ZM178.977 66.584C179.201 66.584 179.397 66.6493 179.565 66.78C179.733 66.9107 179.817 67.13 179.817 67.438C179.817 67.7367 179.733 67.956 179.565 68.096C179.397 68.2267 179.201 68.292 178.977 68.292C178.734 68.292 178.529 68.2267 178.361 68.096C178.202 67.956 178.123 67.7367 178.123 67.438C178.123 67.13 178.202 66.9107 178.361 66.78C178.529 66.6493 178.734 66.584 178.977 66.584ZM183.519 77H182.035V66.36H183.519V77ZM192.734 77H188.856V76.132L190.046 75.782V68.236L188.856 67.872V67.004H192.734V67.872L191.558 68.236V75.782L192.734 76.132V77ZM202.891 69.314C203.741 69.314 204.38 69.5333 204.809 69.972C205.239 70.4107 205.453 71.1153 205.453 72.086V77H203.969V72.282C203.969 71.7033 203.853 71.2693 203.619 70.98C203.395 70.6813 203.041 70.532 202.555 70.532C201.883 70.532 201.403 70.742 201.113 71.162C200.824 71.5727 200.679 72.17 200.679 72.954V77H199.209V72.282C199.209 71.8993 199.153 71.5773 199.041 71.316C198.939 71.0547 198.785 70.8587 198.579 70.728C198.374 70.5973 198.108 70.532 197.781 70.532C197.315 70.532 196.946 70.6347 196.675 70.84C196.405 71.0453 196.209 71.3487 196.087 71.75C195.975 72.142 195.919 72.6227 195.919 73.192V77H194.435V69.454H195.611L195.821 70.462H195.905C196.064 70.2007 196.255 69.986 196.479 69.818C196.713 69.65 196.969 69.524 197.249 69.44C197.529 69.356 197.819 69.314 198.117 69.314C198.687 69.314 199.167 69.4167 199.559 69.622C199.951 69.818 200.236 70.1213 200.413 70.532H200.525C200.768 70.112 201.104 69.804 201.533 69.608C201.963 69.412 202.415 69.314 202.891 69.314ZM210.651 69.314C211.603 69.314 212.312 69.524 212.779 69.944C213.245 70.3547 213.479 71.0033 213.479 71.89V77H212.429L212.135 75.95H212.079C211.864 76.2207 211.64 76.4447 211.407 76.622C211.183 76.7993 210.921 76.93 210.623 77.014C210.333 77.098 209.979 77.14 209.559 77.14C209.111 77.14 208.705 77.0607 208.341 76.902C207.986 76.734 207.706 76.482 207.501 76.146C207.295 75.8007 207.193 75.3713 207.193 74.858C207.193 74.0927 207.482 73.5093 208.061 73.108C208.649 72.7067 209.54 72.4873 210.735 72.45L212.023 72.408V71.988C212.023 71.428 211.897 71.036 211.645 70.812C211.393 70.588 211.038 70.476 210.581 70.476C210.189 70.476 209.815 70.532 209.461 70.644C209.106 70.756 208.77 70.8913 208.453 71.05L207.977 69.972C208.331 69.7853 208.737 69.6313 209.195 69.51C209.661 69.3793 210.147 69.314 210.651 69.314ZM211.001 73.402C210.142 73.4393 209.545 73.584 209.209 73.836C208.882 74.0787 208.719 74.424 208.719 74.872C208.719 75.264 208.835 75.5487 209.069 75.726C209.311 75.9033 209.615 75.992 209.979 75.992C210.567 75.992 211.052 75.8287 211.435 75.502C211.817 75.1753 212.009 74.6853 212.009 74.032V73.374L211.001 73.402ZM218.368 69.314C218.853 69.314 219.292 69.4073 219.684 69.594C220.076 69.7807 220.407 70.0653 220.678 70.448H220.748L220.916 69.454H222.12V77.098C222.12 77.8073 221.994 78.4047 221.742 78.89C221.49 79.3753 221.102 79.7393 220.58 79.982C220.066 80.234 219.418 80.36 218.634 80.36C218.092 80.36 217.593 80.3227 217.136 80.248C216.678 80.1733 216.258 80.0567 215.876 79.898V78.596C216.146 78.7267 216.431 78.834 216.73 78.918C217.028 79.0113 217.346 79.0767 217.682 79.114C218.018 79.1607 218.363 79.184 218.718 79.184C219.334 79.184 219.81 79.0067 220.146 78.652C220.482 78.3067 220.65 77.8167 220.65 77.182V76.93C220.65 76.8087 220.654 76.65 220.664 76.454C220.673 76.2487 220.682 76.0993 220.692 76.006H220.636C220.374 76.398 220.052 76.6873 219.67 76.874C219.296 77.0513 218.862 77.14 218.368 77.14C217.416 77.14 216.669 76.7993 216.128 76.118C215.596 75.4273 215.33 74.4707 215.33 73.248C215.33 72.4267 215.451 71.7267 215.694 71.148C215.936 70.56 216.282 70.1073 216.73 69.79C217.187 69.4727 217.733 69.314 218.368 69.314ZM218.676 70.546C218.284 70.546 217.952 70.6533 217.682 70.868C217.411 71.0733 217.206 71.3767 217.066 71.778C216.926 72.1793 216.856 72.674 216.856 73.262C216.856 74.1393 217.01 74.8067 217.318 75.264C217.635 75.7213 218.097 75.95 218.704 75.95C219.058 75.95 219.357 75.9033 219.6 75.81C219.852 75.7167 220.057 75.572 220.216 75.376C220.384 75.18 220.505 74.9327 220.58 74.634C220.664 74.326 220.706 73.9573 220.706 73.528V73.248C220.706 72.604 220.631 72.086 220.482 71.694C220.342 71.2927 220.122 71.0033 219.824 70.826C219.525 70.6393 219.142 70.546 218.676 70.546ZM227.413 69.314C228.076 69.314 228.645 69.454 229.121 69.734C229.597 70.0047 229.961 70.3967 230.213 70.91C230.475 71.4233 230.605 72.03 230.605 72.73V73.542H225.537C225.556 74.3167 225.757 74.9093 226.139 75.32C226.531 75.7307 227.077 75.936 227.777 75.936C228.263 75.936 228.692 75.894 229.065 75.81C229.448 75.7167 229.84 75.5813 230.241 75.404V76.636C229.868 76.804 229.485 76.93 229.093 77.014C228.711 77.098 228.253 77.14 227.721 77.14C226.993 77.14 226.349 76.9953 225.789 76.706C225.229 76.4167 224.791 75.9873 224.473 75.418C224.165 74.8393 224.011 74.13 224.011 73.29C224.011 72.4407 224.151 71.722 224.431 71.134C224.721 70.546 225.117 70.098 225.621 69.79C226.135 69.4727 226.732 69.314 227.413 69.314ZM227.413 70.462C226.881 70.462 226.452 70.6347 226.125 70.98C225.808 71.3253 225.621 71.8153 225.565 72.45H229.121C229.121 72.058 229.061 71.7127 228.939 71.414C228.818 71.1153 228.631 70.882 228.379 70.714C228.127 70.546 227.805 70.462 227.413 70.462Z" fill="#6C7278"/>
</svg>
