<svg width="160" height="112" viewBox="0 0 160 112" fill="none" xmlns="http://www.w3.org/2000/svg">
<rect x="0.5" y="0.5" width="183" height="111" rx="15.5" stroke="#E5E8F4" stroke-dasharray="2 2"/>
<path d="M86 49.9998C85.45 49.9998 84.9793 49.8042 84.588 49.4128C84.1967 49.0215 84.0007 48.5505 84 47.9998V45.9998C84 45.7165 84.096 45.4792 84.288 45.2878C84.48 45.0965 84.7173 45.0005 85 44.9998C85.2827 44.9992 85.5203 45.0952 85.713 45.2878C85.9057 45.4805 86.0013 45.7178 86 45.9998V47.9998H98V45.9998C98 45.7165 98.096 45.4792 98.288 45.2878C98.48 45.0965 98.7173 45.0005 99 44.9998C99.2827 44.9992 99.5203 45.0952 99.713 45.2878C99.9057 45.4805 100.001 45.7178 100 45.9998V47.9998C100 48.5498 99.8043 49.0208 99.413 49.4128C99.0217 49.8048 98.5507 50.0005 98 49.9998H86ZM91 37.8498L89.125 39.7248C88.925 39.9248 88.6877 40.0208 88.413 40.0128C88.1383 40.0048 87.9007 39.9005 87.7 39.6998C87.5167 39.4998 87.4207 39.2665 87.412 38.9998C87.4033 38.7332 87.4993 38.4998 87.7 38.2998L91.3 34.6998C91.4 34.5998 91.5083 34.5292 91.625 34.4878C91.7417 34.4465 91.8667 34.4255 92 34.4248C92.1333 34.4242 92.2583 34.4452 92.375 34.4878C92.4917 34.5305 92.6 34.6012 92.7 34.6998L96.3 38.2998C96.5 38.4998 96.596 38.7332 96.588 38.9998C96.58 39.2665 96.484 39.4998 96.3 39.6998C96.1 39.8998 95.8627 40.0042 95.588 40.0128C95.3133 40.0215 95.0757 39.9255 94.875 39.7248L93 37.8498V44.9998C93 45.2832 92.904 45.5208 92.712 45.7128C92.52 45.9048 92.2827 46.0005 92 45.9998C91.7173 45.9992 91.48 45.9032 91.288 45.7118C91.096 45.5205 91 45.2832 91 44.9998V37.8498Z" fill="#6C7278"/>
<path d="M57.3016 77H53.4236V76.132L54.6136 75.782V68.236L53.4236 67.872V67.004H57.3016V67.872L56.1256 68.236V75.782L57.3016 76.132V77ZM61.7188 75.936C61.9148 75.936 62.1155 75.9173 62.3208 75.88C62.5262 75.8427 62.7035 75.8007 62.8528 75.754V76.874C62.6942 76.9487 62.4795 77.0093 62.2088 77.056C61.9382 77.112 61.6675 77.14 61.3968 77.14C60.9862 77.14 60.6082 77.07 60.2628 76.93C59.9268 76.79 59.6562 76.5473 59.4508 76.202C59.2455 75.8567 59.1428 75.376 59.1428 74.76V70.588H58.0928V69.916L59.1988 69.356L59.7168 67.76H60.6268V69.454H62.7828V70.588H60.6268V74.732C60.6268 75.1427 60.7248 75.446 60.9208 75.642C61.1262 75.838 61.3922 75.936 61.7188 75.936ZM67.3302 69.314C67.9929 69.314 68.5622 69.454 69.0382 69.734C69.5142 70.0047 69.8782 70.3967 70.1302 70.91C70.3915 71.4233 70.5222 72.03 70.5222 72.73V73.542H65.4542C65.4729 74.3167 65.6735 74.9093 66.0562 75.32C66.4482 75.7307 66.9942 75.936 67.6942 75.936C68.1795 75.936 68.6089 75.894 68.9822 75.81C69.3649 75.7167 69.7569 75.5813 70.1582 75.404V76.636C69.7849 76.804 69.4022 76.93 69.0102 77.014C68.6275 77.098 68.1702 77.14 67.6382 77.14C66.9102 77.14 66.2662 76.9953 65.7062 76.706C65.1462 76.4167 64.7075 75.9873 64.3902 75.418C64.0822 74.8393 63.9282 74.13 63.9282 73.29C63.9282 72.4407 64.0682 71.722 64.3482 71.134C64.6375 70.546 65.0342 70.098 65.5382 69.79C66.0515 69.4727 66.6489 69.314 67.3302 69.314ZM67.3302 70.462C66.7982 70.462 66.3689 70.6347 66.0422 70.98C65.7249 71.3253 65.5382 71.8153 65.4822 72.45H69.0382C69.0382 72.058 68.9775 71.7127 68.8562 71.414C68.7349 71.1153 68.5482 70.882 68.2962 70.714C68.0442 70.546 67.7222 70.462 67.3302 70.462ZM80.8299 69.314C81.6792 69.314 82.3186 69.5333 82.7479 69.972C83.1772 70.4107 83.3919 71.1153 83.3919 72.086V77H81.9079V72.282C81.9079 71.7033 81.7912 71.2693 81.5579 70.98C81.3339 70.6813 80.9792 70.532 80.4939 70.532C79.8219 70.532 79.3412 70.742 79.0519 71.162C78.7626 71.5727 78.6179 72.17 78.6179 72.954V77H77.1479V72.282C77.1479 71.8993 77.0919 71.5773 76.9799 71.316C76.8772 71.0547 76.7232 70.8587 76.5179 70.728C76.3126 70.5973 76.0466 70.532 75.7199 70.532C75.2532 70.532 74.8846 70.6347 74.6139 70.84C74.3432 71.0453 74.1472 71.3487 74.0259 71.75C73.9139 72.142 73.8579 72.6227 73.8579 73.192V77H72.3739V69.454H73.5499L73.7599 70.462H73.8439C74.0026 70.2007 74.1939 69.986 74.4179 69.818C74.6512 69.65 74.9079 69.524 75.1879 69.44C75.4679 69.356 75.7572 69.314 76.0559 69.314C76.6252 69.314 77.1059 69.4167 77.4979 69.622C77.8899 69.818 78.1746 70.1213 78.3519 70.532H78.4639C78.7066 70.112 79.0426 69.804 79.4719 69.608C79.9012 69.412 80.3539 69.314 80.8299 69.314ZM92.5477 77H88.6697V76.132L89.8597 75.782V68.236L88.6697 67.872V67.004H92.5477V67.872L91.3717 68.236V75.782L92.5477 76.132V77ZM102.705 69.314C103.554 69.314 104.194 69.5333 104.623 69.972C105.052 70.4107 105.267 71.1153 105.267 72.086V77H103.783V72.282C103.783 71.7033 103.666 71.2693 103.433 70.98C103.209 70.6813 102.854 70.532 102.369 70.532C101.697 70.532 101.216 70.742 100.927 71.162C100.638 71.5727 100.493 72.17 100.493 72.954V77H99.0229V72.282C99.0229 71.8993 98.9669 71.5773 98.8549 71.316C98.7522 71.0547 98.5982 70.8587 98.3929 70.728C98.1876 70.5973 97.9216 70.532 97.5949 70.532C97.1282 70.532 96.7596 70.6347 96.4889 70.84C96.2182 71.0453 96.0222 71.3487 95.9009 71.75C95.7889 72.142 95.7329 72.6227 95.7329 73.192V77H94.2489V69.454H95.4249L95.6349 70.462H95.7189C95.8776 70.2007 96.0689 69.986 96.2929 69.818C96.5262 69.65 96.7829 69.524 97.0629 69.44C97.3429 69.356 97.6322 69.314 97.9309 69.314C98.5002 69.314 98.9809 69.4167 99.3729 69.622C99.7649 69.818 100.05 70.1213 100.227 70.532H100.339C100.582 70.112 100.918 69.804 101.347 69.608C101.776 69.412 102.229 69.314 102.705 69.314ZM110.464 69.314C111.416 69.314 112.125 69.524 112.592 69.944C113.059 70.3547 113.292 71.0033 113.292 71.89V77H112.242L111.948 75.95H111.892C111.677 76.2207 111.453 76.4447 111.22 76.622C110.996 76.7993 110.735 76.93 110.436 77.014C110.147 77.098 109.792 77.14 109.372 77.14C108.924 77.14 108.518 77.0607 108.154 76.902C107.799 76.734 107.519 76.482 107.314 76.146C107.109 75.8007 107.006 75.3713 107.006 74.858C107.006 74.0927 107.295 73.5093 107.874 73.108C108.462 72.7067 109.353 72.4873 110.548 72.45L111.836 72.408V71.988C111.836 71.428 111.71 71.036 111.458 70.812C111.206 70.588 110.851 70.476 110.394 70.476C110.002 70.476 109.629 70.532 109.274 70.644C108.919 70.756 108.583 70.8913 108.266 71.05L107.79 69.972C108.145 69.7853 108.551 69.6313 109.008 69.51C109.475 69.3793 109.96 69.314 110.464 69.314ZM110.814 73.402C109.955 73.4393 109.358 73.584 109.022 73.836C108.695 74.0787 108.532 74.424 108.532 74.872C108.532 75.264 108.649 75.5487 108.882 75.726C109.125 75.9033 109.428 75.992 109.792 75.992C110.38 75.992 110.865 75.8287 111.248 75.502C111.631 75.1753 111.822 74.6853 111.822 74.032V73.374L110.814 73.402ZM118.181 69.314C118.666 69.314 119.105 69.4073 119.497 69.594C119.889 69.7807 120.22 70.0653 120.491 70.448H120.561L120.729 69.454H121.933V77.098C121.933 77.8073 121.807 78.4047 121.555 78.89C121.303 79.3753 120.916 79.7393 120.393 79.982C119.88 80.234 119.231 80.36 118.447 80.36C117.906 80.36 117.406 80.3227 116.949 80.248C116.492 80.1733 116.072 80.0567 115.689 79.898V78.596C115.96 78.7267 116.244 78.834 116.543 78.918C116.842 79.0113 117.159 79.0767 117.495 79.114C117.831 79.1607 118.176 79.184 118.531 79.184C119.147 79.184 119.623 79.0067 119.959 78.652C120.295 78.3067 120.463 77.8167 120.463 77.182V76.93C120.463 76.8087 120.468 76.65 120.477 76.454C120.486 76.2487 120.496 76.0993 120.505 76.006H120.449C120.188 76.398 119.866 76.6873 119.483 76.874C119.11 77.0513 118.676 77.14 118.181 77.14C117.229 77.14 116.482 76.7993 115.941 76.118C115.409 75.4273 115.143 74.4707 115.143 73.248C115.143 72.4267 115.264 71.7267 115.507 71.148C115.75 70.56 116.095 70.1073 116.543 69.79C117 69.4727 117.546 69.314 118.181 69.314ZM118.489 70.546C118.097 70.546 117.766 70.6533 117.495 70.868C117.224 71.0733 117.019 71.3767 116.879 71.778C116.739 72.1793 116.669 72.674 116.669 73.262C116.669 74.1393 116.823 74.8067 117.131 75.264C117.448 75.7213 117.91 75.95 118.517 75.95C118.872 75.95 119.17 75.9033 119.413 75.81C119.665 75.7167 119.87 75.572 120.029 75.376C120.197 75.18 120.318 74.9327 120.393 74.634C120.477 74.326 120.519 73.9573 120.519 73.528V73.248C120.519 72.604 120.444 72.086 120.295 71.694C120.155 71.2927 119.936 71.0033 119.637 70.826C119.338 70.6393 118.956 70.546 118.489 70.546ZM127.227 69.314C127.889 69.314 128.459 69.454 128.935 69.734C129.411 70.0047 129.775 70.3967 130.027 70.91C130.288 71.4233 130.419 72.03 130.419 72.73V73.542H125.351C125.369 74.3167 125.57 74.9093 125.953 75.32C126.345 75.7307 126.891 75.936 127.591 75.936C128.076 75.936 128.505 75.894 128.879 75.81C129.261 75.7167 129.653 75.5813 130.055 75.404V76.636C129.681 76.804 129.299 76.93 128.907 77.014C128.524 77.098 128.067 77.14 127.535 77.14C126.807 77.14 126.163 76.9953 125.603 76.706C125.043 76.4167 124.604 75.9873 124.287 75.418C123.979 74.8393 123.825 74.13 123.825 73.29C123.825 72.4407 123.965 71.722 124.245 71.134C124.534 70.546 124.931 70.098 125.435 69.79C125.948 69.4727 126.545 69.314 127.227 69.314ZM127.227 70.462C126.695 70.462 126.265 70.6347 125.939 70.98C125.621 71.3253 125.435 71.8153 125.379 72.45H128.935C128.935 72.058 128.874 71.7127 128.753 71.414C128.631 71.1153 128.445 70.882 128.193 70.714C127.941 70.546 127.619 70.462 127.227 70.462Z" fill="#6C7278"/>
</svg>
