<svg width="164" height="125" viewBox="0 0 164 125" fill="none" xmlns="http://www.w3.org/2000/svg">
<rect x="0.5" y="0.5" width="163" height="124" rx="19.5" stroke="#C3CAD9" stroke-miterlimit="5.75877" stroke-linecap="square" stroke-linejoin="round" stroke-dasharray="8 8"/>
<path d="M89.002 49.75C89.0933 49.7498 89.1369 49.7726 89.1826 49.8184C89.2169 49.8527 89.238 49.8853 89.2461 49.9375L89.25 49.9961V52C89.25 52.3496 89.1339 52.6303 88.8818 52.8828C88.6619 53.103 88.4203 53.2189 88.1289 53.2441L88.001 53.25H76C75.6503 53.25 75.3698 53.1344 75.1182 52.8828C74.8978 52.6625 74.7818 52.4194 74.7559 52.127L74.75 51.999V50C74.75 49.9061 74.7737 49.8629 74.8174 49.8193C74.8627 49.7742 74.9077 49.7502 75.002 49.75C75.0933 49.7498 75.1369 49.7726 75.1826 49.8184C75.2169 49.8527 75.238 49.8853 75.2461 49.9375L75.25 49.9961V52.75H88.75V50C88.75 49.9061 88.7737 49.8629 88.8174 49.8193C88.8627 49.7742 88.9077 49.7502 89.002 49.75ZM82.0039 39.1748C82.0545 39.1746 82.0902 39.1825 82.1172 39.1924L82.1729 39.2334L85.7695 42.8301C85.8332 42.8938 85.8393 42.931 85.8379 42.9775C85.8355 43.0553 85.8139 43.1137 85.7578 43.1787C85.693 43.24 85.6383 43.2613 85.5645 43.2637C85.5194 43.2651 85.4862 43.2585 85.4473 43.2305L85.4053 43.1943L82.25 40.0391V49C82.25 49.0939 82.2263 49.138 82.1816 49.1826C82.1371 49.2271 82.0941 49.2502 82.002 49.25L81.9395 49.2451C81.8851 49.2362 81.8513 49.2145 81.8174 49.1807C81.7736 49.137 81.75 49.0939 81.75 49V40.0391L78.5947 43.1943C78.5359 43.2532 78.4961 43.2645 78.4346 43.2627C78.3623 43.2605 78.3074 43.2412 78.2422 43.1797C78.1862 43.1144 78.1637 43.0546 78.1611 42.9756C78.16 42.9419 78.1631 42.913 78.1914 42.874L78.2295 42.8311L81.8301 39.2305C81.8468 39.2138 81.8593 39.2047 81.8662 39.2002C81.8696 39.198 81.8717 39.196 81.873 39.1953C81.874 39.1948 81.8747 39.1945 81.875 39.1943C81.9065 39.1832 81.9481 39.1751 82.0039 39.1748Z" fill="#6C7278" stroke="#6C7278" stroke-width="1.5"/>
<path d="M48.1195 83.976C48.1195 84.568 47.9995 85.104 47.7595 85.584C47.5195 86.056 47.1515 86.432 46.6555 86.712C46.1675 86.984 45.5435 87.12 44.7835 87.12C43.7195 87.12 42.9075 86.832 42.3475 86.256C41.7955 85.672 41.5195 84.904 41.5195 83.952V78.432H42.5995V83.988C42.5995 84.684 42.7835 85.224 43.1515 85.608C43.5275 85.992 44.0915 86.184 44.8435 86.184C45.3635 86.184 45.7835 86.092 46.1035 85.908C46.4315 85.716 46.6715 85.456 46.8235 85.128C46.9755 84.792 47.0515 84.408 47.0515 83.976V78.432H48.1195V83.976ZM53.2968 80.448C54.0888 80.448 54.7248 80.724 55.2048 81.276C55.6928 81.828 55.9368 82.66 55.9368 83.772C55.9368 84.5 55.8248 85.116 55.6008 85.62C55.3848 86.116 55.0768 86.492 54.6768 86.748C54.2848 86.996 53.8208 87.12 53.2848 87.12C52.9568 87.12 52.6648 87.076 52.4088 86.988C52.1528 86.9 51.9328 86.788 51.7488 86.652C51.5728 86.508 51.4208 86.352 51.2928 86.184H51.2208C51.2368 86.32 51.2528 86.492 51.2688 86.7C51.2848 86.908 51.2928 87.088 51.2928 87.24V89.88H50.2368V80.568H51.1008L51.2448 81.444H51.2928C51.4208 81.26 51.5728 81.092 51.7488 80.94C51.9328 80.788 52.1488 80.668 52.3968 80.58C52.6528 80.492 52.9528 80.448 53.2968 80.448ZM53.1048 81.336C52.6728 81.336 52.3248 81.42 52.0608 81.588C51.7968 81.748 51.6048 81.992 51.4848 82.32C51.3648 82.648 51.3008 83.064 51.2928 83.568V83.772C51.2928 84.3 51.3488 84.748 51.4608 85.116C51.5728 85.484 51.7608 85.764 52.0248 85.956C52.2968 86.148 52.6648 86.244 53.1288 86.244C53.5208 86.244 53.8408 86.136 54.0888 85.92C54.3448 85.704 54.5328 85.412 54.6528 85.044C54.7808 84.668 54.8448 84.24 54.8448 83.76C54.8448 83.024 54.7008 82.436 54.4128 81.996C54.1328 81.556 53.6968 81.336 53.1048 81.336ZM58.6756 87H57.6196V77.88H58.6756V87ZM66.3054 83.772C66.3054 84.308 66.2334 84.784 66.0894 85.2C65.9534 85.608 65.7534 85.956 65.4894 86.244C65.2334 86.532 64.9174 86.752 64.5414 86.904C64.1734 87.048 63.7614 87.12 63.3054 87.12C62.8814 87.12 62.4894 87.048 62.1294 86.904C61.7694 86.752 61.4574 86.532 61.1934 86.244C60.9294 85.956 60.7214 85.608 60.5694 85.2C60.4254 84.784 60.3534 84.308 60.3534 83.772C60.3534 83.06 60.4734 82.46 60.7134 81.972C60.9534 81.476 61.2974 81.1 61.7454 80.844C62.1934 80.58 62.7254 80.448 63.3414 80.448C63.9254 80.448 64.4374 80.58 64.8774 80.844C65.3254 81.1 65.6734 81.476 65.9214 81.972C66.1774 82.46 66.3054 83.06 66.3054 83.772ZM61.4454 83.772C61.4454 84.276 61.5094 84.716 61.6374 85.092C61.7734 85.46 61.9814 85.744 62.2614 85.944C62.5414 86.144 62.8974 86.244 63.3294 86.244C63.7614 86.244 64.1174 86.144 64.3974 85.944C64.6774 85.744 64.8814 85.46 65.0094 85.092C65.1454 84.716 65.2134 84.276 65.2134 83.772C65.2134 83.26 65.1454 82.824 65.0094 82.464C64.8734 82.104 64.6654 81.828 64.3854 81.636C64.1134 81.436 63.7574 81.336 63.3174 81.336C62.6614 81.336 62.1854 81.552 61.8894 81.984C61.5934 82.416 61.4454 83.012 61.4454 83.772ZM70.415 80.46C71.199 80.46 71.779 80.632 72.155 80.976C72.531 81.32 72.719 81.868 72.719 82.62V87H71.951L71.747 86.088H71.699C71.515 86.32 71.323 86.516 71.123 86.676C70.931 86.828 70.707 86.94 70.451 87.012C70.203 87.084 69.899 87.12 69.539 87.12C69.155 87.12 68.807 87.052 68.495 86.916C68.191 86.78 67.951 86.572 67.775 86.292C67.599 86.004 67.511 85.644 67.511 85.212C67.511 84.572 67.763 84.08 68.267 83.736C68.771 83.384 69.547 83.192 70.595 83.16L71.687 83.124V82.74C71.687 82.204 71.571 81.832 71.339 81.624C71.107 81.416 70.779 81.312 70.355 81.312C70.019 81.312 69.699 81.364 69.395 81.468C69.091 81.564 68.807 81.676 68.543 81.804L68.219 81.012C68.499 80.86 68.831 80.732 69.215 80.628C69.599 80.516 69.999 80.46 70.415 80.46ZM70.727 83.892C69.927 83.924 69.371 84.052 69.059 84.276C68.755 84.5 68.603 84.816 68.603 85.224C68.603 85.584 68.711 85.848 68.927 86.016C69.151 86.184 69.435 86.268 69.779 86.268C70.323 86.268 70.775 86.12 71.135 85.824C71.495 85.52 71.675 85.056 71.675 84.432V83.856L70.727 83.892ZM76.9855 87.12C76.1855 87.12 75.5455 86.844 75.0655 86.292C74.5855 85.732 74.3455 84.9 74.3455 83.796C74.3455 82.692 74.5855 81.86 75.0655 81.3C75.5535 80.732 76.1975 80.448 76.9975 80.448C77.3335 80.448 77.6255 80.492 77.8735 80.58C78.1215 80.66 78.3375 80.772 78.5215 80.916C78.7055 81.06 78.8615 81.22 78.9895 81.396H79.0615C79.0535 81.292 79.0375 81.14 79.0135 80.94C78.9975 80.732 78.9895 80.568 78.9895 80.448V77.88H80.0455V87H79.1935L79.0375 86.136H78.9895C78.8615 86.32 78.7055 86.488 78.5215 86.64C78.3375 86.784 78.1175 86.9 77.8615 86.988C77.6135 87.076 77.3215 87.12 76.9855 87.12ZM77.1535 86.244C77.8335 86.244 78.3095 86.06 78.5815 85.692C78.8615 85.316 79.0015 84.752 79.0015 84V83.808C79.0015 83.008 78.8695 82.396 78.6055 81.972C78.3415 81.54 77.8535 81.324 77.1415 81.324C76.5735 81.324 76.1455 81.552 75.8575 82.008C75.5775 82.456 75.4375 83.06 75.4375 83.82C75.4375 84.588 75.5775 85.184 75.8575 85.608C76.1455 86.032 76.5775 86.244 77.1535 86.244ZM87.6175 78.432C88.7375 78.432 89.5535 78.652 90.0655 79.092C90.5775 79.532 90.8335 80.152 90.8335 80.952C90.8335 81.304 90.7735 81.644 90.6535 81.972C90.5415 82.292 90.3535 82.58 90.0895 82.836C89.8255 83.092 89.4735 83.296 89.0335 83.448C88.5935 83.592 88.0535 83.664 87.4135 83.664H86.4295V87H85.3495V78.432H87.6175ZM87.5215 79.356H86.4295V82.74H87.2935C87.8375 82.74 88.2895 82.684 88.6495 82.572C89.0095 82.452 89.2775 82.264 89.4535 82.008C89.6295 81.752 89.7175 81.416 89.7175 81C89.7175 80.448 89.5415 80.036 89.1895 79.764C88.8375 79.492 88.2815 79.356 87.5215 79.356ZM93.5272 80.568V87H92.4712V80.568H93.5272ZM93.0112 78.156C93.1712 78.156 93.3112 78.212 93.4312 78.324C93.5592 78.428 93.6232 78.596 93.6232 78.828C93.6232 79.052 93.5592 79.22 93.4312 79.332C93.3112 79.444 93.1712 79.5 93.0112 79.5C92.8352 79.5 92.6872 79.444 92.5672 79.332C92.4472 79.22 92.3872 79.052 92.3872 78.828C92.3872 78.596 92.4472 78.428 92.5672 78.324C92.6872 78.212 92.8352 78.156 93.0112 78.156ZM98.1449 87.12C97.5769 87.12 97.0689 87.004 96.6209 86.772C96.1809 86.54 95.8329 86.18 95.5769 85.692C95.3289 85.204 95.2049 84.58 95.2049 83.82C95.2049 83.028 95.3369 82.384 95.6009 81.888C95.8649 81.392 96.2209 81.028 96.6689 80.796C97.1249 80.564 97.6409 80.448 98.2169 80.448C98.5449 80.448 98.8609 80.484 99.1649 80.556C99.4689 80.62 99.7169 80.7 99.9089 80.796L99.5849 81.672C99.3929 81.6 99.1689 81.532 98.9129 81.468C98.6569 81.404 98.4169 81.372 98.1929 81.372C97.7609 81.372 97.4049 81.464 97.1249 81.648C96.8449 81.832 96.6369 82.104 96.5009 82.464C96.3649 82.824 96.2969 83.272 96.2969 83.808C96.2969 84.32 96.3649 84.756 96.5009 85.116C96.6369 85.476 96.8409 85.748 97.1129 85.932C97.3849 86.116 97.7249 86.208 98.1329 86.208C98.4849 86.208 98.7929 86.172 99.0569 86.1C99.3289 86.028 99.5769 85.94 99.8009 85.836V86.772C99.5849 86.884 99.3449 86.968 99.0809 87.024C98.8249 87.088 98.5129 87.12 98.1449 87.12ZM103.479 86.256C103.639 86.256 103.803 86.244 103.971 86.22C104.139 86.188 104.275 86.156 104.379 86.124V86.928C104.267 86.984 104.107 87.028 103.899 87.06C103.691 87.1 103.491 87.12 103.299 87.12C102.963 87.12 102.651 87.064 102.363 86.952C102.083 86.832 101.855 86.628 101.679 86.34C101.503 86.052 101.415 85.648 101.415 85.128V81.384H100.503V80.88L101.427 80.46L101.847 79.092H102.471V80.568H104.331V81.384H102.471V85.104C102.471 85.496 102.563 85.788 102.747 85.98C102.939 86.164 103.183 86.256 103.479 86.256ZM111.042 80.568V87H110.178L110.022 86.148H109.974C109.838 86.372 109.662 86.556 109.446 86.7C109.23 86.844 108.994 86.948 108.738 87.012C108.482 87.084 108.214 87.12 107.934 87.12C107.422 87.12 106.99 87.04 106.638 86.88C106.294 86.712 106.034 86.456 105.858 86.112C105.682 85.768 105.594 85.324 105.594 84.78V80.568H106.662V84.708C106.662 85.22 106.778 85.604 107.01 85.86C107.242 86.116 107.602 86.244 108.09 86.244C108.57 86.244 108.946 86.156 109.218 85.98C109.498 85.796 109.694 85.532 109.806 85.188C109.926 84.836 109.986 84.412 109.986 83.916V80.568H111.042ZM116.084 80.448C116.204 80.448 116.332 80.456 116.468 80.472C116.612 80.48 116.736 80.496 116.84 80.52L116.708 81.492C116.604 81.468 116.488 81.448 116.36 81.432C116.24 81.416 116.124 81.408 116.012 81.408C115.764 81.408 115.528 81.46 115.304 81.564C115.08 81.668 114.88 81.816 114.704 82.008C114.528 82.192 114.388 82.416 114.284 82.68C114.188 82.944 114.14 83.24 114.14 83.568V87H113.084V80.568H113.948L114.068 81.744H114.116C114.252 81.504 114.416 81.288 114.608 81.096C114.8 80.896 115.02 80.74 115.268 80.628C115.516 80.508 115.788 80.448 116.084 80.448ZM120.291 80.448C120.843 80.448 121.315 80.568 121.707 80.808C122.107 81.048 122.411 81.388 122.619 81.828C122.835 82.26 122.943 82.768 122.943 83.352V83.988H118.539C118.555 84.716 118.739 85.272 119.091 85.656C119.451 86.032 119.951 86.22 120.591 86.22C120.999 86.22 121.359 86.184 121.671 86.112C121.991 86.032 122.319 85.92 122.655 85.776V86.7C122.327 86.844 122.003 86.948 121.683 87.012C121.363 87.084 120.983 87.12 120.543 87.12C119.935 87.12 119.395 86.996 118.923 86.748C118.459 86.5 118.095 86.132 117.831 85.644C117.575 85.148 117.447 84.544 117.447 83.832C117.447 83.128 117.563 82.524 117.795 82.02C118.035 81.516 118.367 81.128 118.791 80.856C119.223 80.584 119.723 80.448 120.291 80.448ZM120.279 81.312C119.775 81.312 119.375 81.476 119.079 81.804C118.791 82.124 118.619 82.572 118.563 83.148H121.839C121.839 82.78 121.783 82.46 121.671 82.188C121.559 81.916 121.387 81.704 121.155 81.552C120.931 81.392 120.639 81.312 120.279 81.312Z" fill="#6C7278"/>
</svg>
