<svg width="24" height="24" viewBox="0 0 24 24" fill="none" xmlns="http://www.w3.org/2000/svg">
<path d="M11.4999 21.75C5.84986 21.75 1.24986 17.15 1.24986 11.5C1.24986 5.85 5.84986 1.25 11.4999 1.25C17.1499 1.25 21.7499 5.85 21.7499 11.5C21.7499 17.15 17.1499 21.75 11.4999 21.75ZM11.4999 2.75C6.66986 2.75 2.74986 6.68 2.74986 11.5C2.74986 16.32 6.66986 20.25 11.4999 20.25C16.3299 20.25 20.2499 16.32 20.2499 11.5C20.2499 6.68 16.3299 2.75 11.4999 2.75Z" fill="#6C7278"/>
<path d="M22 22.7499C21.81 22.7499 21.62 22.6799 21.47 22.5299L19.47 20.5299C19.18 20.2399 19.18 19.7599 19.47 19.4699C19.76 19.1799 20.24 19.1799 20.53 19.4699L22.53 21.4699C22.82 21.7599 22.82 22.2399 22.53 22.5299C22.38 22.6799 22.19 22.7499 22 22.7499Z" fill="#6C7278"/>
</svg>
