<svg width="16" height="17" viewBox="0 0 16 17" fill="none" xmlns="http://www.w3.org/2000/svg">
<path d="M14 4.48665C11.78 4.26665 9.54667 4.15332 7.32 4.15332C6 4.15332 4.68 4.21999 3.36 4.35332L2 4.48665" stroke="#E51F2E" stroke-linecap="round" stroke-linejoin="round"/>
<path d="M5.66666 3.8135L5.81333 2.94016C5.92 2.30683 6 1.8335 7.12666 1.8335H8.87333C10 1.8335 10.0867 2.3335 10.1867 2.94683L10.3333 3.8135" stroke="#E51F2E" stroke-linecap="round" stroke-linejoin="round"/>
<path d="M12.5667 6.59326L12.1333 13.3066C12.06 14.3533 12 15.1666 10.14 15.1666H5.86C4 15.1666 3.94 14.3533 3.86667 13.3066L3.43333 6.59326" stroke="#E51F2E" stroke-linecap="round" stroke-linejoin="round"/>
<path d="M6.88667 11.5H9.10667" stroke="#E51F2E" stroke-linecap="round" stroke-linejoin="round"/>
<path d="M6.33334 8.8335H9.66667" stroke="#E51F2E" stroke-linecap="round" stroke-linejoin="round"/>
</svg>
