<svg width="24" height="24" viewBox="0 0 24 24" fill="none" xmlns="http://www.w3.org/2000/svg">
<path d="M19.002 15.75C19.0933 15.7498 19.1369 15.7726 19.1826 15.8184C19.2169 15.8527 19.238 15.8853 19.2461 15.9375L19.25 15.9961V18C19.25 18.3496 19.1339 18.6303 18.8818 18.8828C18.6619 19.103 18.4203 19.2189 18.1289 19.2441L18.001 19.25H6C5.65034 19.25 5.36981 19.1344 5.11816 18.8828C4.89784 18.6625 4.78177 18.4194 4.75586 18.127L4.75 17.999V16C4.75 15.9061 4.77366 15.8629 4.81738 15.8193C4.8627 15.7742 4.9077 15.7502 5.00195 15.75C5.09331 15.7498 5.13686 15.7726 5.18262 15.8184C5.21695 15.8527 5.23798 15.8853 5.24609 15.9375L5.25 15.9961V18.75H18.75V16C18.75 15.9061 18.7737 15.8629 18.8174 15.8193C18.8627 15.7742 18.9077 15.7502 19.002 15.75ZM12.0039 5.1748C12.0545 5.17457 12.0902 5.18254 12.1172 5.19238L12.1729 5.2334L15.7695 8.83008C15.8332 8.89377 15.8393 8.93104 15.8379 8.97754C15.8355 9.05529 15.8139 9.1137 15.7578 9.17871C15.693 9.23997 15.6383 9.26133 15.5645 9.26367C15.5194 9.26509 15.4862 9.25851 15.4473 9.23047L15.4053 9.19434L12.25 6.03906V15C12.25 15.0939 12.2263 15.138 12.1816 15.1826C12.1371 15.2271 12.0941 15.2502 12.002 15.25L11.9395 15.2451C11.8851 15.2362 11.8513 15.2145 11.8174 15.1807C11.7736 15.137 11.75 15.0939 11.75 15V6.03906L8.59473 9.19434C8.5359 9.25316 8.4961 9.26449 8.43457 9.2627C8.36225 9.26054 8.30741 9.2412 8.24219 9.17969C8.18624 9.11442 8.16372 9.05462 8.16113 8.97559C8.16004 8.94189 8.16313 8.91295 8.19141 8.87402L8.22949 8.83105L11.8301 5.23047C11.8468 5.21379 11.8593 5.20468 11.8662 5.2002C11.8696 5.19796 11.8717 5.196 11.873 5.19531C11.874 5.19483 11.8747 5.19447 11.875 5.19434C11.9065 5.18317 11.9481 5.17508 12.0039 5.1748Z" fill="#6C7278" stroke="#6C7278" stroke-width="1.5"/>
</svg>
