<svg width="12" height="12" viewBox="0 0 12 12" fill="none" xmlns="http://www.w3.org/2000/svg">
<path d="M10.5 6C10.5 6.36 10.455 6.70874 10.365 7.04624C10.2638 7.49624 10.0838 7.935 9.84752 8.3175C9.07127 9.6225 7.6425 10.5 6 10.5C4.84125 10.5 3.795 10.0612 3.0075 9.34122C2.67 9.04872 2.37748 8.7 2.15248 8.3175C1.73623 7.6425 1.5 6.84375 1.5 6C1.5 4.785 1.98376 3.67127 2.77126 2.86127C3.59251 2.01752 4.74 1.5 6 1.5C7.3275 1.5 8.53125 2.07377 9.34125 2.99627C10.0613 3.79502 10.5 4.8525 10.5 6Z" stroke="#6C7278" stroke-width="0.5" stroke-miterlimit="10" stroke-linecap="round" stroke-linejoin="round"/>
<path d="M7.15865 4.80762L4.78491 7.18135" stroke="#6C7278" stroke-width="0.5" stroke-miterlimit="10" stroke-linecap="round" stroke-linejoin="round"/>
<path d="M4.80737 4.83008L7.19237 7.20381" stroke="#6C7278" stroke-width="0.5" stroke-miterlimit="10" stroke-linecap="round" stroke-linejoin="round"/>
</svg>
