<svg width="13" height="12" viewBox="0 0 13 12" fill="none" xmlns="http://www.w3.org/2000/svg">
<path d="M1.91176 8.85714V9.57143C1.91176 9.95031 2.0605 10.3137 2.32526 10.5816C2.59002 10.8495 2.94911 11 3.32353 11C3.69795 11 4.05704 10.8495 4.3218 10.5816C4.58656 10.3137 4.73529 9.95031 4.73529 9.57143V6H2.61765C2.05601 6 1.51738 6.22576 1.12024 6.62763C0.723109 7.02949 0.5 7.57454 0.5 8.14286V8.85714H7.55882C7.82045 8.09225 8.29079 7.41797 8.9154 6.91233C9.54001 6.4067 10.2933 6.09038 11.0882 6V2.42857C11.0882 2.04969 10.9395 1.68633 10.6747 1.41842C10.41 1.15051 10.0509 1 9.67647 1H8.97059M2.61765 3.85714H4.73529M9.67647 9.57143C9.67647 9.95031 9.82521 10.3137 10.09 10.5816C10.3547 10.8495 10.7138 11 11.0882 11C11.4627 11 11.8217 10.8495 12.0865 10.5816C12.3513 10.3137 12.5 9.95031 12.5 9.57143C12.5 9.19255 12.3513 8.82919 12.0865 8.56128C11.8217 8.29337 11.4627 8.14286 11.0882 8.14286C10.7138 8.14286 10.3547 8.29337 10.09 8.56128C9.82521 8.82919 9.67647 9.19255 9.67647 9.57143Z" stroke="#2B3141" stroke-linecap="round" stroke-linejoin="round"/>
</svg>
