<svg width="40" height="40" viewBox="0 0 40 40" fill="none" xmlns="http://www.w3.org/2000/svg">
<g filter="url(#filter0_d_65_7407)">
<rect x="8" y="10" width="24" height="24" rx="12" fill="white"/>
<path d="M20 25.75C20.3315 25.75 20.6495 25.8817 20.8839 26.1161C21.1183 26.3505 21.25 26.6685 21.25 27C21.25 27.3315 21.1183 27.6495 20.8839 27.8839C20.6495 28.1183 20.3315 28.25 20 28.25C19.6685 28.25 19.3505 28.1183 19.1161 27.8839C18.8817 27.6495 18.75 27.3315 18.75 27C18.75 26.6685 18.8817 26.3505 19.1161 26.1161C19.3505 25.8817 19.6685 25.75 20 25.75ZM20 20.75C20.3315 20.75 20.6495 20.8817 20.8839 21.1161C21.1183 21.3505 21.25 21.6685 21.25 22C21.25 22.3315 21.1183 22.6495 20.8839 22.8839C20.6495 23.1183 20.3315 23.25 20 23.25C19.6685 23.25 19.3505 23.1183 19.1161 22.8839C18.8817 22.6495 18.75 22.3315 18.75 22C18.75 21.6685 18.8817 21.3505 19.1161 21.1161C19.3505 20.8817 19.6685 20.75 20 20.75ZM20 15.75C20.3315 15.75 20.6495 15.8817 20.8839 16.1161C21.1183 16.3505 21.25 16.6685 21.25 17C21.25 17.3315 21.1183 17.6495 20.8839 17.8839C20.6495 18.1183 20.3315 18.25 20 18.25C19.6685 18.25 19.3505 18.1183 19.1161 17.8839C18.8817 17.6495 18.75 17.3315 18.75 17C18.75 16.6685 18.8817 16.3505 19.1161 16.1161C19.3505 15.8817 19.6685 15.75 20 15.75Z" fill="black"/>
</g>
<defs>
<filter id="filter0_d_65_7407" x="0" y="0" width="40" height="40" filterUnits="userSpaceOnUse" color-interpolation-filters="sRGB">
<feFlood flood-opacity="0" result="BackgroundImageFix"/>
<feColorMatrix in="SourceAlpha" type="matrix" values="0 0 0 0 0 0 0 0 0 0 0 0 0 0 0 0 0 0 127 0" result="hardAlpha"/>
<feOffset dy="-2"/>
<feGaussianBlur stdDeviation="4"/>
<feComposite in2="hardAlpha" operator="out"/>
<feColorMatrix type="matrix" values="0 0 0 0 0 0 0 0 0 0 0 0 0 0 0 0 0 0 0.05 0"/>
<feBlend mode="normal" in2="BackgroundImageFix" result="effect1_dropShadow_65_7407"/>
<feBlend mode="normal" in="SourceGraphic" in2="effect1_dropShadow_65_7407" result="shape"/>
</filter>
</defs>
</svg>
