<svg width="16" height="17" viewBox="0 0 16 17" fill="none" xmlns="http://www.w3.org/2000/svg">
<path d="M5.78125 10.0536C5.78125 10.9136 6.44125 11.6069 7.26125 11.6069H8.93458C9.64792 11.6069 10.2279 11.0002 10.2279 10.2536C10.2279 9.44022 9.87458 9.15355 9.34792 8.96689L6.66125 8.03356C6.13458 7.84689 5.78125 7.56022 5.78125 6.74689C5.78125 6.00022 6.36125 5.39355 7.07458 5.39355H8.74792C9.56792 5.39355 10.2279 6.08689 10.2279 6.94689" stroke="#6C7278" stroke-linecap="round" stroke-linejoin="round"/>
<path d="M8 4.5V12.5" stroke="#6C7278" stroke-linecap="round" stroke-linejoin="round"/>
<path d="M8.00016 15.1663C11.6821 15.1663 14.6668 12.1816 14.6668 8.49967C14.6668 4.81778 11.6821 1.83301 8.00016 1.83301C4.31826 1.83301 1.3335 4.81778 1.3335 8.49967C1.3335 12.1816 4.31826 15.1663 8.00016 15.1663Z" stroke="#6C7278" stroke-linecap="round" stroke-linejoin="round"/>
</svg>
