<svg width="48" height="48" viewBox="0 0 48 48" fill="none" xmlns="http://www.w3.org/2000/svg">
<g filter="url(#filter0_d_131_10010)">
<rect x="8" y="4" width="32" height="32" rx="16" fill="white" shape-rendering="crispEdges"/>
<rect x="14" y="10" width="20" height="20" rx="10" fill="white"/>
<path d="M26.5 28.9587H21.5C16.975 28.9587 15.0417 27.0253 15.0417 22.5003V17.5003C15.0417 12.9753 16.975 11.042 21.5 11.042H23.1667C23.5084 11.042 23.7917 11.3253 23.7917 11.667C23.7917 12.0087 23.5084 12.292 23.1667 12.292H21.5C17.6584 12.292 16.2917 13.6587 16.2917 17.5003V22.5003C16.2917 26.342 17.6584 27.7087 21.5 27.7087H26.5C30.3417 27.7087 31.7084 26.342 31.7084 22.5003V20.8337C31.7084 20.492 31.9917 20.2087 32.3334 20.2087C32.675 20.2087 32.9584 20.492 32.9584 20.8337V22.5003C32.9584 27.0253 31.025 28.9587 26.5 28.9587Z" fill="#E28D00"/>
<path d="M21.0834 24.7415C20.575 24.7415 20.1084 24.5581 19.7667 24.2248C19.3584 23.8165 19.1834 23.2248 19.275 22.5998L19.6334 20.0915C19.7 19.6081 20.0167 18.9831 20.3584 18.6415L26.925 12.0748C28.5834 10.4165 30.2667 10.4165 31.925 12.0748C32.8334 12.9831 33.2417 13.9081 33.1584 14.8331C33.0834 15.5831 32.6834 16.3165 31.925 17.0665L25.3584 23.6331C25.0167 23.9748 24.3917 24.2915 23.9084 24.3581L21.4 24.7165C21.2917 24.7415 21.1834 24.7415 21.0834 24.7415ZM27.8084 12.9581L21.2417 19.5248C21.0834 19.6831 20.9 20.0498 20.8667 20.2665L20.5084 22.7748C20.475 23.0165 20.525 23.2165 20.65 23.3415C20.775 23.4665 20.975 23.5165 21.2167 23.4831L23.725 23.1248C23.9417 23.0915 24.3167 22.9081 24.4667 22.7498L31.0334 16.1831C31.575 15.6415 31.8584 15.1581 31.9 14.7081C31.95 14.1665 31.6667 13.5915 31.0334 12.9498C29.7 11.6165 28.7834 11.9915 27.8084 12.9581Z" fill="#E28D00"/>
<path d="M30.5417 18.1912C30.4833 18.1912 30.425 18.1829 30.375 18.1662C28.1833 17.5496 26.4417 15.8079 25.825 13.6162C25.7333 13.2829 25.925 12.9412 26.2583 12.8412C26.5917 12.7496 26.9333 12.9412 27.025 13.2746C27.525 15.0496 28.9333 16.4579 30.7083 16.9579C31.0417 17.0496 31.2333 17.3996 31.1417 17.7329C31.0667 18.0162 30.8167 18.1912 30.5417 18.1912Z" fill="#E28D00"/>
</g>
<defs>
<filter id="filter0_d_131_10010" x="0" y="0" width="48" height="48" filterUnits="userSpaceOnUse" color-interpolation-filters="sRGB">
<feFlood flood-opacity="0" result="BackgroundImageFix"/>
<feColorMatrix in="SourceAlpha" type="matrix" values="0 0 0 0 0 0 0 0 0 0 0 0 0 0 0 0 0 0 127 0" result="hardAlpha"/>
<feOffset dy="4"/>
<feGaussianBlur stdDeviation="4"/>
<feComposite in2="hardAlpha" operator="out"/>
<feColorMatrix type="matrix" values="0 0 0 0 0 0 0 0 0 0 0 0 0 0 0 0 0 0 0.05 0"/>
<feBlend mode="normal" in2="BackgroundImageFix" result="effect1_dropShadow_131_10010"/>
<feBlend mode="normal" in="SourceGraphic" in2="effect1_dropShadow_131_10010" result="shape"/>
</filter>
</defs>
</svg>
