<svg width="344" height="112" viewBox="0 0 344 112" fill="none" xmlns="http://www.w3.org/2000/svg">
<rect x="0.5" y="0.5" width="343" height="111" rx="15.5" stroke="#E5E8F4" stroke-dasharray="2 2"/>
<path d="M166 49.9998C165.45 49.9998 164.979 49.8042 164.588 49.4128C164.197 49.0215 164.001 48.5505 164 47.9998V45.9998C164 45.7165 164.096 45.4792 164.288 45.2878C164.48 45.0965 164.717 45.0005 165 44.9998C165.283 44.9992 165.52 45.0952 165.713 45.2878C165.906 45.4805 166.001 45.7178 166 45.9998V47.9998H178V45.9998C178 45.7165 178.096 45.4792 178.288 45.2878C178.48 45.0965 178.717 45.0005 179 44.9998C179.283 44.9992 179.52 45.0952 179.713 45.2878C179.906 45.4805 180.001 45.7178 180 45.9998V47.9998C180 48.5498 179.804 49.0208 179.413 49.4128C179.022 49.8048 178.551 50.0005 178 49.9998H166ZM171 37.8498L169.125 39.7248C168.925 39.9248 168.688 40.0208 168.413 40.0128C168.138 40.0048 167.901 39.9005 167.7 39.6998C167.517 39.4998 167.421 39.2665 167.412 38.9998C167.403 38.7332 167.499 38.4998 167.7 38.2998L171.3 34.6998C171.4 34.5998 171.508 34.5292 171.625 34.4878C171.742 34.4465 171.867 34.4255 172 34.4248C172.133 34.4242 172.258 34.4452 172.375 34.4878C172.492 34.5305 172.6 34.6012 172.7 34.6998L176.3 38.2998C176.5 38.4998 176.596 38.7332 176.588 38.9998C176.58 39.2665 176.484 39.4998 176.3 39.6998C176.1 39.8998 175.863 40.0042 175.588 40.0128C175.313 40.0215 175.076 39.9255 174.875 39.7248L173 37.8498V44.9998C173 45.2832 172.904 45.5208 172.712 45.7128C172.52 45.9048 172.283 46.0005 172 45.9998C171.717 45.9992 171.48 45.9032 171.288 45.7118C171.096 45.5205 171 45.2832 171 44.9998V37.8498Z" fill="#6C7278"/>
<path d="M95.5889 73.472C95.5889 74.1627 95.4443 74.788 95.1549 75.348C94.8749 75.8987 94.4409 76.3373 93.8529 76.664C93.2649 76.9813 92.5229 77.14 91.6269 77.14C90.3576 77.14 89.3916 76.804 88.7289 76.132C88.0756 75.4507 87.7489 74.5547 87.7489 73.444V67.004H89.2609V73.374C89.2609 74.1953 89.4616 74.816 89.8629 75.236C90.2643 75.6467 90.8756 75.852 91.6969 75.852C92.2569 75.852 92.7143 75.7493 93.0689 75.544C93.4236 75.3387 93.6803 75.054 93.8389 74.69C94.0069 74.3167 94.0909 73.8733 94.0909 73.36V67.004H95.5889V73.472ZM101.767 69.314C102.672 69.314 103.4 69.6407 103.951 70.294C104.511 70.9473 104.791 71.9227 104.791 73.22C104.791 74.0693 104.665 74.788 104.413 75.376C104.161 75.964 103.806 76.4073 103.349 76.706C102.892 76.9953 102.36 77.14 101.753 77.14C101.37 77.14 101.034 77.0933 100.745 77C100.456 76.8973 100.208 76.7667 100.003 76.608C99.8069 76.44 99.6342 76.2627 99.4849 76.076H99.3869C99.4149 76.244 99.4382 76.4447 99.4569 76.678C99.4755 76.902 99.4849 77.1027 99.4849 77.28V80.36H98.0009V69.454H99.2049L99.4149 70.462H99.4849C99.6342 70.2567 99.8115 70.0653 100.017 69.888C100.222 69.7107 100.47 69.5707 100.759 69.468C101.048 69.3653 101.384 69.314 101.767 69.314ZM101.417 70.532C100.95 70.532 100.577 70.6253 100.297 70.812C100.017 70.9893 99.8115 71.26 99.6809 71.624C99.5595 71.9787 99.4942 72.4313 99.4849 72.982V73.206C99.4849 73.7847 99.5455 74.2793 99.6669 74.69C99.7882 75.0913 99.9889 75.3993 100.269 75.614C100.558 75.8193 100.95 75.922 101.445 75.922C101.865 75.922 102.206 75.81 102.467 75.586C102.738 75.3527 102.938 75.0307 103.069 74.62C103.2 74.2093 103.265 73.7333 103.265 73.192C103.265 72.3707 103.116 71.722 102.817 71.246C102.518 70.77 102.052 70.532 101.417 70.532ZM108.167 77H106.683V66.36H108.167V77ZM117.147 73.22C117.147 73.8453 117.063 74.4007 116.895 74.886C116.727 75.3713 116.489 75.782 116.181 76.118C115.873 76.454 115.5 76.7107 115.061 76.888C114.622 77.056 114.128 77.14 113.577 77.14C113.073 77.14 112.606 77.056 112.177 76.888C111.748 76.7107 111.374 76.454 111.057 76.118C110.749 75.782 110.506 75.3713 110.329 74.886C110.152 74.4007 110.063 73.8407 110.063 73.206C110.063 72.3753 110.203 71.6707 110.483 71.092C110.772 70.5133 111.183 70.0747 111.715 69.776C112.256 69.468 112.891 69.314 113.619 69.314C114.31 69.314 114.916 69.468 115.439 69.776C115.971 70.0747 116.386 70.5133 116.685 71.092C116.993 71.6707 117.147 72.38 117.147 73.22ZM111.589 73.22C111.589 73.78 111.659 74.2653 111.799 74.676C111.939 75.0773 112.158 75.3853 112.457 75.6C112.756 75.8147 113.138 75.922 113.605 75.922C114.072 75.922 114.454 75.8147 114.753 75.6C115.052 75.3853 115.271 75.0773 115.411 74.676C115.551 74.2653 115.621 73.78 115.621 73.22C115.621 72.6413 115.546 72.156 115.397 71.764C115.257 71.372 115.038 71.0733 114.739 70.868C114.45 70.6533 114.067 70.546 113.591 70.546C112.891 70.546 112.382 70.7793 112.065 71.246C111.748 71.7127 111.589 72.3707 111.589 73.22ZM121.954 69.314C122.906 69.314 123.616 69.524 124.082 69.944C124.549 70.3547 124.782 71.0033 124.782 71.89V77H123.732L123.438 75.95H123.382C123.168 76.2207 122.944 76.4447 122.71 76.622C122.486 76.7993 122.225 76.93 121.926 77.014C121.637 77.098 121.282 77.14 120.862 77.14C120.414 77.14 120.008 77.0607 119.644 76.902C119.29 76.734 119.01 76.482 118.804 76.146C118.599 75.8007 118.496 75.3713 118.496 74.858C118.496 74.0927 118.786 73.5093 119.364 73.108C119.952 72.7067 120.844 72.4873 122.038 72.45L123.326 72.408V71.988C123.326 71.428 123.2 71.036 122.948 70.812C122.696 70.588 122.342 70.476 121.884 70.476C121.492 70.476 121.119 70.532 120.764 70.644C120.41 70.756 120.074 70.8913 119.756 71.05L119.28 69.972C119.635 69.7853 120.041 69.6313 120.498 69.51C120.965 69.3793 121.45 69.314 121.954 69.314ZM122.304 73.402C121.446 73.4393 120.848 73.584 120.512 73.836C120.186 74.0787 120.022 74.424 120.022 74.872C120.022 75.264 120.139 75.5487 120.372 75.726C120.615 75.9033 120.918 75.992 121.282 75.992C121.87 75.992 122.356 75.8287 122.738 75.502C123.121 75.1753 123.312 74.6853 123.312 74.032V73.374L122.304 73.402ZM129.657 77.14C128.752 77.14 128.019 76.8133 127.459 76.16C126.909 75.5067 126.633 74.536 126.633 73.248C126.633 71.9507 126.913 70.9707 127.473 70.308C128.033 69.6453 128.771 69.314 129.685 69.314C130.068 69.314 130.399 69.3653 130.679 69.468C130.969 69.5613 131.216 69.692 131.421 69.86C131.636 70.028 131.818 70.2147 131.967 70.42H132.051C132.033 70.2893 132.009 70.1027 131.981 69.86C131.953 69.608 131.939 69.384 131.939 69.188V66.36H133.423V77H132.261L132.009 75.992H131.939C131.799 76.2067 131.622 76.4027 131.407 76.58C131.202 76.748 130.955 76.8833 130.665 76.986C130.376 77.0887 130.04 77.14 129.657 77.14ZM130.007 75.922C130.735 75.922 131.249 75.7213 131.547 75.32C131.846 74.9093 131.995 74.298 131.995 73.486V73.262C131.995 72.3753 131.851 71.6987 131.561 71.232C131.281 70.7653 130.759 70.532 129.993 70.532C129.387 70.532 128.929 70.7793 128.621 71.274C128.313 71.7593 128.159 72.4267 128.159 73.276C128.159 74.1253 128.313 74.7787 128.621 75.236C128.929 75.6933 129.391 75.922 130.007 75.922ZM142.48 67.004C143.329 67.004 144.038 67.0833 144.608 67.242C145.186 67.4007 145.62 67.6667 145.91 68.04C146.208 68.404 146.358 68.8893 146.358 69.496C146.358 69.888 146.288 70.238 146.148 70.546C146.008 70.8447 145.802 71.0967 145.532 71.302C145.27 71.498 144.944 71.6287 144.552 71.694V71.764C144.953 71.8293 145.312 71.9507 145.63 72.128C145.947 72.296 146.199 72.5433 146.386 72.87C146.572 73.1967 146.666 73.6213 146.666 74.144C146.666 74.7507 146.521 75.2687 146.232 75.698C145.952 76.118 145.546 76.44 145.014 76.664C144.491 76.888 143.866 77 143.138 77H139.554V67.004H142.48ZM142.732 71.176C143.516 71.176 144.052 71.05 144.342 70.798C144.64 70.546 144.79 70.1727 144.79 69.678C144.79 69.174 144.612 68.8147 144.258 68.6C143.903 68.3853 143.338 68.278 142.564 68.278H141.066V71.176H142.732ZM141.066 72.408V75.74H142.9C143.712 75.74 144.276 75.5813 144.594 75.264C144.911 74.9467 145.07 74.5267 145.07 74.004C145.07 73.6867 145 73.4067 144.86 73.164C144.72 72.9213 144.482 72.7347 144.146 72.604C143.819 72.4733 143.371 72.408 142.802 72.408H141.066ZM151.499 69.314C152.451 69.314 153.16 69.524 153.627 69.944C154.094 70.3547 154.327 71.0033 154.327 71.89V77H153.277L152.983 75.95H152.927C152.712 76.2207 152.488 76.4447 152.255 76.622C152.031 76.7993 151.77 76.93 151.471 77.014C151.182 77.098 150.827 77.14 150.407 77.14C149.959 77.14 149.553 77.0607 149.189 76.902C148.834 76.734 148.554 76.482 148.349 76.146C148.144 75.8007 148.041 75.3713 148.041 74.858C148.041 74.0927 148.33 73.5093 148.909 73.108C149.497 72.7067 150.388 72.4873 151.583 72.45L152.871 72.408V71.988C152.871 71.428 152.745 71.036 152.493 70.812C152.241 70.588 151.886 70.476 151.429 70.476C151.037 70.476 150.664 70.532 150.309 70.644C149.954 70.756 149.618 70.8913 149.301 71.05L148.825 69.972C149.18 69.7853 149.586 69.6313 150.043 69.51C150.51 69.3793 150.995 69.314 151.499 69.314ZM151.849 73.402C150.99 73.4393 150.393 73.584 150.057 73.836C149.73 74.0787 149.567 74.424 149.567 74.872C149.567 75.264 149.684 75.5487 149.917 75.726C150.16 75.9033 150.463 75.992 150.827 75.992C151.415 75.992 151.9 75.8287 152.283 75.502C152.666 75.1753 152.857 74.6853 152.857 74.032V73.374L151.849 73.402ZM160.434 69.314C161.312 69.314 161.984 69.5333 162.45 69.972C162.917 70.4107 163.15 71.1153 163.15 72.086V77H161.68V72.296C161.68 71.708 161.554 71.2693 161.302 70.98C161.06 70.6813 160.668 70.532 160.126 70.532C159.361 70.532 158.829 70.7607 158.53 71.218C158.241 71.6753 158.096 72.3333 158.096 73.192V77H156.612V69.454H157.788L157.998 70.462H158.082C158.25 70.2007 158.456 69.986 158.698 69.818C158.941 69.65 159.212 69.524 159.51 69.44C159.809 69.356 160.117 69.314 160.434 69.314ZM169.253 69.314C170.13 69.314 170.802 69.5333 171.269 69.972C171.735 70.4107 171.969 71.1153 171.969 72.086V77H170.499V72.296C170.499 71.708 170.373 71.2693 170.121 70.98C169.878 70.6813 169.486 70.532 168.945 70.532C168.179 70.532 167.647 70.7607 167.349 71.218C167.059 71.6753 166.915 72.3333 166.915 73.192V77H165.431V69.454H166.607L166.817 70.462H166.901C167.069 70.2007 167.274 69.986 167.517 69.818C167.759 69.65 168.03 69.524 168.329 69.44C168.627 69.356 168.935 69.314 169.253 69.314ZM177.217 69.314C177.88 69.314 178.449 69.454 178.925 69.734C179.401 70.0047 179.765 70.3967 180.017 70.91C180.278 71.4233 180.409 72.03 180.409 72.73V73.542H175.341C175.36 74.3167 175.56 74.9093 175.943 75.32C176.335 75.7307 176.881 75.936 177.581 75.936C178.066 75.936 178.496 75.894 178.869 75.81C179.252 75.7167 179.644 75.5813 180.045 75.404V76.636C179.672 76.804 179.289 76.93 178.897 77.014C178.514 77.098 178.057 77.14 177.525 77.14C176.797 77.14 176.153 76.9953 175.593 76.706C175.033 76.4167 174.594 75.9873 174.277 75.418C173.969 74.8393 173.815 74.13 173.815 73.29C173.815 72.4407 173.955 71.722 174.235 71.134C174.524 70.546 174.921 70.098 175.425 69.79C175.938 69.4727 176.536 69.314 177.217 69.314ZM177.217 70.462C176.685 70.462 176.256 70.6347 175.929 70.98C175.612 71.3253 175.425 71.8153 175.369 72.45H178.925C178.925 72.058 178.864 71.7127 178.743 71.414C178.622 71.1153 178.435 70.882 178.183 70.714C177.931 70.546 177.609 70.462 177.217 70.462ZM185.985 69.314C186.115 69.314 186.26 69.3233 186.419 69.342C186.577 69.3513 186.708 69.3653 186.811 69.384L186.657 70.77C186.554 70.742 186.433 70.7187 186.293 70.7C186.153 70.6813 186.022 70.672 185.901 70.672C185.621 70.672 185.35 70.728 185.089 70.84C184.837 70.9427 184.608 71.0967 184.403 71.302C184.197 71.498 184.034 71.7407 183.913 72.03C183.801 72.3193 183.745 72.6507 183.745 73.024V77H182.261V69.454H183.437L183.633 70.798H183.689C183.847 70.5273 184.039 70.28 184.263 70.056C184.487 69.832 184.743 69.6547 185.033 69.524C185.322 69.384 185.639 69.314 185.985 69.314ZM191.243 73.164C191.243 72.3987 191.313 71.652 191.453 70.924C191.602 70.196 191.831 69.5007 192.139 68.838C192.447 68.1753 192.834 67.564 193.301 67.004H194.631C194.201 67.5827 193.837 68.208 193.539 68.88C193.249 69.552 193.03 70.2473 192.881 70.966C192.731 71.6847 192.657 72.4127 192.657 73.15C192.657 73.8687 192.731 74.5827 192.881 75.292C193.03 76.0013 193.249 76.6827 193.539 77.336C193.828 77.9987 194.187 78.624 194.617 79.212H193.301C192.834 78.6613 192.447 78.0593 192.139 77.406C191.831 76.762 191.602 76.0807 191.453 75.362C191.313 74.6433 191.243 73.9107 191.243 73.164ZM198.992 70.798C199.655 70.798 200.233 70.9147 200.728 71.148C201.223 71.3813 201.605 71.7173 201.876 72.156C202.156 72.5947 202.296 73.1313 202.296 73.766C202.296 74.466 202.147 75.068 201.848 75.572C201.549 76.076 201.115 76.4633 200.546 76.734C199.986 77.0047 199.3 77.14 198.488 77.14C197.975 77.14 197.489 77.0933 197.032 77C196.575 76.9067 196.187 76.7713 195.87 76.594V75.236C196.206 75.432 196.612 75.5907 197.088 75.712C197.573 75.8333 198.035 75.894 198.474 75.894C198.95 75.894 199.356 75.824 199.692 75.684C200.037 75.5347 200.303 75.3153 200.49 75.026C200.686 74.7273 200.784 74.354 200.784 73.906C200.784 73.2993 200.593 72.8373 200.21 72.52C199.837 72.1933 199.244 72.03 198.432 72.03C198.171 72.03 197.877 72.0533 197.55 72.1C197.233 72.1467 196.976 72.1933 196.78 72.24L196.094 71.834L196.472 67.004H201.61V68.32H197.76L197.536 70.938C197.695 70.91 197.895 70.882 198.138 70.854C198.381 70.8167 198.665 70.798 198.992 70.798ZM204.008 76.174C204.008 75.81 204.101 75.5533 204.288 75.404C204.474 75.2547 204.698 75.18 204.96 75.18C205.23 75.18 205.459 75.2547 205.646 75.404C205.832 75.5533 205.926 75.81 205.926 76.174C205.926 76.538 205.832 76.7993 205.646 76.958C205.459 77.1167 205.23 77.196 204.96 77.196C204.698 77.196 204.474 77.1167 204.288 76.958C204.101 76.7993 204.008 76.538 204.008 76.174ZM204.008 70.294C204.008 69.9113 204.101 69.6453 204.288 69.496C204.474 69.3467 204.698 69.272 204.96 69.272C205.23 69.272 205.459 69.3467 205.646 69.496C205.832 69.6453 205.926 69.9113 205.926 70.294C205.926 70.6487 205.832 70.9053 205.646 71.064C205.459 71.2227 205.23 71.302 204.96 71.302C204.698 71.302 204.474 71.2227 204.288 71.064C204.101 70.9053 204.008 70.6487 204.008 70.294ZM212.092 77H210.622V70.364C210.622 70.1307 210.622 69.916 210.622 69.72C210.631 69.5147 210.64 69.3187 210.65 69.132C210.659 68.936 210.668 68.7493 210.678 68.572C210.556 68.6933 210.43 68.81 210.3 68.922C210.169 69.034 210.02 69.1647 209.852 69.314L208.76 70.196L208.004 69.244L210.86 67.004H212.092V77ZM218.704 73.164C218.704 73.9107 218.629 74.6433 218.48 75.362C218.34 76.0807 218.116 76.762 217.808 77.406C217.509 78.0593 217.122 78.6613 216.646 79.212H215.33C215.759 78.624 216.118 77.9987 216.408 77.336C216.697 76.6827 216.912 76.0013 217.052 75.292C217.201 74.5827 217.276 73.8687 217.276 73.15C217.276 72.4127 217.201 71.6847 217.052 70.966C216.912 70.2473 216.697 69.552 216.408 68.88C216.118 68.208 215.754 67.5827 215.316 67.004H216.646C217.122 67.564 217.509 68.1753 217.808 68.838C218.116 69.5007 218.34 70.196 218.48 70.924C218.629 71.652 218.704 72.3987 218.704 73.164ZM227.024 67.004C227.882 67.004 228.587 67.1113 229.138 67.326C229.688 67.5407 230.099 67.8627 230.37 68.292C230.64 68.712 230.776 69.244 230.776 69.888C230.776 70.4013 230.678 70.8353 230.482 71.19C230.295 71.5353 230.052 71.82 229.754 72.044C229.455 72.2587 229.142 72.4313 228.816 72.562L231.616 77H229.88L227.472 72.954H225.736V77H224.224V67.004H227.024ZM226.926 68.292H225.736V71.694H226.996C227.509 71.694 227.929 71.6287 228.256 71.498C228.592 71.3673 228.834 71.1713 228.984 70.91C229.142 70.6487 229.222 70.3267 229.222 69.944C229.222 69.5427 229.138 69.2253 228.97 68.992C228.811 68.7493 228.559 68.572 228.214 68.46C227.878 68.348 227.448 68.292 226.926 68.292ZM235.841 69.314C236.793 69.314 237.502 69.524 237.969 69.944C238.436 70.3547 238.669 71.0033 238.669 71.89V77H237.619L237.325 75.95H237.269C237.054 76.2207 236.83 76.4447 236.597 76.622C236.373 76.7993 236.112 76.93 235.813 77.014C235.524 77.098 235.169 77.14 234.749 77.14C234.301 77.14 233.895 77.0607 233.531 76.902C233.176 76.734 232.896 76.482 232.691 76.146C232.486 75.8007 232.383 75.3713 232.383 74.858C232.383 74.0927 232.672 73.5093 233.251 73.108C233.839 72.7067 234.73 72.4873 235.925 72.45L237.213 72.408V71.988C237.213 71.428 237.087 71.036 236.835 70.812C236.583 70.588 236.228 70.476 235.771 70.476C235.379 70.476 235.006 70.532 234.651 70.644C234.296 70.756 233.96 70.8913 233.643 71.05L233.167 69.972C233.522 69.7853 233.928 69.6313 234.385 69.51C234.852 69.3793 235.337 69.314 235.841 69.314ZM236.191 73.402C235.332 73.4393 234.735 73.584 234.399 73.836C234.072 74.0787 233.909 74.424 233.909 74.872C233.909 75.264 234.026 75.5487 234.259 75.726C234.502 75.9033 234.805 75.992 235.169 75.992C235.757 75.992 236.242 75.8287 236.625 75.502C237.008 75.1753 237.199 74.6853 237.199 74.032V73.374L236.191 73.402ZM243.67 75.936C243.866 75.936 244.067 75.9173 244.272 75.88C244.477 75.8427 244.655 75.8007 244.804 75.754V76.874C244.645 76.9487 244.431 77.0093 244.16 77.056C243.889 77.112 243.619 77.14 243.348 77.14C242.937 77.14 242.559 77.07 242.214 76.93C241.878 76.79 241.607 76.5473 241.402 76.202C241.197 75.8567 241.094 75.376 241.094 74.76V70.588H240.044V69.916L241.15 69.356L241.668 67.76H242.578V69.454H244.734V70.588H242.578V74.732C242.578 75.1427 242.676 75.446 242.872 75.642C243.077 75.838 243.343 75.936 243.67 75.936ZM247.797 69.454V77H246.313V69.454H247.797ZM247.069 66.584C247.293 66.584 247.489 66.6493 247.657 66.78C247.825 66.9107 247.909 67.13 247.909 67.438C247.909 67.7367 247.825 67.956 247.657 68.096C247.489 68.2267 247.293 68.292 247.069 68.292C246.827 68.292 246.621 68.2267 246.453 68.096C246.295 67.956 246.215 67.7367 246.215 67.438C246.215 67.13 246.295 66.9107 246.453 66.78C246.621 66.6493 246.827 66.584 247.069 66.584ZM256.778 73.22C256.778 73.8453 256.694 74.4007 256.526 74.886C256.358 75.3713 256.12 75.782 255.812 76.118C255.504 76.454 255.13 76.7107 254.692 76.888C254.253 77.056 253.758 77.14 253.208 77.14C252.704 77.14 252.237 77.056 251.808 76.888C251.378 76.7107 251.005 76.454 250.688 76.118C250.38 75.782 250.137 75.3713 249.96 74.886C249.782 74.4007 249.694 73.8407 249.694 73.206C249.694 72.3753 249.834 71.6707 250.114 71.092C250.403 70.5133 250.814 70.0747 251.346 69.776C251.887 69.468 252.522 69.314 253.25 69.314C253.94 69.314 254.547 69.468 255.07 69.776C255.602 70.0747 256.017 70.5133 256.316 71.092C256.624 71.6707 256.778 72.38 256.778 73.22ZM251.22 73.22C251.22 73.78 251.29 74.2653 251.43 74.676C251.57 75.0773 251.789 75.3853 252.088 75.6C252.386 75.8147 252.769 75.922 253.236 75.922C253.702 75.922 254.085 75.8147 254.384 75.6C254.682 75.3853 254.902 75.0773 255.042 74.676C255.182 74.2653 255.252 73.78 255.252 73.22C255.252 72.6413 255.177 72.156 255.028 71.764C254.888 71.372 254.668 71.0733 254.37 70.868C254.08 70.6533 253.698 70.546 253.222 70.546C252.522 70.546 252.013 70.7793 251.696 71.246C251.378 71.7127 251.22 72.3707 251.22 73.22Z" fill="#6C7278"/>
</svg>
