<svg width="20" height="20" viewBox="0 0 20 20" fill="none" xmlns="http://www.w3.org/2000/svg">
<rect x="0.5" y="0.5" width="19" height="19" rx="9.5" stroke="#E51F2E"/>
<path d="M14.5 6.99023C12.835 6.82523 11.16 6.74023 9.49 6.74023C8.5 6.74023 7.51 6.79023 6.52 6.89023L5.5 6.99023" stroke="#E51F2E" stroke-linecap="round" stroke-linejoin="round"/>
<path d="M8.25 6.485L8.36 5.83C8.44 5.355 8.5 5 9.345 5H10.655C11.5 5 11.565 5.375 11.64 5.835L11.75 6.485" stroke="#E51F2E" stroke-linecap="round" stroke-linejoin="round"/>
<path d="M13.4252 8.57031L13.1002 13.6053C13.0452 14.3903 13.0002 15.0003 11.6052 15.0003H8.3952C7.0002 15.0003 6.9552 14.3903 6.9002 13.6053L6.5752 8.57031" stroke="#E51F2E" stroke-linecap="round" stroke-linejoin="round"/>
<path d="M9.16504 12.25H10.83" stroke="#E51F2E" stroke-linecap="round" stroke-linejoin="round"/>
<path d="M8.75 10.25H11.25" stroke="#E51F2E" stroke-linecap="round" stroke-linejoin="round"/>
</svg>
