<svg width="344" height="125" viewBox="0 0 344 125" fill="none" xmlns="http://www.w3.org/2000/svg">
<rect x="0.5" y="0.5" width="343" height="124" rx="19.5" stroke="#C3CAD9" stroke-miterlimit="5.75877" stroke-linecap="square" stroke-linejoin="round" stroke-dasharray="8 8"/>
<path d="M179.002 49.75C179.093 49.7498 179.137 49.7726 179.183 49.8184C179.217 49.8527 179.238 49.8853 179.246 49.9375L179.25 49.9961V52C179.25 52.3496 179.134 52.6303 178.882 52.8828C178.662 53.103 178.42 53.2189 178.129 53.2441L178.001 53.25H166C165.65 53.25 165.37 53.1344 165.118 52.8828C164.898 52.6625 164.782 52.4194 164.756 52.127L164.75 51.999V50C164.75 49.9061 164.774 49.8629 164.817 49.8193C164.863 49.7742 164.908 49.7502 165.002 49.75C165.093 49.7498 165.137 49.7726 165.183 49.8184C165.217 49.8527 165.238 49.8853 165.246 49.9375L165.25 49.9961V52.75H178.75V50C178.75 49.9061 178.774 49.8629 178.817 49.8193C178.863 49.7742 178.908 49.7502 179.002 49.75ZM172.004 39.1748C172.055 39.1746 172.09 39.1825 172.117 39.1924L172.173 39.2334L175.77 42.8301C175.833 42.8938 175.839 42.931 175.838 42.9775C175.836 43.0553 175.814 43.1137 175.758 43.1787C175.693 43.24 175.638 43.2613 175.564 43.2637C175.519 43.2651 175.486 43.2585 175.447 43.2305L175.405 43.1943L172.25 40.0391V49C172.25 49.0939 172.226 49.138 172.182 49.1826C172.137 49.2271 172.094 49.2502 172.002 49.25L171.939 49.2451C171.885 49.2362 171.851 49.2145 171.817 49.1807C171.774 49.137 171.75 49.0939 171.75 49V40.0391L168.595 43.1943C168.536 43.2532 168.496 43.2645 168.435 43.2627C168.362 43.2605 168.307 43.2412 168.242 43.1797C168.186 43.1144 168.164 43.0546 168.161 42.9756C168.16 42.9419 168.163 42.913 168.191 42.874L168.229 42.8311L171.83 39.2305C171.847 39.2138 171.859 39.2047 171.866 39.2002C171.87 39.198 171.872 39.196 171.873 39.1953C171.874 39.1948 171.875 39.1945 171.875 39.1943C171.907 39.1832 171.948 39.1751 172.004 39.1748Z" fill="#6C7278" stroke="#6C7278" stroke-width="1.5"/>
<path d="M129.998 83.976C129.998 84.568 129.878 85.104 129.638 85.584C129.398 86.056 129.03 86.432 128.534 86.712C128.046 86.984 127.422 87.12 126.662 87.12C125.598 87.12 124.786 86.832 124.226 86.256C123.674 85.672 123.398 84.904 123.398 83.952V78.432H124.478V83.988C124.478 84.684 124.662 85.224 125.03 85.608C125.406 85.992 125.97 86.184 126.722 86.184C127.242 86.184 127.662 86.092 127.982 85.908C128.31 85.716 128.55 85.456 128.702 85.128C128.854 84.792 128.93 84.408 128.93 83.976V78.432H129.998V83.976ZM135.176 80.448C135.968 80.448 136.604 80.724 137.084 81.276C137.572 81.828 137.816 82.66 137.816 83.772C137.816 84.5 137.704 85.116 137.48 85.62C137.264 86.116 136.956 86.492 136.556 86.748C136.164 86.996 135.7 87.12 135.164 87.12C134.836 87.12 134.544 87.076 134.288 86.988C134.032 86.9 133.812 86.788 133.628 86.652C133.452 86.508 133.3 86.352 133.172 86.184H133.1C133.116 86.32 133.132 86.492 133.148 86.7C133.164 86.908 133.172 87.088 133.172 87.24V89.88H132.116V80.568H132.98L133.124 81.444H133.172C133.3 81.26 133.452 81.092 133.628 80.94C133.812 80.788 134.028 80.668 134.276 80.58C134.532 80.492 134.832 80.448 135.176 80.448ZM134.984 81.336C134.552 81.336 134.204 81.42 133.94 81.588C133.676 81.748 133.484 81.992 133.364 82.32C133.244 82.648 133.18 83.064 133.172 83.568V83.772C133.172 84.3 133.228 84.748 133.34 85.116C133.452 85.484 133.64 85.764 133.904 85.956C134.176 86.148 134.544 86.244 135.008 86.244C135.4 86.244 135.72 86.136 135.968 85.92C136.224 85.704 136.412 85.412 136.532 85.044C136.66 84.668 136.724 84.24 136.724 83.76C136.724 83.024 136.58 82.436 136.292 81.996C136.012 81.556 135.576 81.336 134.984 81.336ZM140.555 87H139.499V77.88H140.555V87ZM148.184 83.772C148.184 84.308 148.112 84.784 147.968 85.2C147.832 85.608 147.632 85.956 147.368 86.244C147.112 86.532 146.796 86.752 146.42 86.904C146.052 87.048 145.64 87.12 145.184 87.12C144.76 87.12 144.368 87.048 144.008 86.904C143.648 86.752 143.336 86.532 143.072 86.244C142.808 85.956 142.6 85.608 142.448 85.2C142.304 84.784 142.232 84.308 142.232 83.772C142.232 83.06 142.352 82.46 142.592 81.972C142.832 81.476 143.176 81.1 143.624 80.844C144.072 80.58 144.604 80.448 145.22 80.448C145.804 80.448 146.316 80.58 146.756 80.844C147.204 81.1 147.552 81.476 147.8 81.972C148.056 82.46 148.184 83.06 148.184 83.772ZM143.324 83.772C143.324 84.276 143.388 84.716 143.516 85.092C143.652 85.46 143.86 85.744 144.14 85.944C144.42 86.144 144.776 86.244 145.208 86.244C145.64 86.244 145.996 86.144 146.276 85.944C146.556 85.744 146.76 85.46 146.888 85.092C147.024 84.716 147.092 84.276 147.092 83.772C147.092 83.26 147.024 82.824 146.888 82.464C146.752 82.104 146.544 81.828 146.264 81.636C145.992 81.436 145.636 81.336 145.196 81.336C144.54 81.336 144.064 81.552 143.768 81.984C143.472 82.416 143.324 83.012 143.324 83.772ZM152.294 80.46C153.078 80.46 153.658 80.632 154.034 80.976C154.41 81.32 154.598 81.868 154.598 82.62V87H153.83L153.626 86.088H153.578C153.394 86.32 153.202 86.516 153.002 86.676C152.81 86.828 152.586 86.94 152.33 87.012C152.082 87.084 151.778 87.12 151.418 87.12C151.034 87.12 150.686 87.052 150.374 86.916C150.07 86.78 149.83 86.572 149.654 86.292C149.478 86.004 149.39 85.644 149.39 85.212C149.39 84.572 149.642 84.08 150.146 83.736C150.65 83.384 151.426 83.192 152.474 83.16L153.566 83.124V82.74C153.566 82.204 153.45 81.832 153.218 81.624C152.986 81.416 152.658 81.312 152.234 81.312C151.898 81.312 151.578 81.364 151.274 81.468C150.97 81.564 150.686 81.676 150.422 81.804L150.098 81.012C150.378 80.86 150.71 80.732 151.094 80.628C151.478 80.516 151.878 80.46 152.294 80.46ZM152.606 83.892C151.806 83.924 151.25 84.052 150.938 84.276C150.634 84.5 150.482 84.816 150.482 85.224C150.482 85.584 150.59 85.848 150.806 86.016C151.03 86.184 151.314 86.268 151.658 86.268C152.202 86.268 152.654 86.12 153.014 85.824C153.374 85.52 153.554 85.056 153.554 84.432V83.856L152.606 83.892ZM158.864 87.12C158.064 87.12 157.424 86.844 156.944 86.292C156.464 85.732 156.224 84.9 156.224 83.796C156.224 82.692 156.464 81.86 156.944 81.3C157.432 80.732 158.076 80.448 158.876 80.448C159.212 80.448 159.504 80.492 159.752 80.58C160 80.66 160.216 80.772 160.4 80.916C160.584 81.06 160.74 81.22 160.868 81.396H160.94C160.932 81.292 160.916 81.14 160.892 80.94C160.876 80.732 160.868 80.568 160.868 80.448V77.88H161.924V87H161.072L160.916 86.136H160.868C160.74 86.32 160.584 86.488 160.4 86.64C160.216 86.784 159.996 86.9 159.74 86.988C159.492 87.076 159.2 87.12 158.864 87.12ZM159.032 86.244C159.712 86.244 160.188 86.06 160.46 85.692C160.74 85.316 160.88 84.752 160.88 84V83.808C160.88 83.008 160.748 82.396 160.484 81.972C160.22 81.54 159.732 81.324 159.02 81.324C158.452 81.324 158.024 81.552 157.736 82.008C157.456 82.456 157.316 83.06 157.316 83.82C157.316 84.588 157.456 85.184 157.736 85.608C158.024 86.032 158.456 86.244 159.032 86.244ZM172.604 87L171.572 84.348H168.176L167.156 87H166.064L169.412 78.396H170.384L173.72 87H172.604ZM170.288 80.796C170.264 80.732 170.224 80.616 170.168 80.448C170.112 80.28 170.056 80.108 170 79.932C169.952 79.748 169.912 79.608 169.88 79.512C169.84 79.672 169.796 79.836 169.748 80.004C169.708 80.164 169.664 80.312 169.616 80.448C169.576 80.584 169.54 80.7 169.508 80.796L168.536 83.388H171.248L170.288 80.796ZM177.029 87.12C176.229 87.12 175.589 86.844 175.109 86.292C174.629 85.732 174.389 84.9 174.389 83.796C174.389 82.692 174.629 81.86 175.109 81.3C175.597 80.732 176.241 80.448 177.041 80.448C177.377 80.448 177.669 80.492 177.917 80.58C178.165 80.66 178.381 80.772 178.565 80.916C178.749 81.06 178.905 81.22 179.033 81.396H179.105C179.097 81.292 179.081 81.14 179.057 80.94C179.041 80.732 179.033 80.568 179.033 80.448V77.88H180.089V87H179.237L179.081 86.136H179.033C178.905 86.32 178.749 86.488 178.565 86.64C178.381 86.784 178.161 86.9 177.905 86.988C177.657 87.076 177.365 87.12 177.029 87.12ZM177.197 86.244C177.877 86.244 178.353 86.06 178.625 85.692C178.905 85.316 179.045 84.752 179.045 84V83.808C179.045 83.008 178.913 82.396 178.649 81.972C178.385 81.54 177.897 81.324 177.185 81.324C176.617 81.324 176.189 81.552 175.901 82.008C175.621 82.456 175.481 83.06 175.481 83.82C175.481 84.588 175.621 85.184 175.901 85.608C176.189 86.032 176.621 86.244 177.197 86.244ZM186.319 85.224C186.319 85.64 186.215 85.988 186.007 86.268C185.799 86.548 185.503 86.76 185.119 86.904C184.735 87.048 184.279 87.12 183.751 87.12C183.303 87.12 182.915 87.084 182.587 87.012C182.267 86.94 181.983 86.84 181.735 86.712V85.752C181.991 85.88 182.299 86 182.659 86.112C183.027 86.216 183.399 86.268 183.775 86.268C184.311 86.268 184.699 86.184 184.939 86.016C185.179 85.84 185.299 85.608 185.299 85.32C185.299 85.16 185.255 85.016 185.167 84.888C185.079 84.76 184.919 84.632 184.687 84.504C184.463 84.376 184.139 84.232 183.715 84.072C183.299 83.912 182.943 83.752 182.647 83.592C182.351 83.432 182.123 83.24 181.963 83.016C181.803 82.792 181.723 82.504 181.723 82.152C181.723 81.608 181.943 81.188 182.383 80.892C182.831 80.596 183.415 80.448 184.135 80.448C184.527 80.448 184.891 80.488 185.227 80.568C185.571 80.64 185.891 80.744 186.187 80.88L185.827 81.72C185.651 81.64 185.463 81.572 185.263 81.516C185.071 81.452 184.875 81.404 184.675 81.372C184.475 81.332 184.271 81.312 184.063 81.312C183.631 81.312 183.299 81.384 183.067 81.528C182.843 81.664 182.731 81.852 182.731 82.092C182.731 82.268 182.783 82.42 182.887 82.548C182.991 82.668 183.163 82.788 183.403 82.908C183.651 83.02 183.979 83.156 184.387 83.316C184.795 83.468 185.143 83.624 185.431 83.784C185.719 83.944 185.939 84.14 186.091 84.372C186.243 84.596 186.319 84.88 186.319 85.224ZM197.171 78.432L194.111 87H193.031L189.971 78.432H191.099L193.031 83.928C193.119 84.16 193.195 84.384 193.259 84.6C193.323 84.816 193.379 85.024 193.427 85.224C193.483 85.416 193.531 85.608 193.571 85.8C193.611 85.608 193.655 85.412 193.703 85.212C193.759 85.012 193.819 84.804 193.883 84.588C193.955 84.372 194.031 84.144 194.111 83.904L196.031 78.432H197.171ZM199.242 80.568V87H198.186V80.568H199.242ZM198.726 78.156C198.886 78.156 199.026 78.212 199.146 78.324C199.274 78.428 199.338 78.596 199.338 78.828C199.338 79.052 199.274 79.22 199.146 79.332C199.026 79.444 198.886 79.5 198.726 79.5C198.55 79.5 198.402 79.444 198.282 79.332C198.162 79.22 198.102 79.052 198.102 78.828C198.102 78.596 198.162 78.428 198.282 78.324C198.402 78.212 198.55 78.156 198.726 78.156ZM203.56 87.12C202.76 87.12 202.12 86.844 201.64 86.292C201.16 85.732 200.92 84.9 200.92 83.796C200.92 82.692 201.16 81.86 201.64 81.3C202.128 80.732 202.772 80.448 203.572 80.448C203.908 80.448 204.2 80.492 204.448 80.58C204.696 80.66 204.912 80.772 205.096 80.916C205.28 81.06 205.436 81.22 205.564 81.396H205.636C205.628 81.292 205.612 81.14 205.588 80.94C205.572 80.732 205.564 80.568 205.564 80.448V77.88H206.62V87H205.768L205.612 86.136H205.564C205.436 86.32 205.28 86.488 205.096 86.64C204.912 86.784 204.692 86.9 204.436 86.988C204.188 87.076 203.896 87.12 203.56 87.12ZM203.728 86.244C204.408 86.244 204.884 86.06 205.156 85.692C205.436 85.316 205.576 84.752 205.576 84V83.808C205.576 83.008 205.444 82.396 205.18 81.972C204.916 81.54 204.428 81.324 203.716 81.324C203.148 81.324 202.72 81.552 202.432 82.008C202.152 82.456 202.012 83.06 202.012 83.82C202.012 84.588 202.152 85.184 202.432 85.608C202.72 86.032 203.152 86.244 203.728 86.244ZM211.147 80.448C211.699 80.448 212.171 80.568 212.563 80.808C212.963 81.048 213.267 81.388 213.475 81.828C213.691 82.26 213.799 82.768 213.799 83.352V83.988H209.395C209.411 84.716 209.595 85.272 209.947 85.656C210.307 86.032 210.807 86.22 211.447 86.22C211.855 86.22 212.215 86.184 212.527 86.112C212.847 86.032 213.175 85.92 213.511 85.776V86.7C213.183 86.844 212.859 86.948 212.539 87.012C212.219 87.084 211.839 87.12 211.399 87.12C210.791 87.12 210.251 86.996 209.779 86.748C209.315 86.5 208.951 86.132 208.687 85.644C208.431 85.148 208.303 84.544 208.303 83.832C208.303 83.128 208.419 82.524 208.651 82.02C208.891 81.516 209.223 81.128 209.647 80.856C210.079 80.584 210.579 80.448 211.147 80.448ZM211.135 81.312C210.631 81.312 210.231 81.476 209.935 81.804C209.647 82.124 209.475 82.572 209.419 83.148H212.695C212.695 82.78 212.639 82.46 212.527 82.188C212.415 81.916 212.243 81.704 212.011 81.552C211.787 81.392 211.495 81.312 211.135 81.312ZM221.028 83.772C221.028 84.308 220.956 84.784 220.812 85.2C220.676 85.608 220.476 85.956 220.212 86.244C219.956 86.532 219.64 86.752 219.264 86.904C218.896 87.048 218.484 87.12 218.028 87.12C217.604 87.12 217.212 87.048 216.852 86.904C216.492 86.752 216.18 86.532 215.916 86.244C215.652 85.956 215.444 85.608 215.292 85.2C215.148 84.784 215.076 84.308 215.076 83.772C215.076 83.06 215.196 82.46 215.436 81.972C215.676 81.476 216.02 81.1 216.468 80.844C216.916 80.58 217.448 80.448 218.064 80.448C218.648 80.448 219.16 80.58 219.6 80.844C220.048 81.1 220.396 81.476 220.644 81.972C220.9 82.46 221.028 83.06 221.028 83.772ZM216.168 83.772C216.168 84.276 216.232 84.716 216.36 85.092C216.496 85.46 216.704 85.744 216.984 85.944C217.264 86.144 217.62 86.244 218.052 86.244C218.484 86.244 218.84 86.144 219.12 85.944C219.4 85.744 219.604 85.46 219.732 85.092C219.868 84.716 219.936 84.276 219.936 83.772C219.936 83.26 219.868 82.824 219.732 82.464C219.596 82.104 219.388 81.828 219.108 81.636C218.836 81.436 218.48 81.336 218.04 81.336C217.384 81.336 216.908 81.552 216.612 81.984C216.316 82.416 216.168 83.012 216.168 83.772Z" fill="#6C7278"/>
</svg>
