<svg width="344" height="112" viewBox="0 0 344 112" fill="none" xmlns="http://www.w3.org/2000/svg">
<rect x="0.5" y="0.5" width="343" height="111" rx="15.5" stroke="#E5E8F4" stroke-dasharray="2 2"/>
<path d="M166 49.9998C165.45 49.9998 164.979 49.8042 164.588 49.4128C164.197 49.0215 164.001 48.5505 164 47.9998V45.9998C164 45.7165 164.096 45.4792 164.288 45.2878C164.48 45.0965 164.717 45.0005 165 44.9998C165.283 44.9992 165.52 45.0952 165.713 45.2878C165.906 45.4805 166.001 45.7178 166 45.9998V47.9998H178V45.9998C178 45.7165 178.096 45.4792 178.288 45.2878C178.48 45.0965 178.717 45.0005 179 44.9998C179.283 44.9992 179.52 45.0952 179.713 45.2878C179.906 45.4805 180.001 45.7178 180 45.9998V47.9998C180 48.5498 179.804 49.0208 179.413 49.4128C179.022 49.8048 178.551 50.0005 178 49.9998H166ZM171 37.8498L169.125 39.7248C168.925 39.9248 168.688 40.0208 168.413 40.0128C168.138 40.0048 167.901 39.9005 167.7 39.6998C167.517 39.4998 167.421 39.2665 167.412 38.9998C167.403 38.7332 167.499 38.4998 167.7 38.2998L171.3 34.6998C171.4 34.5998 171.508 34.5292 171.625 34.4878C171.742 34.4465 171.867 34.4255 172 34.4248C172.133 34.4242 172.258 34.4452 172.375 34.4878C172.492 34.5305 172.6 34.6012 172.7 34.6998L176.3 38.2998C176.5 38.4998 176.596 38.7332 176.588 38.9998C176.58 39.2665 176.484 39.4998 176.3 39.6998C176.1 39.8998 175.863 40.0042 175.588 40.0128C175.313 40.0215 175.076 39.9255 174.875 39.7248L173 37.8498V44.9998C173 45.2832 172.904 45.5208 172.712 45.7128C172.52 45.9048 172.283 46.0005 172 45.9998C171.717 45.9992 171.48 45.9032 171.288 45.7118C171.096 45.5205 171 45.2832 171 44.9998V37.8498Z" fill="#6C7278"/>
<path d="M125.469 68.166C124.974 68.166 124.531 68.2547 124.139 68.432C123.747 68.6 123.411 68.852 123.131 69.188C122.86 69.524 122.65 69.93 122.501 70.406C122.361 70.882 122.291 71.4187 122.291 72.016C122.291 72.8 122.408 73.4813 122.641 74.06C122.874 74.6293 123.224 75.068 123.691 75.376C124.158 75.684 124.746 75.838 125.455 75.838C125.884 75.838 126.295 75.8007 126.687 75.726C127.088 75.642 127.494 75.5347 127.905 75.404V76.706C127.513 76.8553 127.112 76.9627 126.701 77.028C126.29 77.1027 125.814 77.14 125.273 77.14C124.256 77.14 123.406 76.93 122.725 76.51C122.053 76.09 121.549 75.4927 121.213 74.718C120.877 73.9433 120.709 73.038 120.709 72.002C120.709 71.246 120.812 70.5553 121.017 69.93C121.232 69.2953 121.54 68.7493 121.941 68.292C122.342 67.8347 122.837 67.4847 123.425 67.242C124.022 66.99 124.708 66.864 125.483 66.864C125.987 66.864 126.482 66.92 126.967 67.032C127.452 67.1347 127.891 67.284 128.283 67.48L127.723 68.74C127.396 68.5907 127.042 68.46 126.659 68.348C126.286 68.2267 125.889 68.166 125.469 68.166ZM132.817 69.314C133.769 69.314 134.478 69.524 134.945 69.944C135.411 70.3547 135.645 71.0033 135.645 71.89V77H134.595L134.301 75.95H134.245C134.03 76.2207 133.806 76.4447 133.573 76.622C133.349 76.7993 133.087 76.93 132.789 77.014C132.499 77.098 132.145 77.14 131.725 77.14C131.277 77.14 130.871 77.0607 130.507 76.902C130.152 76.734 129.872 76.482 129.667 76.146C129.461 75.8007 129.359 75.3713 129.359 74.858C129.359 74.0927 129.648 73.5093 130.227 73.108C130.815 72.7067 131.706 72.4873 132.901 72.45L134.189 72.408V71.988C134.189 71.428 134.063 71.036 133.811 70.812C133.559 70.588 133.204 70.476 132.747 70.476C132.355 70.476 131.981 70.532 131.627 70.644C131.272 70.756 130.936 70.8913 130.619 71.05L130.143 69.972C130.497 69.7853 130.903 69.6313 131.361 69.51C131.827 69.3793 132.313 69.314 132.817 69.314ZM133.167 73.402C132.308 73.4393 131.711 73.584 131.375 73.836C131.048 74.0787 130.885 74.424 130.885 74.872C130.885 75.264 131.001 75.5487 131.235 75.726C131.477 75.9033 131.781 75.992 132.145 75.992C132.733 75.992 133.218 75.8287 133.601 75.502C133.983 75.1753 134.175 74.6853 134.175 74.032V73.374L133.167 73.402ZM140.646 75.936C140.842 75.936 141.042 75.9173 141.248 75.88C141.453 75.8427 141.63 75.8007 141.78 75.754V76.874C141.621 76.9487 141.406 77.0093 141.136 77.056C140.865 77.112 140.594 77.14 140.324 77.14C139.913 77.14 139.535 77.07 139.19 76.93C138.854 76.79 138.583 76.5473 138.378 76.202C138.172 75.8567 138.07 75.376 138.07 74.76V70.588H137.02V69.916L138.126 69.356L138.644 67.76H139.554V69.454H141.71V70.588H139.554V74.732C139.554 75.1427 139.652 75.446 139.848 75.642C140.053 75.838 140.319 75.936 140.646 75.936ZM146.257 69.314C146.92 69.314 147.489 69.454 147.965 69.734C148.441 70.0047 148.805 70.3967 149.057 70.91C149.318 71.4233 149.449 72.03 149.449 72.73V73.542H144.381C144.4 74.3167 144.6 74.9093 144.983 75.32C145.375 75.7307 145.921 75.936 146.621 75.936C147.106 75.936 147.536 75.894 147.909 75.81C148.292 75.7167 148.684 75.5813 149.085 75.404V76.636C148.712 76.804 148.329 76.93 147.937 77.014C147.554 77.098 147.097 77.14 146.565 77.14C145.837 77.14 145.193 76.9953 144.633 76.706C144.073 76.4167 143.634 75.9873 143.317 75.418C143.009 74.8393 142.855 74.13 142.855 73.29C142.855 72.4407 142.995 71.722 143.275 71.134C143.564 70.546 143.961 70.098 144.465 69.79C144.978 69.4727 145.576 69.314 146.257 69.314ZM146.257 70.462C145.725 70.462 145.296 70.6347 144.969 70.98C144.652 71.3253 144.465 71.8153 144.409 72.45H147.965C147.965 72.058 147.904 71.7127 147.783 71.414C147.662 71.1153 147.475 70.882 147.223 70.714C146.971 70.546 146.649 70.462 146.257 70.462ZM153.905 69.314C154.39 69.314 154.829 69.4073 155.221 69.594C155.613 69.7807 155.944 70.0653 156.215 70.448H156.285L156.453 69.454H157.657V77.098C157.657 77.8073 157.531 78.4047 157.279 78.89C157.027 79.3753 156.639 79.7393 156.117 79.982C155.603 80.234 154.955 80.36 154.171 80.36C153.629 80.36 153.13 80.3227 152.673 80.248C152.215 80.1733 151.795 80.0567 151.413 79.898V78.596C151.683 78.7267 151.968 78.834 152.267 78.918C152.565 79.0113 152.883 79.0767 153.219 79.114C153.555 79.1607 153.9 79.184 154.255 79.184C154.871 79.184 155.347 79.0067 155.683 78.652C156.019 78.3067 156.187 77.8167 156.187 77.182V76.93C156.187 76.8087 156.191 76.65 156.201 76.454C156.21 76.2487 156.219 76.0993 156.229 76.006H156.173C155.911 76.398 155.589 76.6873 155.207 76.874C154.833 77.0513 154.399 77.14 153.905 77.14C152.953 77.14 152.206 76.7993 151.665 76.118C151.133 75.4273 150.867 74.4707 150.867 73.248C150.867 72.4267 150.988 71.7267 151.231 71.148C151.473 70.56 151.819 70.1073 152.267 69.79C152.724 69.4727 153.27 69.314 153.905 69.314ZM154.213 70.546C153.821 70.546 153.489 70.6533 153.219 70.868C152.948 71.0733 152.743 71.3767 152.603 71.778C152.463 72.1793 152.393 72.674 152.393 73.262C152.393 74.1393 152.547 74.8067 152.855 75.264C153.172 75.7213 153.634 75.95 154.241 75.95C154.595 75.95 154.894 75.9033 155.137 75.81C155.389 75.7167 155.594 75.572 155.753 75.376C155.921 75.18 156.042 74.9327 156.117 74.634C156.201 74.326 156.243 73.9573 156.243 73.528V73.248C156.243 72.604 156.168 72.086 156.019 71.694C155.879 71.2927 155.659 71.0033 155.361 70.826C155.062 70.6393 154.679 70.546 154.213 70.546ZM166.632 73.22C166.632 73.8453 166.548 74.4007 166.38 74.886C166.212 75.3713 165.974 75.782 165.666 76.118C165.358 76.454 164.985 76.7107 164.546 76.888C164.108 77.056 163.613 77.14 163.062 77.14C162.558 77.14 162.092 77.056 161.662 76.888C161.233 76.7107 160.86 76.454 160.542 76.118C160.234 75.782 159.992 75.3713 159.814 74.886C159.637 74.4007 159.548 73.8407 159.548 73.206C159.548 72.3753 159.688 71.6707 159.968 71.092C160.258 70.5133 160.668 70.0747 161.2 69.776C161.742 69.468 162.376 69.314 163.104 69.314C163.795 69.314 164.402 69.468 164.924 69.776C165.456 70.0747 165.872 70.5133 166.17 71.092C166.478 71.6707 166.632 72.38 166.632 73.22ZM161.074 73.22C161.074 73.78 161.144 74.2653 161.284 74.676C161.424 75.0773 161.644 75.3853 161.942 75.6C162.241 75.8147 162.624 75.922 163.09 75.922C163.557 75.922 163.94 75.8147 164.238 75.6C164.537 75.3853 164.756 75.0773 164.896 74.676C165.036 74.2653 165.106 73.78 165.106 73.22C165.106 72.6413 165.032 72.156 164.882 71.764C164.742 71.372 164.523 71.0733 164.224 70.868C163.935 70.6533 163.552 70.546 163.076 70.546C162.376 70.546 161.868 70.7793 161.55 71.246C161.233 71.7127 161.074 72.3707 161.074 73.22ZM172.238 69.314C172.368 69.314 172.513 69.3233 172.672 69.342C172.83 69.3513 172.961 69.3653 173.064 69.384L172.91 70.77C172.807 70.742 172.686 70.7187 172.546 70.7C172.406 70.6813 172.275 70.672 172.154 70.672C171.874 70.672 171.603 70.728 171.342 70.84C171.09 70.9427 170.861 71.0967 170.656 71.302C170.45 71.498 170.287 71.7407 170.166 72.03C170.054 72.3193 169.998 72.6507 169.998 73.024V77H168.514V69.454H169.69L169.886 70.798H169.942C170.1 70.5273 170.292 70.28 170.516 70.056C170.74 69.832 170.996 69.6547 171.286 69.524C171.575 69.384 171.892 69.314 172.238 69.314ZM173.313 69.454H174.909L176.477 73.738C176.561 73.9527 176.635 74.1627 176.701 74.368C176.766 74.5733 176.822 74.7787 176.869 74.984C176.925 75.18 176.967 75.376 176.995 75.572H177.051C177.097 75.3293 177.172 75.0447 177.275 74.718C177.377 74.382 177.485 74.0507 177.597 73.724L179.081 69.454H180.677L177.443 78.022C177.265 78.5073 177.046 78.9227 176.785 79.268C176.523 79.6227 176.211 79.8933 175.847 80.08C175.492 80.2667 175.072 80.36 174.587 80.36C174.353 80.36 174.153 80.346 173.985 80.318C173.817 80.2993 173.672 80.276 173.551 80.248V79.072C173.653 79.0907 173.775 79.1093 173.915 79.128C174.064 79.1467 174.218 79.156 174.377 79.156C174.666 79.156 174.913 79.1 175.119 78.988C175.333 78.876 175.511 78.7173 175.651 78.512C175.8 78.3067 175.926 78.0733 176.029 77.812L176.337 77L173.313 69.454ZM188.448 67.004C189.755 67.004 190.707 67.27 191.304 67.802C191.902 68.3247 192.2 69.0573 192.2 70C192.2 70.42 192.13 70.8213 191.99 71.204C191.86 71.5867 191.64 71.932 191.332 72.24C191.024 72.5387 190.614 72.7767 190.1 72.954C189.596 73.122 188.976 73.206 188.238 73.206H187.16V77H185.648V67.004H188.448ZM188.336 68.278H187.16V71.932H188.07C188.64 71.932 189.116 71.8713 189.498 71.75C189.881 71.6193 190.166 71.4187 190.352 71.148C190.548 70.868 190.646 70.504 190.646 70.056C190.646 69.4587 190.46 69.0153 190.086 68.726C189.722 68.4273 189.139 68.278 188.336 68.278ZM195.537 69.202C195.537 69.4353 195.527 69.6687 195.509 69.902C195.49 70.1353 195.471 70.3267 195.453 70.476H195.551C195.709 70.2147 195.905 70 196.139 69.832C196.381 69.664 196.647 69.538 196.937 69.454C197.235 69.37 197.539 69.328 197.847 69.328C198.444 69.328 198.943 69.426 199.345 69.622C199.755 69.8087 200.063 70.1073 200.269 70.518C200.483 70.9193 200.591 71.442 200.591 72.086V77H199.121V72.296C199.121 71.708 198.995 71.2693 198.743 70.98C198.5 70.6813 198.108 70.532 197.567 70.532C197.053 70.532 196.647 70.6347 196.349 70.84C196.059 71.0453 195.849 71.3487 195.719 71.75C195.597 72.142 195.537 72.6273 195.537 73.206V77H194.053V66.36H195.537V69.202ZM209.521 73.22C209.521 73.8453 209.437 74.4007 209.269 74.886C209.101 75.3713 208.863 75.782 208.555 76.118C208.247 76.454 207.874 76.7107 207.435 76.888C206.996 77.056 206.502 77.14 205.951 77.14C205.447 77.14 204.98 77.056 204.551 76.888C204.122 76.7107 203.748 76.454 203.431 76.118C203.123 75.782 202.88 75.3713 202.703 74.886C202.526 74.4007 202.437 73.8407 202.437 73.206C202.437 72.3753 202.577 71.6707 202.857 71.092C203.146 70.5133 203.557 70.0747 204.089 69.776C204.63 69.468 205.265 69.314 205.993 69.314C206.684 69.314 207.29 69.468 207.813 69.776C208.345 70.0747 208.76 70.5133 209.059 71.092C209.367 71.6707 209.521 72.38 209.521 73.22ZM203.963 73.22C203.963 73.78 204.033 74.2653 204.173 74.676C204.313 75.0773 204.532 75.3853 204.831 75.6C205.13 75.8147 205.512 75.922 205.979 75.922C206.446 75.922 206.828 75.8147 207.127 75.6C207.426 75.3853 207.645 75.0773 207.785 74.676C207.925 74.2653 207.995 73.78 207.995 73.22C207.995 72.6413 207.92 72.156 207.771 71.764C207.631 71.372 207.412 71.0733 207.113 70.868C206.824 70.6533 206.441 70.546 205.965 70.546C205.265 70.546 204.756 70.7793 204.439 71.246C204.122 71.7127 203.963 72.3707 203.963 73.22ZM214.118 75.936C214.314 75.936 214.515 75.9173 214.72 75.88C214.926 75.8427 215.103 75.8007 215.252 75.754V76.874C215.094 76.9487 214.879 77.0093 214.608 77.056C214.338 77.112 214.067 77.14 213.796 77.14C213.386 77.14 213.008 77.07 212.662 76.93C212.326 76.79 212.056 76.5473 211.85 76.202C211.645 75.8567 211.542 75.376 211.542 74.76V70.588H210.492V69.916L211.598 69.356L212.116 67.76H213.026V69.454H215.182V70.588H213.026V74.732C213.026 75.1427 213.124 75.446 213.32 75.642C213.526 75.838 213.792 75.936 214.118 75.936ZM223.412 73.22C223.412 73.8453 223.328 74.4007 223.16 74.886C222.992 75.3713 222.754 75.782 222.446 76.118C222.138 76.454 221.764 76.7107 221.326 76.888C220.887 77.056 220.392 77.14 219.842 77.14C219.338 77.14 218.871 77.056 218.442 76.888C218.012 76.7107 217.639 76.454 217.322 76.118C217.014 75.782 216.771 75.3713 216.594 74.886C216.416 74.4007 216.328 73.8407 216.328 73.206C216.328 72.3753 216.468 71.6707 216.748 71.092C217.037 70.5133 217.448 70.0747 217.98 69.776C218.521 69.468 219.156 69.314 219.884 69.314C220.574 69.314 221.181 69.468 221.704 69.776C222.236 70.0747 222.651 70.5133 222.95 71.092C223.258 71.6707 223.412 72.38 223.412 73.22ZM217.854 73.22C217.854 73.78 217.924 74.2653 218.064 74.676C218.204 75.0773 218.423 75.3853 218.722 75.6C219.02 75.8147 219.403 75.922 219.87 75.922C220.336 75.922 220.719 75.8147 221.018 75.6C221.316 75.3853 221.536 75.0773 221.676 74.676C221.816 74.2653 221.886 73.78 221.886 73.22C221.886 72.6413 221.811 72.156 221.662 71.764C221.522 71.372 221.302 71.0733 221.004 70.868C220.714 70.6533 220.332 70.546 219.856 70.546C219.156 70.546 218.647 70.7793 218.33 71.246C218.012 71.7127 217.854 72.3707 217.854 73.22Z" fill="#6C7278"/>
</svg>
