<svg width="36" height="36" viewBox="0 0 36 36" fill="none" xmlns="http://www.w3.org/2000/svg">
<rect width="36" height="36" rx="18" fill="#F7F7F7"/>
<path d="M19.4417 10.9252L20.9083 13.8585C21.1083 14.2669 21.6417 14.6585 22.0917 14.7335L24.75 15.1752C26.45 15.4585 26.85 16.6919 25.625 17.9085L23.5583 19.9752C23.2083 20.3252 23.0167 21.0002 23.125 21.4835L23.7167 24.0419C24.1833 26.0669 23.1083 26.8502 21.3167 25.7919L18.825 24.3169C18.375 24.0502 17.6333 24.0502 17.175 24.3169L14.6833 25.7919C12.9 26.8502 11.8167 26.0585 12.2833 24.0419L12.875 21.4835C12.9833 21.0002 12.7917 20.3252 12.4417 19.9752L10.375 17.9085C9.15833 16.6919 9.55 15.4585 11.25 15.1752L13.9083 14.7335C14.35 14.6585 14.8833 14.2669 15.0833 13.8585L16.55 10.9252C17.35 9.33353 18.65 9.33353 19.4417 10.9252Z" stroke="#292D32" stroke-linecap="round" stroke-linejoin="round"/>
</svg>
