<svg width="36" height="36" viewBox="0 0 36 36" fill="none" xmlns="http://www.w3.org/2000/svg">
<rect width="36" height="36" rx="18" fill="#F7F7F7"/>
<path d="M26.3333 13.2087V17.4586C26.3333 18.517 25.9833 19.4087 25.3583 20.0253C24.7417 20.6503 23.85 21.0003 22.7917 21.0003V22.5086C22.7917 23.0753 22.1583 23.417 21.6917 23.1003L20.8833 22.567C20.9583 22.3086 20.9917 22.0253 20.9917 21.7253V18.3337C20.9917 16.6337 19.8583 15.5003 18.1583 15.5003H12.5C12.3833 15.5003 12.275 15.5087 12.1667 15.517V13.2087C12.1667 11.0837 13.5833 9.66699 15.7083 9.66699H22.7917C24.9167 9.66699 26.3333 11.0837 26.3333 13.2087Z" stroke="#292D32" stroke-miterlimit="10" stroke-linecap="round" stroke-linejoin="round"/>
<path d="M20.9917 18.3334V21.725C20.9917 22.025 20.9583 22.3083 20.8833 22.5667C20.575 23.7917 19.5583 24.5583 18.1583 24.5583H15.8917L13.375 26.2333C13 26.4917 12.5 26.2167 12.5 25.7667V24.5583C11.65 24.5583 10.9417 24.275 10.45 23.7833C9.95001 23.2833 9.66667 22.575 9.66667 21.725V18.3334C9.66667 16.75 10.65 15.6583 12.1667 15.5167C12.275 15.5083 12.3833 15.5 12.5 15.5H18.1583C19.8583 15.5 20.9917 16.6334 20.9917 18.3334Z" stroke="#292D32" stroke-miterlimit="10" stroke-linecap="round" stroke-linejoin="round"/>
</svg>
