<svg width="36" height="36" viewBox="0 0 36 36" fill="none" xmlns="http://www.w3.org/2000/svg">
<rect width="36" height="36" rx="18" fill="#F7F7F7"/>
<path d="M18 23.8337C19.841 23.8337 21.3333 22.3413 21.3333 20.5003C21.3333 18.6594 19.841 17.167 18 17.167C16.1591 17.167 14.6667 18.6594 14.6667 20.5003C14.6667 22.3413 16.1591 23.8337 18 23.8337Z" stroke="#292D32" stroke-miterlimit="10" stroke-linecap="round" stroke-linejoin="round"/>
<path d="M18.2083 19.458V20.233C18.2083 20.5247 18.0583 20.7997 17.8 20.9497L17.1667 21.333" stroke="#292D32" stroke-miterlimit="10" stroke-linecap="round" stroke-linejoin="round"/>
<path d="M15.5 26.3337H20.5C23.85 26.3337 24.45 24.992 24.625 23.3587L25.25 18.3587C25.475 16.3253 24.8917 14.667 21.3333 14.667H14.6667C11.1083 14.667 10.525 16.3253 10.75 18.3587L11.375 23.3587C11.55 24.992 12.15 26.3337 15.5 26.3337Z" stroke="#292D32" stroke-miterlimit="10" stroke-linecap="round" stroke-linejoin="round"/>
<path d="M14.25 14.3919V13.5836C14.25 11.7086 15.7583 9.86692 17.6333 9.69192C19.8667 9.47525 21.75 11.2336 21.75 13.4253V14.5753" stroke="#292D32" stroke-miterlimit="10" stroke-linecap="round" stroke-linejoin="round"/>
</svg>
