<svg width="36" height="36" viewBox="0 0 36 36" fill="none" xmlns="http://www.w3.org/2000/svg">
<rect width="36" height="36" rx="18" fill="#F7F7F7"/>
<path d="M22.1667 23.3588H18.8333L15.125 25.8254C14.575 26.1921 13.8333 25.8004 13.8333 25.1338V23.3588C11.3333 23.3588 9.66667 21.6921 9.66667 19.1921V14.1921C9.66667 11.6921 11.3333 10.0254 13.8333 10.0254H22.1667C24.6667 10.0254 26.3333 11.6921 26.3333 14.1921V19.1921C26.3333 21.6921 24.6667 23.3588 22.1667 23.3588Z" stroke="#2B3141" stroke-miterlimit="10" stroke-linecap="round" stroke-linejoin="round"/>
<path d="M18 17.4668V17.2918C18 16.7252 18.35 16.4251 18.7 16.1835C19.0417 15.9501 19.3833 15.6502 19.3833 15.1002C19.3833 14.3335 18.7667 13.7168 18 13.7168C17.2333 13.7168 16.6167 14.3335 16.6167 15.1002" stroke="#2B3141" stroke-linecap="round" stroke-linejoin="round"/>
<path d="M17.9962 19.4587H18.0037" stroke="#2B3141" stroke-linecap="round" stroke-linejoin="round"/>
</svg>
