<svg width="36" height="36" viewBox="0 0 36 36" fill="none" xmlns="http://www.w3.org/2000/svg">
<rect width="36" height="36" rx="18" fill="#F7F7F7"/>
<path d="M12.1667 16.3337H13.8333C15.5 16.3337 16.3333 15.5003 16.3333 13.8337V12.167C16.3333 10.5003 15.5 9.66699 13.8333 9.66699H12.1667C10.5 9.66699 9.66667 10.5003 9.66667 12.167V13.8337C9.66667 15.5003 10.5 16.3337 12.1667 16.3337Z" stroke="#292D32" stroke-miterlimit="10" stroke-linecap="round" stroke-linejoin="round"/>
<path d="M22.1667 16.3337H23.8333C25.5 16.3337 26.3333 15.5003 26.3333 13.8337V12.167C26.3333 10.5003 25.5 9.66699 23.8333 9.66699H22.1667C20.5 9.66699 19.6667 10.5003 19.6667 12.167V13.8337C19.6667 15.5003 20.5 16.3337 22.1667 16.3337Z" stroke="#292D32" stroke-miterlimit="10" stroke-linecap="round" stroke-linejoin="round"/>
<path d="M22.1667 26.3337H23.8333C25.5 26.3337 26.3333 25.5003 26.3333 23.8337V22.167C26.3333 20.5003 25.5 19.667 23.8333 19.667H22.1667C20.5 19.667 19.6667 20.5003 19.6667 22.167V23.8337C19.6667 25.5003 20.5 26.3337 22.1667 26.3337Z" stroke="#292D32" stroke-miterlimit="10" stroke-linecap="round" stroke-linejoin="round"/>
<path d="M12.1667 26.3337H13.8333C15.5 26.3337 16.3333 25.5003 16.3333 23.8337V22.167C16.3333 20.5003 15.5 19.667 13.8333 19.667H12.1667C10.5 19.667 9.66667 20.5003 9.66667 22.167V23.8337C9.66667 25.5003 10.5 26.3337 12.1667 26.3337Z" stroke="#292D32" stroke-miterlimit="10" stroke-linecap="round" stroke-linejoin="round"/>
</svg>
