<svg width="36" height="36" viewBox="0 0 36 36" fill="none" xmlns="http://www.w3.org/2000/svg">
<rect width="36" height="36" rx="18" fill="#F7F7F7"/>
<path d="M12.1667 16.333C11.25 16.333 10.5 17.083 10.5 17.9997C10.5 18.9163 11.25 19.6663 12.1667 19.6663C13.0833 19.6663 13.8333 18.9163 13.8333 17.9997C13.8333 17.083 13.0833 16.333 12.1667 16.333Z" stroke="#292D32"/>
<path d="M23.8333 16.333C22.9167 16.333 22.1667 17.083 22.1667 17.9997C22.1667 18.9163 22.9167 19.6663 23.8333 19.6663C24.75 19.6663 25.5 18.9163 25.5 17.9997C25.5 17.083 24.75 16.333 23.8333 16.333Z" stroke="#292D32"/>
<path d="M18 16.333C17.0833 16.333 16.3333 17.083 16.3333 17.9997C16.3333 18.9163 17.0833 19.6663 18 19.6663C18.9167 19.6663 19.6667 18.9163 19.6667 17.9997C19.6667 17.083 18.9167 16.333 18 16.333Z" stroke="#292D32"/>
</svg>
