<svg width="36" height="36" viewBox="0 0 36 36" fill="none" xmlns="http://www.w3.org/2000/svg">
<rect width="36" height="36" rx="18" fill="#F7F7F7"/>
<path d="M23 23.717H22.3667C21.7 23.717 21.0667 23.9753 20.6 24.442L19.175 25.8503C18.525 26.492 17.4667 26.492 16.8167 25.8503L15.3917 24.442C14.925 23.9753 14.2833 23.717 13.625 23.717H13C11.6167 23.717 10.5 22.6087 10.5 21.242V12.142C10.5 10.7753 11.6167 9.66699 13 9.66699H23C24.3833 9.66699 25.5 10.7753 25.5 12.142V21.2337C25.5 22.6003 24.3833 23.717 23 23.717Z" stroke="#2B3141" stroke-miterlimit="10" stroke-linecap="round" stroke-linejoin="round"/>
<path d="M18.0583 15.458C18.025 15.458 17.975 15.458 17.9333 15.458C17.0583 15.4247 16.3667 14.7163 16.3667 13.833C16.3667 12.933 17.0917 12.208 17.9917 12.208C18.8917 12.208 19.6167 12.9413 19.6167 13.833C19.625 14.7163 18.9333 15.433 18.0583 15.458Z" stroke="#2B3141" stroke-linecap="round" stroke-linejoin="round"/>
<path d="M15.7083 17.9668C14.6 18.7085 14.6 19.9168 15.7083 20.6585C16.9667 21.5001 19.0333 21.5001 20.2917 20.6585C21.4 19.9168 21.4 18.7085 20.2917 17.9668C19.0333 17.1335 16.975 17.1335 15.7083 17.9668Z" stroke="#2B3141" stroke-linecap="round" stroke-linejoin="round"/>
</svg>
