<svg width="36" height="36" viewBox="0 0 36 36" fill="none" xmlns="http://www.w3.org/2000/svg">
<rect width="36" height="36" rx="18" fill="#F7F7F7"/>
<path d="M24.25 18.4163C24.25 17.2663 25.1833 16.333 26.3333 16.333V15.4997C26.3333 12.1663 25.5 11.333 22.1667 11.333H13.8333C10.5 11.333 9.66667 12.1663 9.66667 15.4997V15.9163C10.8167 15.9163 11.75 16.8497 11.75 17.9997C11.75 19.1497 10.8167 20.083 9.66667 20.083V20.4997C9.66667 23.833 10.5 24.6663 13.8333 24.6663H22.1667C25.5 24.6663 26.3333 23.833 26.3333 20.4997C25.1833 20.4997 24.25 19.5663 24.25 18.4163Z" stroke="#2B3141" stroke-linecap="round" stroke-linejoin="round"/>
<path d="M15.5 20.292L20.5 15.292" stroke="#2B3141" stroke-linecap="round" stroke-linejoin="round"/>
<path d="M20.4954 20.2917H20.5029" stroke="#2B3141" stroke-width="1.5" stroke-linecap="round" stroke-linejoin="round"/>
<path d="M15.4954 15.7087H15.5029" stroke="#2B3141" stroke-width="1.5" stroke-linecap="round" stroke-linejoin="round"/>
</svg>
