<svg width="36" height="36" viewBox="0 0 36 36" fill="none" xmlns="http://www.w3.org/2000/svg">
<rect width="36" height="36" rx="18" fill="#F7F7F7"/>
<path d="M16.7417 9.85879L12.5833 11.4255C11.625 11.7838 10.8417 12.9171 10.8417 13.9338V20.1255C10.8417 21.1088 11.4917 22.4005 12.2833 22.9921L15.8667 25.6671C17.0417 26.5505 18.975 26.5505 20.15 25.6671L23.7333 22.9921C24.525 22.4005 25.175 21.1088 25.175 20.1255V13.9338C25.175 12.9088 24.3917 11.7755 23.4333 11.4171L19.275 9.85879C18.5667 9.60046 17.4333 9.60046 16.7417 9.85879Z" stroke="#292D32" stroke-linecap="round" stroke-linejoin="round"/>
<path d="M18 18.4163C18.9205 18.4163 19.6667 17.6701 19.6667 16.7497C19.6667 15.8292 18.9205 15.083 18 15.083C17.0795 15.083 16.3333 15.8292 16.3333 16.7497C16.3333 17.6701 17.0795 18.4163 18 18.4163Z" stroke="#292D32" stroke-miterlimit="10" stroke-linecap="round" stroke-linejoin="round"/>
<path d="M18 18.417V20.917" stroke="#292D32" stroke-miterlimit="10" stroke-linecap="round" stroke-linejoin="round"/>
</svg>
