<svg width="16" height="16" viewBox="0 0 16 16" fill="none" xmlns="http://www.w3.org/2000/svg">
<path d="M5.40462 11.6112L10.3245 6.90046C10.6232 6.61444 10.7726 6.47143 10.8506 6.31624C10.9904 6.03827 10.9904 5.71447 10.8506 5.4365C10.7726 5.28131 10.6232 5.1383 10.3245 4.85229C10.0258 4.56627 9.87644 4.42326 9.71436 4.34853C9.42405 4.21466 9.08588 4.21466 8.79557 4.34853C8.63349 4.42326 8.48414 4.56627 8.18542 4.85229L3.30119 9.52894C2.56869 10.2303 2.20244 10.581 2.07456 10.9888C1.97515 11.3057 1.97515 11.6437 2.07456 11.9606C2.20244 12.3684 2.56869 12.7191 3.30119 13.4205C4.03368 14.1218 4.39993 14.4725 4.8258 14.595C5.15684 14.6901 5.50979 14.6901 5.84083 14.595C6.26669 14.4725 6.63294 14.1218 7.36544 13.4205L12.321 8.67554C13.0172 8.00888 13.3654 7.67555 13.5744 7.32879C14.1419 6.38778 14.1419 5.22842 13.5744 4.28741C13.3654 3.94065 13.0172 3.60732 12.321 2.94066C11.6247 2.27401 11.2766 1.94068 10.9145 1.74047C9.93168 1.19719 8.72085 1.19719 7.73808 1.74047C7.37593 1.94068 7.0278 2.27401 6.33155 2.94066L2.3386 6.76391" stroke="#6C7278" stroke-width="1.5" stroke-linecap="round"/>
</svg>
