<svg width="16" height="17" viewBox="0 0 16 17" fill="none" xmlns="http://www.w3.org/2000/svg">
<path d="M7.98014 15.1663C11.662 15.1663 14.6468 12.1816 14.6468 8.49967C14.6468 4.81778 11.662 1.83301 7.98014 1.83301C4.29824 1.83301 1.31348 4.81778 1.31348 8.49967C1.31348 12.1816 4.29824 15.1663 7.98014 15.1663Z" stroke="#292D32" stroke-linecap="round" stroke-linejoin="round"/>
<path d="M7.14683 10.1862V6.81288C7.14683 6.49288 7.0135 6.36621 6.6735 6.36621H5.80683C5.46683 6.36621 5.3335 6.49288 5.3335 6.81288V10.1862C5.3335 10.5062 5.46683 10.6329 5.80683 10.6329H6.66683C7.0135 10.6329 7.14683 10.5062 7.14683 10.1862Z" stroke="#292D32" stroke-linecap="round" stroke-linejoin="round"/>
<path d="M10.6665 10.1862V6.81288C10.6665 6.49288 10.5332 6.36621 10.1932 6.36621H9.3332C8.9932 6.36621 8.85986 6.49288 8.85986 6.81288V10.1862C8.85986 10.5062 8.9932 10.6329 9.3332 10.6329H10.1932C10.5332 10.6329 10.6665 10.5062 10.6665 10.1862Z" stroke="#292D32" stroke-linecap="round" stroke-linejoin="round"/>
</svg>
