<svg width="24" height="24" viewBox="0 0 24 24" fill="none" xmlns="http://www.w3.org/2000/svg">
<g clip-path="url(#clip0_131_6489)">
<path d="M22.5 15.75C20.4375 15.75 18.75 14.0625 18.75 12H4.05005V19.95C6.07505 21.975 8.88755 23.25 12 23.25C16.9125 23.25 21.075 20.1 22.6125 15.75H22.5Z" fill="#699635"/>
<path d="M22.5 8.25H22.6125C21.075 3.9 16.9125 0.75 12 0.75C8.88755 0.75 6.07505 2.025 4.05005 4.05V12H18.75C18.75 9.9375 20.4375 8.25 22.5 8.25Z" fill="#3E4347"/>
<path d="M22.6125 8.25H4.05005V15.75H22.6125C23.025 14.5875 23.25 13.3125 23.25 12C23.25 10.6875 23.025 9.4125 22.6125 8.25Z" fill="#F9F9F9"/>
<path d="M4.05 4.05005C2.025 6.07505 0.75 8.88755 0.75 12C0.75 15.1125 2.025 17.925 4.05 19.95L12 12L4.05 4.05005Z" fill="#C94747"/>
</g>
<defs>
<clipPath id="clip0_131_6489">
<rect width="24" height="24" fill="white"/>
</clipPath>
</defs>
</svg>
