<svg width="257" height="452" viewBox="0 0 257 452" fill="none" xmlns="http://www.w3.org/2000/svg">
<g clip-path="url(#clip0_131_6895)">
<rect width="257" height="452" rx="16" fill="#750F22"/>
<path d="M184.147 36.593C186.115 36.6679 187.816 37.1596 189.356 38.4477C190.867 39.7109 191.933 41.6415 192.102 43.6206C192.284 45.7464 191.72 47.8918 190.339 49.5408C188.842 51.3303 186.864 52.2143 184.574 52.3953C182.652 52.3692 180.983 51.9284 179.463 50.6964C177.811 49.3562 176.722 47.3837 176.518 45.2585C176.309 43.0913 177.004 41.0051 178.395 39.3442C179.893 37.5556 181.885 36.7862 184.147 36.593Z" fill="white" fill-opacity="0.2"/>
<path d="M230.554 5.7662C233.844 5.4658 236.524 6.64224 238.649 9.14859C240.167 10.9388 241.213 13.182 242.112 15.3366C244.174 20.2814 245.478 25.5423 246.906 30.6975L253.12 53.3027C254.37 57.8887 255.407 62.6779 257.16 67.0965C257.821 68.7648 258.653 70.8956 260.181 71.9247C261.938 70.4934 262.569 67.6936 263.245 65.6032C266.094 56.7966 267.775 47.6347 270.309 38.7293C271.405 34.8783 272.373 31.1751 274.267 27.6166C275.571 25.1662 277.371 22.8708 279.699 21.3337C281.705 20.01 284.288 19.5431 286.632 20.0443C289.254 20.6047 291.814 22.3842 293.259 24.659C293.576 25.159 293.94 25.6141 293.805 26.2121C293.657 26.3642 293.597 26.4541 293.375 26.5012C292.988 26.5836 292.492 26.5357 292.093 26.5393C290.885 26.5506 289.533 26.4492 288.345 26.6654C285.541 27.176 283.829 29.5734 282.606 31.9492C280.813 35.4292 279.929 39.4618 278.981 43.2412L275.619 56.8996C274.566 61.2703 273.595 65.6769 272.23 69.9631C271.29 72.9172 270.143 75.9876 268.397 78.5649C266.749 80.9993 264.414 83.0447 261.467 83.6051C259.913 83.899 258.434 83.7307 257.022 83.0275C254.58 81.8111 252.852 79.5296 251.573 77.1737C250.072 74.4109 249.039 71.4112 248.064 68.4297L245.049 58.3672L239.295 37.2401L235.652 24.4209C235.166 22.953 233.735 18.1925 232.338 17.578C232.111 17.4783 231.788 17.4487 231.561 17.5663C229.026 18.88 224.21 41.2982 223.2 45.2331C222.371 48.4624 221.475 51.7254 220.357 54.8665C218.615 59.7574 216.27 66.1693 211.253 68.5121C209.066 69.5336 206.547 69.6936 204.275 68.8493C201.115 67.6745 199.257 65.2155 197.878 62.2414L201.455 62.2842C202.161 62.2907 202.926 62.3527 203.624 62.2442C205.654 61.9286 207.331 60.3723 208.358 58.6588C210.021 55.8851 210.787 52.5601 211.702 49.4857C214.894 38.7704 216.76 27.6391 220.779 17.1771C221.733 14.6945 222.738 12.1454 224.295 9.97157C225.893 7.73991 227.792 6.2142 230.554 5.7662Z" fill="white" fill-opacity="0.2"/>
<circle cx="2.5" cy="400.5" r="51.5" fill="white" fill-opacity="0.2"/>
<path d="M111.839 36.152C114.804 36.152 116.959 36.7707 118.303 38.008C119.668 39.2453 120.351 40.952 120.351 43.128C120.351 44.1093 120.202 45.048 119.903 45.944C119.604 46.8187 119.103 47.608 118.399 48.312C117.695 49.016 116.767 49.5707 115.615 49.976C114.484 50.3813 113.076 50.584 111.391 50.584H109.119V59H105.023V36.152H111.839ZM111.583 39.544H109.119V47.192H110.975C112.084 47.192 113.023 47.064 113.791 46.808C114.58 46.5307 115.178 46.104 115.583 45.528C115.988 44.952 116.191 44.2053 116.191 43.288C116.191 42.0293 115.818 41.0907 115.071 40.472C114.324 39.8533 113.162 39.544 111.583 39.544ZM133.539 41.336C133.795 41.336 134.094 41.3467 134.435 41.368C134.777 41.3893 135.065 41.432 135.299 41.496L134.947 45.24C134.755 45.1973 134.499 45.1653 134.179 45.144C133.881 45.1013 133.614 45.08 133.379 45.08C132.739 45.08 132.121 45.1867 131.523 45.4C130.947 45.592 130.425 45.8907 129.955 46.296C129.507 46.68 129.145 47.1813 128.867 47.8C128.611 48.4187 128.483 49.1547 128.483 50.008V59H124.451V41.656H127.555L128.131 44.664H128.323C128.665 44.0453 129.091 43.4907 129.603 43C130.115 42.488 130.702 42.0827 131.363 41.784C132.046 41.4853 132.771 41.336 133.539 41.336ZM153.377 50.296C153.377 51.7467 153.185 53.0267 152.801 54.136C152.417 55.2453 151.862 56.1947 151.137 56.984C150.433 57.752 149.558 58.3387 148.513 58.744C147.489 59.128 146.348 59.32 145.089 59.32C143.894 59.32 142.796 59.128 141.793 58.744C140.79 58.3387 139.916 57.752 139.169 56.984C138.444 56.1947 137.878 55.2453 137.473 54.136C137.068 53.0267 136.865 51.7467 136.865 50.296C136.865 48.376 137.196 46.7547 137.857 45.432C138.518 44.088 139.468 43.0747 140.705 42.392C141.964 41.688 143.446 41.336 145.153 41.336C146.774 41.336 148.193 41.688 149.409 42.392C150.646 43.0747 151.617 44.088 152.321 45.432C153.025 46.7547 153.377 48.376 153.377 50.296ZM140.993 50.296C140.993 51.512 141.132 52.5573 141.409 53.432C141.708 54.2853 142.156 54.936 142.753 55.384C143.372 55.832 144.161 56.056 145.121 56.056C146.102 56.056 146.892 55.832 147.489 55.384C148.108 54.936 148.556 54.2853 148.833 53.432C149.11 52.5573 149.249 51.512 149.249 50.296C149.249 49.0587 149.1 48.024 148.801 47.192C148.524 46.3387 148.076 45.6987 147.457 45.272C146.86 44.824 146.081 44.6 145.121 44.6C143.67 44.6 142.614 45.0907 141.953 46.072C141.313 47.0533 140.993 48.4613 140.993 50.296Z" fill="white"/>
<path d="M66.72 112V89.152H75.264C77.0987 89.152 78.5707 89.4933 79.68 90.176C80.8107 90.8373 81.632 91.7653 82.144 92.96C82.656 94.1333 82.912 95.52 82.912 97.12V106.176H79.328V97.216C79.328 96 79.1467 95.0187 78.784 94.272C78.4427 93.5253 77.9307 92.9813 77.248 92.64C76.5867 92.2987 75.7547 92.128 74.752 92.128H70.304V112H66.72ZM73.024 94.976H76.608V109.024H80.992C82.0373 109.024 82.9013 108.853 83.584 108.512C84.288 108.149 84.8107 107.595 85.152 106.848C85.5147 106.101 85.696 105.131 85.696 103.936V89.152H89.28V104C89.28 105.579 89.0133 106.976 88.48 108.192C87.968 109.387 87.1253 110.325 85.952 111.008C84.8 111.669 83.2747 112 81.376 112H73.024V94.976ZM101.281 97.632C102.731 97.632 104.011 97.8987 105.121 98.432C106.23 98.9653 107.094 99.744 107.713 100.768C108.353 101.771 108.673 103.008 108.673 104.48C108.673 106.101 108.331 107.499 107.649 108.672C106.966 109.845 105.963 110.752 104.641 111.392C103.318 112.011 101.697 112.32 99.7768 112.32C98.5821 112.32 97.4621 112.213 96.4168 112C95.3714 111.787 94.4648 111.477 93.6968 111.072V107.488C94.4861 107.915 95.4354 108.267 96.5448 108.544C97.6541 108.821 98.6994 108.96 99.6808 108.96C100.705 108.96 101.579 108.821 102.305 108.544C103.03 108.245 103.585 107.797 103.969 107.2C104.353 106.581 104.545 105.803 104.545 104.864C104.545 103.584 104.139 102.613 103.329 101.952C102.518 101.291 101.259 100.96 99.5528 100.96C98.9554 100.96 98.3048 101.013 97.6008 101.12C96.9181 101.227 96.3528 101.333 95.9048 101.44L94.1768 100.48L95.0408 89.152H107.073V92.672H98.5928L98.1128 97.952C98.4754 97.888 98.9021 97.824 99.3928 97.76C99.9048 97.6747 100.534 97.632 101.281 97.632ZM127.241 98.912C127.241 100.213 127.145 101.515 126.953 102.816C126.761 104.096 126.431 105.312 125.961 106.464C125.492 107.595 124.841 108.608 124.009 109.504C123.177 110.379 122.111 111.072 120.809 111.584C119.529 112.075 117.972 112.32 116.137 112.32C115.711 112.32 115.199 112.299 114.601 112.256C114.025 112.213 113.545 112.149 113.161 112.064V108.736C113.567 108.843 114.004 108.928 114.473 108.992C114.964 109.056 115.444 109.088 115.913 109.088C117.364 109.088 118.559 108.896 119.497 108.512C120.457 108.107 121.204 107.552 121.737 106.848C122.292 106.123 122.697 105.28 122.953 104.32C123.209 103.339 123.359 102.293 123.401 101.184H123.209C122.889 101.675 122.505 102.123 122.057 102.528C121.631 102.933 121.087 103.253 120.425 103.488C119.785 103.723 118.975 103.84 117.993 103.84C116.692 103.84 115.551 103.563 114.569 103.008C113.609 102.453 112.863 101.653 112.329 100.608C111.796 99.5413 111.529 98.2507 111.529 96.736C111.529 95.0933 111.839 93.6853 112.457 92.512C113.076 91.3387 113.951 90.4427 115.081 89.824C116.233 89.184 117.577 88.864 119.113 88.864C120.265 88.864 121.332 89.0773 122.313 89.504C123.295 89.9093 124.148 90.528 124.873 91.36C125.62 92.1707 126.196 93.2053 126.601 94.464C127.028 95.7227 127.241 97.2053 127.241 98.912ZM119.177 92.192C118.089 92.192 117.204 92.5547 116.521 93.28C115.839 94.0053 115.497 95.136 115.497 96.672C115.497 97.9307 115.785 98.9227 116.361 99.648C116.959 100.352 117.865 100.704 119.081 100.704C119.913 100.704 120.628 100.523 121.225 100.16C121.844 99.7973 122.324 99.3493 122.665 98.816C123.007 98.2827 123.177 97.7173 123.177 97.12C123.177 96.544 123.092 95.968 122.921 95.392C122.751 94.7947 122.495 94.2507 122.153 93.76C121.833 93.2693 121.417 92.8853 120.905 92.608C120.415 92.3307 119.839 92.192 119.177 92.192ZM145.554 100.544C145.554 102.4 145.415 104.053 145.138 105.504C144.86 106.955 144.402 108.192 143.762 109.216C143.143 110.219 142.332 110.987 141.33 111.52C140.348 112.053 139.143 112.32 137.714 112.32C135.922 112.32 134.45 111.851 133.298 110.912C132.146 109.973 131.292 108.629 130.738 106.88C130.183 105.109 129.906 102.997 129.906 100.544C129.906 98.0907 130.162 95.9893 130.674 94.24C131.186 92.4907 132.007 91.1467 133.138 90.208C134.29 89.2693 135.815 88.8 137.714 88.8C139.506 88.8 140.978 89.2693 142.13 90.208C143.282 91.1253 144.135 92.4693 144.69 94.24C145.266 95.9893 145.554 98.0907 145.554 100.544ZM133.97 100.576C133.97 102.432 134.087 103.989 134.322 105.248C134.556 106.485 134.94 107.424 135.474 108.064C136.028 108.683 136.775 108.992 137.714 108.992C138.652 108.992 139.388 108.683 139.922 108.064C140.476 107.445 140.871 106.507 141.106 105.248C141.362 103.989 141.49 102.432 141.49 100.576C141.49 98.6987 141.362 97.1413 141.106 95.904C140.871 94.6453 140.476 93.7067 139.922 93.088C139.388 92.448 138.652 92.128 137.714 92.128C136.775 92.128 136.028 92.448 135.474 93.088C134.94 93.7067 134.556 94.6347 134.322 95.872C134.087 97.1093 133.97 98.6773 133.97 100.576ZM148.922 109.952C148.922 109.056 149.157 108.427 149.626 108.064C150.096 107.68 150.672 107.488 151.354 107.488C152.037 107.488 152.613 107.669 153.082 108.032C153.573 108.395 153.818 109.035 153.818 109.952C153.818 110.827 153.573 111.456 153.082 111.84C152.613 112.224 152.037 112.416 151.354 112.416C150.672 112.416 150.096 112.224 149.626 111.84C149.157 111.456 148.922 110.827 148.922 109.952ZM172.804 100.544C172.804 102.4 172.665 104.053 172.388 105.504C172.11 106.955 171.652 108.192 171.012 109.216C170.393 110.219 169.582 110.987 168.58 111.52C167.598 112.053 166.393 112.32 164.964 112.32C163.172 112.32 161.7 111.851 160.548 110.912C159.396 109.973 158.542 108.629 157.988 106.88C157.433 105.109 157.156 102.997 157.156 100.544C157.156 98.0907 157.412 95.9893 157.924 94.24C158.436 92.4907 159.257 91.1467 160.388 90.208C161.54 89.2693 163.065 88.8 164.964 88.8C166.756 88.8 168.228 89.2693 169.38 90.208C170.532 91.1253 171.385 92.4693 171.94 94.24C172.516 95.9893 172.804 98.0907 172.804 100.544ZM161.22 100.576C161.22 102.432 161.337 103.989 161.572 105.248C161.806 106.485 162.19 107.424 162.724 108.064C163.278 108.683 164.025 108.992 164.964 108.992C165.902 108.992 166.638 108.683 167.172 108.064C167.726 107.445 168.121 106.507 168.356 105.248C168.612 103.989 168.74 102.432 168.74 100.576C168.74 98.6987 168.612 97.1413 168.356 95.904C168.121 94.6453 167.726 93.7067 167.172 93.088C166.638 92.448 165.902 92.128 164.964 92.128C164.025 92.128 163.278 92.448 162.724 93.088C162.19 93.7067 161.806 94.6347 161.572 95.872C161.337 97.1093 161.22 98.6773 161.22 100.576ZM191.116 100.544C191.116 102.4 190.978 104.053 190.7 105.504C190.423 106.955 189.964 108.192 189.324 109.216C188.706 110.219 187.895 110.987 186.892 111.52C185.911 112.053 184.706 112.32 183.276 112.32C181.484 112.32 180.012 111.851 178.86 110.912C177.708 109.973 176.855 108.629 176.3 106.88C175.746 105.109 175.468 102.997 175.468 100.544C175.468 98.0907 175.724 95.9893 176.236 94.24C176.748 92.4907 177.57 91.1467 178.7 90.208C179.852 89.2693 181.378 88.8 183.276 88.8C185.068 88.8 186.54 89.2693 187.692 90.208C188.844 91.1253 189.698 92.4693 190.252 94.24C190.828 95.9893 191.116 98.0907 191.116 100.544ZM179.532 100.576C179.532 102.432 179.65 103.989 179.884 105.248C180.119 106.485 180.503 107.424 181.036 108.064C181.591 108.683 182.338 108.992 183.276 108.992C184.215 108.992 184.951 108.683 185.484 108.064C186.039 107.445 186.434 106.507 186.668 105.248C186.924 103.989 187.052 102.432 187.052 100.576C187.052 98.6987 186.924 97.1413 186.668 95.904C186.434 94.6453 186.039 93.7067 185.484 93.088C184.951 92.448 184.215 92.128 183.276 92.128C182.338 92.128 181.591 92.448 181.036 93.088C180.503 93.7067 180.119 94.6347 179.884 95.872C179.65 97.1093 179.532 98.6773 179.532 100.576Z" fill="white"/>
<path d="M106.418 137.342C106.418 137.79 106.334 138.177 106.166 138.504C105.998 138.831 105.755 139.097 105.438 139.302C105.13 139.507 104.766 139.652 104.346 139.736V139.792C105.148 139.885 105.746 140.137 106.138 140.548C106.53 140.959 106.726 141.495 106.726 142.158C106.726 142.737 106.59 143.255 106.32 143.712C106.049 144.16 105.629 144.51 105.06 144.762C104.5 145.014 103.776 145.14 102.89 145.14C102.367 145.14 101.882 145.098 101.434 145.014C100.986 144.939 100.556 144.799 100.146 144.594V143.446C100.566 143.651 101.018 143.815 101.504 143.936C101.989 144.048 102.456 144.104 102.904 144.104C103.8 144.104 104.444 143.931 104.836 143.586C105.237 143.231 105.438 142.746 105.438 142.13C105.438 141.71 105.326 141.374 105.102 141.122C104.887 140.861 104.57 140.669 104.15 140.548C103.73 140.427 103.226 140.366 102.638 140.366H101.672V139.316H102.652C103.202 139.316 103.66 139.237 104.024 139.078C104.397 138.919 104.677 138.7 104.864 138.42C105.06 138.131 105.158 137.799 105.158 137.426C105.158 136.941 104.994 136.567 104.668 136.306C104.341 136.035 103.898 135.9 103.338 135.9C102.983 135.9 102.661 135.937 102.372 136.012C102.082 136.077 101.812 136.175 101.56 136.306C101.317 136.427 101.07 136.572 100.818 136.74L100.202 135.9C100.444 135.713 100.72 135.541 101.028 135.382C101.345 135.223 101.695 135.097 102.078 135.004C102.46 134.911 102.876 134.864 103.324 134.864C104.369 134.864 105.144 135.097 105.648 135.564C106.161 136.031 106.418 136.623 106.418 137.342ZM108.297 140.73C108.297 140.151 108.335 139.582 108.409 139.022C108.493 138.462 108.633 137.935 108.829 137.44C109.025 136.936 109.296 136.493 109.641 136.11C109.987 135.718 110.421 135.415 110.943 135.2C111.475 134.976 112.119 134.864 112.875 134.864C113.071 134.864 113.286 134.873 113.519 134.892C113.762 134.911 113.958 134.943 114.107 134.99V136.04C113.939 135.984 113.748 135.942 113.533 135.914C113.328 135.886 113.118 135.872 112.903 135.872C112.259 135.872 111.723 135.979 111.293 136.194C110.864 136.409 110.523 136.703 110.271 137.076C110.029 137.449 109.851 137.879 109.739 138.364C109.627 138.849 109.557 139.367 109.529 139.918H109.613C109.753 139.694 109.931 139.493 110.145 139.316C110.36 139.139 110.617 138.999 110.915 138.896C111.223 138.793 111.578 138.742 111.979 138.742C112.558 138.742 113.062 138.863 113.491 139.106C113.93 139.339 114.271 139.685 114.513 140.142C114.756 140.59 114.877 141.136 114.877 141.78C114.877 142.471 114.747 143.068 114.485 143.572C114.224 144.076 113.855 144.463 113.379 144.734C112.913 145.005 112.353 145.14 111.699 145.14C111.223 145.14 110.78 145.051 110.369 144.874C109.959 144.697 109.595 144.426 109.277 144.062C108.969 143.698 108.727 143.241 108.549 142.69C108.381 142.13 108.297 141.477 108.297 140.73ZM111.685 144.104C112.273 144.104 112.749 143.917 113.113 143.544C113.477 143.161 113.659 142.573 113.659 141.78C113.659 141.145 113.496 140.641 113.169 140.268C112.852 139.895 112.371 139.708 111.727 139.708C111.289 139.708 110.906 139.801 110.579 139.988C110.253 140.165 109.996 140.394 109.809 140.674C109.632 140.954 109.543 141.243 109.543 141.542C109.543 141.85 109.585 142.153 109.669 142.452C109.763 142.751 109.898 143.026 110.075 143.278C110.262 143.53 110.486 143.731 110.747 143.88C111.018 144.029 111.331 144.104 111.685 144.104ZM119.389 138.868C120.07 138.868 120.663 138.985 121.167 139.218C121.671 139.451 122.058 139.787 122.329 140.226C122.609 140.655 122.749 141.183 122.749 141.808C122.749 142.499 122.6 143.096 122.301 143.6C122.002 144.095 121.573 144.477 121.013 144.748C120.462 145.009 119.795 145.14 119.011 145.14C118.498 145.14 118.012 145.093 117.555 145C117.107 144.907 116.729 144.771 116.421 144.594V143.432C116.757 143.637 117.163 143.801 117.639 143.922C118.124 144.034 118.586 144.09 119.025 144.09C119.52 144.09 119.949 144.015 120.313 143.866C120.686 143.707 120.976 143.469 121.181 143.152C121.386 142.825 121.489 142.419 121.489 141.934C121.489 141.281 121.288 140.781 120.887 140.436C120.486 140.081 119.851 139.904 118.983 139.904C118.722 139.904 118.423 139.927 118.087 139.974C117.751 140.021 117.48 140.067 117.275 140.114L116.659 139.722L117.037 135.004H122.049V136.124H118.087L117.849 139.022C118.008 138.994 118.222 138.961 118.493 138.924C118.764 138.887 119.062 138.868 119.389 138.868ZM131.038 145.14C130.104 145.14 129.358 144.818 128.798 144.174C128.238 143.521 127.958 142.55 127.958 141.262C127.958 139.974 128.238 139.003 128.798 138.35C129.367 137.687 130.118 137.356 131.052 137.356C131.444 137.356 131.784 137.407 132.074 137.51C132.363 137.603 132.615 137.734 132.83 137.902C133.044 138.07 133.226 138.257 133.376 138.462H133.46C133.45 138.341 133.432 138.163 133.404 137.93C133.385 137.687 133.376 137.496 133.376 137.356V134.36H134.608V145H133.614L133.432 143.992H133.376C133.226 144.207 133.044 144.403 132.83 144.58C132.615 144.748 132.358 144.883 132.06 144.986C131.77 145.089 131.43 145.14 131.038 145.14ZM131.234 144.118C132.027 144.118 132.582 143.903 132.9 143.474C133.226 143.035 133.39 142.377 133.39 141.5V141.276C133.39 140.343 133.236 139.629 132.928 139.134C132.62 138.63 132.05 138.378 131.22 138.378C130.557 138.378 130.058 138.644 129.722 139.176C129.395 139.699 129.232 140.403 129.232 141.29C129.232 142.186 129.395 142.881 129.722 143.376C130.058 143.871 130.562 144.118 131.234 144.118ZM139.833 137.37C140.747 137.37 141.424 137.571 141.863 137.972C142.301 138.373 142.521 139.013 142.521 139.89V145H141.625L141.387 143.936H141.331C141.116 144.207 140.892 144.435 140.659 144.622C140.435 144.799 140.173 144.93 139.875 145.014C139.585 145.098 139.231 145.14 138.811 145.14C138.363 145.14 137.957 145.061 137.593 144.902C137.238 144.743 136.958 144.501 136.753 144.174C136.547 143.838 136.445 143.418 136.445 142.914C136.445 142.167 136.739 141.593 137.327 141.192C137.915 140.781 138.82 140.557 140.043 140.52L141.317 140.478V140.03C141.317 139.405 141.181 138.971 140.911 138.728C140.64 138.485 140.257 138.364 139.763 138.364C139.371 138.364 138.997 138.425 138.643 138.546C138.288 138.658 137.957 138.789 137.649 138.938L137.271 138.014C137.597 137.837 137.985 137.687 138.433 137.566C138.881 137.435 139.347 137.37 139.833 137.37ZM140.197 141.374C139.263 141.411 138.615 141.561 138.251 141.822C137.896 142.083 137.719 142.452 137.719 142.928C137.719 143.348 137.845 143.656 138.097 143.852C138.358 144.048 138.689 144.146 139.091 144.146C139.725 144.146 140.253 143.973 140.673 143.628C141.093 143.273 141.303 142.732 141.303 142.004V141.332L140.197 141.374ZM143.662 137.496H144.978L146.602 141.766C146.696 142.018 146.78 142.261 146.854 142.494C146.938 142.727 147.013 142.956 147.078 143.18C147.144 143.395 147.195 143.605 147.232 143.81H147.288C147.344 143.577 147.433 143.273 147.554 142.9C147.676 142.517 147.802 142.135 147.932 141.752L149.458 137.496H150.788L147.554 146.036C147.377 146.503 147.167 146.909 146.924 147.254C146.691 147.609 146.402 147.879 146.056 148.066C145.72 148.262 145.31 148.36 144.824 148.36C144.6 148.36 144.404 148.346 144.236 148.318C144.068 148.299 143.924 148.276 143.802 148.248V147.268C143.905 147.287 144.026 147.305 144.166 147.324C144.316 147.343 144.47 147.352 144.628 147.352C144.918 147.352 145.165 147.296 145.37 147.184C145.585 147.081 145.767 146.927 145.916 146.722C146.066 146.526 146.192 146.293 146.294 146.022L146.686 145.028L143.662 137.496ZM156.861 142.928C156.861 143.413 156.74 143.819 156.497 144.146C156.254 144.473 155.909 144.72 155.461 144.888C155.013 145.056 154.481 145.14 153.865 145.14C153.342 145.14 152.89 145.098 152.507 145.014C152.134 144.93 151.802 144.813 151.513 144.664V143.544C151.812 143.693 152.171 143.833 152.591 143.964C153.02 144.085 153.454 144.146 153.893 144.146C154.518 144.146 154.971 144.048 155.251 143.852C155.531 143.647 155.671 143.376 155.671 143.04C155.671 142.853 155.62 142.685 155.517 142.536C155.414 142.387 155.228 142.237 154.957 142.088C154.696 141.939 154.318 141.771 153.823 141.584C153.338 141.397 152.922 141.211 152.577 141.024C152.232 140.837 151.966 140.613 151.779 140.352C151.592 140.091 151.499 139.755 151.499 139.344C151.499 138.709 151.756 138.219 152.269 137.874C152.792 137.529 153.473 137.356 154.313 137.356C154.77 137.356 155.195 137.403 155.587 137.496C155.988 137.58 156.362 137.701 156.707 137.86L156.287 138.84C156.082 138.747 155.862 138.667 155.629 138.602C155.405 138.527 155.176 138.471 154.943 138.434C154.71 138.387 154.472 138.364 154.229 138.364C153.725 138.364 153.338 138.448 153.067 138.616C152.806 138.775 152.675 138.994 152.675 139.274C152.675 139.479 152.736 139.657 152.857 139.806C152.978 139.946 153.179 140.086 153.459 140.226C153.748 140.357 154.131 140.515 154.607 140.702C155.083 140.879 155.489 141.061 155.825 141.248C156.161 141.435 156.418 141.663 156.595 141.934C156.772 142.195 156.861 142.527 156.861 142.928Z" fill="white"/>
<circle cx="40" cy="176" r="10" fill="white"/>
<path d="M36.25 176.625L39.25 178.5L43.75 173.5" stroke="#750F22" stroke-width="1.25" stroke-linecap="round" stroke-linejoin="round"/>
<path d="M63.684 181L60.66 172.502H60.604C60.6133 172.689 60.6273 172.941 60.646 173.258C60.6647 173.575 60.6787 173.916 60.688 174.28C60.6973 174.644 60.702 175.003 60.702 175.358V181H59.33V171.004H61.486L64.356 179.026H64.412L67.366 171.004H69.522V181H68.052V175.274C68.052 174.947 68.0567 174.611 68.066 174.266C68.0847 173.911 68.0987 173.58 68.108 173.272C68.1267 172.964 68.1407 172.712 68.15 172.516H68.094L64.986 181H63.684ZM74.9396 173.314C75.8916 173.314 76.6009 173.524 77.0676 173.944C77.5342 174.355 77.7676 175.003 77.7676 175.89V181H76.7176L76.4236 179.95H76.3676C76.1529 180.221 75.9289 180.445 75.6956 180.622C75.4716 180.799 75.2102 180.93 74.9116 181.014C74.6222 181.098 74.2676 181.14 73.8476 181.14C73.3996 181.14 72.9936 181.061 72.6296 180.902C72.2749 180.734 71.9949 180.482 71.7896 180.146C71.5842 179.801 71.4816 179.371 71.4816 178.858C71.4816 178.093 71.7709 177.509 72.3496 177.108C72.9376 176.707 73.8289 176.487 75.0236 176.45L76.3116 176.408V175.988C76.3116 175.428 76.1856 175.036 75.9336 174.812C75.6816 174.588 75.3269 174.476 74.8696 174.476C74.4776 174.476 74.1042 174.532 73.7496 174.644C73.3949 174.756 73.0589 174.891 72.7416 175.05L72.2656 173.972C72.6202 173.785 73.0262 173.631 73.4836 173.51C73.9502 173.379 74.4356 173.314 74.9396 173.314ZM75.2896 177.402C74.4309 177.439 73.8336 177.584 73.4976 177.836C73.1709 178.079 73.0076 178.424 73.0076 178.872C73.0076 179.264 73.1242 179.549 73.3576 179.726C73.6002 179.903 73.9036 179.992 74.2676 179.992C74.8556 179.992 75.3409 179.829 75.7236 179.502C76.1062 179.175 76.2976 178.685 76.2976 178.032V177.374L75.2896 177.402ZM81.7746 177.15L79.2126 173.454H80.9066L82.6986 176.17L84.4906 173.454H86.1706L83.6086 177.15L86.2966 181H84.6166L82.6986 178.116L80.7666 181H79.0866L81.7746 177.15ZM100.279 175.988C100.279 176.763 100.181 177.467 99.9849 178.102C99.7982 178.727 99.5089 179.269 99.1169 179.726C98.7342 180.183 98.2489 180.533 97.6609 180.776C97.0822 181.019 96.4056 181.14 95.6309 181.14C94.8376 181.14 94.1469 181.019 93.5589 180.776C92.9802 180.524 92.4949 180.174 92.1029 179.726C91.7202 179.269 91.4356 178.723 91.2489 178.088C91.0622 177.453 90.9689 176.749 90.9689 175.974C90.9689 174.947 91.1369 174.051 91.4729 173.286C91.8089 172.521 92.3222 171.923 93.0129 171.494C93.7129 171.065 94.5902 170.85 95.6449 170.85C96.6716 170.85 97.5256 171.065 98.2069 171.494C98.8976 171.914 99.4156 172.511 99.7609 173.286C100.106 174.051 100.279 174.952 100.279 175.988ZM92.5649 175.988C92.5649 176.791 92.6722 177.481 92.8869 178.06C93.1016 178.629 93.4376 179.073 93.8949 179.39C94.3522 179.698 94.9309 179.852 95.6309 179.852C96.3402 179.852 96.9189 179.698 97.3669 179.39C97.8149 179.073 98.1462 178.629 98.3609 178.06C98.5756 177.481 98.6829 176.791 98.6829 175.988C98.6829 174.784 98.4402 173.846 97.9549 173.174C97.4789 172.493 96.7089 172.152 95.6449 172.152C94.9356 172.152 94.3522 172.306 93.8949 172.614C93.4376 172.922 93.1016 173.361 92.8869 173.93C92.6722 174.499 92.5649 175.185 92.5649 175.988ZM106.007 173.314C106.138 173.314 106.282 173.323 106.441 173.342C106.6 173.351 106.73 173.365 106.833 173.384L106.679 174.77C106.576 174.742 106.455 174.719 106.315 174.7C106.175 174.681 106.044 174.672 105.923 174.672C105.643 174.672 105.372 174.728 105.111 174.84C104.859 174.943 104.63 175.097 104.425 175.302C104.22 175.498 104.056 175.741 103.935 176.03C103.823 176.319 103.767 176.651 103.767 177.024V181H102.283V173.454H103.459L103.655 174.798H103.711C103.87 174.527 104.061 174.28 104.285 174.056C104.509 173.832 104.766 173.655 105.055 173.524C105.344 173.384 105.662 173.314 106.007 173.314ZM110.547 181.14C109.642 181.14 108.909 180.813 108.349 180.16C107.798 179.507 107.523 178.536 107.523 177.248C107.523 175.951 107.803 174.971 108.363 174.308C108.923 173.645 109.66 173.314 110.575 173.314C110.958 173.314 111.289 173.365 111.569 173.468C111.858 173.561 112.106 173.692 112.311 173.86C112.526 174.028 112.708 174.215 112.857 174.42H112.941C112.922 174.289 112.899 174.103 112.871 173.86C112.843 173.608 112.829 173.384 112.829 173.188V170.36H114.313V181H113.151L112.899 179.992H112.829C112.689 180.207 112.512 180.403 112.297 180.58C112.092 180.748 111.844 180.883 111.555 180.986C111.266 181.089 110.93 181.14 110.547 181.14ZM110.897 179.922C111.625 179.922 112.138 179.721 112.437 179.32C112.736 178.909 112.885 178.298 112.885 177.486V177.262C112.885 176.375 112.74 175.699 112.451 175.232C112.171 174.765 111.648 174.532 110.883 174.532C110.276 174.532 109.819 174.779 109.511 175.274C109.203 175.759 109.049 176.427 109.049 177.276C109.049 178.125 109.203 178.779 109.511 179.236C109.819 179.693 110.281 179.922 110.897 179.922ZM119.607 173.314C120.269 173.314 120.839 173.454 121.315 173.734C121.791 174.005 122.155 174.397 122.407 174.91C122.668 175.423 122.799 176.03 122.799 176.73V177.542H117.731C117.749 178.317 117.95 178.909 118.333 179.32C118.725 179.731 119.271 179.936 119.971 179.936C120.456 179.936 120.885 179.894 121.259 179.81C121.641 179.717 122.033 179.581 122.435 179.404V180.636C122.061 180.804 121.679 180.93 121.287 181.014C120.904 181.098 120.447 181.14 119.915 181.14C119.187 181.14 118.543 180.995 117.983 180.706C117.423 180.417 116.984 179.987 116.667 179.418C116.359 178.839 116.205 178.13 116.205 177.29C116.205 176.441 116.345 175.722 116.625 175.134C116.914 174.546 117.311 174.098 117.815 173.79C118.328 173.473 118.925 173.314 119.607 173.314ZM119.607 174.462C119.075 174.462 118.645 174.635 118.319 174.98C118.001 175.325 117.815 175.815 117.759 176.45H121.315C121.315 176.058 121.254 175.713 121.133 175.414C121.011 175.115 120.825 174.882 120.573 174.714C120.321 174.546 119.999 174.462 119.607 174.462ZM128.374 173.314C128.505 173.314 128.65 173.323 128.808 173.342C128.967 173.351 129.098 173.365 129.2 173.384L129.046 174.77C128.944 174.742 128.822 174.719 128.682 174.7C128.542 174.681 128.412 174.672 128.29 174.672C128.01 174.672 127.74 174.728 127.478 174.84C127.226 174.943 126.998 175.097 126.792 175.302C126.587 175.498 126.424 175.741 126.302 176.03C126.19 176.319 126.134 176.651 126.134 177.024V181H124.65V173.454H125.826L126.022 174.798H126.078C126.237 174.527 126.428 174.28 126.652 174.056C126.876 173.832 127.133 173.655 127.422 173.524C127.712 173.384 128.029 173.314 128.374 173.314ZM135.61 178.872C135.61 179.367 135.488 179.782 135.246 180.118C135.003 180.454 134.653 180.711 134.196 180.888C133.738 181.056 133.188 181.14 132.544 181.14C132.012 181.14 131.554 181.098 131.172 181.014C130.798 180.939 130.453 180.827 130.136 180.678V179.376C130.472 179.535 130.859 179.679 131.298 179.81C131.736 179.931 132.166 179.992 132.586 179.992C133.146 179.992 133.547 179.903 133.79 179.726C134.042 179.549 134.168 179.311 134.168 179.012C134.168 178.844 134.121 178.695 134.028 178.564C133.934 178.424 133.757 178.284 133.496 178.144C133.244 177.995 132.87 177.827 132.376 177.64C131.9 177.444 131.494 177.253 131.158 177.066C130.822 176.87 130.565 176.641 130.388 176.38C130.21 176.109 130.122 175.764 130.122 175.344C130.122 174.691 130.383 174.191 130.906 173.846C131.438 173.491 132.138 173.314 133.006 173.314C133.463 173.314 133.892 173.361 134.294 173.454C134.704 173.538 135.101 173.669 135.484 173.846L134.994 174.98C134.779 174.877 134.555 174.793 134.322 174.728C134.098 174.653 133.869 174.593 133.636 174.546C133.412 174.499 133.178 174.476 132.936 174.476C132.488 174.476 132.147 174.546 131.914 174.686C131.68 174.826 131.564 175.022 131.564 175.274C131.564 175.451 131.615 175.605 131.718 175.736C131.83 175.867 132.021 175.997 132.292 176.128C132.562 176.259 132.931 176.417 133.398 176.604C133.864 176.781 134.261 176.963 134.588 177.15C134.924 177.337 135.176 177.565 135.344 177.836C135.521 178.107 135.61 178.452 135.61 178.872ZM140.414 177.164C140.414 176.399 140.484 175.652 140.624 174.924C140.773 174.196 141.002 173.501 141.31 172.838C141.618 172.175 142.005 171.564 142.472 171.004H143.802C143.372 171.583 143.008 172.208 142.71 172.88C142.42 173.552 142.201 174.247 142.052 174.966C141.902 175.685 141.828 176.413 141.828 177.15C141.828 177.869 141.902 178.583 142.052 179.292C142.201 180.001 142.42 180.683 142.71 181.336C142.999 181.999 143.358 182.624 143.788 183.212H142.472C142.005 182.661 141.618 182.059 141.31 181.406C141.002 180.762 140.773 180.081 140.624 179.362C140.484 178.643 140.414 177.911 140.414 177.164ZM156.938 177.472C156.938 178.163 156.793 178.788 156.504 179.348C156.224 179.899 155.79 180.337 155.202 180.664C154.614 180.981 153.872 181.14 152.976 181.14C151.706 181.14 150.74 180.804 150.078 180.132C149.424 179.451 149.098 178.555 149.098 177.444V171.004H150.61V177.374C150.61 178.195 150.81 178.816 151.212 179.236C151.613 179.647 152.224 179.852 153.046 179.852C153.606 179.852 154.063 179.749 154.418 179.544C154.772 179.339 155.029 179.054 155.188 178.69C155.356 178.317 155.44 177.873 155.44 177.36V171.004H156.938V177.472ZM163.172 173.314C164.049 173.314 164.721 173.533 165.188 173.972C165.654 174.411 165.888 175.115 165.888 176.086V181H164.418V176.296C164.418 175.708 164.292 175.269 164.04 174.98C163.797 174.681 163.405 174.532 162.864 174.532C162.098 174.532 161.566 174.761 161.268 175.218C160.978 175.675 160.834 176.333 160.834 177.192V181H159.35V173.454H160.526L160.736 174.462H160.82C160.988 174.201 161.193 173.986 161.436 173.818C161.678 173.65 161.949 173.524 162.248 173.44C162.546 173.356 162.854 173.314 163.172 173.314ZM169.652 181H168.168V170.36H169.652V181ZM173.466 173.454V181H171.982V173.454H173.466ZM172.738 170.584C172.962 170.584 173.158 170.649 173.326 170.78C173.494 170.911 173.578 171.13 173.578 171.438C173.578 171.737 173.494 171.956 173.326 172.096C173.158 172.227 172.962 172.292 172.738 172.292C172.496 172.292 172.29 172.227 172.122 172.096C171.964 171.956 171.884 171.737 171.884 171.438C171.884 171.13 171.964 170.911 172.122 170.78C172.29 170.649 172.496 170.584 172.738 170.584ZM184.253 173.314C185.102 173.314 185.741 173.533 186.171 173.972C186.6 174.411 186.815 175.115 186.815 176.086V181H185.331V176.282C185.331 175.703 185.214 175.269 184.981 174.98C184.757 174.681 184.402 174.532 183.917 174.532C183.245 174.532 182.764 174.742 182.475 175.162C182.185 175.573 182.041 176.17 182.041 176.954V181H180.571V176.282C180.571 175.899 180.515 175.577 180.403 175.316C180.3 175.055 180.146 174.859 179.941 174.728C179.735 174.597 179.469 174.532 179.143 174.532C178.676 174.532 178.307 174.635 178.037 174.84C177.766 175.045 177.57 175.349 177.449 175.75C177.337 176.142 177.281 176.623 177.281 177.192V181H175.797V173.454H176.973L177.183 174.462H177.267C177.425 174.201 177.617 173.986 177.841 173.818C178.074 173.65 178.331 173.524 178.611 173.44C178.891 173.356 179.18 173.314 179.479 173.314C180.048 173.314 180.529 173.417 180.921 173.622C181.313 173.818 181.597 174.121 181.775 174.532H181.887C182.129 174.112 182.465 173.804 182.895 173.608C183.324 173.412 183.777 173.314 184.253 173.314ZM190.57 173.454V181H189.086V173.454H190.57ZM189.842 170.584C190.066 170.584 190.262 170.649 190.43 170.78C190.598 170.911 190.682 171.13 190.682 171.438C190.682 171.737 190.598 171.956 190.43 172.096C190.262 172.227 190.066 172.292 189.842 172.292C189.599 172.292 189.394 172.227 189.226 172.096C189.067 171.956 188.988 171.737 188.988 171.438C188.988 171.13 189.067 170.911 189.226 170.78C189.394 170.649 189.599 170.584 189.842 170.584ZM195.616 179.936C195.812 179.936 196.013 179.917 196.218 179.88C196.424 179.843 196.601 179.801 196.75 179.754V180.874C196.592 180.949 196.377 181.009 196.106 181.056C195.836 181.112 195.565 181.14 195.294 181.14C194.884 181.14 194.506 181.07 194.16 180.93C193.824 180.79 193.554 180.547 193.348 180.202C193.143 179.857 193.04 179.376 193.04 178.76V174.588H191.99V173.916L193.096 173.356L193.614 171.76H194.524V173.454H196.68V174.588H194.524V178.732C194.524 179.143 194.622 179.446 194.818 179.642C195.024 179.838 195.29 179.936 195.616 179.936ZM201.228 173.314C201.89 173.314 202.46 173.454 202.936 173.734C203.412 174.005 203.776 174.397 204.028 174.91C204.289 175.423 204.42 176.03 204.42 176.73V177.542H199.352C199.37 178.317 199.571 178.909 199.954 179.32C200.346 179.731 200.892 179.936 201.592 179.936C202.077 179.936 202.506 179.894 202.88 179.81C203.262 179.717 203.654 179.581 204.056 179.404V180.636C203.682 180.804 203.3 180.93 202.908 181.014C202.525 181.098 202.068 181.14 201.536 181.14C200.808 181.14 200.164 180.995 199.604 180.706C199.044 180.417 198.605 179.987 198.288 179.418C197.98 178.839 197.826 178.13 197.826 177.29C197.826 176.441 197.966 175.722 198.246 175.134C198.535 174.546 198.932 174.098 199.436 173.79C199.949 173.473 200.546 173.314 201.228 173.314ZM201.228 174.462C200.696 174.462 200.266 174.635 199.94 174.98C199.622 175.325 199.436 175.815 199.38 176.45H202.936C202.936 176.058 202.875 175.713 202.754 175.414C202.632 175.115 202.446 174.882 202.194 174.714C201.942 174.546 201.62 174.462 201.228 174.462ZM208.861 181.14C207.956 181.14 207.223 180.813 206.663 180.16C206.113 179.507 205.837 178.536 205.837 177.248C205.837 175.951 206.117 174.971 206.677 174.308C207.237 173.645 207.975 173.314 208.889 173.314C209.272 173.314 209.603 173.365 209.883 173.468C210.173 173.561 210.42 173.692 210.625 173.86C210.84 174.028 211.022 174.215 211.171 174.42H211.255C211.237 174.289 211.213 174.103 211.185 173.86C211.157 173.608 211.143 173.384 211.143 173.188V170.36H212.627V181H211.465L211.213 179.992H211.143C211.003 180.207 210.826 180.403 210.611 180.58C210.406 180.748 210.159 180.883 209.869 180.986C209.58 181.089 209.244 181.14 208.861 181.14ZM209.211 179.922C209.939 179.922 210.453 179.721 210.751 179.32C211.05 178.909 211.199 178.298 211.199 177.486V177.262C211.199 176.375 211.055 175.699 210.765 175.232C210.485 174.765 209.963 174.532 209.197 174.532C208.591 174.532 208.133 174.779 207.825 175.274C207.517 175.759 207.363 176.427 207.363 177.276C207.363 178.125 207.517 178.779 207.825 179.236C208.133 179.693 208.595 179.922 209.211 179.922ZM221.236 177.164C221.236 177.911 221.161 178.643 221.012 179.362C220.872 180.081 220.648 180.762 220.34 181.406C220.041 182.059 219.654 182.661 219.178 183.212H217.862C218.291 182.624 218.65 181.999 218.94 181.336C219.229 180.683 219.444 180.001 219.584 179.292C219.733 178.583 219.808 177.869 219.808 177.15C219.808 176.413 219.733 175.685 219.584 174.966C219.444 174.247 219.229 173.552 218.94 172.88C218.65 172.208 218.286 171.583 217.848 171.004H219.178C219.654 171.564 220.041 172.175 220.34 172.838C220.648 173.501 220.872 174.196 221.012 174.924C221.161 175.652 221.236 176.399 221.236 177.164Z" fill="white"/>
<circle cx="40" cy="212" r="10" fill="white"/>
<path d="M36.25 212.625L39.25 214.5L43.75 209.5" stroke="#750F22" stroke-width="1.25" stroke-linecap="round" stroke-linejoin="round"/>
<path d="M63.684 217L60.66 208.502H60.604C60.6133 208.689 60.6273 208.941 60.646 209.258C60.6647 209.575 60.6787 209.916 60.688 210.28C60.6973 210.644 60.702 211.003 60.702 211.358V217H59.33V207.004H61.486L64.356 215.026H64.412L67.366 207.004H69.522V217H68.052V211.274C68.052 210.947 68.0567 210.611 68.066 210.266C68.0847 209.911 68.0987 209.58 68.108 209.272C68.1267 208.964 68.1407 208.712 68.15 208.516H68.094L64.986 217H63.684ZM74.9396 209.314C75.8916 209.314 76.6009 209.524 77.0676 209.944C77.5342 210.355 77.7676 211.003 77.7676 211.89V217H76.7176L76.4236 215.95H76.3676C76.1529 216.221 75.9289 216.445 75.6956 216.622C75.4716 216.799 75.2102 216.93 74.9116 217.014C74.6222 217.098 74.2676 217.14 73.8476 217.14C73.3996 217.14 72.9936 217.061 72.6296 216.902C72.2749 216.734 71.9949 216.482 71.7896 216.146C71.5842 215.801 71.4816 215.371 71.4816 214.858C71.4816 214.093 71.7709 213.509 72.3496 213.108C72.9376 212.707 73.8289 212.487 75.0236 212.45L76.3116 212.408V211.988C76.3116 211.428 76.1856 211.036 75.9336 210.812C75.6816 210.588 75.3269 210.476 74.8696 210.476C74.4776 210.476 74.1042 210.532 73.7496 210.644C73.3949 210.756 73.0589 210.891 72.7416 211.05L72.2656 209.972C72.6202 209.785 73.0262 209.631 73.4836 209.51C73.9502 209.379 74.4356 209.314 74.9396 209.314ZM75.2896 213.402C74.4309 213.439 73.8336 213.584 73.4976 213.836C73.1709 214.079 73.0076 214.424 73.0076 214.872C73.0076 215.264 73.1242 215.549 73.3576 215.726C73.6002 215.903 73.9036 215.992 74.2676 215.992C74.8556 215.992 75.3409 215.829 75.7236 215.502C76.1062 215.175 76.2976 214.685 76.2976 214.032V213.374L75.2896 213.402ZM81.7746 213.15L79.2126 209.454H80.9066L82.6986 212.17L84.4906 209.454H86.1706L83.6086 213.15L86.2966 217H84.6166L82.6986 214.116L80.7666 217H79.0866L81.7746 213.15ZM94.2589 207.004C95.5656 207.004 96.5176 207.27 97.1149 207.802C97.7122 208.325 98.0109 209.057 98.0109 210C98.0109 210.42 97.9409 210.821 97.8009 211.204C97.6702 211.587 97.4509 211.932 97.1429 212.24C96.8349 212.539 96.4242 212.777 95.9109 212.954C95.4069 213.122 94.7862 213.206 94.0489 213.206H92.9709V217H91.4589V207.004H94.2589ZM94.1469 208.278H92.9709V211.932H93.8809C94.4502 211.932 94.9262 211.871 95.3089 211.75C95.6916 211.619 95.9762 211.419 96.1629 211.148C96.3589 210.868 96.4569 210.504 96.4569 210.056C96.4569 209.459 96.2702 209.015 95.8969 208.726C95.5329 208.427 94.9496 208.278 94.1469 208.278ZM103.587 209.314C103.718 209.314 103.863 209.323 104.021 209.342C104.18 209.351 104.311 209.365 104.413 209.384L104.259 210.77C104.157 210.742 104.035 210.719 103.895 210.7C103.755 210.681 103.625 210.672 103.503 210.672C103.223 210.672 102.953 210.728 102.691 210.84C102.439 210.943 102.211 211.097 102.005 211.302C101.8 211.498 101.637 211.741 101.515 212.03C101.403 212.319 101.347 212.651 101.347 213.024V217H99.8632V209.454H101.039L101.235 210.798H101.291C101.45 210.527 101.641 210.28 101.865 210.056C102.089 209.832 102.346 209.655 102.635 209.524C102.925 209.384 103.242 209.314 103.587 209.314ZM112.187 213.22C112.187 213.845 112.103 214.401 111.935 214.886C111.767 215.371 111.529 215.782 111.221 216.118C110.913 216.454 110.54 216.711 110.101 216.888C109.662 217.056 109.168 217.14 108.617 217.14C108.113 217.14 107.646 217.056 107.217 216.888C106.788 216.711 106.414 216.454 106.097 216.118C105.789 215.782 105.546 215.371 105.369 214.886C105.192 214.401 105.103 213.841 105.103 213.206C105.103 212.375 105.243 211.671 105.523 211.092C105.812 210.513 106.223 210.075 106.755 209.776C107.296 209.468 107.931 209.314 108.659 209.314C109.35 209.314 109.956 209.468 110.479 209.776C111.011 210.075 111.426 210.513 111.725 211.092C112.033 211.671 112.187 212.38 112.187 213.22ZM106.629 213.22C106.629 213.78 106.699 214.265 106.839 214.676C106.979 215.077 107.198 215.385 107.497 215.6C107.796 215.815 108.178 215.922 108.645 215.922C109.112 215.922 109.494 215.815 109.793 215.6C110.092 215.385 110.311 215.077 110.451 214.676C110.591 214.265 110.661 213.78 110.661 213.22C110.661 212.641 110.586 212.156 110.437 211.764C110.297 211.372 110.078 211.073 109.779 210.868C109.49 210.653 109.107 210.546 108.631 210.546C107.931 210.546 107.422 210.779 107.105 211.246C106.788 211.713 106.629 212.371 106.629 213.22ZM116.658 217.14C115.753 217.14 115.02 216.813 114.46 216.16C113.91 215.507 113.634 214.536 113.634 213.248C113.634 211.951 113.914 210.971 114.474 210.308C115.034 209.645 115.772 209.314 116.686 209.314C117.069 209.314 117.4 209.365 117.68 209.468C117.97 209.561 118.217 209.692 118.422 209.86C118.637 210.028 118.819 210.215 118.968 210.42H119.052C119.034 210.289 119.01 210.103 118.982 209.86C118.954 209.608 118.94 209.384 118.94 209.188V206.36H120.424V217H119.262L119.01 215.992H118.94C118.8 216.207 118.623 216.403 118.408 216.58C118.203 216.748 117.956 216.883 117.666 216.986C117.377 217.089 117.041 217.14 116.658 217.14ZM117.008 215.922C117.736 215.922 118.25 215.721 118.548 215.32C118.847 214.909 118.996 214.298 118.996 213.486V213.262C118.996 212.375 118.852 211.699 118.562 211.232C118.282 210.765 117.76 210.532 116.994 210.532C116.388 210.532 115.93 210.779 115.622 211.274C115.314 211.759 115.16 212.427 115.16 213.276C115.16 214.125 115.314 214.779 115.622 215.236C115.93 215.693 116.392 215.922 117.008 215.922ZM129.246 209.454V217H128.056L127.846 216.006H127.776C127.617 216.267 127.412 216.482 127.16 216.65C126.908 216.818 126.633 216.939 126.334 217.014C126.035 217.098 125.727 217.14 125.41 217.14C124.822 217.14 124.323 217.047 123.912 216.86C123.511 216.664 123.203 216.365 122.988 215.964C122.783 215.553 122.68 215.031 122.68 214.396V209.454H124.178V214.172C124.178 214.76 124.299 215.199 124.542 215.488C124.794 215.777 125.181 215.922 125.704 215.922C126.227 215.922 126.637 215.819 126.936 215.614C127.235 215.409 127.445 215.11 127.566 214.718C127.697 214.317 127.762 213.836 127.762 213.276V209.454H129.246ZM134.606 217.14C133.916 217.14 133.309 217.005 132.786 216.734C132.264 216.463 131.858 216.043 131.568 215.474C131.279 214.895 131.134 214.163 131.134 213.276C131.134 212.343 131.288 211.587 131.596 211.008C131.914 210.429 132.338 210.005 132.87 209.734C133.412 209.454 134.028 209.314 134.718 209.314C135.138 209.314 135.53 209.361 135.894 209.454C136.268 209.538 136.576 209.636 136.818 209.748L136.37 210.952C136.109 210.849 135.829 210.761 135.53 210.686C135.241 210.611 134.966 210.574 134.704 210.574C134.238 210.574 133.85 210.677 133.542 210.882C133.244 211.078 133.02 211.377 132.87 211.778C132.73 212.17 132.66 212.665 132.66 213.262C132.66 213.831 132.735 214.312 132.884 214.704C133.034 215.096 133.253 215.395 133.542 215.6C133.841 215.796 134.21 215.894 134.648 215.894C135.068 215.894 135.437 215.847 135.754 215.754C136.072 215.661 136.37 215.539 136.65 215.39V216.678C136.38 216.837 136.086 216.953 135.768 217.028C135.451 217.103 135.064 217.14 134.606 217.14ZM141.148 215.936C141.344 215.936 141.544 215.917 141.75 215.88C141.955 215.843 142.132 215.801 142.282 215.754V216.874C142.123 216.949 141.908 217.009 141.638 217.056C141.367 217.112 141.096 217.14 140.826 217.14C140.415 217.14 140.037 217.07 139.692 216.93C139.356 216.79 139.085 216.547 138.88 216.202C138.674 215.857 138.572 215.376 138.572 214.76V210.588H137.522V209.916L138.628 209.356L139.146 207.76H140.056V209.454H142.212V210.588H140.056V214.732C140.056 215.143 140.154 215.446 140.35 215.642C140.555 215.838 140.821 215.936 141.148 215.936ZM148.803 214.872C148.803 215.367 148.682 215.782 148.439 216.118C148.196 216.454 147.846 216.711 147.389 216.888C146.932 217.056 146.381 217.14 145.737 217.14C145.205 217.14 144.748 217.098 144.365 217.014C143.992 216.939 143.646 216.827 143.329 216.678V215.376C143.665 215.535 144.052 215.679 144.491 215.81C144.93 215.931 145.359 215.992 145.779 215.992C146.339 215.992 146.74 215.903 146.983 215.726C147.235 215.549 147.361 215.311 147.361 215.012C147.361 214.844 147.314 214.695 147.221 214.564C147.128 214.424 146.95 214.284 146.689 214.144C146.437 213.995 146.064 213.827 145.569 213.64C145.093 213.444 144.687 213.253 144.351 213.066C144.015 212.87 143.758 212.641 143.581 212.38C143.404 212.109 143.315 211.764 143.315 211.344C143.315 210.691 143.576 210.191 144.099 209.846C144.631 209.491 145.331 209.314 146.199 209.314C146.656 209.314 147.086 209.361 147.487 209.454C147.898 209.538 148.294 209.669 148.677 209.846L148.187 210.98C147.972 210.877 147.748 210.793 147.515 210.728C147.291 210.653 147.062 210.593 146.829 210.546C146.605 210.499 146.372 210.476 146.129 210.476C145.681 210.476 145.34 210.546 145.107 210.686C144.874 210.826 144.757 211.022 144.757 211.274C144.757 211.451 144.808 211.605 144.911 211.736C145.023 211.867 145.214 211.997 145.485 212.128C145.756 212.259 146.124 212.417 146.591 212.604C147.058 212.781 147.454 212.963 147.781 213.15C148.117 213.337 148.369 213.565 148.537 213.836C148.714 214.107 148.803 214.452 148.803 214.872ZM153.607 213.164C153.607 212.399 153.677 211.652 153.817 210.924C153.966 210.196 154.195 209.501 154.503 208.838C154.811 208.175 155.198 207.564 155.665 207.004H156.995C156.566 207.583 156.202 208.208 155.903 208.88C155.614 209.552 155.394 210.247 155.245 210.966C155.096 211.685 155.021 212.413 155.021 213.15C155.021 213.869 155.096 214.583 155.245 215.292C155.394 216.001 155.614 216.683 155.903 217.336C156.192 217.999 156.552 218.624 156.981 219.212H155.665C155.198 218.661 154.811 218.059 154.503 217.406C154.195 216.762 153.966 216.081 153.817 215.362C153.677 214.643 153.607 213.911 153.607 213.164ZM170.131 213.472C170.131 214.163 169.986 214.788 169.697 215.348C169.417 215.899 168.983 216.337 168.395 216.664C167.807 216.981 167.065 217.14 166.169 217.14C164.9 217.14 163.934 216.804 163.271 216.132C162.618 215.451 162.291 214.555 162.291 213.444V207.004H163.803V213.374C163.803 214.195 164.004 214.816 164.405 215.236C164.806 215.647 165.418 215.852 166.239 215.852C166.799 215.852 167.256 215.749 167.611 215.544C167.966 215.339 168.222 215.054 168.381 214.69C168.549 214.317 168.633 213.873 168.633 213.36V207.004H170.131V213.472ZM176.365 209.314C177.242 209.314 177.914 209.533 178.381 209.972C178.848 210.411 179.081 211.115 179.081 212.086V217H177.611V212.296C177.611 211.708 177.485 211.269 177.233 210.98C176.99 210.681 176.598 210.532 176.057 210.532C175.292 210.532 174.76 210.761 174.461 211.218C174.172 211.675 174.027 212.333 174.027 213.192V217H172.543V209.454H173.719L173.929 210.462H174.013C174.181 210.201 174.386 209.986 174.629 209.818C174.872 209.65 175.142 209.524 175.441 209.44C175.74 209.356 176.048 209.314 176.365 209.314ZM182.845 217H181.361V206.36H182.845V217ZM186.66 209.454V217H185.176V209.454H186.66ZM185.932 206.584C186.156 206.584 186.352 206.649 186.52 206.78C186.688 206.911 186.772 207.13 186.772 207.438C186.772 207.737 186.688 207.956 186.52 208.096C186.352 208.227 186.156 208.292 185.932 208.292C185.689 208.292 185.484 208.227 185.316 208.096C185.157 207.956 185.078 207.737 185.078 207.438C185.078 207.13 185.157 206.911 185.316 206.78C185.484 206.649 185.689 206.584 185.932 206.584ZM197.446 209.314C198.295 209.314 198.935 209.533 199.364 209.972C199.793 210.411 200.008 211.115 200.008 212.086V217H198.524V212.282C198.524 211.703 198.407 211.269 198.174 210.98C197.95 210.681 197.595 210.532 197.11 210.532C196.438 210.532 195.957 210.742 195.668 211.162C195.379 211.573 195.234 212.17 195.234 212.954V217H193.764V212.282C193.764 211.899 193.708 211.577 193.596 211.316C193.493 211.055 193.339 210.859 193.134 210.728C192.929 210.597 192.663 210.532 192.336 210.532C191.869 210.532 191.501 210.635 191.23 210.84C190.959 211.045 190.763 211.349 190.642 211.75C190.53 212.142 190.474 212.623 190.474 213.192V217H188.99V209.454H190.166L190.376 210.462H190.46C190.619 210.201 190.81 209.986 191.034 209.818C191.267 209.65 191.524 209.524 191.804 209.44C192.084 209.356 192.373 209.314 192.672 209.314C193.241 209.314 193.722 209.417 194.114 209.622C194.506 209.818 194.791 210.121 194.968 210.532H195.08C195.323 210.112 195.659 209.804 196.088 209.608C196.517 209.412 196.97 209.314 197.446 209.314ZM203.763 209.454V217H202.279V209.454H203.763ZM203.035 206.584C203.259 206.584 203.455 206.649 203.623 206.78C203.791 206.911 203.875 207.13 203.875 207.438C203.875 207.737 203.791 207.956 203.623 208.096C203.455 208.227 203.259 208.292 203.035 208.292C202.793 208.292 202.587 208.227 202.419 208.096C202.261 207.956 202.181 207.737 202.181 207.438C202.181 207.13 202.261 206.911 202.419 206.78C202.587 206.649 202.793 206.584 203.035 206.584ZM208.81 215.936C209.006 215.936 209.206 215.917 209.412 215.88C209.617 215.843 209.794 215.801 209.944 215.754V216.874C209.785 216.949 209.57 217.009 209.3 217.056C209.029 217.112 208.758 217.14 208.488 217.14C208.077 217.14 207.699 217.07 207.354 216.93C207.018 216.79 206.747 216.547 206.542 216.202C206.336 215.857 206.234 215.376 206.234 214.76V210.588H205.184V209.916L206.29 209.356L206.808 207.76H207.718V209.454H209.874V210.588H207.718V214.732C207.718 215.143 207.816 215.446 208.012 215.642C208.217 215.838 208.483 215.936 208.81 215.936ZM214.421 209.314C215.084 209.314 215.653 209.454 216.129 209.734C216.605 210.005 216.969 210.397 217.221 210.91C217.482 211.423 217.613 212.03 217.613 212.73V213.542H212.545C212.564 214.317 212.764 214.909 213.147 215.32C213.539 215.731 214.085 215.936 214.785 215.936C215.27 215.936 215.7 215.894 216.073 215.81C216.456 215.717 216.848 215.581 217.249 215.404V216.636C216.876 216.804 216.493 216.93 216.101 217.014C215.718 217.098 215.261 217.14 214.729 217.14C214.001 217.14 213.357 216.995 212.797 216.706C212.237 216.417 211.798 215.987 211.481 215.418C211.173 214.839 211.019 214.13 211.019 213.29C211.019 212.441 211.159 211.722 211.439 211.134C211.728 210.546 212.125 210.098 212.629 209.79C213.142 209.473 213.74 209.314 214.421 209.314ZM214.421 210.462C213.889 210.462 213.46 210.635 213.133 210.98C212.816 211.325 212.629 211.815 212.573 212.45H216.129C216.129 212.058 216.068 211.713 215.947 211.414C215.826 211.115 215.639 210.882 215.387 210.714C215.135 210.546 214.813 210.462 214.421 210.462ZM222.055 217.14C221.149 217.14 220.417 216.813 219.857 216.16C219.306 215.507 219.031 214.536 219.031 213.248C219.031 211.951 219.311 210.971 219.871 210.308C220.431 209.645 221.168 209.314 222.083 209.314C222.465 209.314 222.797 209.365 223.077 209.468C223.366 209.561 223.613 209.692 223.819 209.86C224.033 210.028 224.215 210.215 224.365 210.42H224.449C224.43 210.289 224.407 210.103 224.379 209.86C224.351 209.608 224.337 209.384 224.337 209.188V206.36H225.821V217H224.659L224.407 215.992H224.337C224.197 216.207 224.019 216.403 223.805 216.58C223.599 216.748 223.352 216.883 223.063 216.986C222.773 217.089 222.437 217.14 222.055 217.14ZM222.405 215.922C223.133 215.922 223.646 215.721 223.945 215.32C224.243 214.909 224.393 214.298 224.393 213.486V213.262C224.393 212.375 224.248 211.699 223.959 211.232C223.679 210.765 223.156 210.532 222.391 210.532C221.784 210.532 221.327 210.779 221.019 211.274C220.711 211.759 220.557 212.427 220.557 213.276C220.557 214.125 220.711 214.779 221.019 215.236C221.327 215.693 221.789 215.922 222.405 215.922ZM234.429 213.164C234.429 213.911 234.354 214.643 234.205 215.362C234.065 216.081 233.841 216.762 233.533 217.406C233.234 218.059 232.847 218.661 232.371 219.212H231.055C231.484 218.624 231.844 217.999 232.133 217.336C232.422 216.683 232.637 216.001 232.777 215.292C232.926 214.583 233.001 213.869 233.001 213.15C233.001 212.413 232.926 211.685 232.777 210.966C232.637 210.247 232.422 209.552 232.133 208.88C231.844 208.208 231.48 207.583 231.041 207.004H232.371C232.847 207.564 233.234 208.175 233.533 208.838C233.841 209.501 234.065 210.196 234.205 210.924C234.354 211.652 234.429 212.399 234.429 213.164Z" fill="white"/>
<circle cx="40" cy="248" r="10" fill="white"/>
<path d="M36.25 248.625L39.25 250.5L43.75 245.5" stroke="#750F22" stroke-width="1.25" stroke-linecap="round" stroke-linejoin="round"/>
<path d="M62.13 243.004C63.4367 243.004 64.3887 243.27 64.986 243.802C65.5833 244.325 65.882 245.057 65.882 246C65.882 246.42 65.812 246.821 65.672 247.204C65.5413 247.587 65.322 247.932 65.014 248.24C64.706 248.539 64.2953 248.777 63.782 248.954C63.278 249.122 62.6573 249.206 61.92 249.206H60.842V253H59.33V243.004H62.13ZM62.018 244.278H60.842V247.932H61.752C62.3213 247.932 62.7973 247.871 63.18 247.75C63.5627 247.619 63.8473 247.419 64.034 247.148C64.23 246.868 64.328 246.504 64.328 246.056C64.328 245.459 64.1413 245.015 63.768 244.726C63.404 244.427 62.8207 244.278 62.018 244.278ZM76.7223 247.988C76.7223 248.763 76.6243 249.467 76.4283 250.102C76.2416 250.727 75.9523 251.269 75.5603 251.726C75.1776 252.183 74.6923 252.533 74.1043 252.776C73.5256 253.019 72.8489 253.14 72.0743 253.14C71.2809 253.14 70.5903 253.019 70.0023 252.776C69.4236 252.524 68.9383 252.174 68.5463 251.726C68.1636 251.269 67.8789 250.723 67.6923 250.088C67.5056 249.453 67.4123 248.749 67.4123 247.974C67.4123 246.947 67.5803 246.051 67.9163 245.286C68.2523 244.521 68.7656 243.923 69.4563 243.494C70.1563 243.065 71.0336 242.85 72.0883 242.85C73.1149 242.85 73.9689 243.065 74.6503 243.494C75.3409 243.914 75.8589 244.511 76.2043 245.286C76.5496 246.051 76.7223 246.952 76.7223 247.988ZM69.0083 247.988C69.0083 248.791 69.1156 249.481 69.3303 250.06C69.5449 250.629 69.8809 251.073 70.3383 251.39C70.7956 251.698 71.3743 251.852 72.0743 251.852C72.7836 251.852 73.3623 251.698 73.8103 251.39C74.2583 251.073 74.5896 250.629 74.8043 250.06C75.0189 249.481 75.1263 248.791 75.1263 247.988C75.1263 246.784 74.8836 245.846 74.3983 245.174C73.9223 244.493 73.1523 244.152 72.0883 244.152C71.3789 244.152 70.7956 244.306 70.3383 244.614C69.8809 244.922 69.5449 245.361 69.3303 245.93C69.1156 246.499 69.0083 247.185 69.0083 247.988ZM84.6345 250.298C84.6345 250.895 84.4898 251.404 84.2005 251.824C83.9111 252.244 83.4958 252.571 82.9545 252.804C82.4131 253.028 81.7691 253.14 81.0225 253.14C80.6585 253.14 80.3085 253.117 79.9725 253.07C79.6365 253.033 79.3238 252.977 79.0345 252.902C78.7451 252.827 78.4885 252.734 78.2645 252.622V251.194C78.6378 251.362 79.0765 251.516 79.5805 251.656C80.0845 251.787 80.5978 251.852 81.1205 251.852C81.5685 251.852 81.9418 251.791 82.2405 251.67C82.5391 251.549 82.7631 251.381 82.9125 251.166C83.0618 250.951 83.1365 250.699 83.1365 250.41C83.1365 250.102 83.0571 249.845 82.8985 249.64C82.7491 249.425 82.5111 249.229 82.1845 249.052C81.8671 248.865 81.4378 248.669 80.8965 248.464C80.5231 248.324 80.1825 248.17 79.8745 248.002C79.5758 247.825 79.3098 247.619 79.0765 247.386C78.8525 247.153 78.6798 246.882 78.5585 246.574C78.4371 246.266 78.3765 245.907 78.3765 245.496C78.3765 244.945 78.5118 244.474 78.7825 244.082C79.0625 243.69 79.4451 243.391 79.9305 243.186C80.4158 242.971 80.9805 242.864 81.6245 242.864C82.1658 242.864 82.6651 242.92 83.1225 243.032C83.5891 243.135 84.0325 243.279 84.4525 243.466L83.9765 244.712C83.5938 244.553 83.2065 244.423 82.8145 244.32C82.4225 244.217 82.0118 244.166 81.5825 244.166C81.2091 244.166 80.8965 244.222 80.6445 244.334C80.3925 244.446 80.2011 244.6 80.0705 244.796C79.9491 244.992 79.8885 245.221 79.8885 245.482C79.8885 245.79 79.9585 246.047 80.0985 246.252C80.2385 246.457 80.4625 246.649 80.7705 246.826C81.0785 246.994 81.4845 247.181 81.9885 247.386C82.5485 247.601 83.0245 247.834 83.4165 248.086C83.8178 248.338 84.1211 248.641 84.3265 248.996C84.5318 249.341 84.6345 249.775 84.6345 250.298Z" fill="white"/>
<circle cx="40" cy="284" r="10" fill="white"/>
<path d="M36.25 284.625L39.25 286.5L43.75 281.5" stroke="#750F22" stroke-width="1.25" stroke-linecap="round" stroke-linejoin="round"/>
<path d="M63.684 289L60.66 280.502H60.604C60.6133 280.689 60.6273 280.941 60.646 281.258C60.6647 281.575 60.6787 281.916 60.688 282.28C60.6973 282.644 60.702 283.003 60.702 283.358V289H59.33V279.004H61.486L64.356 287.026H64.412L67.366 279.004H69.522V289H68.052V283.274C68.052 282.947 68.0567 282.611 68.066 282.266C68.0847 281.911 68.0987 281.58 68.108 281.272C68.1267 280.964 68.1407 280.712 68.15 280.516H68.094L64.986 289H63.684ZM78.6636 285.22C78.6636 285.845 78.5796 286.401 78.4116 286.886C78.2436 287.371 78.0056 287.782 77.6976 288.118C77.3896 288.454 77.0162 288.711 76.5776 288.888C76.1389 289.056 75.6442 289.14 75.0936 289.14C74.5896 289.14 74.1229 289.056 73.6936 288.888C73.2642 288.711 72.8909 288.454 72.5736 288.118C72.2656 287.782 72.0229 287.371 71.8456 286.886C71.6682 286.401 71.5796 285.841 71.5796 285.206C71.5796 284.375 71.7196 283.671 71.9996 283.092C72.2889 282.513 72.6996 282.075 73.2316 281.776C73.7729 281.468 74.4076 281.314 75.1356 281.314C75.8262 281.314 76.4329 281.468 76.9556 281.776C77.4876 282.075 77.9029 282.513 78.2016 283.092C78.5096 283.671 78.6636 284.38 78.6636 285.22ZM73.1056 285.22C73.1056 285.78 73.1756 286.265 73.3156 286.676C73.4556 287.077 73.6749 287.385 73.9736 287.6C74.2722 287.815 74.6549 287.922 75.1216 287.922C75.5882 287.922 75.9709 287.815 76.2696 287.6C76.5682 287.385 76.7876 287.077 76.9276 286.676C77.0676 286.265 77.1376 285.78 77.1376 285.22C77.1376 284.641 77.0629 284.156 76.9136 283.764C76.7736 283.372 76.5542 283.073 76.2556 282.868C75.9662 282.653 75.5836 282.546 75.1076 282.546C74.4076 282.546 73.8989 282.779 73.5816 283.246C73.2642 283.713 73.1056 284.371 73.1056 285.22ZM82.0288 280.922C82.0288 281.23 82.0195 281.524 82.0008 281.804C81.9915 282.075 81.9775 282.289 81.9588 282.448H82.0288C82.2435 282.131 82.5328 281.865 82.8968 281.65C83.2608 281.435 83.7321 281.328 84.3108 281.328C85.2161 281.328 85.9441 281.655 86.4948 282.308C87.0548 282.961 87.3348 283.932 87.3348 285.22C87.3348 286.088 87.2088 286.811 86.9568 287.39C86.7048 287.969 86.3501 288.407 85.8928 288.706C85.4355 288.995 84.9035 289.14 84.2968 289.14C83.7088 289.14 83.2375 289.037 82.8828 288.832C82.5281 288.617 82.2435 288.365 82.0288 288.076H81.9168L81.6368 289H80.5448V278.36H82.0288V280.922ZM83.9608 282.532C83.4755 282.532 83.0928 282.625 82.8128 282.812C82.5328 282.999 82.3321 283.283 82.2108 283.666C82.0895 284.049 82.0288 284.534 82.0288 285.122V285.234C82.0288 286.102 82.1688 286.769 82.4488 287.236C82.7288 287.693 83.2421 287.922 83.9888 287.922C84.5861 287.922 85.0388 287.689 85.3468 287.222C85.6548 286.755 85.8088 286.083 85.8088 285.206C85.8088 284.319 85.6548 283.652 85.3468 283.204C85.0388 282.756 84.5768 282.532 83.9608 282.532ZM90.7105 281.454V289H89.2265V281.454H90.7105ZM89.9825 278.584C90.2065 278.584 90.4025 278.649 90.5705 278.78C90.7385 278.911 90.8225 279.13 90.8225 279.438C90.8225 279.737 90.7385 279.956 90.5705 280.096C90.4025 280.227 90.2065 280.292 89.9825 280.292C89.7398 280.292 89.5345 280.227 89.3665 280.096C89.2078 279.956 89.1285 279.737 89.1285 279.438C89.1285 279.13 89.2078 278.911 89.3665 278.78C89.5345 278.649 89.7398 278.584 89.9825 278.584ZM94.5249 289H93.0409V278.36H94.5249V289ZM99.8234 281.314C100.486 281.314 101.055 281.454 101.531 281.734C102.007 282.005 102.371 282.397 102.623 282.91C102.885 283.423 103.015 284.03 103.015 284.73V285.542H97.9474C97.966 286.317 98.1667 286.909 98.5494 287.32C98.9414 287.731 99.4874 287.936 100.187 287.936C100.673 287.936 101.102 287.894 101.475 287.81C101.858 287.717 102.25 287.581 102.651 287.404V288.636C102.278 288.804 101.895 288.93 101.503 289.014C101.121 289.098 100.663 289.14 100.131 289.14C99.4034 289.14 98.7594 288.995 98.1994 288.706C97.6394 288.417 97.2007 287.987 96.8834 287.418C96.5754 286.839 96.4214 286.13 96.4214 285.29C96.4214 284.441 96.5614 283.722 96.8414 283.134C97.1307 282.546 97.5274 282.098 98.0314 281.79C98.5447 281.473 99.142 281.314 99.8234 281.314ZM99.8234 282.462C99.2914 282.462 98.862 282.635 98.5354 282.98C98.218 283.325 98.0314 283.815 97.9754 284.45H101.531C101.531 284.058 101.471 283.713 101.349 283.414C101.228 283.115 101.041 282.882 100.789 282.714C100.537 282.546 100.215 282.462 99.8234 282.462ZM114.902 289L113.838 286.116H109.974L108.91 289H107.342L111.136 278.962H112.704L116.484 289H114.902ZM112.41 281.986C112.382 281.883 112.33 281.729 112.256 281.524C112.19 281.309 112.125 281.095 112.06 280.88C111.994 280.656 111.943 280.474 111.906 280.334C111.859 280.521 111.803 280.726 111.738 280.95C111.682 281.165 111.626 281.365 111.57 281.552C111.514 281.729 111.467 281.874 111.43 281.986L110.422 284.8H113.418L112.41 281.986ZM121.43 281.314C122.335 281.314 123.063 281.641 123.614 282.294C124.174 282.947 124.454 283.923 124.454 285.22C124.454 286.069 124.328 286.788 124.076 287.376C123.824 287.964 123.469 288.407 123.012 288.706C122.555 288.995 122.023 289.14 121.416 289.14C121.033 289.14 120.697 289.093 120.408 289C120.119 288.897 119.871 288.767 119.666 288.608C119.47 288.44 119.297 288.263 119.148 288.076H119.05C119.078 288.244 119.101 288.445 119.12 288.678C119.139 288.902 119.148 289.103 119.148 289.28V292.36H117.664V281.454H118.868L119.078 282.462H119.148C119.297 282.257 119.475 282.065 119.68 281.888C119.885 281.711 120.133 281.571 120.422 281.468C120.711 281.365 121.047 281.314 121.43 281.314ZM121.08 282.532C120.613 282.532 120.24 282.625 119.96 282.812C119.68 282.989 119.475 283.26 119.344 283.624C119.223 283.979 119.157 284.431 119.148 284.982V285.206C119.148 285.785 119.209 286.279 119.33 286.69C119.451 287.091 119.652 287.399 119.932 287.614C120.221 287.819 120.613 287.922 121.108 287.922C121.528 287.922 121.869 287.81 122.13 287.586C122.401 287.353 122.601 287.031 122.732 286.62C122.863 286.209 122.928 285.733 122.928 285.192C122.928 284.371 122.779 283.722 122.48 283.246C122.181 282.77 121.715 282.532 121.08 282.532ZM130.112 281.314C131.017 281.314 131.745 281.641 132.296 282.294C132.856 282.947 133.136 283.923 133.136 285.22C133.136 286.069 133.01 286.788 132.758 287.376C132.506 287.964 132.151 288.407 131.694 288.706C131.236 288.995 130.704 289.14 130.098 289.14C129.715 289.14 129.379 289.093 129.09 289C128.8 288.897 128.553 288.767 128.348 288.608C128.152 288.44 127.979 288.263 127.83 288.076H127.732C127.76 288.244 127.783 288.445 127.802 288.678C127.82 288.902 127.83 289.103 127.83 289.28V292.36H126.346V281.454H127.55L127.76 282.462H127.83C127.979 282.257 128.156 282.065 128.362 281.888C128.567 281.711 128.814 281.571 129.104 281.468C129.393 281.365 129.729 281.314 130.112 281.314ZM129.762 282.532C129.295 282.532 128.922 282.625 128.642 282.812C128.362 282.989 128.156 283.26 128.026 283.624C127.904 283.979 127.839 284.431 127.83 284.982V285.206C127.83 285.785 127.89 286.279 128.012 286.69C128.133 287.091 128.334 287.399 128.614 287.614C128.903 287.819 129.295 287.922 129.79 287.922C130.21 287.922 130.55 287.81 130.812 287.586C131.082 287.353 131.283 287.031 131.414 286.62C131.544 286.209 131.61 285.733 131.61 285.192C131.61 284.371 131.46 283.722 131.162 283.246C130.863 282.77 130.396 282.532 129.762 282.532Z" fill="white"/>
<circle cx="40" cy="320" r="10" fill="white"/>
<path d="M36.25 320.625L39.25 322.5L43.75 317.5" stroke="#750F22" stroke-width="1.25" stroke-linecap="round" stroke-linejoin="round"/>
<path d="M63.6 316.166C63.1053 316.166 62.662 316.255 62.27 316.432C61.878 316.6 61.542 316.852 61.262 317.188C60.9913 317.524 60.7813 317.93 60.632 318.406C60.492 318.882 60.422 319.419 60.422 320.016C60.422 320.8 60.5387 321.481 60.772 322.06C61.0053 322.629 61.3553 323.068 61.822 323.376C62.2887 323.684 62.8767 323.838 63.586 323.838C64.0153 323.838 64.426 323.801 64.818 323.726C65.2193 323.642 65.6253 323.535 66.036 323.404V324.706C65.644 324.855 65.2427 324.963 64.832 325.028C64.4213 325.103 63.9453 325.14 63.404 325.14C62.3867 325.14 61.5373 324.93 60.856 324.51C60.184 324.09 59.68 323.493 59.344 322.718C59.008 321.943 58.84 321.038 58.84 320.002C58.84 319.246 58.9427 318.555 59.148 317.93C59.3627 317.295 59.6707 316.749 60.072 316.292C60.4733 315.835 60.968 315.485 61.556 315.242C62.1533 314.99 62.8393 314.864 63.614 314.864C64.118 314.864 64.6127 314.92 65.098 315.032C65.5833 315.135 66.022 315.284 66.414 315.48L65.854 316.74C65.5273 316.591 65.1727 316.46 64.79 316.348C64.4167 316.227 64.02 316.166 63.6 316.166ZM69.5054 317.202C69.5054 317.435 69.496 317.669 69.4774 317.902C69.4587 318.135 69.44 318.327 69.4214 318.476H69.5194C69.678 318.215 69.874 318 70.1074 317.832C70.35 317.664 70.616 317.538 70.9054 317.454C71.204 317.37 71.5074 317.328 71.8154 317.328C72.4127 317.328 72.912 317.426 73.3134 317.622C73.724 317.809 74.032 318.107 74.2374 318.518C74.452 318.919 74.5594 319.442 74.5594 320.086V325H73.0894V320.296C73.0894 319.708 72.9634 319.269 72.7114 318.98C72.4687 318.681 72.0767 318.532 71.5354 318.532C71.022 318.532 70.616 318.635 70.3174 318.84C70.028 319.045 69.818 319.349 69.6874 319.75C69.566 320.142 69.5054 320.627 69.5054 321.206V325H68.0214V314.36H69.5054V317.202ZM79.7657 317.314C80.7177 317.314 81.4271 317.524 81.8937 317.944C82.3604 318.355 82.5937 319.003 82.5937 319.89V325H81.5437L81.2497 323.95H81.1937C80.9791 324.221 80.7551 324.445 80.5217 324.622C80.2977 324.799 80.0364 324.93 79.7377 325.014C79.4484 325.098 79.0937 325.14 78.6737 325.14C78.2257 325.14 77.8197 325.061 77.4557 324.902C77.1011 324.734 76.8211 324.482 76.6157 324.146C76.4104 323.801 76.3077 323.371 76.3077 322.858C76.3077 322.093 76.5971 321.509 77.1757 321.108C77.7637 320.707 78.6551 320.487 79.8497 320.45L81.1377 320.408V319.988C81.1377 319.428 81.0117 319.036 80.7597 318.812C80.5077 318.588 80.1531 318.476 79.6957 318.476C79.3037 318.476 78.9304 318.532 78.5757 318.644C78.2211 318.756 77.8851 318.891 77.5677 319.05L77.0917 317.972C77.4464 317.785 77.8524 317.631 78.3097 317.51C78.7764 317.379 79.2617 317.314 79.7657 317.314ZM80.1157 321.402C79.2571 321.439 78.6597 321.584 78.3237 321.836C77.9971 322.079 77.8337 322.424 77.8337 322.872C77.8337 323.264 77.9504 323.549 78.1837 323.726C78.4264 323.903 78.7297 323.992 79.0937 323.992C79.6817 323.992 80.1671 323.829 80.5497 323.502C80.9324 323.175 81.1237 322.685 81.1237 322.032V321.374L80.1157 321.402ZM87.5948 323.936C87.7908 323.936 87.9915 323.917 88.1968 323.88C88.4021 323.843 88.5795 323.801 88.7288 323.754V324.874C88.5701 324.949 88.3555 325.009 88.0848 325.056C87.8141 325.112 87.5435 325.14 87.2728 325.14C86.8621 325.14 86.4841 325.07 86.1388 324.93C85.8028 324.79 85.5321 324.547 85.3268 324.202C85.1215 323.857 85.0188 323.376 85.0188 322.76V318.588H83.9688V317.916L85.0748 317.356L85.5928 315.76H86.5028V317.454H88.6588V318.588H86.5028V322.732C86.5028 323.143 86.6008 323.446 86.7968 323.642C87.0021 323.838 87.2681 323.936 87.5948 323.936Z" fill="white"/>
<circle cx="40" cy="356" r="10" fill="white"/>
<path d="M36.25 356.625L39.25 358.5L43.75 353.5" stroke="#750F22" stroke-width="1.25" stroke-linecap="round" stroke-linejoin="round"/>
<path d="M62.13 351.004C62.9887 351.004 63.6933 351.111 64.244 351.326C64.7947 351.541 65.2053 351.863 65.476 352.292C65.7467 352.712 65.882 353.244 65.882 353.888C65.882 354.401 65.784 354.835 65.588 355.19C65.4013 355.535 65.1587 355.82 64.86 356.044C64.5613 356.259 64.2487 356.431 63.922 356.562L66.722 361H64.986L62.578 356.954H60.842V361H59.33V351.004H62.13ZM62.032 352.292H60.842V355.694H62.102C62.6153 355.694 63.0353 355.629 63.362 355.498C63.698 355.367 63.9407 355.171 64.09 354.91C64.2487 354.649 64.328 354.327 64.328 353.944C64.328 353.543 64.244 353.225 64.076 352.992C63.9173 352.749 63.6653 352.572 63.32 352.46C62.984 352.348 62.5547 352.292 62.032 352.292ZM70.9894 353.314C71.652 353.314 72.2214 353.454 72.6974 353.734C73.1734 354.005 73.5374 354.397 73.7894 354.91C74.0507 355.423 74.1814 356.03 74.1814 356.73V357.542H69.1134C69.132 358.317 69.3327 358.909 69.7154 359.32C70.1074 359.731 70.6534 359.936 71.3534 359.936C71.8387 359.936 72.268 359.894 72.6414 359.81C73.024 359.717 73.416 359.581 73.8174 359.404V360.636C73.444 360.804 73.0614 360.93 72.6694 361.014C72.2867 361.098 71.8294 361.14 71.2974 361.14C70.5694 361.14 69.9254 360.995 69.3654 360.706C68.8054 360.417 68.3667 359.987 68.0494 359.418C67.7414 358.839 67.5874 358.13 67.5874 357.29C67.5874 356.441 67.7274 355.722 68.0074 355.134C68.2967 354.546 68.6934 354.098 69.1974 353.79C69.7107 353.473 70.308 353.314 70.9894 353.314ZM70.9894 354.462C70.4574 354.462 70.028 354.635 69.7014 354.98C69.384 355.325 69.1974 355.815 69.1414 356.45H72.6974C72.6974 356.058 72.6367 355.713 72.5154 355.414C72.394 355.115 72.2074 354.882 71.9554 354.714C71.7034 354.546 71.3814 354.462 70.9894 354.462ZM77.4537 361L74.5977 353.454H76.1657L77.7337 357.864C77.799 358.051 77.8643 358.261 77.9297 358.494C78.0043 358.727 78.0697 358.951 78.1257 359.166C78.1817 359.381 78.219 359.567 78.2377 359.726H78.2937C78.3217 359.567 78.3637 359.381 78.4197 359.166C78.485 358.942 78.555 358.718 78.6297 358.494C78.7043 358.261 78.7697 358.051 78.8257 357.864L80.3937 353.454H81.9617L79.0917 361H77.4537ZM84.6128 353.454V361H83.1288V353.454H84.6128ZM83.8848 350.584C84.1088 350.584 84.3048 350.649 84.4728 350.78C84.6408 350.911 84.7248 351.13 84.7248 351.438C84.7248 351.737 84.6408 351.956 84.4728 352.096C84.3048 352.227 84.1088 352.292 83.8848 352.292C83.6421 352.292 83.4368 352.227 83.2688 352.096C83.1101 351.956 83.0308 351.737 83.0308 351.438C83.0308 351.13 83.1101 350.911 83.2688 350.78C83.4368 350.649 83.6421 350.584 83.8848 350.584ZM89.9113 353.314C90.5739 353.314 91.1433 353.454 91.6193 353.734C92.0953 354.005 92.4593 354.397 92.7113 354.91C92.9726 355.423 93.1033 356.03 93.1033 356.73V357.542H88.0353C88.0539 358.317 88.2546 358.909 88.6373 359.32C89.0293 359.731 89.5753 359.936 90.2753 359.936C90.7606 359.936 91.1899 359.894 91.5633 359.81C91.9459 359.717 92.3379 359.581 92.7393 359.404V360.636C92.3659 360.804 91.9833 360.93 91.5913 361.014C91.2086 361.098 90.7513 361.14 90.2193 361.14C89.4913 361.14 88.8473 360.995 88.2873 360.706C87.7273 360.417 87.2886 359.987 86.9713 359.418C86.6633 358.839 86.5093 358.13 86.5093 357.29C86.5093 356.441 86.6493 355.722 86.9293 355.134C87.2186 354.546 87.6153 354.098 88.1193 353.79C88.6326 353.473 89.2299 353.314 89.9113 353.314ZM89.9113 354.462C89.3793 354.462 88.9499 354.635 88.6233 354.98C88.3059 355.325 88.1193 355.815 88.0633 356.45H91.6193C91.6193 356.058 91.5586 355.713 91.4373 355.414C91.3159 355.115 91.1293 354.882 90.8773 354.714C90.6253 354.546 90.3033 354.462 89.9113 354.462ZM99.7775 357.22C99.7309 357.033 99.6749 356.828 99.6095 356.604C99.5535 356.38 99.4975 356.156 99.4415 355.932C99.3855 355.699 99.3342 355.484 99.2875 355.288C99.2409 355.092 99.2035 354.938 99.1755 354.826H99.1195C99.1009 354.938 99.0682 355.092 99.0215 355.288C98.9842 355.484 98.9375 355.699 98.8815 355.932C98.8255 356.156 98.7695 356.385 98.7135 356.618C98.6575 356.842 98.5969 357.047 98.5315 357.234L97.4115 360.986H95.7595L93.6735 353.44H95.1855L96.1655 357.262C96.2402 357.523 96.3055 357.799 96.3615 358.088C96.4269 358.377 96.4829 358.657 96.5295 358.928C96.5855 359.189 96.6229 359.409 96.6415 359.586H96.6975C96.7162 359.465 96.7442 359.315 96.7815 359.138C96.8189 358.951 96.8562 358.76 96.8935 358.564C96.9402 358.359 96.9822 358.163 97.0195 357.976C97.0662 357.789 97.1129 357.635 97.1595 357.514L98.3635 353.44H99.9875L101.164 357.514C101.22 357.701 101.28 357.925 101.346 358.186C101.411 358.438 101.467 358.69 101.514 358.942C101.57 359.185 101.607 359.395 101.626 359.572H101.682C101.7 359.413 101.733 359.208 101.78 358.956C101.826 358.695 101.882 358.415 101.948 358.116C102.022 357.817 102.092 357.533 102.158 357.262L103.166 353.44H104.664L102.55 360.986H100.856L99.7775 357.22Z" fill="white"/>
<circle cx="40" cy="392" r="10" fill="white"/>
<path d="M36.25 392.625L39.25 394.5L43.75 389.5" stroke="#750F22" stroke-width="1.25" stroke-linecap="round" stroke-linejoin="round"/>
<path d="M65.07 394.298C65.07 394.895 64.9253 395.404 64.636 395.824C64.3467 396.244 63.9313 396.571 63.39 396.804C62.8487 397.028 62.2047 397.14 61.458 397.14C61.094 397.14 60.744 397.117 60.408 397.07C60.072 397.033 59.7593 396.977 59.47 396.902C59.1807 396.827 58.924 396.734 58.7 396.622V395.194C59.0733 395.362 59.512 395.516 60.016 395.656C60.52 395.787 61.0333 395.852 61.556 395.852C62.004 395.852 62.3773 395.791 62.676 395.67C62.9747 395.549 63.1987 395.381 63.348 395.166C63.4973 394.951 63.572 394.699 63.572 394.41C63.572 394.102 63.4927 393.845 63.334 393.64C63.1847 393.425 62.9467 393.229 62.62 393.052C62.3027 392.865 61.8733 392.669 61.332 392.464C60.9587 392.324 60.618 392.17 60.31 392.002C60.0113 391.825 59.7453 391.619 59.512 391.386C59.288 391.153 59.1153 390.882 58.994 390.574C58.8727 390.266 58.812 389.907 58.812 389.496C58.812 388.945 58.9473 388.474 59.218 388.082C59.498 387.69 59.8807 387.391 60.366 387.186C60.8513 386.971 61.416 386.864 62.06 386.864C62.6013 386.864 63.1007 386.92 63.558 387.032C64.0247 387.135 64.468 387.279 64.888 387.466L64.412 388.712C64.0293 388.553 63.642 388.423 63.25 388.32C62.858 388.217 62.4473 388.166 62.018 388.166C61.6447 388.166 61.332 388.222 61.08 388.334C60.828 388.446 60.6367 388.6 60.506 388.796C60.3847 388.992 60.324 389.221 60.324 389.482C60.324 389.79 60.394 390.047 60.534 390.252C60.674 390.457 60.898 390.649 61.206 390.826C61.514 390.994 61.92 391.181 62.424 391.386C62.984 391.601 63.46 391.834 63.852 392.086C64.2533 392.338 64.5567 392.641 64.762 392.996C64.9673 393.341 65.07 393.775 65.07 394.298ZM69.8273 389.314C70.4899 389.314 71.0593 389.454 71.5353 389.734C72.0113 390.005 72.3753 390.397 72.6273 390.91C72.8886 391.423 73.0193 392.03 73.0193 392.73V393.542H67.9513C67.9699 394.317 68.1706 394.909 68.5533 395.32C68.9453 395.731 69.4913 395.936 70.1913 395.936C70.6766 395.936 71.1059 395.894 71.4793 395.81C71.8619 395.717 72.2539 395.581 72.6553 395.404V396.636C72.2819 396.804 71.8993 396.93 71.5073 397.014C71.1246 397.098 70.6673 397.14 70.1353 397.14C69.4073 397.14 68.7633 396.995 68.2033 396.706C67.6433 396.417 67.2046 395.987 66.8873 395.418C66.5793 394.839 66.4253 394.13 66.4253 393.29C66.4253 392.441 66.5653 391.722 66.8453 391.134C67.1346 390.546 67.5313 390.098 68.0353 389.79C68.5486 389.473 69.1459 389.314 69.8273 389.314ZM69.8273 390.462C69.2953 390.462 68.8659 390.635 68.5393 390.98C68.2219 391.325 68.0353 391.815 67.9793 392.45H71.5353C71.5353 392.058 71.4746 391.713 71.3533 391.414C71.2319 391.115 71.0453 390.882 70.7933 390.714C70.5413 390.546 70.2193 390.462 69.8273 390.462ZM76.355 397H74.871V386.36H76.355V397ZM82.3674 390.588H80.5054V397H79.0214V390.588H77.7474V389.888L79.0214 389.426V388.95C79.0214 388.306 79.1194 387.793 79.3154 387.41C79.5208 387.018 79.8101 386.733 80.1834 386.556C80.5568 386.379 81.0094 386.29 81.5414 386.29C81.8681 386.29 82.1668 386.318 82.4374 386.374C82.7081 386.43 82.9368 386.491 83.1234 386.556L82.7454 387.69C82.5961 387.643 82.4234 387.601 82.2274 387.564C82.0314 387.517 81.8261 387.494 81.6114 387.494C81.2381 387.494 80.9581 387.615 80.7714 387.858C80.5941 388.101 80.5054 388.469 80.5054 388.964V389.454H82.3674V390.588ZM95.5861 391.904C95.5861 393.024 95.3761 393.962 94.9561 394.718C94.5361 395.474 93.9294 396.043 93.1361 396.426C92.3521 396.809 91.4047 397 90.2941 397H87.4941V387.004H90.5881C91.6054 387.004 92.4874 387.191 93.2341 387.564C93.9807 387.937 94.5594 388.488 94.9701 389.216C95.3807 389.935 95.5861 390.831 95.5861 391.904ZM94.0041 391.946C94.0041 391.106 93.8687 390.415 93.5981 389.874C93.3274 389.333 92.9261 388.931 92.3941 388.67C91.8714 388.409 91.2367 388.278 90.4901 388.278H89.0061V395.726H90.2241C91.4841 395.726 92.4267 395.409 93.0521 394.774C93.6867 394.139 94.0041 393.197 94.0041 391.946ZM100.562 389.314C101.224 389.314 101.794 389.454 102.27 389.734C102.746 390.005 103.11 390.397 103.362 390.91C103.623 391.423 103.754 392.03 103.754 392.73V393.542H98.6856C98.7043 394.317 98.905 394.909 99.2876 395.32C99.6796 395.731 100.226 395.936 100.926 395.936C101.411 395.936 101.84 395.894 102.214 395.81C102.596 395.717 102.988 395.581 103.39 395.404V396.636C103.016 396.804 102.634 396.93 102.242 397.014C101.859 397.098 101.402 397.14 100.87 397.14C100.142 397.14 99.4976 396.995 98.9376 396.706C98.3776 396.417 97.939 395.987 97.6216 395.418C97.3136 394.839 97.1596 394.13 97.1596 393.29C97.1596 392.441 97.2996 391.722 97.5796 391.134C97.869 390.546 98.2656 390.098 98.7696 389.79C99.283 389.473 99.8803 389.314 100.562 389.314ZM100.562 390.462C100.03 390.462 99.6003 390.635 99.2736 390.98C98.9563 391.325 98.7696 391.815 98.7136 392.45H102.27C102.27 392.058 102.209 391.713 102.088 391.414C101.966 391.115 101.78 390.882 101.528 390.714C101.276 390.546 100.954 390.462 100.562 390.462ZM107.089 397H105.605V386.36H107.089V397ZM110.904 389.454V397H109.42V389.454H110.904ZM110.176 386.584C110.4 386.584 110.596 386.649 110.764 386.78C110.932 386.911 111.016 387.13 111.016 387.438C111.016 387.737 110.932 387.956 110.764 388.096C110.596 388.227 110.4 388.292 110.176 388.292C109.933 388.292 109.728 388.227 109.56 388.096C109.401 387.956 109.322 387.737 109.322 387.438C109.322 387.13 109.401 386.911 109.56 386.78C109.728 386.649 109.933 386.584 110.176 386.584ZM114.928 397L112.072 389.454H113.64L115.208 393.864C115.274 394.051 115.339 394.261 115.404 394.494C115.479 394.727 115.544 394.951 115.6 395.166C115.656 395.381 115.694 395.567 115.712 395.726H115.768C115.796 395.567 115.838 395.381 115.894 395.166C115.96 394.942 116.03 394.718 116.104 394.494C116.179 394.261 116.244 394.051 116.3 393.864L117.868 389.454H119.436L116.566 397H114.928ZM123.571 389.314C124.234 389.314 124.803 389.454 125.279 389.734C125.755 390.005 126.119 390.397 126.371 390.91C126.633 391.423 126.763 392.03 126.763 392.73V393.542H121.695C121.714 394.317 121.915 394.909 122.297 395.32C122.689 395.731 123.235 395.936 123.935 395.936C124.421 395.936 124.85 395.894 125.223 395.81C125.606 395.717 125.998 395.581 126.399 395.404V396.636C126.026 396.804 125.643 396.93 125.251 397.014C124.869 397.098 124.411 397.14 123.879 397.14C123.151 397.14 122.507 396.995 121.947 396.706C121.387 396.417 120.949 395.987 120.631 395.418C120.323 394.839 120.169 394.13 120.169 393.29C120.169 392.441 120.309 391.722 120.589 391.134C120.879 390.546 121.275 390.098 121.779 389.79C122.293 389.473 122.89 389.314 123.571 389.314ZM123.571 390.462C123.039 390.462 122.61 390.635 122.283 390.98C121.966 391.325 121.779 391.815 121.723 392.45H125.279C125.279 392.058 125.219 391.713 125.097 391.414C124.976 391.115 124.789 390.882 124.537 390.714C124.285 390.546 123.963 390.462 123.571 390.462ZM132.339 389.314C132.47 389.314 132.614 389.323 132.773 389.342C132.932 389.351 133.062 389.365 133.165 389.384L133.011 390.77C132.908 390.742 132.787 390.719 132.647 390.7C132.507 390.681 132.376 390.672 132.255 390.672C131.975 390.672 131.704 390.728 131.443 390.84C131.191 390.943 130.962 391.097 130.757 391.302C130.552 391.498 130.388 391.741 130.267 392.03C130.155 392.319 130.099 392.651 130.099 393.024V397H128.615V389.454H129.791L129.987 390.798H130.043C130.202 390.527 130.393 390.28 130.617 390.056C130.841 389.832 131.098 389.655 131.387 389.524C131.676 389.384 131.994 389.314 132.339 389.314ZM133.414 389.454H135.01L136.578 393.738C136.662 393.953 136.737 394.163 136.802 394.368C136.868 394.573 136.924 394.779 136.97 394.984C137.026 395.18 137.068 395.376 137.096 395.572H137.152C137.199 395.329 137.274 395.045 137.376 394.718C137.479 394.382 137.586 394.051 137.698 393.724L139.182 389.454H140.778L137.544 398.022C137.367 398.507 137.148 398.923 136.886 399.268C136.625 399.623 136.312 399.893 135.948 400.08C135.594 400.267 135.174 400.36 134.688 400.36C134.455 400.36 134.254 400.346 134.086 400.318C133.918 400.299 133.774 400.276 133.652 400.248V399.072C133.755 399.091 133.876 399.109 134.016 399.128C134.166 399.147 134.32 399.156 134.478 399.156C134.768 399.156 135.015 399.1 135.22 398.988C135.435 398.876 135.612 398.717 135.752 398.512C135.902 398.307 136.028 398.073 136.13 397.812L136.438 397L133.414 389.454Z" fill="white"/>
</g>
<defs>
<clipPath id="clip0_131_6895">
<rect width="257" height="452" rx="16" fill="white"/>
</clipPath>
</defs>
</svg>
