<svg width="106" height="106" viewBox="0 0 106 106" fill="none" xmlns="http://www.w3.org/2000/svg">
<path d="M47.3057 5.58008C50.9517 4.06999 55.0483 4.06999 58.6943 5.58008L82.5039 15.4424C86.1502 16.9527 89.0473 19.8498 90.5576 23.4961L100.42 47.3057C101.93 50.9517 101.93 55.0483 100.42 58.6943L90.5576 82.5039C89.0473 86.1502 86.1502 89.0473 82.5039 90.5576L58.6943 100.42C55.0483 101.93 50.9517 101.93 47.3057 100.42L23.4961 90.5576C19.8498 89.0473 16.9527 86.1502 15.4424 82.5039L5.58008 58.6943C4.06999 55.0483 4.06999 50.9517 5.58008 47.3057L15.4424 23.4961C16.9527 19.8498 19.8498 16.9527 23.4961 15.4424L47.3057 5.58008Z" fill="#ECFFF4" stroke="#388E3C" stroke-width="5.95249"/>
<path fill-rule="evenodd" clip-rule="evenodd" d="M64.6768 39.9032C65.2597 39.3267 66.0466 39.0023 66.8674 39C67.6882 38.9978 68.4769 39.3179 69.063 39.8912C69.6491 40.4645 69.9856 41.2449 69.9995 42.0637C70.0135 42.8825 69.704 43.6739 69.1378 44.2668L52.51 65.0039C52.2242 65.311 51.8793 65.5574 51.4959 65.7285C51.1124 65.8995 50.6984 65.9917 50.2784 65.9995C49.8585 66.0072 49.4413 65.9304 49.0518 65.7736C48.6623 65.6168 48.3084 65.3833 48.0115 65.087L36.9943 54.0909C36.6874 53.8056 36.4412 53.4615 36.2704 53.0791C36.0997 52.6968 36.0079 52.2841 36.0005 51.8656C35.9931 51.4471 36.0702 51.0314 36.2274 50.6433C36.3845 50.2552 36.6183 49.9027 36.915 49.6067C37.2116 49.3108 37.565 49.0774 37.954 48.9207C38.343 48.7639 38.7596 48.6869 39.1791 48.6943C39.5985 48.7017 40.0122 48.7933 40.3954 48.9636C40.7786 49.134 41.1235 49.3796 41.4095 49.6858L50.1316 58.3838L64.5976 39.9947C64.6234 39.9625 64.6513 39.9319 64.6809 39.9032H64.6768Z" fill="#388E3C"/>
</svg>
