<svg width="278" height="75" viewBox="0 0 278 75" fill="none" xmlns="http://www.w3.org/2000/svg">
<path d="M2.02563 1C1.64319 9.18723 5.3911 27.3881 23.4423 34.6936C31.8559 38.0987 47.7353 38.8219 60.539 45.7149C70.4824 51.0681 74.5618 59.4652 74.6892 61.4595C74.6892 63.8737 75.7601 69.4578 80.0434 72.4808" stroke="#F78E1E" stroke-width="2.23218"/>
<path d="M85.0151 1C88.5846 5.7234 96.1059 16.0519 97.6356 19.5787C99.5478 23.9872 98.963 31.0999 98.4005 32.4893C97.7886 34.0008 97.6356 35.6383 94.5761 38.7872C88.7928 44.7396 83.4854 51.257 83.4854 52.0127" stroke="#4CD080" stroke-width="2.23218"/>
<path d="M190.569 1C189.422 3.51915 185.598 8.87234 178.331 12.3362C172.518 15.1072 158.827 13.2808 151.943 13.9106C145.059 14.5404 140.852 20.8383 139.705 22.7276C137.824 25.825 137.146 27.7915 136.645 31.2298C135.498 39.1021 135.267 53.115 137.028 58.6255C138.94 64.6085 138.94 75 138.94 75" stroke="#54B948" stroke-width="2.23218"/>
<path d="M157.296 1C157.296 2.67943 159.361 6.85702 166.092 8.87234C173.741 9.81702 181.007 10.4468 182.155 10.4468C183.302 10.4468 187.126 11.0766 187.126 11.0766" stroke="#F78E1F" stroke-width="2.23218"/>
<path d="M276.999 1.31641C269.988 9.50364 264.761 16.1164 252.906 27.7675C250.831 29.8067 248.316 30.6015 246.022 31.5462C241.601 33.3663 232.254 33.1206 227.665 33.7504C223.075 34.3802 221.454 36.2348 220.781 37.5292C219.633 39.7334 219.633 41.6228 220.016 43.5121C220.205 44.444 220.832 45.9683 221.546 46.976C224.223 50.7547 229.577 55.793 229.577 55.793" stroke="#26BCD7" stroke-width="1.48812"/>
<path d="M226.901 57.6816C226.901 57.6816 227.329 60.352 226.136 60.5157C223.841 60.8306 220.017 61.4604 220.017 63.3497" stroke="#26BCD7" stroke-width="1.48812"/>
<path d="M231.639 36.898L238.523 40.1705L231.639 43.4429L231.639 36.898Z" fill="#F78E1E"/>
<path d="M62.6014 36.8977L69.4853 40.1702L62.6014 43.4427L62.6014 36.8977Z" fill="#F78E1E"/>
<path d="M194.468 32.8034L197.91 34.4396L194.468 36.0758L194.468 32.8034Z" fill="#FF3F3F"/>
<path d="M229.959 21.7821L235.313 21.1523V24.3013L229.959 24.9311V21.7821Z" fill="#FF3F3F"/>
<path d="M178.713 19.1576L183.302 18.6328V21.2569L178.713 21.7817V19.1576Z" fill="#26BCD6"/>
<path d="M125.172 8.45256L128.996 7.92773V10.5518L125.172 11.0767V8.45256Z" fill="#C4C4C4"/>
<path d="M19.6182 43.0912L24.2074 42.5664V45.1905L19.6182 45.7153V43.0912Z" fill="#FF3F3F"/>
<ellipse cx="219.634" cy="14.5404" rx="1.14732" ry="0.94468" fill="#26BCD7"/>
<ellipse cx="214.279" cy="47.2893" rx="1.9122" ry="1.57447" fill="#54B948"/>
<rect x="109.873" y="3.51953" width="3.05952" height="2.51915" fill="#26BCD6"/>
<ellipse cx="76.2192" cy="8.5584" rx="1.52976" ry="1.25957" fill="#26BCD7"/>
<path d="M59.3915 24.9316C59.1365 25.8763 59.0091 28.1855 60.9213 28.7104C62.0686 29.0253 67.0403 29.3401 67.8052 32.1742" stroke="#FFD2A6" stroke-width="0.744061"/>
<path d="M156.149 19.5781C156.149 19.5781 156.149 22.0973 154.619 22.4122C153.089 22.7271 151.749 22.4793 150.412 23.042C149.284 23.517 148.5 24.3015 148.5 24.9313" stroke="#FFD2A6" stroke-width="0.744061"/>
</svg>
