<svg width="155" height="155" viewBox="0 0 155 155" fill="none" xmlns="http://www.w3.org/2000/svg">
<path d="M112.87 41.4094L114.318 57.5309C118.384 55.9909 122.647 56.7056 125.296 59.975C126.569 62.3172 127.12 64.681 125.837 67.0992L102.322 107.726C100.736 109.746 98.7637 110.849 96.3239 110.845C96.3009 110.844 96.278 110.842 96.2564 110.841C93.4679 110.641 90.9664 109.05 89.5656 106.63L61.9842 58.9876C60.5132 56.4473 59.553 53.6343 59.2574 50.7137C58.6718 44.9314 60.4658 39.525 65.2636 34.5937C68.8918 31.5009 72.5386 29.4687 76.2213 29.1587L79.7504 28.7037V12.8966C62.874 13.6185 50.9232 21.713 45.0175 38.8591C42.8044 45.1653 42.5791 51.4902 44.5611 57.8337C47.6137 67.4552 53.6113 75.4721 58.3589 84.2024C61.9168 90.7454 65.9166 97.1075 69.4744 103.651L76.9431 116.04C78.2937 118.279 80.1063 120.197 82.2275 121.725C82.2361 121.731 82.2447 121.738 82.2548 121.744C86.1255 124.949 90.9204 126.237 96.1761 126.568C104.281 126.116 109.942 123.059 114.397 117.58C114.62 117.308 114.855 116.909 115.176 116.491C115.237 116.414 115.331 116.286 115.386 116.204C116.596 114.399 117.847 112.165 117.847 112.165C117.847 112.165 127.134 96.2149 137.263 78.4702C138.327 76.7451 141.971 70.8594 142.086 64.0351C142.167 59.2201 140.681 54.837 137.877 50.8142C134.781 46.6479 130.999 43.8823 126.562 42.4571C125.263 42.0065 123.918 41.7108 122.542 41.5257C121.115 41.3334 119.671 41.2917 118.233 41.342C117.214 41.3779 118.233 41.342 112.869 41.4109L112.87 41.4094Z" fill="url(#paint0_linear_131_6439)"/>
<path d="M46.6837 41.4094L45.2356 57.5309C41.1697 55.9909 36.9072 56.7056 34.2579 59.975C32.9849 62.3172 32.4337 64.681 33.7168 67.0992L57.2323 107.726C58.8182 109.746 60.7901 110.849 63.23 110.845C63.2529 110.844 63.2759 110.842 63.2974 110.841C66.086 110.641 68.5875 109.05 69.9882 106.63L97.5696 58.9876C99.0407 56.4473 100.001 53.6343 100.296 50.7137C100.882 44.9314 99.0881 39.525 94.2902 34.5937C90.6621 31.5009 87.0153 29.4687 83.3326 29.1587L79.8035 28.7037V12.8966C96.6798 13.6185 108.631 21.713 114.536 38.8591C116.749 45.1653 116.975 51.4902 114.993 57.8337C111.94 67.4552 105.942 75.4721 101.195 84.2024C97.6371 90.7454 93.6372 97.1075 90.0794 103.651L82.6107 116.04C81.2602 118.279 79.4475 120.197 77.3263 121.725C77.3177 121.731 77.3091 121.738 77.2991 121.744C73.4284 124.949 68.6334 126.237 63.3778 126.568C55.2733 126.116 49.6115 123.059 45.1567 117.58C44.9342 117.308 44.6988 116.909 44.3774 116.491C44.3171 116.414 44.2224 116.286 44.1678 116.204C42.958 114.399 41.7065 112.165 41.7065 112.165C41.7065 112.165 32.4194 96.2149 22.2913 78.4702C21.2264 76.7451 17.5825 70.8594 17.4676 64.0351C17.3873 59.2201 18.8727 54.837 21.677 50.8142C24.7727 46.6479 28.5544 43.8823 32.992 42.4571C34.2909 42.0065 35.6356 41.7108 37.012 41.5257C38.4386 41.3334 39.8824 41.2917 41.3204 41.342C42.3394 41.3779 41.3204 41.342 46.6851 41.4109L46.6837 41.4094Z" fill="url(#paint1_linear_131_6439)"/>
<g opacity="0.5" filter="url(#filter0_d_131_6439)">
<path d="M88.6901 103.85C88.3916 103.343 88.0658 102.86 87.7185 102.389C85.9446 100.212 83.944 98.2456 82.2404 96.0024C80.9631 94.3204 80.4364 91.8346 79.9183 89.7866L70.9398 105.608C71.3273 106.054 71.4923 106.577 71.6559 107.184C71.6631 107.21 71.6674 107.234 71.6731 107.26C72.2773 107.833 72.9461 108.339 73.4944 108.974C74.0886 109.66 74.6555 110.387 75.152 111.151C75.396 111.525 75.6084 111.919 75.851 112.293C76.8986 113.476 78.087 114.486 79.0098 115.809C79.7389 116.854 79.7719 118.446 79.9168 119.682C80.8368 118.696 81.896 117.213 82.5892 116.04L88.8954 105.608C88.6528 105.37 88.8624 104.146 88.6887 103.85H88.6901Z" fill="url(#paint2_linear_131_6439)"/>
</g>
<g opacity="0.5" filter="url(#filter1_d_131_6439)">
<path d="M114.772 57.1906C114.852 57.1476 114.934 57.106 115.017 57.0672C116.704 51.1643 116.544 45.2786 114.709 39.4087C113.596 39.845 112.474 40.2009 111.287 40.4765C109.421 40.9099 107.584 41.5055 105.727 41.9863C105.334 42.1987 104.931 42.3939 104.525 42.5761C103.379 43.0942 102.169 43.6956 100.937 43.997C100.726 44.0486 100.51 44.0974 100.294 44.1419C101.13 47.8763 100.795 51.803 99.4813 55.8889C99.8502 55.8559 100.218 55.8344 100.584 55.833C101.689 55.8272 102.787 55.965 103.889 56.0324C105.238 56.1142 106.594 56.0052 107.945 56.0267C110.021 56.0597 112.158 56.3381 114.15 56.961C114.361 57.027 114.568 57.106 114.772 57.1921V57.1906Z" fill="url(#paint3_linear_131_6439)"/>
</g>
<path d="M46.6837 41.4094L45.2356 57.5309C41.1697 55.9909 36.9072 56.7056 34.2579 59.975C32.9849 62.3172 32.4337 64.681 33.7168 67.0992L57.2323 107.726C58.8182 109.746 60.7901 110.849 63.23 110.845C63.2529 110.844 63.2759 110.842 63.2974 110.841C66.086 110.641 68.5875 109.05 69.9882 106.63L97.5696 58.9876C99.0407 56.4473 100.001 53.6343 100.296 50.7137C100.882 44.9314 99.0881 39.525 94.2902 34.5937C90.6621 31.5009 87.0153 29.4687 83.3326 29.1587L79.8035 28.7037V12.8966C96.6798 13.6185 108.631 21.713 114.536 38.8591C116.749 45.1653 116.975 51.4902 114.993 57.8337C111.94 67.4552 105.942 75.4721 101.195 84.2024C97.6371 90.7454 93.6372 97.1075 90.0794 103.651L82.6107 116.04C81.2602 118.279 79.4475 120.197 77.3263 121.725C77.3177 121.731 77.3091 121.738 77.2991 121.744C73.4284 124.949 68.6334 126.237 63.3778 126.568C55.2733 126.116 49.6115 123.059 45.1567 117.58C44.9342 117.308 44.6988 116.909 44.3774 116.491C44.3171 116.414 44.2224 116.286 44.1678 116.204C42.958 114.399 41.7065 112.165 41.7065 112.165C41.7065 112.165 32.4194 96.2149 22.2913 78.4702C21.2264 76.7451 17.5825 70.8594 17.4676 64.0351C17.3873 59.2201 18.8727 54.837 21.677 50.8142C24.7727 46.6479 28.5544 43.8823 32.992 42.4571C34.2909 42.0065 35.6356 41.7108 37.012 41.5257C38.4386 41.3334 39.8824 41.2917 41.3204 41.342C42.3394 41.3779 41.3204 41.342 46.6851 41.4109L46.6837 41.4094Z" fill="url(#paint4_linear_131_6439)"/>
<g filter="url(#filter2_d_131_6439)">
<path d="M49.4034 40.7665C49.3403 40.7535 49.2785 40.7334 49.2154 40.7134L49.2125 40.7191C49.1924 40.709 49.1738 40.7004 49.1551 40.6933C49.0403 40.6631 48.9255 40.6344 48.8107 40.6057C48.8279 40.6272 48.9886 40.6846 49.4034 40.7665Z" fill="url(#paint5_linear_131_6439)"/>
</g>
<g opacity="0.5" filter="url(#filter3_d_131_6439)">
<path d="M59.2445 44.1334C59.0278 44.0889 58.8125 44.0401 58.6015 43.9885C57.3673 43.6871 56.1588 43.0857 55.0135 42.5676C54.6088 42.3839 54.2055 42.1902 53.8109 41.9778C52.8766 41.7352 51.9466 41.4654 51.0166 41.1999C50.7482 41.1927 50.4769 41.1611 50.2057 41.1052C49.3259 40.9215 48.4605 40.6732 47.6109 40.3775C47.298 40.3589 46.9851 40.3517 46.6708 40.3488C45.9547 40.3445 45.293 40.1694 44.7147 39.8623C44.7046 39.8709 44.6931 39.8781 44.6831 39.8853C42.968 45.6619 42.8791 51.4529 44.5783 57.2596C44.8424 57.1405 45.1136 57.0357 45.3878 56.9496C47.3798 56.3282 49.5168 56.0483 51.5935 56.0153C52.944 55.9938 54.3003 56.1029 55.6493 56.0211C56.7516 55.9536 57.8495 55.8158 58.9546 55.8216C59.3205 55.823 59.6894 55.8445 60.0568 55.8775C58.7436 51.7916 58.4063 47.8649 59.2445 44.1305V44.1334Z" fill="url(#paint6_linear_131_6439)"/>
</g>
<path d="M93.1421 15.3722C89.2556 13.8595 84.0301 13.0401 79.8766 12.9482C78.1257 12.9095 76.5642 13.1176 75.3745 13.2682C73.5173 13.5022 70.8766 13.95 67.9129 14.8986C65.6367 15.6263 63.1682 16.651 60.7184 18.1005C60.6121 18.1651 60.5045 18.2297 60.3969 18.2943C60.2691 18.3732 60.1414 18.4521 60.0137 18.5325C57.9197 19.8572 55.9851 21.4215 54.2184 23.2342C50.3305 27.2139 47.2434 32.3935 45.0174 38.859C42.8044 45.1652 42.5776 51.4887 44.561 57.8336C45.7321 61.5249 47.3367 64.9794 49.1378 68.3291C50.9103 67.2183 52.7301 66.1778 54.5844 65.1617C57.3615 63.6404 60.1486 62.1234 62.7807 60.3667L60.6107 56.6195C57.8078 48.5896 58.8641 41.1697 65.2621 34.5951C66.8409 33.2489 68.4224 32.0778 70.0097 31.1593C70.0241 31.1751 70.037 31.1908 70.0499 31.2066C72.2472 30.0499 74.7042 29.2548 77.3364 29.0065C82.3853 28.4525 86.3479 29.2519 89.9961 31.3702C94.8758 28.4023 99.8889 25.6309 104.69 22.5381C101.125 19.1841 97.7949 17.1834 93.1406 15.3722H93.1421Z" fill="url(#paint7_linear_131_6439)"/>
<path d="M112.87 41.4094L114.318 57.5309C118.384 55.9909 122.647 56.7056 125.296 59.975C126.569 62.3172 127.12 64.681 125.837 67.0992L102.322 107.726C100.736 109.746 98.7637 110.849 96.3239 110.845C96.3009 110.844 96.278 110.842 96.2564 110.841C93.4679 110.641 90.9664 109.05 89.5656 106.63L61.9842 58.9876C60.5132 56.4473 59.553 53.6343 59.2574 50.7137C58.6718 44.9314 60.4658 39.525 65.2636 34.5937C68.8918 31.5009 72.5386 29.4687 76.2213 29.1587L79.7504 28.7037V12.8966C62.874 13.6185 50.9232 21.713 45.0175 38.8591C42.8044 45.1653 42.5791 51.4902 44.5611 57.8337C47.6137 67.4552 53.6113 75.4721 58.3589 84.2024C61.9168 90.7454 65.9166 97.1075 69.4744 103.651L76.9431 116.04C78.2937 118.279 80.1063 120.197 82.2275 121.725C82.2361 121.731 82.2447 121.738 82.2548 121.744C86.1255 124.949 90.9204 126.237 96.1761 126.568C104.281 126.116 109.942 123.059 114.397 117.58C114.62 117.308 114.855 116.909 115.176 116.491C115.237 116.414 115.331 116.286 115.386 116.204C116.596 114.399 117.847 112.165 117.847 112.165C117.847 112.165 127.134 96.2149 137.263 78.4702C138.327 76.7451 141.971 70.8594 142.086 64.0351C142.167 59.2201 140.681 54.837 137.877 50.8142C134.781 46.6479 130.999 43.8823 126.562 42.4571C125.263 42.0065 123.918 41.7108 122.542 41.5257C121.115 41.3334 119.671 41.2917 118.233 41.342C117.214 41.3779 118.233 41.342 112.869 41.4109L112.87 41.4094Z" fill="url(#paint8_linear_131_6439)"/>
<path d="M46.6837 41.4094L45.2356 57.5309C41.1697 55.9909 36.9072 56.7056 34.2579 59.975C32.9849 62.3172 32.4337 64.681 33.7168 67.0992L57.2323 107.726C58.8182 109.746 60.7901 110.849 63.23 110.845C63.2529 110.844 63.2759 110.842 63.2974 110.841C66.086 110.641 68.5875 109.05 69.9882 106.63L97.5696 58.9876C99.0407 56.4473 100.001 53.6343 100.296 50.7137C100.882 44.9314 99.0881 39.525 94.2902 34.5937C90.6621 31.5009 87.0153 29.4687 83.3326 29.1587L79.8035 28.7037V12.8966C96.6798 13.6185 108.631 21.713 114.536 38.8591C116.749 45.1653 116.975 51.4902 114.993 57.8337C111.94 67.4552 105.942 75.4721 101.195 84.2024C97.6371 90.7454 93.6372 97.1075 90.0794 103.651L82.6107 116.04C81.2602 118.279 79.4475 120.197 77.3263 121.725C77.3177 121.731 77.3091 121.738 77.2991 121.744C73.4284 124.949 68.6334 126.237 63.3778 126.568C55.2733 126.116 49.6115 123.059 45.1567 117.58C44.9342 117.308 44.6988 116.909 44.3774 116.491C44.3171 116.414 44.2224 116.286 44.1678 116.204C42.958 114.399 41.7065 112.165 41.7065 112.165C41.7065 112.165 32.4194 96.2149 22.2913 78.4702C21.2264 76.7451 17.5825 70.8594 17.4676 64.0351C17.3873 59.2201 18.8727 54.837 21.677 50.8142C24.7727 46.6479 28.5544 43.8823 32.992 42.4571C34.2909 42.0065 35.6356 41.7108 37.012 41.5257C38.4386 41.3334 39.8824 41.2917 41.3204 41.342C42.3394 41.3779 41.3204 41.342 46.6851 41.4109L46.6837 41.4094Z" fill="url(#paint9_linear_131_6439)"/>
<g opacity="0.5" filter="url(#filter4_d_131_6439)">
<path d="M88.6901 103.85C88.3916 103.343 88.0658 102.86 87.7185 102.389C85.9446 100.212 83.944 98.2456 82.2404 96.0024C80.9631 94.3204 80.4364 91.8346 79.9183 89.7866L70.9398 105.608C71.3273 106.054 71.4923 106.577 71.6559 107.184C71.6631 107.21 71.6674 107.234 71.6731 107.26C72.2773 107.833 72.9461 108.339 73.4944 108.974C74.0886 109.66 74.6555 110.387 75.152 111.151C75.396 111.525 75.6084 111.919 75.851 112.293C76.8986 113.476 78.087 114.486 79.0098 115.809C79.7389 116.854 79.7719 118.446 79.9168 119.682C80.8368 118.696 81.896 117.213 82.5892 116.04L88.8954 105.608C88.6528 105.37 88.8624 104.146 88.6887 103.85H88.6901Z" fill="url(#paint10_linear_131_6439)"/>
</g>
<g opacity="0.5" filter="url(#filter5_d_131_6439)">
<path d="M114.772 57.1906C114.852 57.1476 114.934 57.106 115.017 57.0672C116.704 51.1643 116.544 45.2786 114.709 39.4087C113.596 39.845 112.474 40.2009 111.287 40.4765C109.421 40.9099 107.584 41.5055 105.727 41.9863C105.334 42.1987 104.931 42.3939 104.525 42.5761C103.379 43.0942 102.169 43.6956 100.937 43.997C100.726 44.0486 100.51 44.0974 100.294 44.1419C101.13 47.8763 100.795 51.803 99.4813 55.8889C99.8502 55.8559 100.218 55.8344 100.584 55.833C101.689 55.8272 102.787 55.965 103.889 56.0324C105.238 56.1142 106.594 56.0052 107.945 56.0267C110.021 56.0597 112.158 56.3381 114.15 56.961C114.361 57.027 114.568 57.106 114.772 57.1921V57.1906Z" fill="url(#paint11_linear_131_6439)"/>
</g>
<path d="M46.6837 41.4094L45.2356 57.5309C41.1697 55.9909 36.9072 56.7056 34.2579 59.975C32.9849 62.3172 32.4337 64.681 33.7168 67.0992L57.2323 107.726C58.8182 109.746 60.7901 110.849 63.23 110.845C63.2529 110.844 63.2759 110.842 63.2974 110.841C66.086 110.641 68.5875 109.05 69.9882 106.63L97.5696 58.9876C99.0407 56.4473 100.001 53.6343 100.296 50.7137C100.882 44.9314 99.0881 39.525 94.2902 34.5937C90.6621 31.5009 87.0153 29.4687 83.3326 29.1587L79.8035 28.7037V12.8966C96.6798 13.6185 108.631 21.713 114.536 38.8591C116.749 45.1653 116.975 51.4902 114.993 57.8337C111.94 67.4552 105.942 75.4721 101.195 84.2024C97.6371 90.7454 93.6372 97.1075 90.0794 103.651L82.6107 116.04C81.2602 118.279 79.4475 120.197 77.3263 121.725C77.3177 121.731 77.3091 121.738 77.2991 121.744C73.4284 124.949 68.6334 126.237 63.3778 126.568C55.2733 126.116 49.6115 123.059 45.1567 117.58C44.9342 117.308 44.6988 116.909 44.3774 116.491C44.3171 116.414 44.2224 116.286 44.1678 116.204C42.958 114.399 41.7065 112.165 41.7065 112.165C41.7065 112.165 32.4194 96.2149 22.2913 78.4702C21.2264 76.7451 17.5825 70.8594 17.4676 64.0351C17.3873 59.2201 18.8727 54.837 21.677 50.8142C24.7727 46.6479 28.5544 43.8823 32.992 42.4571C34.2909 42.0065 35.6356 41.7108 37.012 41.5257C38.4386 41.3334 39.8824 41.2917 41.3204 41.342C42.3394 41.3779 41.3204 41.342 46.6851 41.4109L46.6837 41.4094Z" fill="url(#paint12_linear_131_6439)"/>
<g filter="url(#filter6_d_131_6439)">
<path d="M49.4034 40.7665C49.3403 40.7535 49.2785 40.7334 49.2154 40.7134L49.2125 40.7191C49.1924 40.709 49.1738 40.7004 49.1551 40.6933C49.0403 40.6631 48.9255 40.6344 48.8107 40.6057C48.8279 40.6272 48.9886 40.6846 49.4034 40.7665Z" fill="url(#paint13_linear_131_6439)"/>
</g>
<g opacity="0.5" filter="url(#filter7_d_131_6439)">
<path d="M59.2445 44.1334C59.0278 44.0889 58.8125 44.0401 58.6015 43.9885C57.3673 43.6871 56.1588 43.0857 55.0135 42.5676C54.6088 42.3839 54.2055 42.1902 53.8109 41.9778C52.8766 41.7352 51.9466 41.4654 51.0166 41.1999C50.7482 41.1927 50.4769 41.1611 50.2057 41.1052C49.3259 40.9215 48.4605 40.6732 47.6109 40.3775C47.298 40.3589 46.9851 40.3517 46.6708 40.3488C45.9547 40.3445 45.293 40.1694 44.7147 39.8623C44.7046 39.8709 44.6931 39.8781 44.6831 39.8853C42.968 45.6619 42.8791 51.4529 44.5783 57.2596C44.8424 57.1405 45.1136 57.0357 45.3878 56.9496C47.3798 56.3282 49.5168 56.0483 51.5935 56.0153C52.944 55.9938 54.3003 56.1029 55.6493 56.0211C56.7516 55.9536 57.8495 55.8158 58.9546 55.8216C59.3205 55.823 59.6894 55.8445 60.0568 55.8775C58.7436 51.7916 58.4063 47.8649 59.2445 44.1305V44.1334Z" fill="url(#paint14_linear_131_6439)"/>
</g>
<path d="M93.1421 15.3722C89.2556 13.8595 84.0301 13.0401 79.8766 12.9482C78.1257 12.9095 76.5642 13.1176 75.3745 13.2682C73.5173 13.5022 70.8766 13.95 67.9129 14.8986C65.6367 15.6263 63.1682 16.651 60.7184 18.1005C60.6121 18.1651 60.5045 18.2297 60.3969 18.2943C60.2691 18.3732 60.1414 18.4521 60.0137 18.5325C57.9197 19.8572 55.9851 21.4215 54.2184 23.2342C50.3305 27.2139 47.2434 32.3935 45.0174 38.859C42.8044 45.1652 42.5776 51.4887 44.561 57.8336C45.7321 61.5249 47.3367 64.9794 49.1378 68.3291C50.9103 67.2183 52.7301 66.1778 54.5844 65.1617C57.3615 63.6404 60.1486 62.1234 62.7807 60.3667L60.6107 56.6195C57.8078 48.5896 58.8641 41.1697 65.2621 34.5951C66.8409 33.2489 68.4224 32.0778 70.0097 31.1593C70.0241 31.1751 70.037 31.1908 70.0499 31.2066C72.2472 30.0499 74.7042 29.2548 77.3364 29.0065C82.3853 28.4525 86.3479 29.2519 89.9961 31.3702C94.8758 28.4023 99.8889 25.6309 104.69 22.5381C101.125 19.1841 97.7949 17.1834 93.1406 15.3722H93.1421Z" fill="url(#paint15_linear_131_6439)"/>
<defs>
<filter id="filter0_d_131_6439" x="42.2298" y="70.9766" width="69.4356" height="81.3749" filterUnits="userSpaceOnUse" color-interpolation-filters="sRGB">
<feFlood flood-opacity="0" result="BackgroundImageFix"/>
<feColorMatrix in="SourceAlpha" type="matrix" values="0 0 0 0 0 0 0 0 0 0 0 0 0 0 0 0 0 0 127 0" result="hardAlpha"/>
<feOffset dx="-2.97" dy="6.93"/>
<feGaussianBlur stdDeviation="12.87"/>
<feColorMatrix type="matrix" values="0 0 0 0 0.137255 0 0 0 0 0.121569 0 0 0 0 0.12549 0 0 0 0.75 0"/>
<feBlend mode="normal" in2="BackgroundImageFix" result="effect1_dropShadow_131_6439"/>
<feBlend mode="normal" in="SourceGraphic" in2="effect1_dropShadow_131_6439" result="shape"/>
</filter>
<filter id="filter1_d_131_6439" x="76.4813" y="19.4087" width="68.7081" height="69.7833" filterUnits="userSpaceOnUse" color-interpolation-filters="sRGB">
<feFlood flood-opacity="0" result="BackgroundImageFix"/>
<feColorMatrix in="SourceAlpha" type="matrix" values="0 0 0 0 0 0 0 0 0 0 0 0 0 0 0 0 0 0 127 0" result="hardAlpha"/>
<feOffset dx="3" dy="6"/>
<feGaussianBlur stdDeviation="13"/>
<feColorMatrix type="matrix" values="0 0 0 0 0.137255 0 0 0 0 0.121569 0 0 0 0 0.12549 0 0 0 0.75 0"/>
<feBlend mode="normal" in2="BackgroundImageFix" result="effect1_dropShadow_131_6439"/>
<feBlend mode="normal" in="SourceGraphic" in2="effect1_dropShadow_131_6439" result="shape"/>
</filter>
<filter id="filter2_d_131_6439" x="29.0307" y="28.8257" width="28.1527" height="27.7208" filterUnits="userSpaceOnUse" color-interpolation-filters="sRGB">
<feFlood flood-opacity="0" result="BackgroundImageFix"/>
<feColorMatrix in="SourceAlpha" type="matrix" values="0 0 0 0 0 0 0 0 0 0 0 0 0 0 0 0 0 0 127 0" result="hardAlpha"/>
<feOffset dx="-6" dy="2"/>
<feGaussianBlur stdDeviation="6.89"/>
<feColorMatrix type="matrix" values="0 0 0 0 0.137255 0 0 0 0 0.121569 0 0 0 0 0.12549 0 0 0 0.75 0"/>
<feBlend mode="normal" in2="BackgroundImageFix" result="effect1_dropShadow_131_6439"/>
<feBlend mode="normal" in="SourceGraphic" in2="effect1_dropShadow_131_6439" result="shape"/>
</filter>
<filter id="filter3_d_131_6439" x="11.3493" y="15.8623" width="68.7075" height="69.3973" filterUnits="userSpaceOnUse" color-interpolation-filters="sRGB">
<feFlood flood-opacity="0" result="BackgroundImageFix"/>
<feColorMatrix in="SourceAlpha" type="matrix" values="0 0 0 0 0 0 0 0 0 0 0 0 0 0 0 0 0 0 127 0" result="hardAlpha"/>
<feOffset dx="-6" dy="2"/>
<feGaussianBlur stdDeviation="13"/>
<feColorMatrix type="matrix" values="0 0 0 0 0.137255 0 0 0 0 0.121569 0 0 0 0 0.12549 0 0 0 0.75 0"/>
<feBlend mode="normal" in2="BackgroundImageFix" result="effect1_dropShadow_131_6439"/>
<feBlend mode="normal" in="SourceGraphic" in2="effect1_dropShadow_131_6439" result="shape"/>
</filter>
<filter id="filter4_d_131_6439" x="42.2298" y="70.9766" width="69.4356" height="81.3749" filterUnits="userSpaceOnUse" color-interpolation-filters="sRGB">
<feFlood flood-opacity="0" result="BackgroundImageFix"/>
<feColorMatrix in="SourceAlpha" type="matrix" values="0 0 0 0 0 0 0 0 0 0 0 0 0 0 0 0 0 0 127 0" result="hardAlpha"/>
<feOffset dx="-2.97" dy="6.93"/>
<feGaussianBlur stdDeviation="12.87"/>
<feColorMatrix type="matrix" values="0 0 0 0 0.137255 0 0 0 0 0.121569 0 0 0 0 0.12549 0 0 0 0.75 0"/>
<feBlend mode="normal" in2="BackgroundImageFix" result="effect1_dropShadow_131_6439"/>
<feBlend mode="normal" in="SourceGraphic" in2="effect1_dropShadow_131_6439" result="shape"/>
</filter>
<filter id="filter5_d_131_6439" x="76.4813" y="19.4087" width="68.7081" height="69.7833" filterUnits="userSpaceOnUse" color-interpolation-filters="sRGB">
<feFlood flood-opacity="0" result="BackgroundImageFix"/>
<feColorMatrix in="SourceAlpha" type="matrix" values="0 0 0 0 0 0 0 0 0 0 0 0 0 0 0 0 0 0 127 0" result="hardAlpha"/>
<feOffset dx="3" dy="6"/>
<feGaussianBlur stdDeviation="13"/>
<feColorMatrix type="matrix" values="0 0 0 0 0.137255 0 0 0 0 0.121569 0 0 0 0 0.12549 0 0 0 0.75 0"/>
<feBlend mode="normal" in2="BackgroundImageFix" result="effect1_dropShadow_131_6439"/>
<feBlend mode="normal" in="SourceGraphic" in2="effect1_dropShadow_131_6439" result="shape"/>
</filter>
<filter id="filter6_d_131_6439" x="29.0307" y="28.8257" width="28.1527" height="27.7208" filterUnits="userSpaceOnUse" color-interpolation-filters="sRGB">
<feFlood flood-opacity="0" result="BackgroundImageFix"/>
<feColorMatrix in="SourceAlpha" type="matrix" values="0 0 0 0 0 0 0 0 0 0 0 0 0 0 0 0 0 0 127 0" result="hardAlpha"/>
<feOffset dx="-6" dy="2"/>
<feGaussianBlur stdDeviation="6.89"/>
<feColorMatrix type="matrix" values="0 0 0 0 0.137255 0 0 0 0 0.121569 0 0 0 0 0.12549 0 0 0 0.75 0"/>
<feBlend mode="normal" in2="BackgroundImageFix" result="effect1_dropShadow_131_6439"/>
<feBlend mode="normal" in="SourceGraphic" in2="effect1_dropShadow_131_6439" result="shape"/>
</filter>
<filter id="filter7_d_131_6439" x="11.3493" y="15.8623" width="68.7075" height="69.3973" filterUnits="userSpaceOnUse" color-interpolation-filters="sRGB">
<feFlood flood-opacity="0" result="BackgroundImageFix"/>
<feColorMatrix in="SourceAlpha" type="matrix" values="0 0 0 0 0 0 0 0 0 0 0 0 0 0 0 0 0 0 127 0" result="hardAlpha"/>
<feOffset dx="-6" dy="2"/>
<feGaussianBlur stdDeviation="13"/>
<feColorMatrix type="matrix" values="0 0 0 0 0.137255 0 0 0 0 0.121569 0 0 0 0 0.12549 0 0 0 0.75 0"/>
<feBlend mode="normal" in2="BackgroundImageFix" result="effect1_dropShadow_131_6439"/>
<feBlend mode="normal" in="SourceGraphic" in2="effect1_dropShadow_131_6439" result="shape"/>
</filter>
<linearGradient id="paint0_linear_131_6439" x1="92.6475" y1="12.8966" x2="92.6475" y2="126.568" gradientUnits="userSpaceOnUse">
<stop stop-color="#E5202F"/>
<stop offset="1" stop-color="#9B1929"/>
</linearGradient>
<linearGradient id="paint1_linear_131_6439" x1="66.9063" y1="12.8966" x2="66.9063" y2="126.568" gradientUnits="userSpaceOnUse">
<stop stop-color="#E5202F"/>
<stop offset="1" stop-color="#9B1929"/>
</linearGradient>
<linearGradient id="paint2_linear_131_6439" x1="79.9176" y1="89.7866" x2="79.9176" y2="119.682" gradientUnits="userSpaceOnUse">
<stop stop-color="#E5202F"/>
<stop offset="1" stop-color="#9B1929"/>
</linearGradient>
<linearGradient id="paint3_linear_131_6439" x1="107.835" y1="39.4087" x2="107.835" y2="57.1921" gradientUnits="userSpaceOnUse">
<stop stop-color="#E5202F"/>
<stop offset="1" stop-color="#9B1929"/>
</linearGradient>
<linearGradient id="paint4_linear_131_6439" x1="66.9063" y1="12.8966" x2="66.9063" y2="126.568" gradientUnits="userSpaceOnUse">
<stop stop-color="#E5202F"/>
<stop offset="1" stop-color="#9B1929"/>
</linearGradient>
<linearGradient id="paint5_linear_131_6439" x1="49.107" y1="40.6057" x2="49.107" y2="40.7665" gradientUnits="userSpaceOnUse">
<stop stop-color="#E5202F"/>
<stop offset="1" stop-color="#9B1929"/>
</linearGradient>
<linearGradient id="paint6_linear_131_6439" x1="51.703" y1="39.8623" x2="51.703" y2="57.2596" gradientUnits="userSpaceOnUse">
<stop stop-color="#E5202F"/>
<stop offset="1" stop-color="#9B1929"/>
</linearGradient>
<linearGradient id="paint7_linear_131_6439" x1="73.9473" y1="12.9435" x2="73.9473" y2="68.3291" gradientUnits="userSpaceOnUse">
<stop stop-color="#E5202F"/>
<stop offset="1" stop-color="#9B1929"/>
</linearGradient>
<linearGradient id="paint8_linear_131_6439" x1="92.6475" y1="12.8966" x2="92.6475" y2="126.568" gradientUnits="userSpaceOnUse">
<stop stop-color="#E5202F"/>
<stop offset="1" stop-color="#9B1929"/>
</linearGradient>
<linearGradient id="paint9_linear_131_6439" x1="66.9063" y1="12.8966" x2="66.9063" y2="126.568" gradientUnits="userSpaceOnUse">
<stop stop-color="#E5202F"/>
<stop offset="1" stop-color="#9B1929"/>
</linearGradient>
<linearGradient id="paint10_linear_131_6439" x1="79.9176" y1="89.7866" x2="79.9176" y2="119.682" gradientUnits="userSpaceOnUse">
<stop stop-color="#E5202F"/>
<stop offset="1" stop-color="#9B1929"/>
</linearGradient>
<linearGradient id="paint11_linear_131_6439" x1="107.835" y1="39.4087" x2="107.835" y2="57.1921" gradientUnits="userSpaceOnUse">
<stop stop-color="#E5202F"/>
<stop offset="1" stop-color="#9B1929"/>
</linearGradient>
<linearGradient id="paint12_linear_131_6439" x1="66.9063" y1="12.8966" x2="66.9063" y2="126.568" gradientUnits="userSpaceOnUse">
<stop stop-color="#E5202F"/>
<stop offset="1" stop-color="#9B1929"/>
</linearGradient>
<linearGradient id="paint13_linear_131_6439" x1="49.107" y1="40.6057" x2="49.107" y2="40.7665" gradientUnits="userSpaceOnUse">
<stop stop-color="#E5202F"/>
<stop offset="1" stop-color="#9B1929"/>
</linearGradient>
<linearGradient id="paint14_linear_131_6439" x1="51.703" y1="39.8623" x2="51.703" y2="57.2596" gradientUnits="userSpaceOnUse">
<stop stop-color="#E5202F"/>
<stop offset="1" stop-color="#9B1929"/>
</linearGradient>
<linearGradient id="paint15_linear_131_6439" x1="94.8507" y1="-1.3496" x2="-35.4727" y2="83.4763" gradientUnits="userSpaceOnUse">
<stop stop-color="#E5202F"/>
<stop offset="1" stop-color="#9B1929"/>
</linearGradient>
</defs>
</svg>
